<svg data-name="Layer 2" xmlns="http://www.w3.org/2000/svg" xmlns:xlink="http://www.w3.org/1999/xlink" width="14.5" height="200" viewBox="0 0 14.5 200"><defs><linearGradient id="a" data-name="Red, Purple, Blue" x1="4.18" y1="105.82" x2="20.82" y2="103.18" gradientUnits="userSpaceOnUse"><stop offset="0" stop-color="#b7151b"/><stop offset=".02" stop-color="#c52229"/><stop offset=".06" stop-color="#d7333c"/><stop offset=".11" stop-color="#e23d47"/><stop offset=".15" stop-color="#e6404b"/><stop offset=".3" stop-color="#e98a7b"/><stop offset=".47" stop-color="#7c78b8"/><stop offset=".64" stop-color="#00b0b0"/><stop offset=".79" stop-color="#7b76b6"/><stop offset="1" stop-color="#e7322f"/></linearGradient><linearGradient id="b" x1="3.18" y1="105.82" x2="19.82" y2="103.18" xlink:href="#a"/><linearGradient id="c" x1="2.18" y1="105.82" x2="18.82" y2="103.18" xlink:href="#a"/><linearGradient id="d" x1="1.18" y1="105.82" x2="17.82" y2="103.18" xlink:href="#a"/><linearGradient id="e" x1=".18" y1="105.82" x2="16.82" y2="103.18" xlink:href="#a"/><linearGradient id="f" x1="-.82" y1="105.82" x2="15.82" y2="103.18" xlink:href="#a"/><linearGradient id="g" x1="-1.82" y1="105.82" x2="14.82" y2="103.18" xlink:href="#a"/><linearGradient id="h" x1="-2.82" y1="105.82" x2="13.82" y2="103.18" xlink:href="#a"/><linearGradient id="i" x1="-3.82" y1="105.82" x2="12.82" y2="103.18" xlink:href="#a"/><linearGradient id="j" x1="-4.82" y1="105.82" x2="11.82" y2="103.18" xlink:href="#a"/><linearGradient id="k" x1="-5.82" y1="105.82" x2="10.82" y2="103.18" xlink:href="#a"/></defs><title>_</title><g fill="none" stroke-miterlimit="10" stroke-width="3.6"><path stroke="url(#a)" d="M12.5 62v85"/><path stroke="url(#b)" d="M11.5 62v85"/><path stroke="url(#c)" d="M10.5 62v85"/><path stroke="url(#d)" d="M9.5 62v85"/><path stroke="url(#e)" d="M8.5 62v85"/><path stroke="url(#f)" d="M7.5 62v85"/><path stroke="url(#g)" d="M6.5 62v85"/><path stroke="url(#h)" d="M5.5 62v85"/><path stroke="url(#i)" d="M4.5 62v85"/><path stroke="url(#j)" d="M3.5 62v85"/><path stroke="url(#k)" d="M2.5 62v85"/></g></svg>