<svg data-name="Layer 2" xmlns="http://www.w3.org/2000/svg" xmlns:xlink="http://www.w3.org/1999/xlink" width="33.33" height="200" viewBox="0 0 33.33 200"><defs><linearGradient id="a" data-name="Red, Purple, Blue" x1="32.7" y1="95.92" x2="9.41" y2="95.92" gradientUnits="userSpaceOnUse"><stop offset="0" stop-color="#b7151b"/><stop offset=".02" stop-color="#c52229"/><stop offset=".06" stop-color="#d7333c"/><stop offset=".11" stop-color="#e23d47"/><stop offset=".15" stop-color="#e6404b"/><stop offset=".3" stop-color="#e98a7b"/><stop offset=".47" stop-color="#7c78b8"/><stop offset=".64" stop-color="#00b0b0"/><stop offset=".79" stop-color="#7b76b6"/><stop offset="1" stop-color="#e7322f"/></linearGradient><linearGradient id="b" x1="31.7" y1="95.92" x2="8.41" y2="95.92" xlink:href="#a"/><linearGradient id="c" x1="30.7" y1="95.92" x2="7.41" y2="95.92" xlink:href="#a"/><linearGradient id="d" x1="29.7" y1="95.92" x2="6.41" y2="95.92" xlink:href="#a"/><linearGradient id="e" x1="28.7" y1="95.92" x2="5.41" y2="95.92" xlink:href="#a"/><linearGradient id="f" x1="27.7" y1="95.92" x2="4.41" y2="95.92" xlink:href="#a"/><linearGradient id="g" x1="26.7" y1="95.92" x2="3.41" y2="95.92" xlink:href="#a"/><linearGradient id="h" x1="25.7" y1="95.92" x2="2.41" y2="95.92" xlink:href="#a"/><linearGradient id="i" x1="24.7" y1="95.92" x2="1.41" y2="95.92" xlink:href="#a"/><linearGradient id="j" x1="23.7" y1="95.92" x2=".41" y2="95.92" xlink:href="#a"/><linearGradient id="k" x1="22.7" y1="95.92" x2="-.59" y2="95.92" xlink:href="#a"/><linearGradient id="l" x1="27.47" y1="172.75" x2="11.87" y2="172.75" xlink:href="#a"/><linearGradient id="m" x1="26.47" y1="172.75" x2="10.87" y2="172.75" xlink:href="#a"/><linearGradient id="n" x1="25.47" y1="172.75" x2="9.87" y2="172.75" xlink:href="#a"/><linearGradient id="o" x1="24.47" y1="172.75" x2="8.87" y2="172.75" xlink:href="#a"/><linearGradient id="p" x1="23.47" y1="172.75" x2="7.87" y2="172.75" xlink:href="#a"/><linearGradient id="q" x1="22.47" y1="172.75" x2="6.87" y2="172.75" xlink:href="#a"/><linearGradient id="r" x1="21.47" y1="172.75" x2="5.87" y2="172.75" xlink:href="#a"/><linearGradient id="s" x1="20.47" y1="172.75" x2="4.87" y2="172.75" xlink:href="#a"/><linearGradient id="t" x1="19.47" y1="172.75" x2="3.87" y2="172.75" xlink:href="#a"/><linearGradient id="u" x1="18.47" y1="172.75" x2="2.87" y2="172.75" xlink:href="#a"/><linearGradient id="v" x1="17.47" y1="172.75" x2="1.87" y2="172.75" xlink:href="#a"/></defs><title>_</title><g fill="none" stroke-miterlimit="10" stroke-width="3.6"><path d="M20.16 171L30.83 33.53a9.85 9.85 0 0 0-9.77-11 9.85 9.85 0 0 0-9.8 10.83z" stroke="url(#a)"/><path d="M19.16 171L29.83 33.53a9.85 9.85 0 0 0-9.77-11 9.85 9.85 0 0 0-9.8 10.83z" stroke="url(#b)"/><path d="M18.16 171L28.83 33.53a9.85 9.85 0 0 0-9.77-11 9.85 9.85 0 0 0-9.8 10.83z" stroke="url(#c)"/><path d="M17.16 171L27.83 33.53a9.85 9.85 0 0 0-9.77-11 9.85 9.85 0 0 0-9.8 10.83z" stroke="url(#d)"/><path d="M16.16 171L26.83 33.53a9.85 9.85 0 0 0-9.77-11 9.85 9.85 0 0 0-9.8 10.83z" stroke="url(#e)"/><path d="M15.16 171L25.83 33.53a9.85 9.85 0 0 0-9.77-11 9.85 9.85 0 0 0-9.8 10.83z" stroke="url(#f)"/><path d="M14.16 171L24.83 33.53a9.85 9.85 0 0 0-9.77-11 9.85 9.85 0 0 0-9.8 10.83z" stroke="url(#g)"/><path d="M13.16 171L23.83 33.53a9.85 9.85 0 0 0-9.77-11 9.85 9.85 0 0 0-9.8 10.83z" stroke="url(#h)"/><path d="M12.16 171L22.83 33.53a9.85 9.85 0 0 0-9.77-11 9.85 9.85 0 0 0-9.8 10.83z" stroke="url(#i)"/><path d="M11.16 171L21.83 33.53a9.85 9.85 0 0 0-9.77-11 9.85 9.85 0 0 0-9.8 10.83z" stroke="url(#j)"/><path d="M10.16 171L20.83 33.53a9.85 9.85 0 0 0-9.77-11 9.85 9.85 0 0 0-9.8 10.83z" stroke="url(#k)"/></g><g fill="none" stroke-miterlimit="10" stroke-width="3.6"><circle cx="19.67" cy="172.75" r="6" stroke="url(#l)"/><circle cx="18.67" cy="172.75" r="6" stroke="url(#m)"/><circle cx="17.67" cy="172.75" r="6" stroke="url(#n)"/><circle cx="16.67" cy="172.75" r="6" stroke="url(#o)"/><circle cx="15.67" cy="172.75" r="6" stroke="url(#p)"/><circle cx="14.67" cy="172.75" r="6" stroke="url(#q)"/><circle cx="13.67" cy="172.75" r="6" stroke="url(#r)"/><circle cx="12.67" cy="172.75" r="6" stroke="url(#s)"/><circle cx="11.67" cy="172.75" r="6" stroke="url(#t)"/><circle cx="10.67" cy="172.75" r="6" stroke="url(#u)"/><circle cx="9.67" cy="172.75" r="6" stroke="url(#v)"/></g></svg>