<svg data-name="Layer 2" xmlns="http://www.w3.org/2000/svg" xmlns:xlink="http://www.w3.org/1999/xlink" width="47.07" height="200" viewBox="0 0 47.07 200"><defs><linearGradient id="a" data-name="Red, Purple, Blue" x1="9.95" y1="94.5" x2="25.52" y2="94.5" gradientUnits="userSpaceOnUse"><stop offset="0" stop-color="#b7151b"/><stop offset=".02" stop-color="#c52229"/><stop offset=".06" stop-color="#d7333c"/><stop offset=".11" stop-color="#e23d47"/><stop offset=".15" stop-color="#e6404b"/><stop offset=".3" stop-color="#e98a7b"/><stop offset=".47" stop-color="#7c78b8"/><stop offset=".64" stop-color="#00b0b0"/><stop offset=".79" stop-color="#7b76b6"/><stop offset="1" stop-color="#e7322f"/></linearGradient><linearGradient id="c" x1="8.95" x2="24.52" xlink:href="#a"/><linearGradient id="d" x1="7.95" x2="23.52" xlink:href="#a"/><linearGradient id="e" x1="6.95" x2="22.52" xlink:href="#a"/><linearGradient id="f" x1="5.95" x2="21.52" xlink:href="#a"/><linearGradient id="g" x1="4.95" x2="20.52" xlink:href="#a"/><linearGradient id="h" x1="3.95" x2="19.52" xlink:href="#a"/><linearGradient id="i" x1="2.95" x2="18.52" xlink:href="#a"/><linearGradient id="j" x1="1.95" x2="17.52" xlink:href="#a"/><linearGradient id="k" x1=".95" x2="16.52" xlink:href="#a"/><linearGradient id="l" x1="-.05" x2="15.52" xlink:href="#a"/><linearGradient id="m" x1="28.45" x2="44.02" xlink:href="#a"/><linearGradient id="n" x1="27.45" x2="43.02" xlink:href="#a"/><linearGradient id="o" x1="26.45" x2="42.02" xlink:href="#a"/><linearGradient id="p" x1="25.45" x2="41.02" xlink:href="#a"/><linearGradient id="q" x1="24.45" x2="40.02" xlink:href="#a"/><linearGradient id="r" x1="23.45" x2="39.02" xlink:href="#a"/><linearGradient id="s" x1="22.45" x2="38.02" xlink:href="#a"/><linearGradient id="t" x1="21.45" x2="37.02" xlink:href="#a"/><linearGradient id="u" x1="20.45" x2="36.02" xlink:href="#a"/><linearGradient id="v" x1="19.45" x2="35.02" xlink:href="#a"/><linearGradient id="w" x1="18.45" x2="34.02" xlink:href="#a"/><linearGradient id="b" data-name="Orange, Yellow" x1=".74" y1="81.25" x2="46.99" y2="81.25" gradientUnits="userSpaceOnUse"><stop offset="0" stop-color="#fff33b"/><stop offset=".04" stop-color="#fee72e"/><stop offset=".12" stop-color="#fed51b"/><stop offset=".2" stop-color="#fdca10"/><stop offset=".28" stop-color="#fdc70c"/><stop offset=".67" stop-color="#f3903f"/><stop offset=".89" stop-color="#ed683c"/><stop offset="1" stop-color="#e93e3a"/></linearGradient><linearGradient id="x" x1="-2.26" y1="106.26" x2="43.99" y2="106.26" xlink:href="#b"/></defs><title>_</title><g fill="none" stroke-miterlimit="10" stroke-width="3.6"><path stroke="url(#a)" d="M23.74 53l-12 83"/><path stroke="url(#c)" d="M22.74 53l-12 83"/><path stroke="url(#d)" d="M21.74 53l-12 83"/><path stroke="url(#e)" d="M20.74 53l-12 83"/><path stroke="url(#f)" d="M19.74 53l-12 83"/><path stroke="url(#g)" d="M18.74 53l-12 83"/><path stroke="url(#h)" d="M17.74 53l-12 83"/><path stroke="url(#i)" d="M16.74 53l-12 83"/><path stroke="url(#j)" d="M15.74 53l-12 83"/><path stroke="url(#k)" d="M14.74 53l-12 83"/><path stroke="url(#l)" d="M13.74 53l-12 83"/></g><g fill="none" stroke-miterlimit="10" stroke-width="3.6"><path stroke="url(#m)" d="M42.24 53l-12 83"/><path stroke="url(#n)" d="M41.24 53l-12 83"/><path stroke="url(#o)" d="M40.24 53l-12 83"/><path stroke="url(#p)" d="M39.24 53l-12 83"/><path stroke="url(#q)" d="M38.24 53l-12 83"/><path stroke="url(#r)" d="M37.24 53l-12 83"/><path stroke="url(#s)" d="M36.24 53l-12 83"/><path stroke="url(#t)" d="M35.24 53l-12 83"/><path stroke="url(#u)" d="M34.24 53l-12 83"/><path stroke="url(#v)" d="M33.24 53l-12 83"/><path stroke="url(#w)" d="M32.24 53l-12 83"/></g><path fill="none" stroke-miterlimit="10" stroke-width="3.6" stroke="url(#b)" d="M.74 81.25h46.25"/><path fill="none" stroke-miterlimit="10" stroke-width="3.6" stroke="url(#x)" d="M-2.26 106.26h46.25"/></svg>