<svg data-name="Layer 2" xmlns="http://www.w3.org/2000/svg" xmlns:xlink="http://www.w3.org/1999/xlink" width="76.89" height="200" viewBox="0 0 76.89 200"><defs><linearGradient id="a" data-name="Red, Purple, Blue" x1="42.29" y1="180.8" x2="42.29" y2="17.2" gradientUnits="userSpaceOnUse"><stop offset="0" stop-color="#b7151b"/><stop offset=".02" stop-color="#c52229"/><stop offset=".06" stop-color="#d7333c"/><stop offset=".11" stop-color="#e23d47"/><stop offset=".15" stop-color="#e6404b"/><stop offset=".3" stop-color="#e98a7b"/><stop offset=".47" stop-color="#7c78b8"/><stop offset=".64" stop-color="#00b0b0"/><stop offset=".79" stop-color="#7b76b6"/><stop offset="1" stop-color="#e7322f"/></linearGradient><linearGradient id="c" x1="41.29" y1="180.8" x2="41.29" y2="17.2" xlink:href="#a"/><linearGradient id="d" x1="40.29" y1="180.8" x2="40.29" y2="17.2" xlink:href="#a"/><linearGradient id="e" x1="39.29" y1="180.8" x2="39.29" y2="17.2" xlink:href="#a"/><linearGradient id="f" x1="38.29" y1="180.8" x2="38.29" y2="17.2" xlink:href="#a"/><linearGradient id="g" x1="37.29" y1="180.8" x2="37.29" y2="17.2" xlink:href="#a"/><linearGradient id="h" x1="36.29" y1="180.8" x2="36.29" y2="17.2" xlink:href="#a"/><linearGradient id="i" x1="35.29" y1="180.8" x2="35.29" y2="17.2" xlink:href="#a"/><linearGradient id="j" x1="34.29" y1="180.8" x2="34.29" y2="17.2" xlink:href="#a"/><linearGradient id="k" x1="33.29" y1="180.8" x2="33.29" y2="17.2" xlink:href="#a"/><linearGradient id="l" x1="32.29" y1="180.8" x2="32.29" y2="17.2" xlink:href="#a"/><linearGradient id="b" data-name="Orange, Yellow" x1="50.55" y1="190" x2="50.55" y2="6" gradientUnits="userSpaceOnUse"><stop offset="0" stop-color="#fff33b"/><stop offset=".04" stop-color="#fee72e"/><stop offset=".12" stop-color="#fed51b"/><stop offset=".2" stop-color="#fdca10"/><stop offset=".28" stop-color="#fdc70c"/><stop offset=".67" stop-color="#f3903f"/><stop offset=".89" stop-color="#ed683c"/><stop offset="1" stop-color="#e93e3a"/></linearGradient><linearGradient id="m" x1="39.05" x2="39.05" xlink:href="#b"/><linearGradient id="n" x1="27.55" x2="27.55" xlink:href="#b"/></defs><title>_</title><g fill="none" stroke-miterlimit="10" stroke-width="3.6"><path d="M73.53 19h-41a22 22 0 0 0-22 22v72a22 22 0 0 0 22 22H52a22 22 0 0 1 22 22 22 22 0 0 1-22 22H10" stroke="url(#a)"/><path d="M72.53 19h-41a22 22 0 0 0-22 22v72a22 22 0 0 0 22 22H51a22 22 0 0 1 22 22 22 22 0 0 1-22 22H9" stroke="url(#c)"/><path d="M71.53 19h-41a22 22 0 0 0-22 22v72a22 22 0 0 0 22 22H50a22 22 0 0 1 22 22 22 22 0 0 1-22 22H8" stroke="url(#d)"/><path d="M70.53 19h-41a22 22 0 0 0-22 22v72a22 22 0 0 0 22 22H49a22 22 0 0 1 22 22 22 22 0 0 1-22 22H7" stroke="url(#e)"/><path d="M69.53 19h-41a22 22 0 0 0-22 22v72a22 22 0 0 0 22 22H48a22 22 0 0 1 22 22 22 22 0 0 1-22 22H6" stroke="url(#f)"/><path d="M68.53 19h-41a22 22 0 0 0-22 22v72a22 22 0 0 0 22 22H47a22 22 0 0 1 22 22 22 22 0 0 1-22 22H5" stroke="url(#g)"/><path d="M67.53 19h-41a22 22 0 0 0-22 22v72a22 22 0 0 0 22 22H46a22 22 0 0 1 22 22 22 22 0 0 1-22 22H4" stroke="url(#h)"/><path d="M66.53 19h-41a22 22 0 0 0-22 22v72a22 22 0 0 0 22 22H45a22 22 0 0 1 22 22 22 22 0 0 1-22 22H3" stroke="url(#i)"/><path d="M65.53 19h-41a22 22 0 0 0-22 22v72a22 22 0 0 0 22 22H44a22 22 0 0 1 22 22 22 22 0 0 1-22 22H2" stroke="url(#j)"/><path d="M64.53 19h-41a22 22 0 0 0-22 22v72a22 22 0 0 0 22 22H43a22 22 0 0 1 22 22 22 22 0 0 1-22 22H1" stroke="url(#k)"/><path d="M63.53 19h-41a22 22 0 0 0-22 22v72a22 22 0 0 0 22 22H42a22 22 0 0 1 22 22 22 22 0 0 1-22 22H.05" stroke="url(#l)"/></g><path fill="none" stroke-miterlimit="10" stroke-width="3.6" stroke="url(#b)" d="M50.55 6v184"/><path fill="none" stroke-miterlimit="10" stroke-width="3.6" stroke="url(#m)" d="M39.05 6v184"/><path fill="none" stroke-miterlimit="10" stroke-width="3.6" stroke="url(#n)" d="M27.55 6v184"/></svg>