<svg data-name="Layer 2" xmlns="http://www.w3.org/2000/svg" xmlns:xlink="http://www.w3.org/1999/xlink" width="64.01" height="200" viewBox="0 0 64.01 200"><defs><linearGradient id="a" data-name="Red, Purple, Blue" x1="10.54" y1="99.78" x2="58.42" y2="99.78" gradientUnits="userSpaceOnUse"><stop offset="0" stop-color="#b7151b"/><stop offset=".02" stop-color="#c52229"/><stop offset=".06" stop-color="#d7333c"/><stop offset=".11" stop-color="#e23d47"/><stop offset=".15" stop-color="#e6404b"/><stop offset=".3" stop-color="#e98a7b"/><stop offset=".47" stop-color="#7c78b8"/><stop offset=".64" stop-color="#00b0b0"/><stop offset=".79" stop-color="#7b76b6"/><stop offset="1" stop-color="#e7322f"/></linearGradient><linearGradient id="b" x1="9.54" y1="99.78" x2="57.42" y2="99.78" xlink:href="#a"/><linearGradient id="c" x1="8.54" y1="99.78" x2="56.42" y2="99.78" xlink:href="#a"/><linearGradient id="d" x1="7.54" y1="99.78" x2="55.42" y2="99.78" xlink:href="#a"/><linearGradient id="e" x1="6.54" y1="99.78" x2="54.42" y2="99.78" xlink:href="#a"/><linearGradient id="f" x1="5.54" y1="99.78" x2="53.42" y2="99.78" xlink:href="#a"/><linearGradient id="g" x1="4.54" y1="99.78" x2="52.42" y2="99.78" xlink:href="#a"/><linearGradient id="h" x1="3.54" y1="99.78" x2="51.42" y2="99.78" xlink:href="#a"/><linearGradient id="i" x1="2.54" y1="99.78" x2="50.42" y2="99.78" xlink:href="#a"/><linearGradient id="j" x1="1.54" y1="99.78" x2="49.42" y2="99.78" xlink:href="#a"/><linearGradient id="k" x1=".54" y1="99.78" x2="48.42" y2="99.78" xlink:href="#a"/><linearGradient id="l" x1="40.04" y1="161.75" x2="64.14" y2="161.75" xlink:href="#a"/><linearGradient id="m" x1="39.04" y1="161.75" x2="63.14" y2="161.75" xlink:href="#a"/><linearGradient id="n" x1="38.04" y1="161.75" x2="62.14" y2="161.75" xlink:href="#a"/><linearGradient id="o" x1="37.04" y1="161.75" x2="61.14" y2="161.75" xlink:href="#a"/><linearGradient id="p" x1="36.04" y1="161.75" x2="60.14" y2="161.75" xlink:href="#a"/><linearGradient id="q" x1="35.04" y1="161.75" x2="59.14" y2="161.75" xlink:href="#a"/><linearGradient id="r" x1="34.04" y1="161.75" x2="58.14" y2="161.75" xlink:href="#a"/><linearGradient id="s" x1="33.04" y1="161.75" x2="57.14" y2="161.75" xlink:href="#a"/><linearGradient id="t" x1="32.04" y1="161.75" x2="56.14" y2="161.75" xlink:href="#a"/><linearGradient id="u" x1="31.04" y1="161.75" x2="55.14" y2="161.75" xlink:href="#a"/><linearGradient id="v" x1="30.04" y1="161.75" x2="54.14" y2="161.75" xlink:href="#a"/></defs><title>_</title><g fill="none" stroke-miterlimit="10" stroke-width="3.6"><path d="M26.39 181l30-148.72A10.25 10.25 0 0 0 46.37 20H22.59a10.25 10.25 0 0 0-10.25 10.25v12A10.25 10.25 0 0 0 22.59 52.5a10.25 10.25 0 0 0 10.25-10.25V27" stroke="url(#a)"/><path d="M25.39 181l30-148.72A10.25 10.25 0 0 0 45.37 20H21.59a10.25 10.25 0 0 0-10.25 10.25v12A10.25 10.25 0 0 0 21.59 52.5a10.25 10.25 0 0 0 10.25-10.25V27" stroke="url(#b)"/><path d="M24.39 181l30-148.72A10.25 10.25 0 0 0 44.37 20H20.59a10.25 10.25 0 0 0-10.25 10.25v12A10.25 10.25 0 0 0 20.59 52.5a10.25 10.25 0 0 0 10.25-10.25V27" stroke="url(#c)"/><path d="M23.39 181l30-148.72A10.25 10.25 0 0 0 43.37 20H19.59A10.25 10.25 0 0 0 9.34 30.25v12A10.25 10.25 0 0 0 19.59 52.5a10.25 10.25 0 0 0 10.25-10.25V27" stroke="url(#d)"/><path d="M22.39 181l30-148.72A10.25 10.25 0 0 0 42.37 20H18.59A10.25 10.25 0 0 0 8.34 30.25v12A10.25 10.25 0 0 0 18.59 52.5a10.25 10.25 0 0 0 10.25-10.25V27" stroke="url(#e)"/><path d="M21.39 181l30-148.72A10.25 10.25 0 0 0 41.37 20H17.59A10.25 10.25 0 0 0 7.34 30.25v12A10.25 10.25 0 0 0 17.59 52.5a10.25 10.25 0 0 0 10.25-10.25V27" stroke="url(#f)"/><path d="M20.39 181l30-148.72A10.25 10.25 0 0 0 40.37 20H16.59A10.25 10.25 0 0 0 6.34 30.25v12A10.25 10.25 0 0 0 16.59 52.5a10.25 10.25 0 0 0 10.25-10.25V27" stroke="url(#g)"/><path d="M19.39 181l30-148.72A10.25 10.25 0 0 0 39.37 20H15.59A10.25 10.25 0 0 0 5.34 30.25v12A10.25 10.25 0 0 0 15.59 52.5a10.25 10.25 0 0 0 10.25-10.25V27" stroke="url(#h)"/><path d="M18.39 181l30-148.72A10.25 10.25 0 0 0 38.37 20H14.59A10.25 10.25 0 0 0 4.34 30.25v12A10.25 10.25 0 0 0 14.59 52.5a10.25 10.25 0 0 0 10.25-10.25V27" stroke="url(#i)"/><path d="M17.39 181l30-148.72A10.25 10.25 0 0 0 37.37 20H13.59A10.25 10.25 0 0 0 3.34 30.25v12A10.25 10.25 0 0 0 13.59 52.5a10.25 10.25 0 0 0 10.25-10.25V27" stroke="url(#j)"/><path d="M16.39 181l30-148.72A10.25 10.25 0 0 0 36.37 20H12.59A10.25 10.25 0 0 0 2.34 30.25v12A10.25 10.25 0 0 0 12.59 52.5a10.25 10.25 0 0 0 10.25-10.25V27" stroke="url(#k)"/></g><g fill="none" stroke-miterlimit="10" stroke-width="3.6"><ellipse cx="52.09" cy="161.75" rx="10.25" ry="16.25" stroke="url(#l)"/><ellipse cx="51.09" cy="161.75" rx="10.25" ry="16.25" stroke="url(#m)"/><ellipse cx="50.09" cy="161.75" rx="10.25" ry="16.25" stroke="url(#n)"/><ellipse cx="49.09" cy="161.75" rx="10.25" ry="16.25" stroke="url(#o)"/><ellipse cx="48.09" cy="161.75" rx="10.25" ry="16.25" stroke="url(#p)"/><ellipse cx="47.09" cy="161.75" rx="10.25" ry="16.25" stroke="url(#q)"/><ellipse cx="46.09" cy="161.75" rx="10.25" ry="16.25" stroke="url(#r)"/><ellipse cx="45.09" cy="161.75" rx="10.25" ry="16.25" stroke="url(#s)"/><ellipse cx="44.09" cy="161.75" rx="10.25" ry="16.25" stroke="url(#t)"/><ellipse cx="43.09" cy="161.75" rx="10.25" ry="16.25" stroke="url(#u)"/><ellipse cx="42.09" cy="161.75" rx="10.25" ry="16.25" stroke="url(#v)"/></g></svg>