<svg data-name="Layer 2" xmlns="http://www.w3.org/2000/svg" xmlns:xlink="http://www.w3.org/1999/xlink" width="68.5" height="199.14" viewBox="0 0 68.5 199.14"><defs><linearGradient id="a" data-name="Red, Purple, Blue" x1="67.97" y1="98.74" x2="11.39" y2="98.74" gradientUnits="userSpaceOnUse"><stop offset="0" stop-color="#b7151b"/><stop offset=".02" stop-color="#c52229"/><stop offset=".06" stop-color="#d7333c"/><stop offset=".11" stop-color="#e23d47"/><stop offset=".15" stop-color="#e6404b"/><stop offset=".3" stop-color="#e98a7b"/><stop offset=".47" stop-color="#7c78b8"/><stop offset=".64" stop-color="#00b0b0"/><stop offset=".79" stop-color="#7b76b6"/><stop offset="1" stop-color="#e7322f"/></linearGradient><linearGradient id="b" x1="66.97" y1="98.74" x2="10.39" y2="98.74" xlink:href="#a"/><linearGradient id="c" x1="65.97" y1="98.74" x2="9.39" y2="98.74" xlink:href="#a"/><linearGradient id="d" x1="64.97" y1="98.74" x2="8.39" y2="98.74" xlink:href="#a"/><linearGradient id="e" x1="63.97" y1="98.74" x2="7.39" y2="98.74" xlink:href="#a"/><linearGradient id="f" x1="62.97" y1="98.74" x2="6.39" y2="98.74" xlink:href="#a"/><linearGradient id="g" x1="61.97" y1="98.74" x2="5.39" y2="98.74" xlink:href="#a"/><linearGradient id="h" x1="60.97" y1="98.74" x2="4.39" y2="98.74" xlink:href="#a"/><linearGradient id="i" x1="59.97" y1="98.74" x2="3.39" y2="98.74" xlink:href="#a"/><linearGradient id="j" x1="58.97" y1="98.74" x2="2.39" y2="98.74" xlink:href="#a"/><linearGradient id="k" x1="57.97" y1="98.74" x2="1.39" y2="98.74" xlink:href="#a"/></defs><title>_</title><g fill="none" stroke-miterlimit="10" stroke-width="3.6"><path d="M64.17 87.67a52.19 52.19 0 0 1-5.72 23.76l-23.73 46.4c-4.7 9.2-12.4 9.2-17.11 0l-.89-1.75c-4.7-9.2-4.7-24.25 0-33.46L42 73.12c7.59-14.85 2.26-40.26-8.48-40.38-10.24-.12-15.92 23.13-9.44 38.63l42.05 88v5.38" stroke="url(#a)"/><path d="M63.17 87.67a52.19 52.19 0 0 1-5.72 23.76l-23.73 46.4c-4.7 9.2-12.4 9.2-17.11 0l-.89-1.75c-4.7-9.2-4.7-24.25 0-33.46L41 73.12c7.59-14.85 2.26-40.26-8.48-40.38-10.24-.12-15.92 23.13-9.44 38.63l42.05 88v5.38" stroke="url(#b)"/><path d="M62.17 87.67a52.19 52.19 0 0 1-5.72 23.76l-23.73 46.4c-4.7 9.2-12.4 9.2-17.11 0l-.89-1.75c-4.7-9.2-4.7-24.25 0-33.46L40 73.12c7.59-14.85 2.26-40.26-8.48-40.38-10.24-.12-15.92 23.13-9.44 38.63l42.05 88v5.38" stroke="url(#c)"/><path d="M61.17 87.67a52.19 52.19 0 0 1-5.72 23.76l-23.73 46.4c-4.7 9.2-12.4 9.2-17.11 0l-.89-1.75c-4.7-9.2-4.7-24.25 0-33.46L39 73.12c7.59-14.85 2.26-40.26-8.48-40.38-10.24-.12-15.92 23.13-9.44 38.63l42.05 88v5.38" stroke="url(#d)"/><path d="M60.17 87.67a52.19 52.19 0 0 1-5.72 23.76l-23.73 46.4c-4.7 9.2-12.4 9.2-17.11 0l-.89-1.75c-4.7-9.2-4.7-24.25 0-33.46L38 73.12c7.59-14.85 2.26-40.26-8.48-40.38-10.24-.12-15.92 23.13-9.44 38.63l42.05 88v5.38" stroke="url(#e)"/><path d="M59.17 87.67a52.19 52.19 0 0 1-5.72 23.76l-23.73 46.4c-4.7 9.2-12.4 9.2-17.11 0l-.89-1.75c-4.7-9.2-4.7-24.25 0-33.46L37 73.12c7.59-14.85 2.26-40.26-8.48-40.38-10.24-.12-15.92 23.13-9.44 38.63l42.05 88v5.38" stroke="url(#f)"/><path d="M58.17 87.67a52.19 52.19 0 0 1-5.72 23.76l-23.73 46.4c-4.7 9.2-12.4 9.2-17.11 0l-.89-1.75c-4.7-9.2-4.7-24.25 0-33.46L36 73.12c7.59-14.85 2.26-40.26-8.48-40.38-10.24-.12-15.92 23.13-9.44 38.63l42.05 88v5.38" stroke="url(#g)"/><path d="M57.17 87.67a52.19 52.19 0 0 1-5.72 23.76l-23.73 46.4c-4.7 9.2-12.4 9.2-17.11 0l-.89-1.75c-4.7-9.2-4.7-24.25 0-33.46L35 73.12c7.59-14.85 2.26-40.26-8.48-40.38-10.24-.12-15.92 23.13-9.44 38.63l42.05 88v5.38" stroke="url(#h)"/><path d="M56.17 87.67a52.19 52.19 0 0 1-5.72 23.76l-23.73 46.4c-4.7 9.2-12.4 9.2-17.11 0l-.89-1.75c-4.7-9.2-4.7-24.25 0-33.46L34 73.12c7.59-14.85 2.26-40.26-8.48-40.38-10.24-.12-15.92 23.13-9.44 38.63l42.05 88v5.38" stroke="url(#i)"/><path d="M55.17 87.67a52.19 52.19 0 0 1-5.72 23.76l-23.73 46.4c-4.7 9.2-12.4 9.2-17.11 0l-.89-1.75c-4.7-9.2-4.7-24.25 0-33.46L33 73.12c7.59-14.85 2.26-40.26-8.48-40.38-10.24-.12-15.92 23.13-9.44 38.63l42.05 88v5.38" stroke="url(#j)"/><path d="M54.17 87.67a52.19 52.19 0 0 1-5.72 23.76l-23.73 46.4c-4.7 9.2-12.4 9.2-17.11 0l-.89-1.75c-4.7-9.2-4.7-24.25 0-33.46L32 73.12c7.59-14.85 2.26-40.26-8.48-40.38-10.24-.12-15.92 23.13-9.44 38.63l42.05 88v5.38" stroke="url(#k)"/></g></svg>