<svg data-name="Layer 2" xmlns="http://www.w3.org/2000/svg" xmlns:xlink="http://www.w3.org/1999/xlink" width="34.46" height="200" viewBox="0 0 34.46 200"><defs><linearGradient id="a" data-name="Red, Purple, Blue" x1="11.53" y1="99.75" x2="30.82" y2="99.75" gradientUnits="userSpaceOnUse"><stop offset="0" stop-color="#b7151b"/><stop offset=".02" stop-color="#c52229"/><stop offset=".06" stop-color="#d7333c"/><stop offset=".11" stop-color="#e23d47"/><stop offset=".15" stop-color="#e6404b"/><stop offset=".3" stop-color="#e98a7b"/><stop offset=".47" stop-color="#7c78b8"/><stop offset=".64" stop-color="#00b0b0"/><stop offset=".79" stop-color="#7b76b6"/><stop offset="1" stop-color="#e7322f"/></linearGradient><linearGradient id="b" x1="10.53" y1="99.75" x2="29.82" y2="99.75" xlink:href="#a"/><linearGradient id="c" x1="9.53" y1="99.75" x2="28.82" y2="99.75" xlink:href="#a"/><linearGradient id="d" x1="8.53" y1="99.75" x2="27.82" y2="99.75" xlink:href="#a"/><linearGradient id="e" x1="7.53" y1="99.75" x2="26.82" y2="99.75" xlink:href="#a"/><linearGradient id="f" x1="6.53" y1="99.75" x2="25.82" y2="99.75" xlink:href="#a"/><linearGradient id="g" x1="5.53" y1="99.75" x2="24.82" y2="99.75" xlink:href="#a"/><linearGradient id="h" x1="4.53" y1="99.75" x2="23.82" y2="99.75" xlink:href="#a"/><linearGradient id="i" x1="3.53" y1="99.75" x2="22.82" y2="99.75" xlink:href="#a"/><linearGradient id="j" x1="2.53" y1="99.75" x2="21.82" y2="99.75" xlink:href="#a"/><linearGradient id="k" x1="1.53" y1="99.75" x2="20.82" y2="99.75" xlink:href="#a"/></defs><title>_</title><g fill="none" stroke-miterlimit="10" stroke-width="3.6"><path d="M29.13 20.5L26.75 27a222.81 222.81 0 0 0-.12 152" stroke="url(#a)"/><path d="M28.13 20.5L25.75 27a222.81 222.81 0 0 0-.12 152" stroke="url(#b)"/><path d="M27.13 20.5L24.75 27a222.81 222.81 0 0 0-.12 152" stroke="url(#c)"/><path d="M26.13 20.5L23.75 27a222.81 222.81 0 0 0-.12 152" stroke="url(#d)"/><path d="M25.13 20.5L22.75 27a222.81 222.81 0 0 0-.12 152" stroke="url(#e)"/><path d="M24.13 20.5L21.75 27a222.81 222.81 0 0 0-.12 152" stroke="url(#f)"/><path d="M23.13 20.5L20.75 27a222.81 222.81 0 0 0-.12 152" stroke="url(#g)"/><path d="M22.13 20.5L19.75 27a222.81 222.81 0 0 0-.12 152" stroke="url(#h)"/><path d="M21.13 20.5L18.75 27a222.81 222.81 0 0 0-.12 152" stroke="url(#i)"/><path d="M20.13 20.5L17.75 27a222.81 222.81 0 0 0-.12 152" stroke="url(#j)"/><path d="M19.13 20.5L16.75 27a222.81 222.81 0 0 0-.12 152" stroke="url(#k)"/></g></svg>