<svg data-name="Layer 2" xmlns="http://www.w3.org/2000/svg" xmlns:xlink="http://www.w3.org/1999/xlink" width="30.67" height="200" viewBox="0 0 30.67 200"><defs><linearGradient id="a" data-name="Red, Purple, Blue" x1="8.78" y1="99.75" x2="28.07" y2="99.75" gradientTransform="rotate(180 13.425 99.75)" gradientUnits="userSpaceOnUse"><stop offset="0" stop-color="#b7151b"/><stop offset=".02" stop-color="#c52229"/><stop offset=".06" stop-color="#d7333c"/><stop offset=".11" stop-color="#e23d47"/><stop offset=".15" stop-color="#e6404b"/><stop offset=".3" stop-color="#e98a7b"/><stop offset=".47" stop-color="#7c78b8"/><stop offset=".64" stop-color="#00b0b0"/><stop offset=".79" stop-color="#7b76b6"/><stop offset="1" stop-color="#e7322f"/></linearGradient><linearGradient id="b" x1="7.78" y1="99.75" x2="27.07" y2="99.75" xlink:href="#a"/><linearGradient id="c" x1="6.78" y1="99.75" x2="26.07" y2="99.75" xlink:href="#a"/><linearGradient id="d" x1="5.78" y1="99.75" x2="25.07" y2="99.75" xlink:href="#a"/><linearGradient id="e" x1="4.78" y1="99.75" x2="24.07" y2="99.75" xlink:href="#a"/><linearGradient id="f" x1="3.78" y1="99.75" x2="23.07" y2="99.75" xlink:href="#a"/><linearGradient id="g" x1="2.78" y1="99.75" x2="22.07" y2="99.75" xlink:href="#a"/><linearGradient id="h" x1="1.78" y1="99.75" x2="21.07" y2="99.75" xlink:href="#a"/><linearGradient id="i" x1=".78" y1="99.75" x2="20.07" y2="99.75" xlink:href="#a"/><linearGradient id="j" x1="-.22" y1="99.75" x2="19.07" y2="99.75" xlink:href="#a"/><linearGradient id="k" x1="-1.22" y1="99.75" x2="18.07" y2="99.75" xlink:href="#a"/></defs><title>_</title><g fill="none" stroke-miterlimit="10" stroke-width="3.6"><path d="M.47 179l2.38-6.54A222.81 222.81 0 0 0 3 20.5" stroke="url(#a)"/><path d="M1.47 179l2.38-6.54A222.81 222.81 0 0 0 4 20.5" stroke="url(#b)"/><path d="M2.47 179l2.38-6.54A222.81 222.81 0 0 0 5 20.5" stroke="url(#c)"/><path d="M3.47 179l2.38-6.54A222.81 222.81 0 0 0 6 20.5" stroke="url(#d)"/><path d="M4.47 179l2.38-6.54A222.81 222.81 0 0 0 7 20.5" stroke="url(#e)"/><path d="M5.47 179l2.38-6.54A222.81 222.81 0 0 0 8 20.5" stroke="url(#f)"/><path d="M6.47 179l2.38-6.54A222.81 222.81 0 0 0 9 20.5" stroke="url(#g)"/><path d="M7.47 179l2.38-6.54A222.81 222.81 0 0 0 10 20.5" stroke="url(#h)"/><path d="M8.47 179l2.38-6.54A222.81 222.81 0 0 0 11 20.5" stroke="url(#i)"/><path d="M9.47 179l2.38-6.54A222.81 222.81 0 0 0 12 20.5" stroke="url(#j)"/><path d="M10.47 179l2.38-6.54A222.81 222.81 0 0 0 13 20.5" stroke="url(#k)"/></g></svg>