<svg data-name="Layer 2" xmlns="http://www.w3.org/2000/svg" xmlns:xlink="http://www.w3.org/1999/xlink" width="63.41" height="200" viewBox="0 0 63.41 200"><defs><linearGradient id="a" data-name="Red, Purple, Blue" x1="38.4" y1="163.61" x2="38.4" y2="109.94" gradientUnits="userSpaceOnUse"><stop offset="0" stop-color="#b7151b"/><stop offset=".02" stop-color="#c52229"/><stop offset=".06" stop-color="#d7333c"/><stop offset=".11" stop-color="#e23d47"/><stop offset=".15" stop-color="#e6404b"/><stop offset=".3" stop-color="#e98a7b"/><stop offset=".47" stop-color="#7c78b8"/><stop offset=".64" stop-color="#00b0b0"/><stop offset=".79" stop-color="#7b76b6"/><stop offset="1" stop-color="#e7322f"/></linearGradient><linearGradient id="b" x1="37.4" y1="163.61" x2="37.4" y2="109.94" xlink:href="#a"/><linearGradient id="c" x1="36.4" y1="163.61" x2="36.4" y2="109.94" xlink:href="#a"/><linearGradient id="d" x1="35.4" y1="163.61" x2="35.4" y2="109.94" xlink:href="#a"/><linearGradient id="e" x1="34.4" y1="163.61" x2="34.4" y2="109.94" xlink:href="#a"/><linearGradient id="f" x1="33.4" y1="163.61" x2="33.4" y2="109.94" xlink:href="#a"/><linearGradient id="g" x1="32.4" y1="163.61" x2="32.4" y2="109.94" xlink:href="#a"/><linearGradient id="h" x1="31.4" y1="163.61" x2="31.4" y2="109.94" xlink:href="#a"/><linearGradient id="i" x1="30.4" y1="163.61" x2="30.4" y2="109.94" xlink:href="#a"/><linearGradient id="j" x1="29.4" y1="163.61" x2="29.4" y2="109.94" xlink:href="#a"/><linearGradient id="k" x1="28.4" y1="163.61" x2="28.4" y2="109.94" xlink:href="#a"/><linearGradient id="l" data-name="Orange, Yellow" x1="-318.69" y1="-146.88" x2="-282.57" y2="-146.88" gradientTransform="rotate(118 -218.785 96.06)" gradientUnits="userSpaceOnUse"><stop offset="0" stop-color="#fff33b"/><stop offset=".04" stop-color="#fee72e"/><stop offset=".12" stop-color="#fed51b"/><stop offset=".2" stop-color="#fdca10"/><stop offset=".28" stop-color="#fdc70c"/><stop offset=".67" stop-color="#f3903f"/><stop offset=".89" stop-color="#ed683c"/><stop offset="1" stop-color="#e93e3a"/></linearGradient></defs><title>_</title><g fill="none" stroke-miterlimit="10" stroke-width="3.6"><path stroke="url(#a)" d="M38.4 109.94v53.67"/><path stroke="url(#b)" d="M37.4 109.94v53.67"/><path stroke="url(#c)" d="M36.4 109.94v53.67"/><path stroke="url(#d)" d="M35.4 109.94v53.67"/><path stroke="url(#e)" d="M34.4 109.94v53.67"/><path stroke="url(#f)" d="M33.4 109.94v53.67"/><path stroke="url(#g)" d="M32.4 109.94v53.67"/><path stroke="url(#h)" d="M31.4 109.94v53.67"/><path stroke="url(#i)" d="M30.4 109.94v53.67"/><path stroke="url(#j)" d="M29.4 109.94v53.67"/><path stroke="url(#k)" d="M28.4 109.94v53.67"/></g><path fill="none" stroke-miterlimit="10" stroke-width="10.8" stroke="url(#l)" d="M62.58 137.23l-58.36-.91"/></svg>