<svg data-name="Layer 2" xmlns="http://www.w3.org/2000/svg" xmlns:xlink="http://www.w3.org/1999/xlink" width="51.33" height="200" viewBox="0 0 51.33 200"><defs><linearGradient id="a" data-name="Red, Purple, Blue" x1="1501.43" y1="2162.28" x2="1501.43" y2="2134.87" gradientTransform="rotate(90 1787.17 385.5)" gradientUnits="userSpaceOnUse"><stop offset="0" stop-color="#b7151b"/><stop offset=".02" stop-color="#c52229"/><stop offset=".06" stop-color="#d7333c"/><stop offset=".11" stop-color="#e23d47"/><stop offset=".15" stop-color="#e6404b"/><stop offset=".3" stop-color="#e98a7b"/><stop offset=".47" stop-color="#7c78b8"/><stop offset=".64" stop-color="#00b0b0"/><stop offset=".79" stop-color="#7b76b6"/><stop offset="1" stop-color="#e7322f"/></linearGradient><linearGradient id="b" x1="1501.43" y1="2163.28" x2="1501.43" y2="2135.87" xlink:href="#a"/><linearGradient id="c" x1="1501.43" y1="2164.28" x2="1501.43" y2="2136.87" xlink:href="#a"/><linearGradient id="d" x1="1501.43" y1="2165.28" x2="1501.43" y2="2137.87" xlink:href="#a"/><linearGradient id="e" x1="1501.43" y1="2166.28" x2="1501.43" y2="2138.87" xlink:href="#a"/><linearGradient id="f" x1="1501.43" y1="2167.28" x2="1501.43" y2="2139.87" xlink:href="#a"/><linearGradient id="g" x1="1501.43" y1="2168.28" x2="1501.43" y2="2140.87" xlink:href="#a"/><linearGradient id="h" x1="1501.43" y1="2169.28" x2="1501.43" y2="2141.87" xlink:href="#a"/><linearGradient id="i" x1="1501.43" y1="2170.28" x2="1501.43" y2="2142.87" xlink:href="#a"/><linearGradient id="j" x1="1501.43" y1="2171.28" x2="1501.43" y2="2143.87" xlink:href="#a"/><linearGradient id="k" x1="1501.43" y1="2172.28" x2="1501.43" y2="2144.87" xlink:href="#a"/><linearGradient id="l" data-name="Orange, Yellow" x1="3.33" y1="175.5" x2="51.33" y2="175.5" gradientUnits="userSpaceOnUse"><stop offset="0" stop-color="#fff33b"/><stop offset=".04" stop-color="#fee72e"/><stop offset=".12" stop-color="#fed51b"/><stop offset=".2" stop-color="#fdca10"/><stop offset=".28" stop-color="#fdc70c"/><stop offset=".67" stop-color="#f3903f"/><stop offset=".89" stop-color="#ed683c"/><stop offset="1" stop-color="#e93e3a"/></linearGradient></defs><title>_</title><g fill="none" stroke-miterlimit="10" stroke-width="3.6"><path d="M35.94 180L36 22.67a1.34 1.34 0 0 0-2.51-.67L12 65.33" stroke="url(#a)"/><path d="M34.94 180L35 22.67a1.34 1.34 0 0 0-2.51-.67L11 65.33" stroke="url(#b)"/><path d="M33.94 180L34 22.67a1.34 1.34 0 0 0-2.51-.67L10 65.33" stroke="url(#c)"/><path d="M32.94 180L33 22.67a1.34 1.34 0 0 0-2.51-.67L9 65.33" stroke="url(#d)"/><path d="M31.94 180L32 22.67a1.34 1.34 0 0 0-2.51-.67L8 65.33" stroke="url(#e)"/><path d="M30.94 180L31 22.67a1.34 1.34 0 0 0-2.51-.67L7 65.33" stroke="url(#f)"/><path d="M29.94 180L30 22.67a1.34 1.34 0 0 0-2.51-.67L6 65.33" stroke="url(#g)"/><path d="M28.94 180L29 22.67a1.34 1.34 0 0 0-2.51-.67L5 65.33" stroke="url(#h)"/><path d="M27.94 180L28 22.67a1.34 1.34 0 0 0-2.51-.67L4 65.33" stroke="url(#i)"/><path d="M26.94 180L27 22.67a1.34 1.34 0 0 0-2.51-.67L3 65.33" stroke="url(#j)"/><path d="M25.94 180L26 22.67a1.34 1.34 0 0 0-2.51-.67L2 65.33" stroke="url(#k)"/></g><path fill="none" stroke-miterlimit="10" stroke-width="10.8" stroke="url(#l)" d="M3.33 175.5h48"/></svg>