<svg data-name="Layer 2" xmlns="http://www.w3.org/2000/svg" xmlns:xlink="http://www.w3.org/1999/xlink" width="57.33" height="200" viewBox="0 0 57.33 200"><defs><linearGradient id="a" data-name="Red, Purple, Blue" x1="10.41" y1="100.74" x2="61.86" y2="100.74" gradientUnits="userSpaceOnUse"><stop offset="0" stop-color="#b7151b"/><stop offset=".02" stop-color="#c52229"/><stop offset=".06" stop-color="#d7333c"/><stop offset=".11" stop-color="#e23d47"/><stop offset=".15" stop-color="#e6404b"/><stop offset=".3" stop-color="#e98a7b"/><stop offset=".47" stop-color="#7c78b8"/><stop offset=".64" stop-color="#00b0b0"/><stop offset=".79" stop-color="#7b76b6"/><stop offset="1" stop-color="#e7322f"/></linearGradient><linearGradient id="b" x1="9.41" y1="100.74" x2="60.86" y2="100.74" xlink:href="#a"/><linearGradient id="c" x1="8.41" y1="100.74" x2="59.86" y2="100.74" xlink:href="#a"/><linearGradient id="d" x1="7.41" y1="100.74" x2="58.86" y2="100.74" xlink:href="#a"/><linearGradient id="e" x1="6.41" y1="100.74" x2="57.86" y2="100.74" xlink:href="#a"/><linearGradient id="f" x1="5.41" y1="100.74" x2="56.86" y2="100.74" xlink:href="#a"/><linearGradient id="g" x1="4.41" y1="100.74" x2="55.86" y2="100.74" xlink:href="#a"/><linearGradient id="h" x1="3.41" y1="100.74" x2="54.86" y2="100.74" xlink:href="#a"/><linearGradient id="i" x1="2.41" y1="100.74" x2="53.86" y2="100.74" xlink:href="#a"/><linearGradient id="j" x1="1.41" y1="100.74" x2="52.86" y2="100.74" xlink:href="#a"/><linearGradient id="k" x1=".41" y1="100.74" x2="51.86" y2="100.74" xlink:href="#a"/></defs><title>_</title><g fill="none" stroke-miterlimit="10" stroke-width="3.6"><path d="M14.58 53.44v-7.85a22.73 22.73 0 0 1 22.73-22.73 22.73 22.73 0 0 1 21.28 30.7L13 178.62h43.67" stroke="url(#a)"/><path d="M13.58 53.44v-7.85a22.73 22.73 0 0 1 22.73-22.73 22.73 22.73 0 0 1 21.28 30.7L12 178.62h43.67" stroke="url(#b)"/><path d="M12.58 53.44v-7.85a22.73 22.73 0 0 1 22.73-22.73 22.73 22.73 0 0 1 21.28 30.7L11 178.62h43.67" stroke="url(#c)"/><path d="M11.58 53.44v-7.85a22.73 22.73 0 0 1 22.73-22.73 22.73 22.73 0 0 1 21.28 30.7L10 178.62h43.67" stroke="url(#d)"/><path d="M10.58 53.44v-7.85a22.73 22.73 0 0 1 22.73-22.73 22.73 22.73 0 0 1 21.28 30.7L9 178.62h43.67" stroke="url(#e)"/><path d="M9.58 53.44v-7.85a22.73 22.73 0 0 1 22.73-22.73 22.73 22.73 0 0 1 21.28 30.7L8 178.62h43.67" stroke="url(#f)"/><path d="M8.58 53.44v-7.85a22.73 22.73 0 0 1 22.73-22.73 22.73 22.73 0 0 1 21.28 30.7L7 178.62h43.67" stroke="url(#g)"/><path d="M7.58 53.44v-7.85a22.73 22.73 0 0 1 22.73-22.73 22.73 22.73 0 0 1 21.28 30.7L6 178.62h43.67" stroke="url(#h)"/><path d="M6.58 53.44v-7.85a22.73 22.73 0 0 1 22.73-22.73 22.73 22.73 0 0 1 21.28 30.7L5 178.62h43.67" stroke="url(#i)"/><path d="M5.58 53.44v-7.85a22.73 22.73 0 0 1 22.73-22.73 22.73 22.73 0 0 1 21.28 30.7L4 178.62h43.67" stroke="url(#j)"/><path d="M4.58 53.44v-7.85a22.73 22.73 0 0 1 22.73-22.73 22.73 22.73 0 0 1 21.28 30.7L3 178.62h43.67" stroke="url(#k)"/></g></svg>