<svg data-name="Layer 2" xmlns="http://www.w3.org/2000/svg" xmlns:xlink="http://www.w3.org/1999/xlink" width="60" height="200" viewBox="0 0 60 200"><defs><linearGradient id="a" data-name="Red, Purple, Blue" x1="10.76" y1="101.76" x2="59.84" y2="101.76" gradientUnits="userSpaceOnUse"><stop offset="0" stop-color="#b7151b"/><stop offset=".02" stop-color="#c52229"/><stop offset=".06" stop-color="#d7333c"/><stop offset=".11" stop-color="#e23d47"/><stop offset=".15" stop-color="#e6404b"/><stop offset=".3" stop-color="#e98a7b"/><stop offset=".47" stop-color="#7c78b8"/><stop offset=".64" stop-color="#00b0b0"/><stop offset=".79" stop-color="#7b76b6"/><stop offset="1" stop-color="#e7322f"/></linearGradient><linearGradient id="b" x1="9.76" y1="101.76" x2="58.84" y2="101.76" xlink:href="#a"/><linearGradient id="c" x1="8.76" y1="101.76" x2="57.84" y2="101.76" xlink:href="#a"/><linearGradient id="d" x1="7.76" y1="101.76" x2="56.84" y2="101.76" xlink:href="#a"/><linearGradient id="e" x1="6.76" y1="101.76" x2="55.84" y2="101.76" xlink:href="#a"/><linearGradient id="f" x1="5.76" y1="101.76" x2="54.84" y2="101.76" xlink:href="#a"/><linearGradient id="g" x1="4.76" y1="101.76" x2="53.84" y2="101.76" xlink:href="#a"/><linearGradient id="h" x1="3.76" y1="101.76" x2="52.84" y2="101.76" xlink:href="#a"/><linearGradient id="i" x1="2.76" y1="101.76" x2="51.84" y2="101.76" xlink:href="#a"/><linearGradient id="j" x1="1.76" y1="101.76" x2="50.84" y2="101.76" xlink:href="#a"/><linearGradient id="k" x1=".76" y1="101.76" x2="49.84" y2="101.76" xlink:href="#a"/></defs><title>_</title><g fill="none" stroke-miterlimit="10" stroke-width="3.6"><path d="M12.56 150.09v7.85a22.73 22.73 0 0 0 22.73 22.73A22.73 22.73 0 0 0 56.57 150L32.1 82.87c-.46-1.27-1.57-1.8-3.7-1.73A13.07 13.07 0 0 0 16 94.3v14.92a13.07 13.07 0 0 0 12.4 13.17c2.13.08 3.24-.46 3.7-1.73l24.47-67.1a22.73 22.73 0 0 0-21.28-30.7 22.73 22.73 0 0 0-22.73 22.73v7.85" stroke="url(#a)"/><path d="M11.56 150.09v7.85a22.73 22.73 0 0 0 22.73 22.73A22.73 22.73 0 0 0 55.57 150L31.1 82.87c-.46-1.27-1.57-1.8-3.7-1.73A13.07 13.07 0 0 0 15 94.3v14.92a13.07 13.07 0 0 0 12.4 13.17c2.13.08 3.24-.46 3.7-1.73l24.47-67.1a22.73 22.73 0 0 0-21.28-30.7 22.73 22.73 0 0 0-22.73 22.73v7.85" stroke="url(#b)"/><path d="M10.56 150.09v7.85a22.73 22.73 0 0 0 22.73 22.73A22.73 22.73 0 0 0 54.57 150L30.1 82.87c-.46-1.27-1.57-1.8-3.7-1.73A13.07 13.07 0 0 0 14 94.3v14.92a13.07 13.07 0 0 0 12.4 13.17c2.13.08 3.24-.46 3.7-1.73l24.47-67.1a22.73 22.73 0 0 0-21.28-30.7 22.73 22.73 0 0 0-22.73 22.73v7.85" stroke="url(#c)"/><path d="M9.56 150.09v7.85a22.73 22.73 0 0 0 22.73 22.73A22.73 22.73 0 0 0 53.57 150L29.1 82.87c-.46-1.27-1.57-1.8-3.7-1.73A13.07 13.07 0 0 0 13 94.3v14.92a13.07 13.07 0 0 0 12.4 13.17c2.13.08 3.24-.46 3.7-1.73l24.47-67.1a22.73 22.73 0 0 0-21.28-30.7A22.73 22.73 0 0 0 9.56 45.59v7.85" stroke="url(#d)"/><path d="M8.56 150.09v7.85a22.73 22.73 0 0 0 22.73 22.73A22.73 22.73 0 0 0 52.57 150L28.1 82.87c-.46-1.27-1.57-1.8-3.7-1.73A13.07 13.07 0 0 0 12 94.3v14.92a13.07 13.07 0 0 0 12.4 13.17c2.13.08 3.24-.46 3.7-1.73l24.47-67.1a22.73 22.73 0 0 0-21.28-30.7A22.73 22.73 0 0 0 8.56 45.59v7.85" stroke="url(#e)"/><path d="M7.56 150.09v7.85a22.73 22.73 0 0 0 22.73 22.73A22.73 22.73 0 0 0 51.57 150L27.1 82.87c-.46-1.27-1.57-1.8-3.7-1.73A13.07 13.07 0 0 0 11 94.3v14.92a13.07 13.07 0 0 0 12.4 13.17c2.13.08 3.24-.46 3.7-1.73l24.47-67.1a22.73 22.73 0 0 0-21.28-30.7A22.73 22.73 0 0 0 7.56 45.59v7.85" stroke="url(#f)"/><path d="M6.56 150.09v7.85a22.73 22.73 0 0 0 22.73 22.73A22.73 22.73 0 0 0 50.57 150L26.1 82.87c-.46-1.27-1.57-1.8-3.7-1.73A13.07 13.07 0 0 0 10 94.3v14.92a13.07 13.07 0 0 0 12.4 13.17c2.13.08 3.24-.46 3.7-1.73l24.47-67.1a22.73 22.73 0 0 0-21.28-30.7A22.73 22.73 0 0 0 6.56 45.59v7.85" stroke="url(#g)"/><path d="M5.56 150.09v7.85a22.73 22.73 0 0 0 22.73 22.73A22.73 22.73 0 0 0 49.57 150L25.1 82.87c-.46-1.27-1.57-1.8-3.7-1.73A13.07 13.07 0 0 0 9 94.3v14.92a13.07 13.07 0 0 0 12.4 13.17c2.13.08 3.24-.46 3.7-1.73l24.47-67.1a22.73 22.73 0 0 0-21.28-30.7A22.73 22.73 0 0 0 5.56 45.59v7.85" stroke="url(#h)"/><path d="M4.56 150.09v7.85a22.73 22.73 0 0 0 22.73 22.73A22.73 22.73 0 0 0 48.57 150L24.1 82.87c-.46-1.27-1.57-1.8-3.7-1.73A13.07 13.07 0 0 0 8 94.3v14.92a13.07 13.07 0 0 0 12.4 13.17c2.13.08 3.24-.46 3.7-1.73l24.47-67.1a22.73 22.73 0 0 0-21.28-30.7A22.73 22.73 0 0 0 4.56 45.59v7.85" stroke="url(#i)"/><path d="M3.56 150.09v7.85a22.73 22.73 0 0 0 22.73 22.73A22.73 22.73 0 0 0 47.57 150L23.1 82.87c-.46-1.27-1.57-1.8-3.7-1.73A13.07 13.07 0 0 0 7 94.3v14.92a13.07 13.07 0 0 0 12.4 13.17c2.13.08 3.24-.46 3.7-1.73l24.47-67.1a22.73 22.73 0 0 0-21.28-30.7A22.73 22.73 0 0 0 3.56 45.59v7.85" stroke="url(#j)"/><path d="M2.56 150.09v7.85a22.73 22.73 0 0 0 22.73 22.73A22.73 22.73 0 0 0 46.57 150L22.1 82.87c-.46-1.27-1.57-1.8-3.7-1.73A13.07 13.07 0 0 0 6 94.3v14.92a13.07 13.07 0 0 0 12.4 13.17c2.13.08 3.24-.46 3.7-1.73l24.47-67.1a22.73 22.73 0 0 0-21.28-30.7A22.73 22.73 0 0 0 2.56 45.59v7.85" stroke="url(#k)"/></g></svg>