<svg data-name="Layer 2" xmlns="http://www.w3.org/2000/svg" xmlns:xlink="http://www.w3.org/1999/xlink" width="59.33" height="200" viewBox="0 0 59.33 200"><defs><linearGradient id="a" data-name="Red, Purple, Blue" x1="758.18" y1="1424.53" x2="758.18" y2="1375.48" gradientTransform="matrix(0 1 1 0 -1365.3 -657.67)" gradientUnits="userSpaceOnUse"><stop offset="0" stop-color="#b7151b"/><stop offset=".02" stop-color="#c52229"/><stop offset=".06" stop-color="#d7333c"/><stop offset=".11" stop-color="#e23d47"/><stop offset=".15" stop-color="#e6404b"/><stop offset=".3" stop-color="#e98a7b"/><stop offset=".47" stop-color="#7c78b8"/><stop offset=".64" stop-color="#00b0b0"/><stop offset=".79" stop-color="#7b76b6"/><stop offset="1" stop-color="#e7322f"/></linearGradient><linearGradient id="b" x1="758.18" y1="1423.53" x2="758.18" y2="1374.48" xlink:href="#a"/><linearGradient id="c" x1="758.18" y1="1422.53" x2="758.18" y2="1373.48" xlink:href="#a"/><linearGradient id="d" x1="758.18" y1="1421.53" x2="758.18" y2="1372.48" xlink:href="#a"/><linearGradient id="e" x1="758.18" y1="1420.53" x2="758.18" y2="1371.48" xlink:href="#a"/><linearGradient id="f" x1="758.18" y1="1419.53" x2="758.18" y2="1370.48" xlink:href="#a"/><linearGradient id="g" x1="758.18" y1="1418.53" x2="758.18" y2="1369.48" xlink:href="#a"/><linearGradient id="h" x1="758.18" y1="1417.53" x2="758.18" y2="1368.48" xlink:href="#a"/><linearGradient id="i" x1="758.18" y1="1416.53" x2="758.18" y2="1367.48" xlink:href="#a"/><linearGradient id="j" x1="758.18" y1="1415.53" x2="758.18" y2="1366.48" xlink:href="#a"/><linearGradient id="k" x1="758.18" y1="1414.53" x2="758.18" y2="1365.48" xlink:href="#a"/></defs><title>_</title><g fill="none" stroke-miterlimit="10" stroke-width="3.6"><path d="M57.43 180V35.48a12.38 12.38 0 0 0-5.7-10.71c-7.46-4.8-17.45-.27-19.33 8.4L12.34 120v.2a12.45 12.45 0 0 0 12.17 15.16h33.2" stroke="url(#a)"/><path d="M56.43 180V35.48a12.38 12.38 0 0 0-5.7-10.71c-7.46-4.8-17.45-.27-19.33 8.4L11.34 120v.2a12.45 12.45 0 0 0 12.17 15.16h33.2" stroke="url(#b)"/><path d="M55.43 180V35.48a12.38 12.38 0 0 0-5.7-10.71c-7.46-4.8-17.45-.27-19.33 8.4L10.34 120v.2a12.45 12.45 0 0 0 12.17 15.16h33.2" stroke="url(#c)"/><path d="M54.43 180V35.48a12.38 12.38 0 0 0-5.7-10.71c-7.46-4.8-17.45-.27-19.33 8.4L9.34 120v.2a12.45 12.45 0 0 0 12.17 15.16h33.2" stroke="url(#d)"/><path d="M53.43 180V35.48a12.38 12.38 0 0 0-5.7-10.71c-7.46-4.8-17.45-.27-19.33 8.4L8.34 120v.2a12.45 12.45 0 0 0 12.17 15.16h33.2" stroke="url(#e)"/><path d="M52.43 180V35.48a12.38 12.38 0 0 0-5.7-10.71c-7.46-4.8-17.45-.27-19.33 8.4L7.34 120v.2a12.45 12.45 0 0 0 12.17 15.16h33.2" stroke="url(#f)"/><path d="M51.43 180V35.48a12.38 12.38 0 0 0-5.7-10.71c-7.46-4.8-17.45-.27-19.33 8.4L6.34 120v.2a12.45 12.45 0 0 0 12.17 15.16h33.2" stroke="url(#g)"/><path d="M50.43 180V35.48a12.38 12.38 0 0 0-5.7-10.71c-7.46-4.8-17.45-.27-19.33 8.4L5.34 120v.2a12.45 12.45 0 0 0 12.17 15.16h33.2" stroke="url(#h)"/><path d="M49.43 180V35.48a12.38 12.38 0 0 0-5.7-10.71c-7.46-4.8-17.45-.27-19.33 8.4L4.34 120v.2a12.45 12.45 0 0 0 12.17 15.16h33.2" stroke="url(#i)"/><path d="M48.43 180V35.48a12.38 12.38 0 0 0-5.7-10.71c-7.46-4.8-17.45-.27-19.33 8.4L3.34 120v.2a12.45 12.45 0 0 0 12.17 15.16h33.2" stroke="url(#j)"/><path d="M47.43 180V35.48a12.38 12.38 0 0 0-5.7-10.71c-7.46-4.8-17.45-.27-19.33 8.4L2.34 120v.2a12.45 12.45 0 0 0 12.17 15.16h33.2" stroke="url(#k)"/></g></svg>