<svg data-name="Layer 2" xmlns="http://www.w3.org/2000/svg" xmlns:xlink="http://www.w3.org/1999/xlink" width="79.33" height="200" viewBox="0 0 79.33 200"><defs><linearGradient id="a" data-name="Red, Purple, Blue" x1="-446.1" y1="600.54" x2="-514.6" y2="600.54" gradientTransform="rotate(180 -217.815 350.5)" gradientUnits="userSpaceOnUse"><stop offset="0" stop-color="#b7151b"/><stop offset=".02" stop-color="#c52229"/><stop offset=".06" stop-color="#d7333c"/><stop offset=".11" stop-color="#e23d47"/><stop offset=".15" stop-color="#e6404b"/><stop offset=".3" stop-color="#e98a7b"/><stop offset=".47" stop-color="#7c78b8"/><stop offset=".64" stop-color="#00b0b0"/><stop offset=".79" stop-color="#7b76b6"/><stop offset="1" stop-color="#e7322f"/></linearGradient><linearGradient id="b" x1="-445.1" y1="600.54" x2="-513.6" y2="600.54" xlink:href="#a"/><linearGradient id="c" x1="-444.1" y1="600.54" x2="-512.6" y2="600.54" xlink:href="#a"/><linearGradient id="d" x1="-443.1" y1="600.54" x2="-511.6" y2="600.54" xlink:href="#a"/><linearGradient id="e" x1="-442.1" y1="600.54" x2="-510.6" y2="600.54" xlink:href="#a"/><linearGradient id="f" x1="-441.1" y1="600.54" x2="-509.6" y2="600.54" xlink:href="#a"/><linearGradient id="g" x1="-440.1" y1="600.54" x2="-508.6" y2="600.54" xlink:href="#a"/><linearGradient id="h" x1="-439.1" y1="600.54" x2="-507.6" y2="600.54" xlink:href="#a"/><linearGradient id="i" x1="-438.1" y1="600.54" x2="-506.6" y2="600.54" xlink:href="#a"/><linearGradient id="j" x1="-437.1" y1="600.54" x2="-505.6" y2="600.54" xlink:href="#a"/><linearGradient id="k" x1="-436.1" y1="600.54" x2="-504.6" y2="600.54" xlink:href="#a"/></defs><title>_</title><g fill="none" stroke-miterlimit="10" stroke-width="3.6"><path d="M10.82 178.76h44.8A21.38 21.38 0 0 0 77 157.38 21.38 21.38 0 0 0 55.62 136H12.29s0 .22 0 0L22.7 22.16h44c5.76 0 10.43 5.91 10.43 13.21" stroke="url(#a)"/><path d="M9.82 178.76h44.8A21.38 21.38 0 0 0 76 157.38 21.38 21.38 0 0 0 54.62 136H11.29s0 .22 0 0L21.7 22.16h44c5.76 0 10.43 5.91 10.43 13.21" stroke="url(#b)"/><path d="M8.82 178.76h44.8A21.38 21.38 0 0 0 75 157.38 21.38 21.38 0 0 0 53.62 136H10.29s0 .22 0 0L20.7 22.16h44c5.76 0 10.43 5.91 10.43 13.21" stroke="url(#c)"/><path d="M7.82 178.76h44.8A21.38 21.38 0 0 0 74 157.38 21.38 21.38 0 0 0 52.62 136H9.29s0 .22 0 0L19.7 22.16h44c5.76 0 10.43 5.91 10.43 13.21" stroke="url(#d)"/><path d="M6.82 178.76h44.8A21.38 21.38 0 0 0 73 157.38 21.38 21.38 0 0 0 51.62 136H8.29s0 .22 0 0L18.7 22.16h44c5.76 0 10.43 5.91 10.43 13.21" stroke="url(#e)"/><path d="M5.82 178.76h44.8A21.38 21.38 0 0 0 72 157.38 21.38 21.38 0 0 0 50.62 136H7.29s0 .22 0 0L17.7 22.16h44c5.76 0 10.43 5.91 10.43 13.21" stroke="url(#f)"/><path d="M4.82 178.76h44.8A21.38 21.38 0 0 0 71 157.38 21.38 21.38 0 0 0 49.62 136H6.29s0 .22 0 0L16.7 22.16h44c5.76 0 10.43 5.91 10.43 13.21" stroke="url(#g)"/><path d="M3.82 178.76h44.8A21.38 21.38 0 0 0 70 157.38 21.38 21.38 0 0 0 48.62 136H5.29s0 .22 0 0L15.7 22.16h44c5.76 0 10.43 5.91 10.43 13.21" stroke="url(#h)"/><path d="M2.82 178.76h44.8A21.38 21.38 0 0 0 69 157.38 21.38 21.38 0 0 0 47.62 136H4.29s0 .22 0 0L14.7 22.16h44c5.76 0 10.43 5.91 10.43 13.21" stroke="url(#i)"/><path d="M1.82 178.76h44.8A21.38 21.38 0 0 0 68 157.38 21.38 21.38 0 0 0 46.62 136H3.29s0 .22 0 0L13.7 22.16h44c5.76 0 10.43 5.91 10.43 13.21" stroke="url(#j)"/><path d="M.82 178.76h44.8A21.38 21.38 0 0 0 67 157.38 21.38 21.38 0 0 0 45.62 136H2.29s0 .22 0 0L12.7 22.16h44c5.76 0 10.43 5.91 10.43 13.21" stroke="url(#k)"/></g></svg>