<svg data-name="Layer 2" xmlns="http://www.w3.org/2000/svg" xmlns:xlink="http://www.w3.org/1999/xlink" width="99.63" height="200" viewBox="0 0 99.63 200"><defs><linearGradient id="a" data-name="Red, Purple, Blue" x1="14.61" y1="100.5" x2="99.1" y2="100.5" gradientUnits="userSpaceOnUse"><stop offset="0" stop-color="#b7151b"/><stop offset=".02" stop-color="#c52229"/><stop offset=".06" stop-color="#d7333c"/><stop offset=".11" stop-color="#e23d47"/><stop offset=".15" stop-color="#e6404b"/><stop offset=".3" stop-color="#e98a7b"/><stop offset=".47" stop-color="#7c78b8"/><stop offset=".64" stop-color="#00b0b0"/><stop offset=".79" stop-color="#7b76b6"/><stop offset="1" stop-color="#e7322f"/></linearGradient><linearGradient id="b" x1="13.61" y1="100.5" x2="98.1" y2="100.5" xlink:href="#a"/><linearGradient id="c" x1="12.61" y1="100.5" x2="97.1" y2="100.5" xlink:href="#a"/><linearGradient id="d" x1="11.61" y1="100.5" x2="96.1" y2="100.5" xlink:href="#a"/><linearGradient id="e" x1="10.61" y1="100.5" x2="95.1" y2="100.5" xlink:href="#a"/><linearGradient id="f" x1="9.61" y1="100.5" x2="94.1" y2="100.5" xlink:href="#a"/><linearGradient id="g" x1="8.61" y1="100.5" x2="93.1" y2="100.5" xlink:href="#a"/><linearGradient id="h" x1="7.61" y1="100.5" x2="92.1" y2="100.5" xlink:href="#a"/><linearGradient id="i" x1="6.61" y1="100.5" x2="91.1" y2="100.5" xlink:href="#a"/><linearGradient id="j" x1="5.61" y1="100.5" x2="90.1" y2="100.5" xlink:href="#a"/><linearGradient id="k" x1="4.61" y1="100.5" x2="89.1" y2="100.5" xlink:href="#a"/></defs><title>_</title><g fill="none" stroke-miterlimit="10" stroke-width="3.6"><path d="M23.8 130.13h48.41a24.15 24.15 0 0 1 24.15 24.1 24.06 24.06 0 0 1-24.06 24.1H61.44c-24.87 0-45-34-45-78.33s20.16-77.33 45-77.33H83A14.33 14.33 0 0 1 97.3 37" stroke="url(#a)"/><path d="M22.8 130.13h48.41a24.15 24.15 0 0 1 24.15 24.1 24.06 24.06 0 0 1-24.06 24.1H60.44c-24.87 0-45-34-45-78.33s20.16-77.33 45-77.33H82A14.33 14.33 0 0 1 96.3 37" stroke="url(#b)"/><path d="M21.8 130.13h48.41a24.15 24.15 0 0 1 24.15 24.1 24.06 24.06 0 0 1-24.06 24.1H59.44c-24.87 0-45-34-45-78.33s20.16-77.33 45-77.33H81A14.33 14.33 0 0 1 95.3 37" stroke="url(#c)"/><path d="M20.8 130.13h48.41a24.15 24.15 0 0 1 24.15 24.1 24.06 24.06 0 0 1-24.06 24.1H58.44c-24.87 0-45-34-45-78.33s20.16-77.33 45-77.33H80A14.33 14.33 0 0 1 94.3 37" stroke="url(#d)"/><path d="M19.8 130.13h48.41a24.15 24.15 0 0 1 24.15 24.1 24.06 24.06 0 0 1-24.06 24.1H57.44c-24.87 0-45-34-45-78.33s20.16-77.33 45-77.33H79A14.33 14.33 0 0 1 93.3 37" stroke="url(#e)"/><path d="M18.8 130.13h48.41a24.15 24.15 0 0 1 24.15 24.1 24.06 24.06 0 0 1-24.06 24.1H56.44c-24.87 0-45-34-45-78.33s20.16-77.33 45-77.33H78A14.33 14.33 0 0 1 92.3 37" stroke="url(#f)"/><path d="M17.8 130.13h48.41a24.15 24.15 0 0 1 24.15 24.1 24.06 24.06 0 0 1-24.06 24.1H55.44c-24.87 0-45-34-45-78.33s20.16-77.33 45-77.33H77A14.33 14.33 0 0 1 91.3 37" stroke="url(#g)"/><path d="M16.8 130.13h48.41a24.15 24.15 0 0 1 24.15 24.1 24.06 24.06 0 0 1-24.06 24.1H54.44c-24.87 0-45-34-45-78.33s20.16-77.33 45-77.33H76A14.33 14.33 0 0 1 90.3 37" stroke="url(#h)"/><path d="M15.8 130.13h48.41a24.15 24.15 0 0 1 24.15 24.1 24.06 24.06 0 0 1-24.06 24.1H53.44c-24.87 0-45-34-45-78.33s20.16-77.33 45-77.33H75A14.33 14.33 0 0 1 89.3 37" stroke="url(#i)"/><path d="M14.8 130.13h48.41a24.15 24.15 0 0 1 24.15 24.1 24.06 24.06 0 0 1-24.06 24.1H52.44c-24.87 0-45-34-45-78.33s20.16-77.33 45-77.33H74A14.33 14.33 0 0 1 88.3 37" stroke="url(#j)"/><path d="M13.8 130.13h48.41a24.15 24.15 0 0 1 24.15 24.1 24.06 24.06 0 0 1-24.06 24.1H51.44c-24.87 0-45-34-45-78.33s20.16-77.33 45-77.33H73A14.33 14.33 0 0 1 87.3 37" stroke="url(#k)"/></g></svg>