<svg data-name="Layer 2" xmlns="http://www.w3.org/2000/svg" xmlns:xlink="http://www.w3.org/1999/xlink" width="91.33" height="199.8" viewBox="0 0 91.33 199.8"><defs><linearGradient id="a" data-name="Red, Purple, Blue" x1="-1425.15" y1="600.17" x2="-1505.44" y2="600.17" gradientTransform="matrix(1 0 0 -1 1515.33 700.6)" gradientUnits="userSpaceOnUse"><stop offset="0" stop-color="#b7151b"/><stop offset=".02" stop-color="#c52229"/><stop offset=".06" stop-color="#d7333c"/><stop offset=".11" stop-color="#e23d47"/><stop offset=".15" stop-color="#e6404b"/><stop offset=".3" stop-color="#e98a7b"/><stop offset=".47" stop-color="#7c78b8"/><stop offset=".64" stop-color="#00b0b0"/><stop offset=".79" stop-color="#7b76b6"/><stop offset="1" stop-color="#e7322f"/></linearGradient><linearGradient id="b" x1="-1426.15" y1="600.17" x2="-1506.44" y2="600.17" xlink:href="#a"/><linearGradient id="c" x1="-1427.15" y1="600.17" x2="-1507.44" y2="600.17" xlink:href="#a"/><linearGradient id="d" x1="-1428.15" y1="600.17" x2="-1508.44" y2="600.17" xlink:href="#a"/><linearGradient id="e" x1="-1429.15" y1="600.17" x2="-1509.44" y2="600.17" xlink:href="#a"/><linearGradient id="f" x1="-1430.15" y1="600.17" x2="-1510.44" y2="600.17" xlink:href="#a"/><linearGradient id="g" x1="-1431.15" y1="600.17" x2="-1511.44" y2="600.17" xlink:href="#a"/><linearGradient id="h" x1="-1432.15" y1="600.17" x2="-1512.44" y2="600.17" xlink:href="#a"/><linearGradient id="i" x1="-1433.15" y1="600.17" x2="-1513.44" y2="600.17" xlink:href="#a"/><linearGradient id="j" x1="-1434.15" y1="600.17" x2="-1514.44" y2="600.17" xlink:href="#a"/><linearGradient id="k" x1="-1435.15" y1="600.17" x2="-1515.44" y2="600.17" xlink:href="#a"/><linearGradient id="l" data-name="Orange, Yellow" x1="-1.44" y1="135.3" x2="70.54" y2="135.3" gradientTransform="matrix(-1 0 0 1 82.37 0)" gradientUnits="userSpaceOnUse"><stop offset="0" stop-color="#fff33b"/><stop offset=".04" stop-color="#fee72e"/><stop offset=".12" stop-color="#fed51b"/><stop offset=".2" stop-color="#fdca10"/><stop offset=".28" stop-color="#fdc70c"/><stop offset=".67" stop-color="#f3903f"/><stop offset=".89" stop-color="#ed683c"/><stop offset="1" stop-color="#e93e3a"/></linearGradient></defs><title>_</title><g fill="none" stroke-miterlimit="10" stroke-width="3.6"><path d="M9.89 22.47h69.73A8.76 8.76 0 0 1 88 33.85L56.48 134.29v45.91" stroke="url(#a)"/><path d="M8.89 22.47h69.73A8.76 8.76 0 0 1 87 33.85L55.48 134.29v45.91" stroke="url(#b)"/><path d="M7.89 22.47h69.73A8.76 8.76 0 0 1 86 33.85L54.48 134.29v45.91" stroke="url(#c)"/><path d="M6.89 22.47h69.73A8.76 8.76 0 0 1 85 33.85L53.48 134.29v45.91" stroke="url(#d)"/><path d="M5.89 22.47h69.73A8.76 8.76 0 0 1 84 33.85L52.48 134.29v45.91" stroke="url(#e)"/><path d="M4.89 22.47h69.73A8.76 8.76 0 0 1 83 33.85L51.48 134.29v45.91" stroke="url(#f)"/><path d="M3.89 22.47h69.73A8.76 8.76 0 0 1 82 33.85L50.48 134.29v45.91" stroke="url(#g)"/><path d="M2.89 22.47h69.73A8.76 8.76 0 0 1 81 33.85L49.48 134.29v45.91" stroke="url(#h)"/><path d="M1.89 22.47h69.73A8.76 8.76 0 0 1 80 33.85L48.48 134.29v45.91" stroke="url(#i)"/><path d="M.89 22.47h69.73A8.76 8.76 0 0 1 79 33.85L47.48 134.29v45.91" stroke="url(#j)"/><path d="M-.11 22.47h69.73A8.76 8.76 0 0 1 78 33.85L46.48 134.29v45.91" stroke="url(#k)"/></g><path fill="none" stroke-miterlimit="10" stroke-width="10.8" stroke="url(#l)" d="M83.81 135.3H11.82"/></svg>