<svg data-name="Layer 2" xmlns="http://www.w3.org/2000/svg" xmlns:xlink="http://www.w3.org/1999/xlink" width="97.33" height="200" viewBox="0 0 97.33 200"><defs><linearGradient id="a" data-name="Orange, Yellow" x1="4.66" y1="84.84" x2="87.09" y2="84.84" gradientUnits="userSpaceOnUse"><stop offset="0" stop-color="#fff33b"/><stop offset=".04" stop-color="#fee72e"/><stop offset=".12" stop-color="#fed51b"/><stop offset=".2" stop-color="#fdca10"/><stop offset=".28" stop-color="#fdc70c"/><stop offset=".67" stop-color="#f3903f"/><stop offset=".89" stop-color="#ed683c"/><stop offset="1" stop-color="#e93e3a"/></linearGradient><linearGradient id="c" x1="4.66" y1="97.34" x2="87.09" y2="97.34" xlink:href="#a"/><linearGradient id="b" data-name="Red, Purple, Blue" x1="-7.91" y1="100.5" x2="77.45" y2="100.5" gradientTransform="rotate(180 44.335 100.5)" gradientUnits="userSpaceOnUse"><stop offset="0" stop-color="#b7151b"/><stop offset=".02" stop-color="#c52229"/><stop offset=".06" stop-color="#d7333c"/><stop offset=".11" stop-color="#e23d47"/><stop offset=".15" stop-color="#e6404b"/><stop offset=".3" stop-color="#e98a7b"/><stop offset=".47" stop-color="#7c78b8"/><stop offset=".64" stop-color="#00b0b0"/><stop offset=".79" stop-color="#7b76b6"/><stop offset="1" stop-color="#e7322f"/></linearGradient><linearGradient id="d" x1="-6.91" y1="100.5" x2="78.45" y2="100.5" xlink:href="#b"/><linearGradient id="e" x1="-5.91" y1="100.5" x2="79.45" y2="100.5" xlink:href="#b"/><linearGradient id="f" x1="-4.91" y1="100.5" x2="80.45" y2="100.5" xlink:href="#b"/><linearGradient id="g" x1="-3.91" y1="100.5" x2="81.45" y2="100.5" xlink:href="#b"/><linearGradient id="h" x1="-2.91" y1="100.5" x2="82.45" y2="100.5" xlink:href="#b"/><linearGradient id="i" x1="-1.91" y1="100.5" x2="83.45" y2="100.5" xlink:href="#b"/><linearGradient id="j" x1="-.91" y1="100.5" x2="84.45" y2="100.5" xlink:href="#b"/><linearGradient id="k" x1=".09" y1="100.5" x2="85.45" y2="100.5" xlink:href="#b"/><linearGradient id="l" x1="1.09" y1="100.5" x2="86.45" y2="100.5" xlink:href="#b"/><linearGradient id="m" x1="2.09" y1="100.5" x2="87.45" y2="100.5" xlink:href="#b"/></defs><title>_</title><path fill="none" stroke-miterlimit="10" stroke-width="3.6" stroke="url(#a)" d="M4.66 84.84h82.43"/><path fill="none" stroke-miterlimit="10" stroke-width="3.6" stroke="url(#c)" d="M4.66 97.34h82.43"/><g fill="none" stroke-miterlimit="10" stroke-width="3.6"><path d="M87.39 135H39c-35.83 0-24.15-74.91-24.17-88.23a24.06 24.06 0 0 1 24.06-24.1h10.85c24.87 0 45 34 45 78.33s-20.16 77.33-45 77.33H28.22A14.33 14.33 0 0 1 13.89 164" stroke="url(#b)"/><path d="M86.39 135H38c-35.83 0-24.15-74.91-24.17-88.23a24.06 24.06 0 0 1 24.06-24.1h10.85c24.87 0 45 34 45 78.33s-20.16 77.33-45 77.33H27.22A14.33 14.33 0 0 1 12.89 164" stroke="url(#d)"/><path d="M85.39 135H37c-35.83 0-24.15-74.91-24.17-88.23a24.06 24.06 0 0 1 24.06-24.1h10.85c24.87 0 45 34 45 78.33s-20.16 77.33-45 77.33H26.22A14.33 14.33 0 0 1 11.89 164" stroke="url(#e)"/><path d="M84.39 135H36C.17 135 11.85 60.09 11.83 46.77a24.06 24.06 0 0 1 24.06-24.1h10.85c24.87 0 45 34 45 78.33s-20.16 77.33-45 77.33H25.22A14.33 14.33 0 0 1 10.89 164" stroke="url(#f)"/><path d="M83.39 135H35c-35.83 0-24.15-74.91-24.17-88.23a24.06 24.06 0 0 1 24.06-24.1h10.85c24.87 0 45 34 45 78.33s-20.16 77.33-45 77.33H24.22A14.33 14.33 0 0 1 9.89 164" stroke="url(#g)"/><path d="M82.39 135H34C-1.83 135 9.85 60.09 9.83 46.77a24.06 24.06 0 0 1 24.06-24.1h10.85c24.87 0 45 34 45 78.33s-20.16 77.33-45 77.33H23.22A14.33 14.33 0 0 1 8.89 164" stroke="url(#h)"/><path d="M81.39 135H33C-2.83 135 8.85 60.09 8.83 46.77a24.06 24.06 0 0 1 24.06-24.1h10.85c24.87 0 45 34 45 78.33s-20.16 77.33-45 77.33H22.22A14.33 14.33 0 0 1 7.89 164" stroke="url(#i)"/><path d="M80.39 135H32C-3.83 135 7.85 60.09 7.83 46.77a24.06 24.06 0 0 1 24.06-24.1h10.85c24.87 0 45 34 45 78.33s-20.16 77.33-45 77.33H21.22A14.33 14.33 0 0 1 6.89 164" stroke="url(#j)"/><path d="M79.39 135H31C-4.83 135 6.85 60.09 6.83 46.77a24.06 24.06 0 0 1 24.06-24.1h10.85c24.87 0 45 34 45 78.33s-20.16 77.33-45 77.33H20.22A14.33 14.33 0 0 1 5.89 164" stroke="url(#k)"/><path d="M78.39 135H30C-5.83 135 5.85 60.09 5.83 46.77a24.06 24.06 0 0 1 24.06-24.1h10.85c24.87 0 45 34 45 78.33s-20.16 77.33-45 77.33H19.22A14.33 14.33 0 0 1 4.89 164" stroke="url(#l)"/><path d="M77.39 135H29C-6.83 135 4.85 60.09 4.83 46.77a24.06 24.06 0 0 1 24.06-24.1h10.85c24.87 0 45 34 45 78.33s-20.16 77.33-45 77.33H18.22A14.33 14.33 0 0 1 3.89 164" stroke="url(#m)"/></g></svg>