<svg data-name="Layer 2" xmlns="http://www.w3.org/2000/svg" xmlns:xlink="http://www.w3.org/1999/xlink" width="54" height="200" viewBox="0 0 54 200"><defs><linearGradient id="a" data-name="Red, Purple, Blue" x1="25.66" y1="-1875.17" x2="109.33" y2="-1875.17" gradientTransform="matrix(0 1 1 0 1907.37 45.15)" gradientUnits="userSpaceOnUse"><stop offset="0" stop-color="#b7151b"/><stop offset=".02" stop-color="#c52229"/><stop offset=".06" stop-color="#d7333c"/><stop offset=".11" stop-color="#e23d47"/><stop offset=".15" stop-color="#e6404b"/><stop offset=".3" stop-color="#e98a7b"/><stop offset=".47" stop-color="#7c78b8"/><stop offset=".64" stop-color="#00b0b0"/><stop offset=".79" stop-color="#7b76b6"/><stop offset="1" stop-color="#e7322f"/></linearGradient><linearGradient id="b" x1="25.66" y1="-1876.17" x2="109.33" y2="-1876.17" xlink:href="#a"/><linearGradient id="c" x1="25.66" y1="-1877.17" x2="109.33" y2="-1877.17" xlink:href="#a"/><linearGradient id="d" x1="25.66" y1="-1878.17" x2="109.33" y2="-1878.17" xlink:href="#a"/><linearGradient id="e" x1="25.66" y1="-1879.17" x2="109.33" y2="-1879.17" xlink:href="#a"/><linearGradient id="f" x1="25.66" y1="-1880.17" x2="109.33" y2="-1880.17" xlink:href="#a"/><linearGradient id="g" x1="25.66" y1="-1881.17" x2="109.33" y2="-1881.17" xlink:href="#a"/><linearGradient id="h" x1="25.66" y1="-1882.17" x2="109.33" y2="-1882.17" xlink:href="#a"/><linearGradient id="i" x1="25.66" y1="-1883.17" x2="109.33" y2="-1883.17" xlink:href="#a"/><linearGradient id="j" x1="25.66" y1="-1884.17" x2="109.33" y2="-1884.17" xlink:href="#a"/><linearGradient id="k" x1="25.66" y1="-1885.17" x2="109.33" y2="-1885.17" xlink:href="#a"/></defs><title>_</title><g fill="none" stroke-miterlimit="10" stroke-width="3.6"><path d="M52.26 72.61h-.34c-6.36 0-13.39 4.19-19.42 12.39l-19 21.78c-1.43 1.8-1.43 9.93 0 11.72l19.64 22.25c5.93 7.9 12.84 11.92 19.08 11.92" stroke="url(#a)"/><path d="M51.26 72.61h-.34c-6.36 0-13.39 4.19-19.42 12.39l-19 21.78c-1.43 1.8-1.43 9.93 0 11.72l19.64 22.25c5.93 7.9 12.84 11.92 19.08 11.92" stroke="url(#b)"/><path d="M50.26 72.61h-.34c-6.36 0-13.39 4.19-19.42 12.39l-19 21.78c-1.43 1.8-1.43 9.93 0 11.72l19.64 22.25c5.93 7.9 12.84 11.92 19.08 11.92" stroke="url(#c)"/><path d="M49.26 72.61h-.34c-6.36 0-13.39 4.19-19.42 12.39l-19 21.78c-1.43 1.8-1.43 9.93 0 11.72l19.64 22.25c5.93 7.9 12.84 11.92 19.08 11.92" stroke="url(#d)"/><path d="M48.26 72.61h-.34c-6.36 0-13.39 4.19-19.42 12.39l-19 21.78c-1.43 1.8-1.43 9.93 0 11.72l19.64 22.25c5.93 7.9 12.84 11.92 19.08 11.92" stroke="url(#e)"/><path d="M47.26 72.61h-.34c-6.36 0-13.39 4.19-19.42 12.39l-19 21.78c-1.43 1.8-1.43 9.93 0 11.72l19.64 22.25c5.93 7.9 12.84 11.92 19.08 11.92" stroke="url(#f)"/><path d="M46.26 72.61h-.34c-6.36 0-13.39 4.19-19.42 12.39l-19 21.78c-1.43 1.8-1.43 9.93 0 11.72l19.64 22.25c5.93 7.9 12.84 11.92 19.08 11.92" stroke="url(#g)"/><path d="M45.26 72.61h-.34c-6.36 0-13.39 4.19-19.42 12.39l-19 21.78c-1.43 1.8-1.43 9.93 0 11.72l19.64 22.25c5.93 7.9 12.84 11.92 19.08 11.92" stroke="url(#h)"/><path d="M44.26 72.61h-.34c-6.36 0-13.39 4.19-19.42 12.39l-19 21.78c-1.43 1.8-1.43 9.93 0 11.72l19.64 22.25c5.93 7.9 12.84 11.92 19.08 11.92" stroke="url(#i)"/><path d="M43.26 72.61h-.34c-6.36 0-13.39 4.19-19.42 12.39l-19 21.78c-1.43 1.8-1.43 9.93 0 11.72l19.64 22.25c5.93 7.9 12.84 11.92 19.08 11.92" stroke="url(#j)"/><path d="M42.26 72.61h-.34c-6.36 0-13.39 4.19-19.42 12.39l-19 21.78c-1.43 1.8-1.43 9.93 0 11.72l19.64 22.25c5.93 7.9 12.84 11.92 19.08 11.92" stroke="url(#k)"/></g></svg>