<svg data-name="Layer 2" xmlns="http://www.w3.org/2000/svg" xmlns:xlink="http://www.w3.org/1999/xlink" width="52" height="200" viewBox="0 0 52 200"><defs><linearGradient id="a" data-name="Red, Purple, Blue" x1="-192.84" y1="-1688.17" x2="-109.17" y2="-1688.17" gradientTransform="matrix(0 -1 -1 0 -1657.47 -38.36)" gradientUnits="userSpaceOnUse"><stop offset="0" stop-color="#b7151b"/><stop offset=".02" stop-color="#c52229"/><stop offset=".06" stop-color="#d7333c"/><stop offset=".11" stop-color="#e23d47"/><stop offset=".15" stop-color="#e6404b"/><stop offset=".3" stop-color="#e98a7b"/><stop offset=".47" stop-color="#7c78b8"/><stop offset=".64" stop-color="#00b0b0"/><stop offset=".79" stop-color="#7b76b6"/><stop offset="1" stop-color="#e7322f"/></linearGradient><linearGradient id="b" x1="-192.84" y1="-1687.17" x2="-109.17" y2="-1687.17" xlink:href="#a"/><linearGradient id="c" x1="-192.84" y1="-1686.17" x2="-109.17" y2="-1686.17" xlink:href="#a"/><linearGradient id="d" x1="-192.84" y1="-1685.17" x2="-109.17" y2="-1685.17" xlink:href="#a"/><linearGradient id="e" x1="-192.84" y1="-1684.17" x2="-109.17" y2="-1684.17" xlink:href="#a"/><linearGradient id="f" x1="-192.84" y1="-1683.17" x2="-109.17" y2="-1683.17" xlink:href="#a"/><linearGradient id="g" x1="-192.84" y1="-1682.17" x2="-109.17" y2="-1682.17" xlink:href="#a"/><linearGradient id="h" x1="-192.84" y1="-1681.17" x2="-109.17" y2="-1681.17" xlink:href="#a"/><linearGradient id="i" x1="-192.84" y1="-1680.17" x2="-109.17" y2="-1680.17" xlink:href="#a"/><linearGradient id="j" x1="-192.84" y1="-1679.17" x2="-109.17" y2="-1679.17" xlink:href="#a"/><linearGradient id="k" x1="-192.84" y1="-1678.17" x2="-109.17" y2="-1678.17" xlink:href="#a"/></defs><title>_</title><g fill="none" stroke-miterlimit="10" stroke-width="3.6"><path d="M10.63 152.68H11c6.37 0 13.39-4.18 19.43-12.39l19-21.78c1.43-1.8 1.43-9.93 0-11.72L29.71 84.53c-5.93-7.9-12.84-11.92-19.08-11.92" stroke="url(#a)"/><path d="M9.63 152.68H10c6.37 0 13.39-4.18 19.43-12.39l19-21.78c1.43-1.8 1.43-9.93 0-11.72L28.71 84.53c-5.93-7.9-12.84-11.92-19.08-11.92" stroke="url(#b)"/><path d="M8.63 152.68H9c6.37 0 13.39-4.18 19.43-12.39l19-21.78c1.43-1.8 1.43-9.93 0-11.72L27.71 84.53c-5.93-7.9-12.84-11.92-19.08-11.92" stroke="url(#c)"/><path d="M7.63 152.68H8c6.37 0 13.39-4.18 19.43-12.39l19-21.78c1.43-1.8 1.43-9.93 0-11.72L26.71 84.53c-5.93-7.9-12.84-11.92-19.08-11.92" stroke="url(#d)"/><path d="M6.63 152.68H7c6.37 0 13.39-4.18 19.43-12.39l19-21.78c1.43-1.8 1.43-9.93 0-11.72L25.71 84.53c-5.93-7.9-12.84-11.92-19.08-11.92" stroke="url(#e)"/><path d="M5.63 152.68H6c6.37 0 13.39-4.18 19.43-12.39l19-21.78c1.43-1.8 1.43-9.93 0-11.72L24.71 84.53c-5.93-7.9-12.84-11.92-19.08-11.92" stroke="url(#f)"/><path d="M4.63 152.68H5c6.37 0 13.39-4.18 19.43-12.39l19-21.78c1.43-1.8 1.43-9.93 0-11.72L23.71 84.53c-5.93-7.9-12.84-11.92-19.08-11.92" stroke="url(#g)"/><path d="M3.63 152.68H4c6.37 0 13.39-4.18 19.43-12.39l19-21.78c1.43-1.8 1.43-9.93 0-11.72L22.71 84.53C16.79 76.64 9.88 72.61 3.63 72.61" stroke="url(#h)"/><path d="M2.63 152.68H3c6.37 0 13.39-4.18 19.43-12.39l19-21.78c1.43-1.8 1.43-9.93 0-11.72L21.71 84.53C15.79 76.64 8.88 72.61 2.63 72.61" stroke="url(#i)"/><path d="M1.63 152.68H2c6.37 0 13.39-4.18 19.43-12.39l19-21.78c1.43-1.8 1.43-9.93 0-11.72L20.71 84.53C14.79 76.64 7.88 72.61 1.63 72.61" stroke="url(#j)"/><path d="M.63 152.68H1c6.37 0 13.39-4.18 19.43-12.39l19-21.78c1.43-1.8 1.43-9.93 0-11.72L19.71 84.53C13.79 76.64 6.88 72.61.63 72.61" stroke="url(#k)"/></g></svg>