<svg data-name="Layer 2" xmlns="http://www.w3.org/2000/svg" xmlns:xlink="http://www.w3.org/1999/xlink" width="48" height="199.14" viewBox="0 0 48 199.14"><defs><linearGradient id="a" data-name="Red, Purple, Blue" x1="7.19" y1="80.75" x2="57.17" y2="72.83" gradientTransform="matrix(.98 -.17 .17 .98 -11.99 7.74)" gradientUnits="userSpaceOnUse"><stop offset="0" stop-color="#b7151b"/><stop offset=".02" stop-color="#c52229"/><stop offset=".06" stop-color="#d7333c"/><stop offset=".11" stop-color="#e23d47"/><stop offset=".15" stop-color="#e6404b"/><stop offset=".3" stop-color="#e98a7b"/><stop offset=".47" stop-color="#7c78b8"/><stop offset=".64" stop-color="#00b0b0"/><stop offset=".79" stop-color="#7b76b6"/><stop offset="1" stop-color="#e7322f"/></linearGradient><linearGradient id="b" x1="6.2" y1="80.57" x2="56.19" y2="72.66" xlink:href="#a"/><linearGradient id="c" x1="5.22" y1="80.4" x2="55.2" y2="72.48" xlink:href="#a"/><linearGradient id="d" x1="4.23" y1="80.23" x2="54.22" y2="72.31" xlink:href="#a"/><linearGradient id="e" x1="3.25" y1="80.05" x2="53.23" y2="72.14" xlink:href="#a"/><linearGradient id="f" x1="2.27" y1="79.88" x2="52.25" y2="71.96" xlink:href="#a"/><linearGradient id="g" x1="1.28" y1="79.7" x2="51.26" y2="71.79" xlink:href="#a"/><linearGradient id="h" x1=".3" y1="79.53" x2="50.28" y2="71.61" xlink:href="#a"/><linearGradient id="i" x1="-.69" y1="79.36" x2="49.3" y2="71.44" xlink:href="#a"/><linearGradient id="j" x1="-1.67" y1="79.18" x2="48.31" y2="71.27" xlink:href="#a"/><linearGradient id="k" x1="-2.66" y1="79.01" x2="47.33" y2="71.09" xlink:href="#a"/><linearGradient id="l" data-name="Orange, Yellow" x1="6.1" y1="163.25" x2="39.4" y2="163.25" gradientUnits="userSpaceOnUse"><stop offset="0" stop-color="#fff33b"/><stop offset=".04" stop-color="#fee72e"/><stop offset=".12" stop-color="#fed51b"/><stop offset=".2" stop-color="#fdca10"/><stop offset=".28" stop-color="#fdc70c"/><stop offset=".67" stop-color="#f3903f"/><stop offset=".89" stop-color="#ed683c"/><stop offset="1" stop-color="#e93e3a"/></linearGradient></defs><title>_</title><g fill="none" stroke-miterlimit="10" stroke-width="3.6"><path d="M29.72 136.38c-1.83-.51-3.24-4.28-2.7-7.21 0 0 43.73-105.71-1.81-105.71C15 25.26 9.65 42.89 13.17 62.83" stroke="url(#a)"/><path d="M28.72 136.38c-1.83-.51-3.24-4.28-2.7-7.21 0 0 43.73-105.71-1.81-105.71C14 25.26 8.65 42.89 12.17 62.83" stroke="url(#b)"/><path d="M27.72 136.38c-1.83-.51-3.24-4.28-2.7-7.21 0 0 43.73-105.71-1.81-105.71C13 25.26 7.65 42.89 11.17 62.83" stroke="url(#c)"/><path d="M26.72 136.38c-1.83-.51-3.24-4.28-2.7-7.21 0 0 43.73-105.71-1.81-105.71C12 25.26 6.65 42.89 10.17 62.83" stroke="url(#d)"/><path d="M25.72 136.38c-1.83-.51-3.24-4.28-2.7-7.21 0 0 43.73-105.71-1.81-105.71C11 25.26 5.65 42.89 9.17 62.83" stroke="url(#e)"/><path d="M24.72 136.38c-1.83-.51-3.24-4.28-2.7-7.21 0 0 43.73-105.71-1.81-105.71C10 25.26 4.65 42.89 8.17 62.83" stroke="url(#f)"/><path d="M23.72 136.38c-1.83-.51-3.24-4.28-2.7-7.21 0 0 43.73-105.71-1.81-105.71C9 25.26 3.65 42.89 7.17 62.83" stroke="url(#g)"/><path d="M22.72 136.38c-1.83-.51-3.24-4.28-2.7-7.21 0 0 43.73-105.71-1.81-105.71C8 25.26 2.65 42.89 6.17 62.83" stroke="url(#h)"/><path d="M21.72 136.38c-1.83-.51-3.24-4.28-2.7-7.21 0 0 43.73-105.71-1.81-105.71C7 25.26 1.65 42.89 5.17 62.83" stroke="url(#i)"/><path d="M20.72 136.38c-1.83-.51-3.24-4.28-2.7-7.21 0 0 43.73-105.71-1.81-105.71C6 25.26.65 42.89 4.17 62.83" stroke="url(#j)"/><path d="M19.72 136.38c-1.83-.51-3.24-4.28-2.7-7.21 0 0 43.73-105.71-1.81-105.71C5 25.26-.35 42.89 3.17 62.83" stroke="url(#k)"/></g><circle cx="22.75" cy="163.25" r="11.25" fill="none" stroke-miterlimit="10" stroke-width="10.8" stroke="url(#l)"/></svg>