<svg data-name="Layer 2" xmlns="http://www.w3.org/2000/svg" xmlns:xlink="http://www.w3.org/1999/xlink" width="92.67" height="200" viewBox="0 0 92.67 200"><defs><linearGradient id="a" data-name="Red, Purple, Blue" x1="10.54" y1="100" x2="100.6" y2="100" gradientUnits="userSpaceOnUse"><stop offset="0" stop-color="#b7151b"/><stop offset=".02" stop-color="#c52229"/><stop offset=".06" stop-color="#d7333c"/><stop offset=".11" stop-color="#e23d47"/><stop offset=".15" stop-color="#e6404b"/><stop offset=".3" stop-color="#e98a7b"/><stop offset=".47" stop-color="#7c78b8"/><stop offset=".64" stop-color="#00b0b0"/><stop offset=".79" stop-color="#7b76b6"/><stop offset="1" stop-color="#e7322f"/></linearGradient><linearGradient id="b" x1="9.54" x2="99.6" xlink:href="#a"/><linearGradient id="c" x1="8.54" x2="98.6" xlink:href="#a"/><linearGradient id="d" x1="7.54" x2="97.6" xlink:href="#a"/><linearGradient id="e" x1="6.54" x2="96.6" xlink:href="#a"/><linearGradient id="f" x1="5.54" x2="95.6" xlink:href="#a"/><linearGradient id="g" x1="4.54" x2="94.6" xlink:href="#a"/><linearGradient id="h" x1="3.54" x2="93.6" xlink:href="#a"/><linearGradient id="i" x1="2.54" x2="92.6" xlink:href="#a"/><linearGradient id="j" x1="1.54" x2="91.6" xlink:href="#a"/><linearGradient id="k" x1=".54" x2="90.6" xlink:href="#a"/></defs><title>_</title><g fill="none" stroke-miterlimit="10" stroke-width="3.6"><path d="M100.58 179.25l-73.06.75a15.18 15.18 0 0 1-15.18-15.18V35.18A15.18 15.18 0 0 1 27.52 20h49.62a15.18 15.18 0 0 1 15.18 15.18v83.41c0 19.32-5.88 15.41-9.91 15.41a36.92 36.92 0 0 0-24.68-1.73l-6.2 1.73a15.18 15.18 0 0 1-15.18-15.18V57.18A15.18 15.18 0 0 1 51.53 42h1.36A15.18 15.18 0 0 1 68 58.39l.15 64.18" stroke="url(#a)"/><path d="M99.58 179.25l-73.06.75a15.18 15.18 0 0 1-15.18-15.18V35.18A15.18 15.18 0 0 1 26.52 20h49.62a15.18 15.18 0 0 1 15.18 15.18v83.41c0 19.32-5.88 15.41-9.91 15.41a36.92 36.92 0 0 0-24.68-1.73l-6.2 1.73a15.18 15.18 0 0 1-15.18-15.18V57.18A15.18 15.18 0 0 1 50.53 42h1.36A15.18 15.18 0 0 1 67 58.39l.15 64.18" stroke="url(#b)"/><path d="M98.58 179.25l-73.06.75a15.18 15.18 0 0 1-15.18-15.18V35.18A15.18 15.18 0 0 1 25.52 20h49.62a15.18 15.18 0 0 1 15.18 15.18v83.41c0 19.32-5.88 15.41-9.91 15.41a36.92 36.92 0 0 0-24.68-1.73l-6.2 1.73a15.18 15.18 0 0 1-15.18-15.18V57.18A15.18 15.18 0 0 1 49.53 42h1.36A15.18 15.18 0 0 1 66 58.39l.15 64.18" stroke="url(#c)"/><path d="M97.58 179.25l-73.06.75a15.18 15.18 0 0 1-15.18-15.18V35.18A15.18 15.18 0 0 1 24.52 20h49.62a15.18 15.18 0 0 1 15.18 15.18v83.41c0 19.32-5.88 15.41-9.91 15.41a36.92 36.92 0 0 0-24.68-1.73l-6.2 1.73a15.18 15.18 0 0 1-15.18-15.18V57.18A15.18 15.18 0 0 1 48.53 42h1.36A15.18 15.18 0 0 1 65 58.39l.15 64.18" stroke="url(#d)"/><path d="M96.58 179.25l-73.06.75a15.18 15.18 0 0 1-15.18-15.18V35.18A15.18 15.18 0 0 1 23.52 20h49.62a15.18 15.18 0 0 1 15.18 15.18v83.41c0 19.32-5.88 15.41-9.91 15.41a36.92 36.92 0 0 0-24.68-1.73l-6.2 1.73a15.18 15.18 0 0 1-15.18-15.18V57.18A15.18 15.18 0 0 1 47.53 42h1.36A15.18 15.18 0 0 1 64 58.39l.15 64.18" stroke="url(#e)"/><path d="M95.58 179.25l-73.06.75a15.18 15.18 0 0 1-15.18-15.18V35.18A15.18 15.18 0 0 1 22.52 20h49.62a15.18 15.18 0 0 1 15.18 15.18v83.41c0 19.32-5.88 15.41-9.91 15.41a36.92 36.92 0 0 0-24.68-1.73l-6.2 1.73a15.18 15.18 0 0 1-15.18-15.18V57.18A15.18 15.18 0 0 1 46.53 42h1.36A15.18 15.18 0 0 1 63 58.39l.15 64.18" stroke="url(#f)"/><path d="M94.58 179.25l-73.06.75a15.18 15.18 0 0 1-15.18-15.18V35.18A15.18 15.18 0 0 1 21.52 20h49.62a15.18 15.18 0 0 1 15.18 15.18v83.41c0 19.32-5.88 15.41-9.91 15.41a36.92 36.92 0 0 0-24.68-1.73l-6.2 1.73a15.18 15.18 0 0 1-15.18-15.18V57.18A15.18 15.18 0 0 1 45.53 42h1.36A15.18 15.18 0 0 1 62 58.39l.15 64.18" stroke="url(#g)"/><path d="M93.58 179.25l-73.06.75a15.18 15.18 0 0 1-15.18-15.18V35.18A15.18 15.18 0 0 1 20.52 20h49.62a15.18 15.18 0 0 1 15.18 15.18v83.41c0 19.32-5.88 15.41-9.91 15.41a36.92 36.92 0 0 0-24.68-1.73l-6.2 1.73a15.18 15.18 0 0 1-15.18-15.18V57.18A15.18 15.18 0 0 1 44.53 42h1.36A15.18 15.18 0 0 1 61 58.39l.15 64.18" stroke="url(#h)"/><path d="M92.58 179.25l-73.06.75a15.18 15.18 0 0 1-15.18-15.18V35.18A15.18 15.18 0 0 1 19.52 20h49.62a15.18 15.18 0 0 1 15.18 15.18v83.41c0 19.32-5.88 15.41-9.91 15.41a36.92 36.92 0 0 0-24.68-1.73l-6.2 1.73a15.18 15.18 0 0 1-15.18-15.18V57.18A15.18 15.18 0 0 1 43.53 42h1.36A15.18 15.18 0 0 1 60 58.39l.15 64.18" stroke="url(#i)"/><path d="M91.58 179.25l-73.06.75a15.18 15.18 0 0 1-15.18-15.18V35.18A15.18 15.18 0 0 1 18.52 20h49.62a15.18 15.18 0 0 1 15.18 15.18v83.41c0 19.32-5.88 15.41-9.91 15.41a36.92 36.92 0 0 0-24.68-1.73l-6.2 1.73a15.18 15.18 0 0 1-15.18-15.18V57.18A15.18 15.18 0 0 1 42.53 42h1.36A15.18 15.18 0 0 1 59 58.39l.15 64.18" stroke="url(#j)"/><path d="M90.58 179.25l-73.06.75a15.18 15.18 0 0 1-15.18-15.18V35.18A15.18 15.18 0 0 1 17.52 20h49.62a15.18 15.18 0 0 1 15.18 15.18v83.41c0 19.32-5.88 15.41-9.91 15.41a36.92 36.92 0 0 0-24.68-1.73l-6.2 1.73a15.18 15.18 0 0 1-15.18-15.18V57.18A15.18 15.18 0 0 1 41.53 42h1.36A15.18 15.18 0 0 1 58 58.39l.15 64.18" stroke="url(#k)"/></g></svg>