<svg data-name="Layer 2" xmlns="http://www.w3.org/2000/svg" xmlns:xlink="http://www.w3.org/1999/xlink" width="93.33" height="200" viewBox="0 0 93.33 200"><defs><linearGradient id="b" data-name="Orange, Yellow" x1="10.83" y1="135.5" x2="83.33" y2="135.5" gradientUnits="userSpaceOnUse"><stop offset="0" stop-color="#fff33b"/><stop offset=".04" stop-color="#fee72e"/><stop offset=".12" stop-color="#fed51b"/><stop offset=".2" stop-color="#fdca10"/><stop offset=".28" stop-color="#fdc70c"/><stop offset=".67" stop-color="#f3903f"/><stop offset=".89" stop-color="#ed683c"/><stop offset="1" stop-color="#e93e3a"/></linearGradient><linearGradient id="a" data-name="Red, Purple, Blue" x1="9.98" y1="101.1" x2="93.65" y2="101.1" gradientUnits="userSpaceOnUse"><stop offset="0" stop-color="#b7151b"/><stop offset=".02" stop-color="#c52229"/><stop offset=".06" stop-color="#d7333c"/><stop offset=".11" stop-color="#e23d47"/><stop offset=".15" stop-color="#e6404b"/><stop offset=".3" stop-color="#e98a7b"/><stop offset=".47" stop-color="#7c78b8"/><stop offset=".64" stop-color="#00b0b0"/><stop offset=".79" stop-color="#7b76b6"/><stop offset="1" stop-color="#e7322f"/></linearGradient><linearGradient id="c" x1="8.98" y1="101.1" x2="92.65" y2="101.1" xlink:href="#a"/><linearGradient id="d" x1="7.98" y1="101.1" x2="91.65" y2="101.1" xlink:href="#a"/><linearGradient id="e" x1="6.98" y1="101.1" x2="90.65" y2="101.1" xlink:href="#a"/><linearGradient id="f" x1="5.98" y1="101.1" x2="89.65" y2="101.1" xlink:href="#a"/><linearGradient id="g" x1="4.98" y1="101.1" x2="88.65" y2="101.1" xlink:href="#a"/><linearGradient id="h" x1="3.98" y1="101.1" x2="87.65" y2="101.1" xlink:href="#a"/><linearGradient id="i" x1="2.98" y1="101.1" x2="86.65" y2="101.1" xlink:href="#a"/><linearGradient id="j" x1="1.98" y1="101.1" x2="85.65" y2="101.1" xlink:href="#a"/><linearGradient id="k" x1=".98" y1="101.1" x2="84.65" y2="101.1" xlink:href="#a"/><linearGradient id="l" x1="-.02" y1="101.1" x2="83.65" y2="101.1" xlink:href="#a"/></defs><title>_</title><path fill="none" stroke-miterlimit="10" stroke-width="10.8" stroke="url(#b)" d="M10.83 135.5h72.5"/><g fill="none" stroke-miterlimit="10" stroke-width="3.6"><path d="M11.78 180.54v-1.37a236 236 0 0 1 12.39-75.45L46 27.33a6.14 6.14 0 0 1 11.72 0l22.25 79.16a236 236 0 0 1 11.92 74.05" stroke="url(#a)"/><path d="M10.78 180.54v-1.37a236 236 0 0 1 12.39-75.45L45 27.33a6.14 6.14 0 0 1 11.72 0l22.25 79.16a236 236 0 0 1 11.92 74.05" stroke="url(#c)"/><path d="M9.78 180.54v-1.37a236 236 0 0 1 12.39-75.45L44 27.33a6.14 6.14 0 0 1 11.72 0l22.25 79.16a236 236 0 0 1 11.92 74.05" stroke="url(#d)"/><path d="M8.78 180.54v-1.37a236 236 0 0 1 12.39-75.45L43 27.33a6.14 6.14 0 0 1 11.72 0l22.25 79.16a236 236 0 0 1 11.92 74.05" stroke="url(#e)"/><path d="M7.78 180.54v-1.37a236 236 0 0 1 12.39-75.45L42 27.33a6.14 6.14 0 0 1 11.72 0l22.25 79.16a236 236 0 0 1 11.92 74.05" stroke="url(#f)"/><path d="M6.78 180.54v-1.37a236 236 0 0 1 12.39-75.45L41 27.33a6.14 6.14 0 0 1 11.72 0l22.25 79.16a236 236 0 0 1 11.92 74.05" stroke="url(#g)"/><path d="M5.78 180.54v-1.37a236 236 0 0 1 12.39-75.45L40 27.33a6.14 6.14 0 0 1 11.72 0l22.25 79.16a236 236 0 0 1 11.92 74.05" stroke="url(#h)"/><path d="M4.78 180.54v-1.37a236 236 0 0 1 12.39-75.45L39 27.33a6.14 6.14 0 0 1 11.72 0l22.25 79.16a236 236 0 0 1 11.92 74.05" stroke="url(#i)"/><path d="M3.78 180.54v-1.37a236 236 0 0 1 12.39-75.45L38 27.33a6.14 6.14 0 0 1 11.72 0l22.25 79.16a236 236 0 0 1 11.92 74.05" stroke="url(#j)"/><path d="M2.78 180.54v-1.37a236 236 0 0 1 12.39-75.45L37 27.33a6.14 6.14 0 0 1 11.72 0l22.25 79.16a236 236 0 0 1 11.92 74.05" stroke="url(#k)"/><path d="M1.78 180.54v-1.37a236 236 0 0 1 12.39-75.45L36 27.33a6.14 6.14 0 0 1 11.72 0l22.25 79.16a236 236 0 0 1 11.92 74.05" stroke="url(#l)"/></g></svg>