<svg data-name="Layer 2" xmlns="http://www.w3.org/2000/svg" xmlns:xlink="http://www.w3.org/1999/xlink" width="93" height="200" viewBox="0 0 93 200"><defs><linearGradient id="a" data-name="Red, Purple, Blue" x1="9.34" y1="100.51" x2="93.54" y2="100.51" gradientUnits="userSpaceOnUse"><stop offset="0" stop-color="#b7151b"/><stop offset=".02" stop-color="#c52229"/><stop offset=".06" stop-color="#d7333c"/><stop offset=".11" stop-color="#e23d47"/><stop offset=".15" stop-color="#e6404b"/><stop offset=".3" stop-color="#e98a7b"/><stop offset=".47" stop-color="#7c78b8"/><stop offset=".64" stop-color="#00b0b0"/><stop offset=".79" stop-color="#7b76b6"/><stop offset="1" stop-color="#e7322f"/></linearGradient><linearGradient id="b" x1="8.34" y1="100.51" x2="92.54" y2="100.51" xlink:href="#a"/><linearGradient id="c" x1="7.34" y1="100.51" x2="91.54" y2="100.51" xlink:href="#a"/><linearGradient id="d" x1="6.34" y1="100.51" x2="90.54" y2="100.51" xlink:href="#a"/><linearGradient id="e" x1="5.34" y1="100.51" x2="89.54" y2="100.51" xlink:href="#a"/><linearGradient id="f" x1="4.34" y1="100.51" x2="88.54" y2="100.51" xlink:href="#a"/><linearGradient id="g" x1="3.34" y1="100.51" x2="87.54" y2="100.51" xlink:href="#a"/><linearGradient id="h" x1="2.34" y1="100.51" x2="86.54" y2="100.51" xlink:href="#a"/><linearGradient id="i" x1="1.34" y1="100.51" x2="85.54" y2="100.51" xlink:href="#a"/><linearGradient id="j" x1=".34" y1="100.51" x2="84.54" y2="100.51" xlink:href="#a"/><linearGradient id="k" x1="-.66" y1="100.51" x2="83.54" y2="100.51" xlink:href="#a"/></defs><title>_</title><g fill="none" stroke-miterlimit="10" stroke-width="3.6"><path d="M11.14 131.16c0 25.85 17.51 47.47 39.61 47.9 22.57.44 41-20.83 41-47.13 0-20.92-25.21-38.66-46.66-44.82-7.44-2.13-14.62 4.44-14.62 13.4 0 9 7.18 15.53 14.62 13.4C66.52 107.75 91.74 90 91.74 69.09c0-26.3-18.41-47.57-41-47.13-22.08.43-39.6 22.04-39.6 47.9z" stroke="url(#a)"/><path d="M10.14 131.16c0 25.85 17.51 47.47 39.61 47.9 22.57.44 41-20.83 41-47.13 0-20.92-25.21-38.66-46.66-44.82-7.44-2.13-14.62 4.44-14.62 13.4 0 9 7.18 15.53 14.62 13.4C65.52 107.75 90.74 90 90.74 69.09c0-26.3-18.41-47.57-41-47.13-22.08.43-39.6 22.04-39.6 47.9z" stroke="url(#b)"/><path d="M9.14 131.16c0 25.85 17.51 47.47 39.61 47.9 22.57.44 41-20.83 41-47.13 0-20.92-25.21-38.66-46.66-44.82-7.44-2.13-14.62 4.44-14.62 13.4 0 9 7.18 15.53 14.62 13.4C64.52 107.75 89.74 90 89.74 69.09c0-26.3-18.41-47.57-41-47.13-22.08.43-39.6 22.04-39.6 47.9z" stroke="url(#c)"/><path d="M8.14 131.16c0 25.85 17.51 47.47 39.61 47.9 22.57.44 41-20.83 41-47.13 0-20.92-25.21-38.66-46.66-44.82-7.44-2.13-14.62 4.44-14.62 13.4 0 9 7.18 15.53 14.62 13.4C63.52 107.75 88.74 90 88.74 69.09c0-26.3-18.41-47.57-41-47.13-22.08.43-39.6 22.04-39.6 47.9z" stroke="url(#d)"/><path d="M7.14 131.16c0 25.85 17.51 47.47 39.61 47.9 22.57.44 41-20.83 41-47.13 0-20.92-25.21-38.66-46.66-44.82-7.44-2.13-14.62 4.44-14.62 13.4 0 9 7.18 15.53 14.62 13.4C62.52 107.75 87.74 90 87.74 69.09c0-26.3-18.41-47.57-41-47.13-22.08.43-39.6 22.04-39.6 47.9z" stroke="url(#e)"/><path d="M6.14 131.16c0 25.85 17.51 47.47 39.61 47.9 22.57.44 41-20.83 41-47.13 0-20.92-25.21-38.66-46.66-44.82-7.44-2.13-14.62 4.44-14.62 13.4 0 9 7.18 15.53 14.62 13.4C61.52 107.75 86.74 90 86.74 69.09c0-26.3-18.41-47.57-41-47.13-22.08.43-39.6 22.04-39.6 47.9z" stroke="url(#f)"/><path d="M5.14 131.16c0 25.85 17.51 47.47 39.61 47.9 22.57.44 41-20.83 41-47.13 0-20.92-25.21-38.66-46.66-44.82-7.44-2.13-14.62 4.44-14.62 13.4 0 9 7.18 15.53 14.62 13.4C60.52 107.75 85.74 90 85.74 69.09c0-26.3-18.41-47.57-41-47.13-22.08.43-39.6 22.04-39.6 47.9z" stroke="url(#g)"/><path d="M4.14 131.16c0 25.85 17.51 47.47 39.61 47.9 22.57.44 41-20.83 41-47.13 0-20.92-25.21-38.66-46.66-44.82-7.44-2.13-14.62 4.44-14.62 13.4 0 9 7.18 15.53 14.62 13.4C59.52 107.75 84.74 90 84.74 69.09c0-26.3-18.41-47.57-41-47.13-22.08.43-39.6 22.04-39.6 47.9z" stroke="url(#h)"/><path d="M3.14 131.16c0 25.85 17.51 47.47 39.61 47.9 22.57.44 41-20.83 41-47.13 0-20.92-25.21-38.66-46.66-44.82-7.44-2.13-14.62 4.44-14.62 13.4 0 9 7.18 15.53 14.62 13.4C58.52 107.75 83.74 90 83.74 69.09c0-26.3-18.41-47.57-41-47.13-22.08.43-39.6 22.04-39.6 47.9z" stroke="url(#i)"/><path d="M2.14 131.16c0 25.85 17.51 47.47 39.61 47.9 22.57.44 41-20.83 41-47.13 0-20.92-25.21-38.66-46.66-44.82-7.44-2.13-14.62 4.44-14.62 13.4 0 9 7.18 15.53 14.62 13.4C57.52 107.75 82.74 90 82.74 69.09c0-26.3-18.41-47.57-41-47.13-22.08.43-39.6 22.04-39.6 47.9z" stroke="url(#j)"/><path d="M1.14 131.16c0 25.85 17.51 47.47 39.61 47.9 22.57.44 41-20.83 41-47.13 0-20.92-25.21-38.66-46.66-44.82-7.44-2.13-14.62 4.44-14.62 13.4 0 9 7.18 15.53 14.62 13.4C56.52 107.75 81.74 90 81.74 69.09c0-26.3-18.41-47.57-41-47.13-22.08.43-39.6 22.04-39.6 47.9z" stroke="url(#k)"/></g></svg>