<svg data-name="Layer 2" xmlns="http://www.w3.org/2000/svg" xmlns:xlink="http://www.w3.org/1999/xlink" width="93.5" height="200" viewBox="0 0 93.5 200"><defs><linearGradient id="a" data-name="Red, Purple, Blue" x1="10.43" y1="100.5" x2="93.8" y2="100.5" gradientUnits="userSpaceOnUse"><stop offset="0" stop-color="#b7151b"/><stop offset=".02" stop-color="#c52229"/><stop offset=".06" stop-color="#d7333c"/><stop offset=".11" stop-color="#e23d47"/><stop offset=".15" stop-color="#e6404b"/><stop offset=".3" stop-color="#e98a7b"/><stop offset=".47" stop-color="#7c78b8"/><stop offset=".64" stop-color="#00b0b0"/><stop offset=".79" stop-color="#7b76b6"/><stop offset="1" stop-color="#e7322f"/></linearGradient><linearGradient id="b" x1="9.43" y1="100.5" x2="92.8" y2="100.5" xlink:href="#a"/><linearGradient id="c" x1="8.43" y1="100.5" x2="91.8" y2="100.5" xlink:href="#a"/><linearGradient id="d" x1="7.43" y1="100.5" x2="90.8" y2="100.5" xlink:href="#a"/><linearGradient id="e" x1="6.43" y1="100.5" x2="89.8" y2="100.5" xlink:href="#a"/><linearGradient id="f" x1="5.43" y1="100.5" x2="88.8" y2="100.5" xlink:href="#a"/><linearGradient id="g" x1="4.43" y1="100.5" x2="87.8" y2="100.5" xlink:href="#a"/><linearGradient id="h" x1="3.43" y1="100.5" x2="86.8" y2="100.5" xlink:href="#a"/><linearGradient id="i" x1="2.43" y1="100.5" x2="85.8" y2="100.5" xlink:href="#a"/><linearGradient id="j" x1="1.43" y1="100.5" x2="84.8" y2="100.5" xlink:href="#a"/><linearGradient id="k" x1=".43" y1="100.5" x2="83.8" y2="100.5" xlink:href="#a"/></defs><title>_</title><g fill="none" stroke-miterlimit="10" stroke-width="3.6"><path d="M93.8 22.67H57.27c-24.87 0-45 33-45 77.33s20.16 78.33 45 78.33h36" stroke="url(#a)"/><path d="M92.8 22.67H56.27c-24.87 0-45 33-45 77.33s20.16 78.33 45 78.33h36" stroke="url(#b)"/><path d="M91.8 22.67H55.27c-24.87 0-45 33-45 77.33s20.16 78.33 45 78.33h36" stroke="url(#c)"/><path d="M90.8 22.67H54.27c-24.87 0-45 33-45 77.33s20.16 78.33 45 78.33h36" stroke="url(#d)"/><path d="M89.8 22.67H53.27c-24.87 0-45 33-45 77.33s20.16 78.33 45 78.33h36" stroke="url(#e)"/><path d="M88.8 22.67H52.27c-24.87 0-45 33-45 77.33s20.16 78.33 45 78.33h36" stroke="url(#f)"/><path d="M87.8 22.67H51.27c-24.87 0-45 33-45 77.33s20.16 78.33 45 78.33h36" stroke="url(#g)"/><path d="M86.8 22.67H50.27c-24.87 0-45 33-45 77.33s20.16 78.33 45 78.33h36" stroke="url(#h)"/><path d="M85.8 22.67H49.27c-24.87 0-45 33-45 77.33s20.16 78.33 45 78.33h36" stroke="url(#i)"/><path d="M84.8 22.67H48.27c-24.87 0-45 33-45 77.33s20.16 78.33 45 78.33h36" stroke="url(#j)"/><path d="M83.8 22.67H47.27c-24.87 0-45 33-45 77.33s20.16 78.33 45 78.33h36" stroke="url(#k)"/></g></svg>