<svg data-name="Layer 2" xmlns="http://www.w3.org/2000/svg" xmlns:xlink="http://www.w3.org/1999/xlink" width="94" height="200" viewBox="0 0 94 200"><defs><linearGradient id="a" data-name="Red, Purple, Blue" x1="73.72" y1="100.5" x2="-10.2" y2="100.5" gradientTransform="rotate(180 41.685 100.5)" gradientUnits="userSpaceOnUse"><stop offset="0" stop-color="#b7151b"/><stop offset=".02" stop-color="#c52229"/><stop offset=".06" stop-color="#d7333c"/><stop offset=".11" stop-color="#e23d47"/><stop offset=".15" stop-color="#e6404b"/><stop offset=".3" stop-color="#e98a7b"/><stop offset=".47" stop-color="#7c78b8"/><stop offset=".64" stop-color="#00b0b0"/><stop offset=".79" stop-color="#7b76b6"/><stop offset="1" stop-color="#e7322f"/></linearGradient><linearGradient id="b" x1="74.72" y1="100.5" x2="-9.2" y2="100.5" xlink:href="#a"/><linearGradient id="c" x1="75.72" y1="100.5" x2="-8.2" y2="100.5" xlink:href="#a"/><linearGradient id="d" x1="76.72" y1="100.5" x2="-7.2" y2="100.5" xlink:href="#a"/><linearGradient id="e" x1="77.72" y1="100.5" x2="-6.2" y2="100.5" xlink:href="#a"/><linearGradient id="f" x1="78.72" y1="100.5" x2="-5.2" y2="100.5" xlink:href="#a"/><linearGradient id="g" x1="79.72" y1="100.5" x2="-4.2" y2="100.5" xlink:href="#a"/><linearGradient id="h" x1="80.72" y1="100.5" x2="-3.2" y2="100.5" xlink:href="#a"/><linearGradient id="i" x1="81.72" y1="100.5" x2="-2.2" y2="100.5" xlink:href="#a"/><linearGradient id="j" x1="82.72" y1="100.5" x2="-1.2" y2="100.5" xlink:href="#a"/><linearGradient id="k" x1="83.72" y1="100.5" x2="-.2" y2="100.5" xlink:href="#a"/></defs><title>_</title><g fill="none" stroke-miterlimit="10" stroke-width="3.6"><path d="M12 22.67h35.4c24.49 0 44.34 34 44.34 78.33s-19.85 77.33-44.34 77.33h-36z" stroke="url(#a)"/><path d="M11 22.67h35.4c24.49 0 44.34 34 44.34 78.33s-19.85 77.33-44.34 77.33h-36z" stroke="url(#b)"/><path d="M10 22.67h35.4c24.49 0 44.34 34 44.34 78.33s-19.85 77.33-44.34 77.33h-36z" stroke="url(#c)"/><path d="M9 22.67h35.4c24.49 0 44.34 34 44.34 78.33s-19.85 77.33-44.34 77.33h-36z" stroke="url(#d)"/><path d="M8 22.67h35.4c24.49 0 44.34 34 44.34 78.33s-19.85 77.33-44.34 77.33h-36z" stroke="url(#e)"/><path d="M7 22.67h35.4c24.49 0 44.34 34 44.34 78.33s-19.85 77.33-44.34 77.33h-36z" stroke="url(#f)"/><path d="M6 22.67h35.4c24.49 0 44.34 34 44.34 78.33s-19.85 77.33-44.34 77.33h-36z" stroke="url(#g)"/><path d="M5 22.67h35.4c24.49 0 44.34 34 44.34 78.33s-19.85 77.33-44.34 77.33h-36z" stroke="url(#h)"/><path d="M4 22.67h35.4c24.49 0 44.34 34 44.34 78.33s-19.85 77.33-44.34 77.33h-36z" stroke="url(#i)"/><path d="M3 22.67h35.4c24.49 0 44.34 34 44.34 78.33s-19.85 77.33-44.34 77.33h-36z" stroke="url(#j)"/><path d="M2 22.67h35.4c24.49 0 44.34 34 44.34 78.33s-19.85 77.33-44.34 77.33h-36z" stroke="url(#k)"/></g></svg>