<svg data-name="Layer 2" xmlns="http://www.w3.org/2000/svg" xmlns:xlink="http://www.w3.org/1999/xlink" width="93.5" height="200" viewBox="0 0 93.5 200"><defs><linearGradient id="a" data-name="Red, Purple, Blue" x1="-444.27" y1="100.5" x2="-528.31" y2="100.5" gradientTransform="rotate(180 -217.315 100.5)" gradientUnits="userSpaceOnUse"><stop offset="0" stop-color="#b7151b"/><stop offset=".02" stop-color="#c52229"/><stop offset=".06" stop-color="#d7333c"/><stop offset=".11" stop-color="#e23d47"/><stop offset=".15" stop-color="#e6404b"/><stop offset=".3" stop-color="#e98a7b"/><stop offset=".47" stop-color="#7c78b8"/><stop offset=".64" stop-color="#00b0b0"/><stop offset=".79" stop-color="#7b76b6"/><stop offset="1" stop-color="#e7322f"/></linearGradient><linearGradient id="b" x1="-443.27" y1="100.5" x2="-527.31" y2="100.5" xlink:href="#a"/><linearGradient id="c" x1="-442.27" y1="100.5" x2="-526.31" y2="100.5" xlink:href="#a"/><linearGradient id="d" x1="-441.27" y1="100.5" x2="-525.31" y2="100.5" xlink:href="#a"/><linearGradient id="e" x1="-440.27" y1="100.5" x2="-524.31" y2="100.5" xlink:href="#a"/><linearGradient id="f" x1="-439.27" y1="100.5" x2="-523.31" y2="100.5" xlink:href="#a"/><linearGradient id="g" x1="-438.27" y1="100.5" x2="-522.31" y2="100.5" xlink:href="#a"/><linearGradient id="h" x1="-437.27" y1="100.5" x2="-521.31" y2="100.5" xlink:href="#a"/><linearGradient id="i" x1="-436.27" y1="100.5" x2="-520.31" y2="100.5" xlink:href="#a"/><linearGradient id="j" x1="-435.27" y1="100.5" x2="-519.31" y2="100.5" xlink:href="#a"/><linearGradient id="k" x1="-434.27" y1="100.5" x2="-518.31" y2="100.5" xlink:href="#a"/><linearGradient id="l" data-name="Orange, Yellow" x1="-.25" y1="135.5" x2="71.74" y2="135.5" gradientUnits="userSpaceOnUse"><stop offset="0" stop-color="#fff33b"/><stop offset=".04" stop-color="#fee72e"/><stop offset=".12" stop-color="#fed51b"/><stop offset=".2" stop-color="#fdca10"/><stop offset=".28" stop-color="#fdc70c"/><stop offset=".67" stop-color="#f3903f"/><stop offset=".89" stop-color="#ed683c"/><stop offset="1" stop-color="#e93e3a"/></linearGradient></defs><title>_</title><g fill="none" stroke-miterlimit="10" stroke-width="3.6"><path stroke="url(#a)" d="M93.67 22.67H12.01l-.57 155.66h82.01"/><path stroke="url(#b)" d="M92.67 22.67H11.01l-.57 155.66h82.01"/><path stroke="url(#c)" d="M91.67 22.67H10.01l-.57 155.66h82.01"/><path stroke="url(#d)" d="M90.67 22.67H9.01l-.57 155.66h82.01"/><path stroke="url(#e)" d="M89.67 22.67H8.01l-.57 155.66h82.01"/><path stroke="url(#f)" d="M88.67 22.67H7.01l-.57 155.66h82.01"/><path stroke="url(#g)" d="M87.67 22.67H6.01l-.57 155.66h82.01"/><path stroke="url(#h)" d="M86.67 22.67H5.01l-.57 155.66h82.01"/><path stroke="url(#i)" d="M85.67 22.67H4.01l-.57 155.66h82.01"/><path stroke="url(#j)" d="M84.67 22.67H3.01l-.57 155.66h82.01"/><path stroke="url(#k)" d="M83.67 22.67H2.01l-.57 155.66h82.01"/></g><path fill="none" stroke-miterlimit="10" stroke-width="10.8" stroke="url(#l)" d="M-.25 135.5h71.99"/></svg>