<svg data-name="Layer 2" xmlns="http://www.w3.org/2000/svg" xmlns:xlink="http://www.w3.org/1999/xlink" width="94" height="200" viewBox="0 0 94 200"><defs><linearGradient id="a" data-name="Red, Purple, Blue" x1="-932.4" y1="100.4" x2="-1016.42" y2="100.4" gradientTransform="rotate(180 -461.315 100.5)" gradientUnits="userSpaceOnUse"><stop offset="0" stop-color="#b7151b"/><stop offset=".02" stop-color="#c52229"/><stop offset=".06" stop-color="#d7333c"/><stop offset=".11" stop-color="#e23d47"/><stop offset=".15" stop-color="#e6404b"/><stop offset=".3" stop-color="#e98a7b"/><stop offset=".47" stop-color="#7c78b8"/><stop offset=".64" stop-color="#00b0b0"/><stop offset=".79" stop-color="#7b76b6"/><stop offset="1" stop-color="#e7322f"/></linearGradient><linearGradient id="b" x1="-931.4" y1="100.4" x2="-1015.42" y2="100.4" xlink:href="#a"/><linearGradient id="c" x1="-930.4" y1="100.4" x2="-1014.42" y2="100.4" xlink:href="#a"/><linearGradient id="d" x1="-929.4" y1="100.4" x2="-1013.42" y2="100.4" xlink:href="#a"/><linearGradient id="e" x1="-928.4" y1="100.4" x2="-1012.42" y2="100.4" xlink:href="#a"/><linearGradient id="f" x1="-927.4" y1="100.4" x2="-1011.42" y2="100.4" xlink:href="#a"/><linearGradient id="g" x1="-926.4" y1="100.4" x2="-1010.42" y2="100.4" xlink:href="#a"/><linearGradient id="h" x1="-925.4" y1="100.4" x2="-1009.42" y2="100.4" xlink:href="#a"/><linearGradient id="i" x1="-924.4" y1="100.4" x2="-1008.42" y2="100.4" xlink:href="#a"/><linearGradient id="j" x1="-923.4" y1="100.4" x2="-1007.42" y2="100.4" xlink:href="#a"/><linearGradient id="k" x1="-922.4" y1="100.4" x2="-1006.42" y2="100.4" xlink:href="#a"/><linearGradient id="l" data-name="Orange, Yellow" x1="-.13" y1="135.5" x2="71.86" y2="135.5" gradientUnits="userSpaceOnUse"><stop offset="0" stop-color="#fff33b"/><stop offset=".04" stop-color="#fee72e"/><stop offset=".12" stop-color="#fed51b"/><stop offset=".2" stop-color="#fdca10"/><stop offset=".28" stop-color="#fdc70c"/><stop offset=".67" stop-color="#f3903f"/><stop offset=".89" stop-color="#ed683c"/><stop offset="1" stop-color="#e93e3a"/></linearGradient></defs><title>_</title><g fill="none" stroke-miterlimit="10" stroke-width="3.6"><path stroke="url(#a)" d="M93.79 22.67H12.13l-.57 157.66"/><path stroke="url(#b)" d="M92.79 22.67H11.13l-.57 157.66"/><path stroke="url(#c)" d="M91.79 22.67H10.13l-.57 157.66"/><path stroke="url(#d)" d="M90.79 22.67H9.13l-.57 157.66"/><path stroke="url(#e)" d="M89.79 22.67H8.13l-.57 157.66"/><path stroke="url(#f)" d="M88.79 22.67H7.13l-.57 157.66"/><path stroke="url(#g)" d="M87.79 22.67H6.13l-.57 157.66"/><path stroke="url(#h)" d="M86.79 22.67H5.13l-.57 157.66"/><path stroke="url(#i)" d="M85.79 22.67H4.13l-.57 157.66"/><path stroke="url(#j)" d="M84.79 22.67H3.13l-.57 157.66"/><path stroke="url(#k)" d="M83.79 22.67H2.13l-.57 157.66"/></g><path fill="none" stroke-miterlimit="10" stroke-width="10.8" stroke="url(#l)" d="M-.13 135.5h71.99"/></svg>