<svg data-name="Layer 2" xmlns="http://www.w3.org/2000/svg" xmlns:xlink="http://www.w3.org/1999/xlink" width="93.5" height="200" viewBox="0 0 93.5 200"><defs><linearGradient id="b" data-name="Orange, Yellow" x1="10.25" y1="135.5" x2="93.75" y2="135.5" gradientUnits="userSpaceOnUse"><stop offset="0" stop-color="#fff33b"/><stop offset=".04" stop-color="#fee72e"/><stop offset=".12" stop-color="#fed51b"/><stop offset=".2" stop-color="#fdca10"/><stop offset=".28" stop-color="#fdc70c"/><stop offset=".67" stop-color="#f3903f"/><stop offset=".89" stop-color="#ed683c"/><stop offset="1" stop-color="#e93e3a"/></linearGradient><linearGradient id="a" data-name="Red, Purple, Blue" x1="10.54" y1="100.5" x2="94.09" y2="100.5" gradientUnits="userSpaceOnUse"><stop offset="0" stop-color="#b7151b"/><stop offset=".02" stop-color="#c52229"/><stop offset=".06" stop-color="#d7333c"/><stop offset=".11" stop-color="#e23d47"/><stop offset=".15" stop-color="#e6404b"/><stop offset=".3" stop-color="#e98a7b"/><stop offset=".47" stop-color="#7c78b8"/><stop offset=".64" stop-color="#00b0b0"/><stop offset=".79" stop-color="#7b76b6"/><stop offset="1" stop-color="#e7322f"/></linearGradient><linearGradient id="c" x1="9.54" y1="100.5" x2="93.09" y2="100.5" xlink:href="#a"/><linearGradient id="d" x1="8.54" y1="100.5" x2="92.09" y2="100.5" xlink:href="#a"/><linearGradient id="e" x1="7.54" y1="100.5" x2="91.09" y2="100.5" xlink:href="#a"/><linearGradient id="f" x1="6.54" y1="100.5" x2="90.09" y2="100.5" xlink:href="#a"/><linearGradient id="g" x1="5.54" y1="100.5" x2="89.09" y2="100.5" xlink:href="#a"/><linearGradient id="h" x1="4.54" y1="100.5" x2="88.09" y2="100.5" xlink:href="#a"/><linearGradient id="i" x1="3.54" y1="100.5" x2="87.09" y2="100.5" xlink:href="#a"/><linearGradient id="j" x1="2.54" y1="100.5" x2="86.09" y2="100.5" xlink:href="#a"/><linearGradient id="k" x1="1.54" y1="100.5" x2="85.09" y2="100.5" xlink:href="#a"/><linearGradient id="l" x1=".54" y1="100.5" x2="84.09" y2="100.5" xlink:href="#a"/></defs><title>_</title><path fill="none" stroke-miterlimit="10" stroke-width="10.8" stroke="url(#b)" d="M10.25 135.5h83.5"/><g fill="none" stroke-miterlimit="10" stroke-width="3.6"><path d="M93.91 22.67H57.38c-24.87 0-45 33-45 77.33s20.16 78.33 45 78.33h10.85a24.06 24.06 0 0 0 24.06-24.1v-24.1" stroke="url(#a)"/><path d="M92.91 22.67H56.38c-24.87 0-45 33-45 77.33s20.16 78.33 45 78.33h10.85a24.06 24.06 0 0 0 24.06-24.1v-24.1" stroke="url(#c)"/><path d="M91.91 22.67H55.38c-24.87 0-45 33-45 77.33s20.16 78.33 45 78.33h10.85a24.06 24.06 0 0 0 24.06-24.1v-24.1" stroke="url(#d)"/><path d="M90.91 22.67H54.38c-24.87 0-45 33-45 77.33s20.16 78.33 45 78.33h10.85a24.06 24.06 0 0 0 24.06-24.1v-24.1" stroke="url(#e)"/><path d="M89.91 22.67H53.38c-24.87 0-45 33-45 77.33s20.16 78.33 45 78.33h10.85a24.06 24.06 0 0 0 24.06-24.1v-24.1" stroke="url(#f)"/><path d="M88.91 22.67H52.38c-24.87 0-45 33-45 77.33s20.16 78.33 45 78.33h10.85a24.06 24.06 0 0 0 24.06-24.1v-24.1" stroke="url(#g)"/><path d="M87.91 22.67H51.38c-24.87 0-45 33-45 77.33s20.16 78.33 45 78.33h10.85a24.06 24.06 0 0 0 24.06-24.1v-24.1" stroke="url(#h)"/><path d="M86.91 22.67H50.38c-24.87 0-45 33-45 77.33s20.16 78.33 45 78.33h10.85a24.06 24.06 0 0 0 24.06-24.1v-24.1" stroke="url(#i)"/><path d="M85.91 22.67H49.38c-24.87 0-45 33-45 77.33s20.16 78.33 45 78.33h10.85a24.06 24.06 0 0 0 24.06-24.1v-24.1" stroke="url(#j)"/><path d="M84.91 22.67H48.38c-24.87 0-45 33-45 77.33s20.16 78.33 45 78.33h10.85a24.06 24.06 0 0 0 24.06-24.1v-24.1" stroke="url(#k)"/><path d="M83.91 22.67H47.38c-24.87 0-45 33-45 77.33s20.16 78.33 45 78.33h10.85a24.06 24.06 0 0 0 24.06-24.1v-24.1" stroke="url(#l)"/></g></svg>