<svg data-name="Layer 2" xmlns="http://www.w3.org/2000/svg" xmlns:xlink="http://www.w3.org/1999/xlink" width="93.5" height="200" viewBox="0 0 93.5 200"><defs><linearGradient id="a" data-name="Red, Purple, Blue" x1="-63.08" y1="175.25" x2="96.17" y2="175.25" gradientTransform="rotate(90 51.67 135.5)" gradientUnits="userSpaceOnUse"><stop offset="0" stop-color="#b7151b"/><stop offset=".02" stop-color="#c52229"/><stop offset=".06" stop-color="#d7333c"/><stop offset=".11" stop-color="#e23d47"/><stop offset=".15" stop-color="#e6404b"/><stop offset=".3" stop-color="#e98a7b"/><stop offset=".47" stop-color="#7c78b8"/><stop offset=".64" stop-color="#00b0b0"/><stop offset=".79" stop-color="#7b76b6"/><stop offset="1" stop-color="#e7322f"/></linearGradient><linearGradient id="b" x1="-63.08" y1="176.25" x2="96.17" y2="176.25" xlink:href="#a"/><linearGradient id="c" x1="-63.08" y1="177.25" x2="96.17" y2="177.25" xlink:href="#a"/><linearGradient id="d" x1="-63.08" y1="178.25" x2="96.17" y2="178.25" xlink:href="#a"/><linearGradient id="e" x1="-63.08" y1="179.25" x2="96.17" y2="179.25" xlink:href="#a"/><linearGradient id="f" x1="-63.08" y1="180.25" x2="96.17" y2="180.25" xlink:href="#a"/><linearGradient id="g" x1="-63.08" y1="181.25" x2="96.17" y2="181.25" xlink:href="#a"/><linearGradient id="h" x1="-63.08" y1="182.25" x2="96.17" y2="182.25" xlink:href="#a"/><linearGradient id="i" x1="-63.08" y1="183.25" x2="96.17" y2="183.25" xlink:href="#a"/><linearGradient id="j" x1="-63.08" y1="184.25" x2="96.17" y2="184.25" xlink:href="#a"/><linearGradient id="k" x1="-63.08" y1="185.25" x2="96.17" y2="185.25" xlink:href="#a"/><linearGradient id="l" x1="96.17" y1="95.76" x2="-63.08" y2="95.76" xlink:href="#a"/><linearGradient id="m" x1="96.17" y1="96.76" x2="-63.08" y2="96.76" xlink:href="#a"/><linearGradient id="n" x1="96.17" y1="97.76" x2="-63.08" y2="97.76" xlink:href="#a"/><linearGradient id="o" x1="96.17" y1="98.76" x2="-63.08" y2="98.76" xlink:href="#a"/><linearGradient id="p" x1="96.17" y1="99.76" x2="-63.08" y2="99.76" xlink:href="#a"/><linearGradient id="q" x1="96.17" y1="100.76" x2="-63.08" y2="100.76" xlink:href="#a"/><linearGradient id="r" x1="96.17" y1="101.76" x2="-63.08" y2="101.76" xlink:href="#a"/><linearGradient id="s" x1="96.17" y1="102.76" x2="-63.08" y2="102.76" xlink:href="#a"/><linearGradient id="t" x1="96.17" y1="103.76" x2="-63.08" y2="103.76" xlink:href="#a"/><linearGradient id="u" x1="96.17" y1="104.76" x2="-63.08" y2="104.76" xlink:href="#a"/><linearGradient id="v" x1="96.17" y1="105.76" x2="-63.08" y2="105.76" xlink:href="#a"/><linearGradient id="w" data-name="Orange, Yellow" x1="-.5" y1="135.5" x2="93.67" y2="135.5" gradientUnits="userSpaceOnUse"><stop offset="0" stop-color="#fff33b"/><stop offset=".04" stop-color="#fee72e"/><stop offset=".12" stop-color="#fed51b"/><stop offset=".2" stop-color="#fdca10"/><stop offset=".28" stop-color="#fdc70c"/><stop offset=".67" stop-color="#f3903f"/><stop offset=".89" stop-color="#ed683c"/><stop offset="1" stop-color="#e93e3a"/></linearGradient></defs><title>_</title><g fill="none" stroke-miterlimit="10" stroke-width="3.6"><path stroke="url(#a)" d="M11.91 20.75V180"/><path stroke="url(#b)" d="M10.91 20.75V180"/><path stroke="url(#c)" d="M9.91 20.75V180"/><path stroke="url(#d)" d="M8.91 20.75V180"/><path stroke="url(#e)" d="M7.91 20.75V180"/><path stroke="url(#f)" d="M6.91 20.75V180"/><path stroke="url(#g)" d="M5.91 20.75V180"/><path stroke="url(#h)" d="M4.91 20.75V180"/><path stroke="url(#i)" d="M3.91 20.75V180"/><path stroke="url(#j)" d="M2.91 20.75V180"/><path stroke="url(#k)" d="M1.91 20.75V180"/></g><g fill="none" stroke-miterlimit="10" stroke-width="3.6"><path stroke="url(#l)" d="M91.41 20.75V180"/><path stroke="url(#m)" d="M90.41 20.75V180"/><path stroke="url(#n)" d="M89.41 20.75V180"/><path stroke="url(#o)" d="M88.41 20.75V180"/><path stroke="url(#p)" d="M87.41 20.75V180"/><path stroke="url(#q)" d="M86.41 20.75V180"/><path stroke="url(#r)" d="M85.41 20.75V180"/><path stroke="url(#s)" d="M84.41 20.75V180"/><path stroke="url(#t)" d="M83.41 20.75V180"/><path stroke="url(#u)" d="M82.41 20.75V180"/><path stroke="url(#v)" d="M81.41 20.75V180"/></g><path fill="none" stroke-miterlimit="10" stroke-width="10.8" stroke="url(#w)" d="M-.5 135.5h94.17"/></svg>