<svg data-name="Layer 2" xmlns="http://www.w3.org/2000/svg" xmlns:xlink="http://www.w3.org/1999/xlink" width="94" height="200" viewBox="0 0 94 200"><defs><linearGradient id="a" data-name="Red, Purple, Blue" x1="2275.94" y1="1936.17" x2="2275.94" y2="1852.08" gradientTransform="rotate(90 2060.67 -114.5)" gradientUnits="userSpaceOnUse"><stop offset="0" stop-color="#b7151b"/><stop offset=".02" stop-color="#c52229"/><stop offset=".06" stop-color="#d7333c"/><stop offset=".11" stop-color="#e23d47"/><stop offset=".15" stop-color="#e6404b"/><stop offset=".3" stop-color="#e98a7b"/><stop offset=".47" stop-color="#7c78b8"/><stop offset=".64" stop-color="#00b0b0"/><stop offset=".79" stop-color="#7b76b6"/><stop offset="1" stop-color="#e7322f"/></linearGradient><linearGradient id="c" x1="2275.94" y1="1937.17" x2="2275.94" y2="1853.08" xlink:href="#a"/><linearGradient id="d" x1="2275.94" y1="1938.17" x2="2275.94" y2="1854.08" xlink:href="#a"/><linearGradient id="e" x1="2275.94" y1="1939.17" x2="2275.94" y2="1855.08" xlink:href="#a"/><linearGradient id="f" x1="2275.94" y1="1940.17" x2="2275.94" y2="1856.08" xlink:href="#a"/><linearGradient id="g" x1="2275.94" y1="1941.17" x2="2275.94" y2="1857.08" xlink:href="#a"/><linearGradient id="h" x1="2275.94" y1="1942.17" x2="2275.94" y2="1858.08" xlink:href="#a"/><linearGradient id="i" x1="2275.94" y1="1943.17" x2="2275.94" y2="1859.08" xlink:href="#a"/><linearGradient id="j" x1="2275.94" y1="1944.17" x2="2275.94" y2="1860.08" xlink:href="#a"/><linearGradient id="k" x1="2275.94" y1="1945.17" x2="2275.94" y2="1861.08" xlink:href="#a"/><linearGradient id="l" x1="2275.94" y1="1946.17" x2="2275.94" y2="1862.08" xlink:href="#a"/><linearGradient id="b" data-name="Orange, Yellow" x1="29" y1="26" x2="93.88" y2="26" gradientUnits="userSpaceOnUse"><stop offset="0" stop-color="#fff33b"/><stop offset=".04" stop-color="#fee72e"/><stop offset=".12" stop-color="#fed51b"/><stop offset=".2" stop-color="#fdca10"/><stop offset=".28" stop-color="#fdc70c"/><stop offset=".67" stop-color="#f3903f"/><stop offset=".89" stop-color="#ed683c"/><stop offset="1" stop-color="#e93e3a"/></linearGradient><linearGradient id="m" x1="29" y1="44" x2="93.88" y2="44" xlink:href="#b"/></defs><title>_</title><g fill="none" stroke-miterlimit="10" stroke-width="3.6"><path d="M10 179h52.52a29.77 29.77 0 0 0 29.77-29.77V20.75" stroke="url(#a)"/><path d="M9 179h52.52a29.77 29.77 0 0 0 29.77-29.77V20.75" stroke="url(#c)"/><path d="M8 179h52.52a29.77 29.77 0 0 0 29.77-29.77V20.75" stroke="url(#d)"/><path d="M7 179h52.52a29.77 29.77 0 0 0 29.77-29.77V20.75" stroke="url(#e)"/><path d="M6 179h52.52a29.77 29.77 0 0 0 29.77-29.77V20.75" stroke="url(#f)"/><path d="M5 179h52.52a29.77 29.77 0 0 0 29.77-29.77V20.75" stroke="url(#g)"/><path d="M4 179h52.52a29.77 29.77 0 0 0 29.77-29.77V20.75" stroke="url(#h)"/><path d="M3 179h52.52a29.77 29.77 0 0 0 29.77-29.77V20.75" stroke="url(#i)"/><path d="M2 179h52.52a29.77 29.77 0 0 0 29.77-29.77V20.75" stroke="url(#j)"/><path d="M1 179h52.52a29.77 29.77 0 0 0 29.77-29.77V20.75" stroke="url(#k)"/><path d="M0 179h52.52a29.77 29.77 0 0 0 29.77-29.77V20.75" stroke="url(#l)"/></g><path fill="none" stroke-miterlimit="10" stroke-width="10.8" stroke="url(#b)" d="M29 26h64.88"/><path fill="none" stroke-miterlimit="10" stroke-width="10.8" stroke="url(#m)" d="M29 44h64.88"/></svg>