<svg data-name="Layer 2" xmlns="http://www.w3.org/2000/svg" xmlns:xlink="http://www.w3.org/1999/xlink" width="93.5" height="200" viewBox="0 0 93.5 200"><defs><linearGradient id="b" data-name="Orange, Yellow" x1="1943.92" y1="1689.53" x2="2103.17" y2="1689.53" gradientTransform="rotate(90 1808.67 -114.5)" gradientUnits="userSpaceOnUse"><stop offset="0" stop-color="#fff33b"/><stop offset=".04" stop-color="#fee72e"/><stop offset=".12" stop-color="#fed51b"/><stop offset=".2" stop-color="#fdca10"/><stop offset=".28" stop-color="#fdc70c"/><stop offset=".67" stop-color="#f3903f"/><stop offset=".89" stop-color="#ed683c"/><stop offset="1" stop-color="#e93e3a"/></linearGradient><linearGradient id="a" data-name="Red, Purple, Blue" x1="7.4" y1="113.65" x2="105.28" y2="98.15" gradientUnits="userSpaceOnUse"><stop offset="0" stop-color="#b7151b"/><stop offset=".02" stop-color="#c52229"/><stop offset=".06" stop-color="#d7333c"/><stop offset=".11" stop-color="#e23d47"/><stop offset=".15" stop-color="#e6404b"/><stop offset=".3" stop-color="#e98a7b"/><stop offset=".47" stop-color="#7c78b8"/><stop offset=".64" stop-color="#00b0b0"/><stop offset=".79" stop-color="#7b76b6"/><stop offset="1" stop-color="#e7322f"/></linearGradient><linearGradient id="c" x1="6.4" y1="113.65" x2="104.28" y2="98.15" xlink:href="#a"/><linearGradient id="d" x1="5.4" y1="113.65" x2="103.28" y2="98.15" xlink:href="#a"/><linearGradient id="e" x1="4.4" y1="113.65" x2="102.28" y2="98.15" xlink:href="#a"/><linearGradient id="f" x1="3.4" y1="113.65" x2="101.28" y2="98.15" xlink:href="#a"/><linearGradient id="g" x1="2.4" y1="113.65" x2="100.28" y2="98.15" xlink:href="#a"/><linearGradient id="h" x1="1.4" y1="113.65" x2="99.28" y2="98.15" xlink:href="#a"/><linearGradient id="i" x1=".4" y1="113.65" x2="98.28" y2="98.15" xlink:href="#a"/><linearGradient id="j" x1="-.6" y1="113.65" x2="97.28" y2="98.15" xlink:href="#a"/><linearGradient id="k" x1="-1.6" y1="113.65" x2="96.28" y2="98.15" xlink:href="#a"/><linearGradient id="l" x1="-2.6" y1="113.65" x2="95.28" y2="98.15" xlink:href="#a"/></defs><title>_</title><path fill="none" stroke-miterlimit="10" stroke-width="10.8" stroke="url(#b)" d="M4.64 20.75V180"/><g fill="none" stroke-miterlimit="10" stroke-width="3.6"><path d="M91.16 20.33v24.54a12.4 12.4 0 0 1-3.23 8.34l-75.18 73.54a4.84 4.84 0 0 0 2.76 7.57l66.63 12.38a11.67 11.67 0 0 1 9.65 10.37v23.27" stroke="url(#a)"/><path d="M90.16 20.33v24.54a12.4 12.4 0 0 1-3.23 8.34l-75.18 73.54a4.84 4.84 0 0 0 2.76 7.57l66.63 12.38a11.67 11.67 0 0 1 9.65 10.37v23.27" stroke="url(#c)"/><path d="M89.16 20.33v24.54a12.4 12.4 0 0 1-3.23 8.34l-75.18 73.54a4.84 4.84 0 0 0 2.76 7.57l66.63 12.38a11.67 11.67 0 0 1 9.65 10.37v23.27" stroke="url(#d)"/><path d="M88.16 20.33v24.54a12.4 12.4 0 0 1-3.23 8.34L9.75 126.75a4.84 4.84 0 0 0 2.76 7.57l66.63 12.38a11.67 11.67 0 0 1 9.65 10.37v23.27" stroke="url(#e)"/><path d="M87.16 20.33v24.54a12.4 12.4 0 0 1-3.23 8.34L8.75 126.75a4.84 4.84 0 0 0 2.76 7.57l66.63 12.38a11.67 11.67 0 0 1 9.65 10.37v23.27" stroke="url(#f)"/><path d="M86.16 20.33v24.54a12.4 12.4 0 0 1-3.23 8.34L7.75 126.75a4.84 4.84 0 0 0 2.76 7.57l66.63 12.38a11.67 11.67 0 0 1 9.65 10.37v23.27" stroke="url(#g)"/><path d="M85.16 20.33v24.54a12.4 12.4 0 0 1-3.23 8.34L6.75 126.75a4.84 4.84 0 0 0 2.76 7.57l66.63 12.38a11.67 11.67 0 0 1 9.65 10.37v23.27" stroke="url(#h)"/><path d="M84.16 20.33v24.54a12.4 12.4 0 0 1-3.23 8.34L5.75 126.75a4.84 4.84 0 0 0 2.76 7.57l66.63 12.38a11.67 11.67 0 0 1 9.65 10.37v23.27" stroke="url(#i)"/><path d="M83.16 20.33v24.54a12.4 12.4 0 0 1-3.23 8.34L4.75 126.75a4.84 4.84 0 0 0 2.76 7.57l66.63 12.38a11.67 11.67 0 0 1 9.65 10.37v23.27" stroke="url(#j)"/><path d="M82.16 20.33v24.54a12.4 12.4 0 0 1-3.23 8.34L3.75 126.75a4.84 4.84 0 0 0 2.76 7.57l66.63 12.38a11.67 11.67 0 0 1 9.65 10.37v23.27" stroke="url(#k)"/><path d="M81.16 20.33v24.54a12.4 12.4 0 0 1-3.23 8.34L2.75 126.75a4.84 4.84 0 0 0 2.76 7.57l66.63 12.38a11.67 11.67 0 0 1 9.65 10.37v23.27" stroke="url(#l)"/></g></svg>