<svg data-name="Layer 2" xmlns="http://www.w3.org/2000/svg" xmlns:xlink="http://www.w3.org/1999/xlink" width="95.5" height="200" viewBox="0 0 95.5 200"><defs><linearGradient id="a" data-name="Red, Purple, Blue" x1="1756.44" y1="1350.55" x2="1756.44" y2="1434.64" gradientTransform="matrix(0 1 1 0 -1340.33 -1655.67)" gradientUnits="userSpaceOnUse"><stop offset="0" stop-color="#b7151b"/><stop offset=".02" stop-color="#c52229"/><stop offset=".06" stop-color="#d7333c"/><stop offset=".11" stop-color="#e23d47"/><stop offset=".15" stop-color="#e6404b"/><stop offset=".3" stop-color="#e98a7b"/><stop offset=".47" stop-color="#7c78b8"/><stop offset=".64" stop-color="#00b0b0"/><stop offset=".79" stop-color="#7b76b6"/><stop offset="1" stop-color="#e7322f"/></linearGradient><linearGradient id="b" x1="1756.44" y1="1349.55" x2="1756.44" y2="1433.64" xlink:href="#a"/><linearGradient id="c" x1="1756.44" y1="1348.55" x2="1756.44" y2="1432.64" xlink:href="#a"/><linearGradient id="d" x1="1756.44" y1="1347.55" x2="1756.44" y2="1431.64" xlink:href="#a"/><linearGradient id="e" x1="1756.44" y1="1346.55" x2="1756.44" y2="1430.64" xlink:href="#a"/><linearGradient id="f" x1="1756.44" y1="1345.55" x2="1756.44" y2="1429.64" xlink:href="#a"/><linearGradient id="g" x1="1756.44" y1="1344.55" x2="1756.44" y2="1428.64" xlink:href="#a"/><linearGradient id="h" x1="1756.44" y1="1343.55" x2="1756.44" y2="1427.64" xlink:href="#a"/><linearGradient id="i" x1="1756.44" y1="1342.55" x2="1756.44" y2="1426.64" xlink:href="#a"/><linearGradient id="j" x1="1756.44" y1="1341.55" x2="1756.44" y2="1425.64" xlink:href="#a"/><linearGradient id="k" x1="1756.44" y1="1340.55" x2="1756.44" y2="1424.64" xlink:href="#a"/></defs><title>_</title><g fill="none" stroke-miterlimit="10" stroke-width="3.6"><path d="M94.32 179H41.8A29.77 29.77 0 0 1 12 149.23V20.75" stroke="url(#a)"/><path d="M93.32 179H40.8A29.77 29.77 0 0 1 11 149.23V20.75" stroke="url(#b)"/><path d="M92.32 179H39.8A29.77 29.77 0 0 1 10 149.23V20.75" stroke="url(#c)"/><path d="M91.32 179H38.8A29.77 29.77 0 0 1 9 149.23V20.75" stroke="url(#d)"/><path d="M90.32 179H37.8A29.77 29.77 0 0 1 8 149.23V20.75" stroke="url(#e)"/><path d="M89.32 179H36.8A29.77 29.77 0 0 1 7 149.23V20.75" stroke="url(#f)"/><path d="M88.32 179H35.8A29.77 29.77 0 0 1 6 149.23V20.75" stroke="url(#g)"/><path d="M87.32 179H34.8A29.77 29.77 0 0 1 5 149.23V20.75" stroke="url(#h)"/><path d="M86.32 179H33.8A29.77 29.77 0 0 1 4 149.23V20.75" stroke="url(#i)"/><path d="M85.32 179H32.8A29.77 29.77 0 0 1 3 149.23V20.75" stroke="url(#j)"/><path d="M84.32 179H31.8A29.77 29.77 0 0 1 2 149.23V20.75" stroke="url(#k)"/></g></svg>