<svg data-name="Layer 2" xmlns="http://www.w3.org/2000/svg" xmlns:xlink="http://www.w3.org/1999/xlink" width="143.5" height="200" viewBox="0 0 143.5 200"><defs><linearGradient id="a" data-name="Red, Purple, Blue" x1="9.49" y1="102.2" x2="146.77" y2="102.2" gradientUnits="userSpaceOnUse"><stop offset="0" stop-color="#b7151b"/><stop offset=".02" stop-color="#c52229"/><stop offset=".06" stop-color="#d7333c"/><stop offset=".11" stop-color="#e23d47"/><stop offset=".15" stop-color="#e6404b"/><stop offset=".3" stop-color="#e98a7b"/><stop offset=".47" stop-color="#7c78b8"/><stop offset=".64" stop-color="#00b0b0"/><stop offset=".79" stop-color="#7b76b6"/><stop offset="1" stop-color="#e7322f"/></linearGradient><linearGradient id="b" x1="8.49" y1="102.2" x2="145.77" y2="102.2" xlink:href="#a"/><linearGradient id="c" x1="7.49" y1="102.2" x2="144.77" y2="102.2" xlink:href="#a"/><linearGradient id="d" x1="6.49" y1="102.2" x2="143.77" y2="102.2" xlink:href="#a"/><linearGradient id="e" x1="5.49" y1="102.2" x2="142.77" y2="102.2" xlink:href="#a"/><linearGradient id="f" x1="4.49" y1="102.2" x2="141.77" y2="102.2" xlink:href="#a"/><linearGradient id="g" x1="3.49" y1="102.2" x2="140.77" y2="102.2" xlink:href="#a"/><linearGradient id="h" x1="2.49" y1="102.2" x2="139.77" y2="102.2" xlink:href="#a"/><linearGradient id="i" x1="1.49" y1="102.2" x2="138.77" y2="102.2" xlink:href="#a"/><linearGradient id="j" x1=".49" y1="102.2" x2="137.77" y2="102.2" xlink:href="#a"/><linearGradient id="k" x1="-.51" y1="102.2" x2="136.77" y2="102.2" xlink:href="#a"/></defs><title>_</title><g fill="none" stroke-miterlimit="10" stroke-width="3.6"><path d="M16.78 180.74l-.26-.75c-5.28-15.33-6.8-33.14-3.45-53.2L22.27 32c1.25-10.14 15.16-10.14 19.47 0L89.5 171.78c1.38 4.11-3.77 7.85-10.52 7.85s-12.08-3.75-10.9-7.85L109.06 32c3.82-10.14 17.73-10.14 19.47 0l13.77 97.22c4 19.36 3.34 36.61-1.07 51.5" stroke="url(#a)"/><path d="M15.78 180.74l-.26-.75c-5.28-15.33-6.8-33.14-3.45-53.2L21.27 32c1.25-10.14 15.16-10.14 19.47 0L88.5 171.78c1.38 4.11-3.77 7.85-10.52 7.85s-12.08-3.75-10.9-7.85L108.06 32c3.82-10.14 17.73-10.14 19.47 0l13.77 97.22c4 19.36 3.34 36.61-1.07 51.5" stroke="url(#b)"/><path d="M14.78 180.74l-.26-.75c-5.28-15.33-6.8-33.14-3.45-53.2L20.27 32c1.25-10.14 15.16-10.14 19.47 0L87.5 171.78c1.38 4.11-3.77 7.85-10.52 7.85s-12.08-3.75-10.9-7.85L107.06 32c3.82-10.14 17.73-10.14 19.47 0l13.77 97.22c4 19.36 3.34 36.61-1.07 51.5" stroke="url(#c)"/><path d="M13.78 180.74l-.26-.75c-5.28-15.33-6.8-33.14-3.45-53.2L19.27 32c1.25-10.14 15.16-10.14 19.47 0L86.5 171.78c1.38 4.11-3.77 7.85-10.52 7.85s-12.08-3.75-10.9-7.85L106.06 32c3.82-10.14 17.73-10.14 19.47 0l13.77 97.22c4 19.36 3.34 36.61-1.07 51.5" stroke="url(#d)"/><path d="M12.78 180.74l-.26-.75c-5.28-15.33-6.8-33.14-3.45-53.2L18.27 32c1.25-10.14 15.16-10.14 19.47 0L85.5 171.78c1.38 4.11-3.77 7.85-10.52 7.85s-12.08-3.75-10.9-7.85L105.06 32c3.82-10.14 17.73-10.14 19.47 0l13.77 97.22c4 19.36 3.34 36.61-1.07 51.5" stroke="url(#e)"/><path d="M11.78 180.74l-.26-.75c-5.28-15.33-6.8-33.14-3.45-53.2L17.27 32c1.25-10.14 15.16-10.14 19.47 0L84.5 171.78c1.38 4.11-3.77 7.85-10.52 7.85s-12.08-3.75-10.9-7.85L104.06 32c3.82-10.14 17.73-10.14 19.47 0l13.77 97.22c4 19.36 3.34 36.61-1.07 51.5" stroke="url(#f)"/><path d="M10.78 180.74l-.26-.75c-5.28-15.33-6.8-33.14-3.45-53.2L16.27 32c1.25-10.14 15.16-10.14 19.47 0L83.5 171.78c1.38 4.11-3.77 7.85-10.52 7.85s-12.08-3.75-10.9-7.85L103.06 32c3.82-10.14 17.73-10.14 19.47 0l13.77 97.22c4 19.36 3.34 36.61-1.07 51.5" stroke="url(#g)"/><path d="M9.78 180.74l-.26-.74c-5.28-15.33-6.8-33.14-3.45-53.2l9.2-94.8c1.25-10.14 15.16-10.14 19.47 0L82.5 171.78c1.38 4.11-3.77 7.85-10.52 7.85s-12.08-3.75-10.9-7.85L102.06 32c3.82-10.14 17.73-10.14 19.47 0l13.77 97.22c4 19.36 3.34 36.61-1.07 51.5" stroke="url(#h)"/><path d="M8.78 180.74l-.26-.74c-5.28-15.33-6.8-33.14-3.45-53.2l9.2-94.8c1.25-10.14 15.16-10.14 19.47 0L81.5 171.78c1.38 4.11-3.77 7.85-10.52 7.85s-12.08-3.75-10.9-7.85L101.06 32c3.82-10.14 17.73-10.14 19.47 0l13.77 97.22c4 19.36 3.34 36.61-1.07 51.5" stroke="url(#i)"/><path d="M7.78 180.74l-.26-.74c-5.28-15.33-6.8-33.14-3.45-53.2l9.2-94.8c1.25-10.14 15.16-10.14 19.47 0L80.5 171.78c1.38 4.11-3.77 7.85-10.52 7.85s-12.08-3.75-10.9-7.85L100.06 32c3.82-10.14 17.73-10.14 19.47 0l13.77 97.22c4 19.36 3.34 36.61-1.07 51.5" stroke="url(#j)"/><path d="M6.78 180.74l-.26-.74c-5.28-15.33-6.8-33.14-3.45-53.2l9.2-94.8c1.25-10.14 15.16-10.14 19.47 0L79.5 171.78c1.38 4.11-3.77 7.85-10.52 7.85s-12.08-3.75-10.9-7.85L99.06 32c3.82-10.14 17.73-10.14 19.47 0l13.77 97.22c4 19.36 3.34 36.61-1.07 51.5" stroke="url(#k)"/></g></svg>