<svg data-name="Layer 2" xmlns="http://www.w3.org/2000/svg" xmlns:xlink="http://www.w3.org/1999/xlink" width="93.5" height="200" viewBox="0 0 93.5 200"><defs><linearGradient id="a" data-name="Red, Purple, Blue" x1="1276.25" y1="936.57" x2="1276.25" y2="853.47" gradientTransform="rotate(90 1061.17 -114.5)" gradientUnits="userSpaceOnUse"><stop offset="0" stop-color="#b7151b"/><stop offset=".02" stop-color="#c52229"/><stop offset=".06" stop-color="#d7333c"/><stop offset=".11" stop-color="#e23d47"/><stop offset=".15" stop-color="#e6404b"/><stop offset=".3" stop-color="#e98a7b"/><stop offset=".47" stop-color="#7c78b8"/><stop offset=".64" stop-color="#00b0b0"/><stop offset=".79" stop-color="#7b76b6"/><stop offset="1" stop-color="#e7322f"/></linearGradient><linearGradient id="b" x1="1276.25" y1="937.57" x2="1276.25" y2="854.47" xlink:href="#a"/><linearGradient id="c" x1="1276.25" y1="938.57" x2="1276.25" y2="855.47" xlink:href="#a"/><linearGradient id="d" x1="1276.25" y1="939.57" x2="1276.25" y2="856.47" xlink:href="#a"/><linearGradient id="e" x1="1276.25" y1="940.57" x2="1276.25" y2="857.47" xlink:href="#a"/><linearGradient id="f" x1="1276.25" y1="941.57" x2="1276.25" y2="858.47" xlink:href="#a"/><linearGradient id="g" x1="1276.25" y1="942.57" x2="1276.25" y2="859.47" xlink:href="#a"/><linearGradient id="h" x1="1276.25" y1="943.57" x2="1276.25" y2="860.47" xlink:href="#a"/><linearGradient id="i" x1="1276.25" y1="944.57" x2="1276.25" y2="861.47" xlink:href="#a"/><linearGradient id="j" x1="1276.25" y1="945.57" x2="1276.25" y2="862.47" xlink:href="#a"/><linearGradient id="k" x1="1276.25" y1="946.57" x2="1276.25" y2="863.47" xlink:href="#a"/></defs><title>_</title><g fill="none" stroke-miterlimit="10" stroke-width="3.6"><path d="M91.4 20.75v145.36a12.22 12.22 0 0 1-6.4 11c-7.34 4-16.5-.52-18.28-8.71L36.93 33.17C35.05 24.5 25.06 20 17.6 24.77a12.38 12.38 0 0 0-5.7 10.71V180" stroke="url(#a)"/><path d="M90.4 20.75v145.36a12.22 12.22 0 0 1-6.4 11c-7.34 4-16.5-.52-18.28-8.71L35.93 33.17C34.05 24.5 24.06 20 16.6 24.77a12.38 12.38 0 0 0-5.7 10.71V180" stroke="url(#b)"/><path d="M89.4 20.75v145.36a12.22 12.22 0 0 1-6.4 11c-7.34 4-16.5-.52-18.28-8.71L34.93 33.17C33.05 24.5 23.06 20 15.6 24.77a12.38 12.38 0 0 0-5.7 10.71V180" stroke="url(#c)"/><path d="M88.4 20.75v145.36a12.22 12.22 0 0 1-6.4 11c-7.34 4-16.5-.52-18.28-8.71L33.93 33.17C32.05 24.5 22.06 20 14.6 24.77a12.38 12.38 0 0 0-5.7 10.71V180" stroke="url(#d)"/><path d="M87.4 20.75v145.36a12.22 12.22 0 0 1-6.4 11c-7.34 4-16.5-.52-18.28-8.71L32.93 33.17C31.05 24.5 21.06 20 13.6 24.77a12.38 12.38 0 0 0-5.7 10.71V180" stroke="url(#e)"/><path d="M86.4 20.75v145.36a12.22 12.22 0 0 1-6.4 11c-7.34 4-16.5-.52-18.28-8.71L31.93 33.17C30.05 24.5 20.06 20 12.6 24.77a12.38 12.38 0 0 0-5.7 10.71V180" stroke="url(#f)"/><path d="M85.4 20.75v145.36a12.22 12.22 0 0 1-6.4 11c-7.34 4-16.5-.52-18.28-8.71L30.93 33.17C29.05 24.5 19.06 20 11.6 24.77a12.38 12.38 0 0 0-5.7 10.71V180" stroke="url(#g)"/><path d="M84.4 20.75v145.36a12.22 12.22 0 0 1-6.4 11c-7.34 4-16.5-.52-18.28-8.71L29.93 33.17C28.05 24.5 18.06 20 10.6 24.77a12.38 12.38 0 0 0-5.7 10.71V180" stroke="url(#h)"/><path d="M83.4 20.75v145.36a12.22 12.22 0 0 1-6.4 11c-7.34 4-16.5-.52-18.28-8.71L28.93 33.17C27.05 24.5 17.06 20 9.6 24.77a12.38 12.38 0 0 0-5.7 10.71V180" stroke="url(#i)"/><path d="M82.4 20.75v145.36a12.22 12.22 0 0 1-6.4 11c-7.34 4-16.5-.52-18.28-8.71L27.93 33.17C26.05 24.5 16.06 20 8.6 24.77a12.38 12.38 0 0 0-5.7 10.71V180" stroke="url(#j)"/><path d="M81.4 20.75v145.36a12.22 12.22 0 0 1-6.4 11c-7.34 4-16.5-.52-18.28-8.71L26.93 33.17C25.05 24.5 15.06 20 7.6 24.77a12.38 12.38 0 0 0-5.7 10.71V180" stroke="url(#k)"/></g></svg>