<svg data-name="Layer 2" xmlns="http://www.w3.org/2000/svg" xmlns:xlink="http://www.w3.org/1999/xlink" width="94" height="200" viewBox="0 0 94 200"><defs><linearGradient id="a" data-name="Orange, Yellow" x1="4.72" y1="94.33" x2="87.15" y2="94.33" gradientUnits="userSpaceOnUse"><stop offset="0" stop-color="#fff33b"/><stop offset=".04" stop-color="#fee72e"/><stop offset=".12" stop-color="#fed51b"/><stop offset=".2" stop-color="#fdca10"/><stop offset=".28" stop-color="#fdc70c"/><stop offset=".67" stop-color="#f3903f"/><stop offset=".89" stop-color="#ed683c"/><stop offset="1" stop-color="#e93e3a"/></linearGradient><linearGradient id="c" x1="4.72" y1="106.83" x2="87.15" y2="106.83" xlink:href="#a"/><linearGradient id="b" data-name="Red, Purple, Blue" x1="10.33" y1="100.44" x2="93.55" y2="100.44" gradientUnits="userSpaceOnUse"><stop offset="0" stop-color="#b7151b"/><stop offset=".02" stop-color="#c52229"/><stop offset=".06" stop-color="#d7333c"/><stop offset=".11" stop-color="#e23d47"/><stop offset=".15" stop-color="#e6404b"/><stop offset=".3" stop-color="#e98a7b"/><stop offset=".47" stop-color="#7c78b8"/><stop offset=".64" stop-color="#00b0b0"/><stop offset=".79" stop-color="#7b76b6"/><stop offset="1" stop-color="#e7322f"/></linearGradient><linearGradient id="d" x1="9.33" y1="100.44" x2="92.55" y2="100.44" xlink:href="#b"/><linearGradient id="e" x1="8.33" y1="100.44" x2="91.55" y2="100.44" xlink:href="#b"/><linearGradient id="f" x1="7.33" y1="100.44" x2="90.55" y2="100.44" xlink:href="#b"/><linearGradient id="g" x1="6.33" y1="100.44" x2="89.55" y2="100.44" xlink:href="#b"/><linearGradient id="h" x1="5.33" y1="100.44" x2="88.55" y2="100.44" xlink:href="#b"/><linearGradient id="i" x1="4.33" y1="100.44" x2="87.55" y2="100.44" xlink:href="#b"/><linearGradient id="j" x1="3.33" y1="100.44" x2="86.55" y2="100.44" xlink:href="#b"/><linearGradient id="k" x1="2.33" y1="100.44" x2="85.55" y2="100.44" xlink:href="#b"/><linearGradient id="l" x1="1.33" y1="100.44" x2="84.55" y2="100.44" xlink:href="#b"/><linearGradient id="m" x1=".33" y1="100.44" x2="83.55" y2="100.44" xlink:href="#b"/></defs><title>_</title><path fill="none" stroke-miterlimit="10" stroke-width="3.6" stroke="url(#a)" d="M4.72 94.33h82.43"/><path fill="none" stroke-miterlimit="10" stroke-width="3.6" stroke="url(#c)" d="M4.72 106.83h82.43"/><g fill="none" stroke-miterlimit="10" stroke-width="3.6"><ellipse cx="51.94" cy="100.44" rx="39.81" ry="78.31" stroke="url(#b)"/><ellipse cx="50.94" cy="100.44" rx="39.81" ry="78.31" stroke="url(#d)"/><ellipse cx="49.94" cy="100.44" rx="39.81" ry="78.31" stroke="url(#e)"/><ellipse cx="48.94" cy="100.44" rx="39.81" ry="78.31" stroke="url(#f)"/><ellipse cx="47.94" cy="100.44" rx="39.81" ry="78.31" stroke="url(#g)"/><ellipse cx="46.94" cy="100.44" rx="39.81" ry="78.31" stroke="url(#h)"/><ellipse cx="45.94" cy="100.44" rx="39.81" ry="78.31" stroke="url(#i)"/><ellipse cx="44.94" cy="100.44" rx="39.81" ry="78.31" stroke="url(#j)"/><ellipse cx="43.94" cy="100.44" rx="39.81" ry="78.31" stroke="url(#k)"/><ellipse cx="42.94" cy="100.44" rx="39.81" ry="78.31" stroke="url(#l)"/><ellipse cx="41.94" cy="100.44" rx="39.81" ry="78.31" stroke="url(#m)"/></g></svg>