<svg data-name="Layer 2" xmlns="http://www.w3.org/2000/svg" xmlns:xlink="http://www.w3.org/1999/xlink" width="94" height="200" viewBox="0 0 94 200"><defs><linearGradient id="a" data-name="Red, Purple, Blue" x1="-932.57" y1="-399.6" x2="-1016.23" y2="-399.6" gradientTransform="rotate(180 -461.315 -149.5)" gradientUnits="userSpaceOnUse"><stop offset="0" stop-color="#b7151b"/><stop offset=".02" stop-color="#c52229"/><stop offset=".06" stop-color="#d7333c"/><stop offset=".11" stop-color="#e23d47"/><stop offset=".15" stop-color="#e6404b"/><stop offset=".3" stop-color="#e98a7b"/><stop offset=".47" stop-color="#7c78b8"/><stop offset=".64" stop-color="#00b0b0"/><stop offset=".79" stop-color="#7b76b6"/><stop offset="1" stop-color="#e7322f"/></linearGradient><linearGradient id="b" x1="-931.57" y1="-399.6" x2="-1015.23" y2="-399.6" xlink:href="#a"/><linearGradient id="c" x1="-930.57" y1="-399.6" x2="-1014.23" y2="-399.6" xlink:href="#a"/><linearGradient id="d" x1="-929.57" y1="-399.6" x2="-1013.23" y2="-399.6" xlink:href="#a"/><linearGradient id="e" x1="-928.57" y1="-399.6" x2="-1012.23" y2="-399.6" xlink:href="#a"/><linearGradient id="f" x1="-927.57" y1="-399.6" x2="-1011.23" y2="-399.6" xlink:href="#a"/><linearGradient id="g" x1="-926.57" y1="-399.6" x2="-1010.23" y2="-399.6" xlink:href="#a"/><linearGradient id="h" x1="-925.57" y1="-399.6" x2="-1009.23" y2="-399.6" xlink:href="#a"/><linearGradient id="i" x1="-924.57" y1="-399.6" x2="-1008.23" y2="-399.6" xlink:href="#a"/><linearGradient id="j" x1="-923.57" y1="-399.6" x2="-1007.23" y2="-399.6" xlink:href="#a"/><linearGradient id="k" x1="-922.57" y1="-399.6" x2="-1006.23" y2="-399.6" xlink:href="#a"/></defs><title>_</title><g fill="none" stroke-miterlimit="10" stroke-width="3.6"><path d="M11.73 180.33l.52-146.23a11.47 11.47 0 0 1 11.48-11.43h52.06a16.13 16.13 0 0 1 16 16.24V83.54c-1 19.49-25.5 27.75-38.66 13.34L12.16 51" stroke="url(#a)"/><path d="M10.73 180.33l.52-146.23a11.47 11.47 0 0 1 11.48-11.43h52.06a16.13 16.13 0 0 1 16 16.24V83.54c-1 19.49-25.5 27.75-38.66 13.34L11.16 51" stroke="url(#b)"/><path d="M9.73 180.33l.52-146.23a11.47 11.47 0 0 1 11.48-11.43h52.06a16.13 16.13 0 0 1 16 16.24V83.54c-1 19.49-25.5 27.75-38.66 13.34L10.16 51" stroke="url(#c)"/><path d="M8.73 180.33L9.25 34.1a11.47 11.47 0 0 1 11.48-11.43h52.06a16.13 16.13 0 0 1 16 16.24V83.54c-1 19.49-25.5 27.75-38.66 13.34L9.16 51" stroke="url(#d)"/><path d="M7.73 180.33L8.25 34.1a11.47 11.47 0 0 1 11.48-11.43h52.06a16.13 16.13 0 0 1 16 16.24V83.54c-1 19.49-25.5 27.75-38.66 13.34L8.16 51" stroke="url(#e)"/><path d="M6.73 180.33L7.25 34.1a11.47 11.47 0 0 1 11.48-11.43h52.06a16.13 16.13 0 0 1 16 16.24V83.54c-1 19.49-25.5 27.75-38.66 13.34L7.16 51" stroke="url(#f)"/><path d="M5.73 180.33L6.25 34.1a11.47 11.47 0 0 1 11.48-11.43h52.06a16.13 16.13 0 0 1 16 16.24V83.54c-1 19.49-25.5 27.75-38.66 13.34L6.16 51" stroke="url(#g)"/><path d="M4.73 180.33L5.25 34.1a11.47 11.47 0 0 1 11.48-11.43h52.06a16.13 16.13 0 0 1 16 16.24V83.54c-1 19.49-25.5 27.75-38.66 13.34L5.16 51" stroke="url(#h)"/><path d="M3.73 180.33L4.25 34.1a11.47 11.47 0 0 1 11.48-11.43h52.06a16.13 16.13 0 0 1 16 16.24V83.54c-1 19.49-25.5 27.75-38.66 13.34L4.16 51" stroke="url(#i)"/><path d="M2.73 180.33L3.25 34.1a11.47 11.47 0 0 1 11.48-11.43h52.06a16.13 16.13 0 0 1 16 16.24V83.54c-1 19.49-25.5 27.75-38.66 13.34L3.16 51" stroke="url(#j)"/><path d="M1.73 180.33L2.25 34.1a11.47 11.47 0 0 1 11.48-11.43h52.06a16.13 16.13 0 0 1 16 16.24V83.54c-1 19.49-25.5 27.75-38.66 13.34L2.16 51" stroke="url(#k)"/></g></svg>