<svg data-name="Layer 2" xmlns="http://www.w3.org/2000/svg" xmlns:xlink="http://www.w3.org/1999/xlink" width="108" height="200" viewBox="0 0 108 200"><defs><linearGradient id="a" data-name="Red, Purple, Blue" x1="24.74" y1="100.44" x2="107.97" y2="100.44" gradientUnits="userSpaceOnUse"><stop offset="0" stop-color="#b7151b"/><stop offset=".02" stop-color="#c52229"/><stop offset=".06" stop-color="#d7333c"/><stop offset=".11" stop-color="#e23d47"/><stop offset=".15" stop-color="#e6404b"/><stop offset=".3" stop-color="#e98a7b"/><stop offset=".47" stop-color="#7c78b8"/><stop offset=".64" stop-color="#00b0b0"/><stop offset=".79" stop-color="#7b76b6"/><stop offset="1" stop-color="#e7322f"/></linearGradient><linearGradient id="c" x1="23.74" y1="100.44" x2="106.97" y2="100.44" xlink:href="#a"/><linearGradient id="d" x1="22.74" y1="100.44" x2="105.97" y2="100.44" xlink:href="#a"/><linearGradient id="e" x1="21.74" y1="100.44" x2="104.97" y2="100.44" xlink:href="#a"/><linearGradient id="f" x1="20.74" y1="100.44" x2="103.97" y2="100.44" xlink:href="#a"/><linearGradient id="g" x1="19.74" y1="100.44" x2="102.97" y2="100.44" xlink:href="#a"/><linearGradient id="h" x1="18.74" y1="100.44" x2="101.97" y2="100.44" xlink:href="#a"/><linearGradient id="i" x1="17.74" y1="100.44" x2="100.97" y2="100.44" xlink:href="#a"/><linearGradient id="j" x1="16.74" y1="100.44" x2="99.97" y2="100.44" xlink:href="#a"/><linearGradient id="k" x1="15.74" y1="100.44" x2="98.97" y2="100.44" xlink:href="#a"/><linearGradient id="l" x1="14.74" y1="100.44" x2="97.97" y2="100.44" xlink:href="#a"/><linearGradient id="b" data-name="Orange, Yellow" x1="34.49" y1="155.02" x2="113.15" y2="155.02" gradientUnits="userSpaceOnUse"><stop offset="0" stop-color="#fff33b"/><stop offset=".04" stop-color="#fee72e"/><stop offset=".12" stop-color="#fed51b"/><stop offset=".2" stop-color="#fdca10"/><stop offset=".28" stop-color="#fdc70c"/><stop offset=".67" stop-color="#f3903f"/><stop offset=".89" stop-color="#ed683c"/><stop offset="1" stop-color="#e93e3a"/></linearGradient><linearGradient id="m" x1="-6.67" y1="147.05" x2="27.58" y2="147.05" gradientTransform="matrix(1.02 -.05 .05 1 -9.21 .43)" xlink:href="#b"/></defs><title>_</title><g fill="none" stroke-miterlimit="10" stroke-width="3.6"><ellipse cx="66.35" cy="100.44" rx="39.81" ry="78.31" stroke="url(#a)"/><ellipse cx="65.35" cy="100.44" rx="39.81" ry="78.31" stroke="url(#c)"/><ellipse cx="64.35" cy="100.44" rx="39.81" ry="78.31" stroke="url(#d)"/><ellipse cx="63.35" cy="100.44" rx="39.81" ry="78.31" stroke="url(#e)"/><ellipse cx="62.35" cy="100.44" rx="39.81" ry="78.31" stroke="url(#f)"/><ellipse cx="61.35" cy="100.44" rx="39.81" ry="78.31" stroke="url(#g)"/><ellipse cx="60.35" cy="100.44" rx="39.81" ry="78.31" stroke="url(#h)"/><ellipse cx="59.35" cy="100.44" rx="39.81" ry="78.31" stroke="url(#i)"/><ellipse cx="58.35" cy="100.44" rx="39.81" ry="78.31" stroke="url(#j)"/><ellipse cx="57.35" cy="100.44" rx="39.81" ry="78.31" stroke="url(#k)"/><ellipse cx="56.35" cy="100.44" rx="39.81" ry="78.31" stroke="url(#l)"/></g><path d="M36.42 147.25l22.92-8.75c30.23-11.33 41 9.16 47 30.66a41.54 41.54 0 0 1 1.47 11" fill="none" stroke-miterlimit="10" stroke-width="10.8" stroke="url(#b)"/><path d="M24.56 151.25a20.67 20.67 0 0 1-25.33-7.66l-3.49-5.36" fill="none" stroke-miterlimit="10" stroke-width="10.8" stroke="url(#m)"/></svg>