<svg data-name="Layer 2" xmlns="http://www.w3.org/2000/svg" xmlns:xlink="http://www.w3.org/1999/xlink" width="93" height="200" viewBox="0 0 93 200"><defs><linearGradient id="b" data-name="Orange, Yellow" x1="-2011.04" y1="-432.84" x2="-1954.29" y2="-432.84" gradientTransform="rotate(180 -958.815 -150)" gradientUnits="userSpaceOnUse"><stop offset="0" stop-color="#fff33b"/><stop offset=".04" stop-color="#fee72e"/><stop offset=".12" stop-color="#fed51b"/><stop offset=".2" stop-color="#fdca10"/><stop offset=".28" stop-color="#fdc70c"/><stop offset=".67" stop-color="#f3903f"/><stop offset=".89" stop-color="#ed683c"/><stop offset="1" stop-color="#e93e3a"/></linearGradient><linearGradient id="a" data-name="Red, Purple, Blue" x1="-1927.47" y1="-400.6" x2="-2011.14" y2="-400.6" gradientTransform="rotate(180 -958.815 -150)" gradientUnits="userSpaceOnUse"><stop offset="0" stop-color="#b7151b"/><stop offset=".02" stop-color="#c52229"/><stop offset=".06" stop-color="#d7333c"/><stop offset=".11" stop-color="#e23d47"/><stop offset=".15" stop-color="#e6404b"/><stop offset=".3" stop-color="#e98a7b"/><stop offset=".47" stop-color="#7c78b8"/><stop offset=".64" stop-color="#00b0b0"/><stop offset=".79" stop-color="#7b76b6"/><stop offset="1" stop-color="#e7322f"/></linearGradient><linearGradient id="c" x1="-1926.47" y1="-400.6" x2="-2010.14" y2="-400.6" xlink:href="#a"/><linearGradient id="d" x1="-1925.47" y1="-400.6" x2="-2009.14" y2="-400.6" xlink:href="#a"/><linearGradient id="e" x1="-1924.47" y1="-400.6" x2="-2008.14" y2="-400.6" xlink:href="#a"/><linearGradient id="f" x1="-1923.47" y1="-400.6" x2="-2007.14" y2="-400.6" xlink:href="#a"/><linearGradient id="g" x1="-1922.47" y1="-400.6" x2="-2006.14" y2="-400.6" xlink:href="#a"/><linearGradient id="h" x1="-1921.47" y1="-400.6" x2="-2005.14" y2="-400.6" xlink:href="#a"/><linearGradient id="i" x1="-1920.47" y1="-400.6" x2="-2004.14" y2="-400.6" xlink:href="#a"/><linearGradient id="j" x1="-1919.47" y1="-400.6" x2="-2003.14" y2="-400.6" xlink:href="#a"/><linearGradient id="k" x1="-1918.47" y1="-400.6" x2="-2002.14" y2="-400.6" xlink:href="#a"/><linearGradient id="l" x1="-1917.47" y1="-400.6" x2="-2001.14" y2="-400.6" xlink:href="#a"/></defs><title>_</title><path d="M40.48 88.5C63.07 111.13 88 143 88 170.53V181" fill="none" stroke-miterlimit="10" stroke-width="10.8" stroke="url(#b)"/><g fill="none" stroke-miterlimit="10" stroke-width="3.6"><path d="M11.64 180.33l.52-146.23a11.47 11.47 0 0 1 11.47-11.43h52.06a16.13 16.13 0 0 1 16 16.24V83.54C90.68 103 66.17 111.3 53 96.89L12.07 51" stroke="url(#a)"/><path d="M10.64 180.33l.52-146.23a11.47 11.47 0 0 1 11.47-11.43h52.06a16.13 16.13 0 0 1 16 16.24V83.54C89.68 103 65.17 111.3 52 96.89L11.07 51" stroke="url(#c)"/><path d="M9.64 180.33l.52-146.23a11.47 11.47 0 0 1 11.47-11.43h52.06a16.13 16.13 0 0 1 16 16.24V83.54C88.68 103 64.17 111.3 51 96.89L10.07 51" stroke="url(#d)"/><path d="M8.64 180.33L9.16 34.1a11.47 11.47 0 0 1 11.47-11.43h52.06a16.13 16.13 0 0 1 16 16.24V83.54C87.68 103 63.17 111.3 50 96.89L9.07 51" stroke="url(#e)"/><path d="M7.64 180.33L8.16 34.1a11.47 11.47 0 0 1 11.47-11.43h52.06a16.13 16.13 0 0 1 16 16.24V83.54C86.68 103 62.17 111.3 49 96.89L8.07 51" stroke="url(#f)"/><path d="M6.64 180.33L7.16 34.1a11.47 11.47 0 0 1 11.47-11.43h52.06a16.13 16.13 0 0 1 16 16.24V83.54C85.68 103 61.17 111.3 48 96.89L7.07 51" stroke="url(#g)"/><path d="M5.64 180.33L6.16 34.1a11.47 11.47 0 0 1 11.47-11.43h52.06a16.13 16.13 0 0 1 16 16.24V83.54C84.68 103 60.17 111.3 47 96.89L6.07 51" stroke="url(#h)"/><path d="M4.64 180.33L5.16 34.1a11.47 11.47 0 0 1 11.47-11.43h52.06a16.13 16.13 0 0 1 16 16.24V83.54C83.68 103 59.17 111.3 46 96.89L5.07 51" stroke="url(#i)"/><path d="M3.64 180.33L4.16 34.1a11.47 11.47 0 0 1 11.47-11.43h52.06a16.13 16.13 0 0 1 16 16.24V83.54C82.68 103 58.17 111.3 45 96.89L4.07 51" stroke="url(#j)"/><path d="M2.64 180.33L3.16 34.1a11.47 11.47 0 0 1 11.47-11.43h52.06a16.13 16.13 0 0 1 16 16.24V83.54C81.68 103 57.17 111.3 44 96.89L3.07 51" stroke="url(#k)"/><path d="M1.64 180.33L2.16 34.1a11.47 11.47 0 0 1 11.47-11.43h52.06a16.13 16.13 0 0 1 16 16.24V83.54C80.68 103 56.17 111.3 43 96.89L2.07 51" stroke="url(#l)"/></g></svg>