<svg data-name="Layer 2" xmlns="http://www.w3.org/2000/svg" xmlns:xlink="http://www.w3.org/1999/xlink" width="93" height="200" viewBox="0 0 93 200"><defs><linearGradient id="a" data-name="Red, Purple, Blue" x1="-2000.68" y1="-559.14" x2="-1917.11" y2="-559.14" gradientTransform="translate(2010.4 659.95)" gradientUnits="userSpaceOnUse"><stop offset="0" stop-color="#b7151b"/><stop offset=".02" stop-color="#c52229"/><stop offset=".06" stop-color="#d7333c"/><stop offset=".11" stop-color="#e23d47"/><stop offset=".15" stop-color="#e6404b"/><stop offset=".3" stop-color="#e98a7b"/><stop offset=".47" stop-color="#7c78b8"/><stop offset=".64" stop-color="#00b0b0"/><stop offset=".79" stop-color="#7b76b6"/><stop offset="1" stop-color="#e7322f"/></linearGradient><linearGradient id="b" x1="-2001.68" y1="-559.14" x2="-1918.11" y2="-559.14" xlink:href="#a"/><linearGradient id="c" x1="-2002.68" y1="-559.14" x2="-1919.11" y2="-559.14" xlink:href="#a"/><linearGradient id="d" x1="-2003.68" y1="-559.14" x2="-1920.11" y2="-559.14" xlink:href="#a"/><linearGradient id="e" x1="-2004.68" y1="-559.14" x2="-1921.11" y2="-559.14" xlink:href="#a"/><linearGradient id="f" x1="-2005.68" y1="-559.14" x2="-1922.11" y2="-559.14" xlink:href="#a"/><linearGradient id="g" x1="-2006.68" y1="-559.14" x2="-1923.11" y2="-559.14" xlink:href="#a"/><linearGradient id="h" x1="-2007.68" y1="-559.14" x2="-1924.11" y2="-559.14" xlink:href="#a"/><linearGradient id="i" x1="-2008.68" y1="-559.14" x2="-1925.11" y2="-559.14" xlink:href="#a"/><linearGradient id="j" x1="-2009.68" y1="-559.14" x2="-1926.11" y2="-559.14" xlink:href="#a"/><linearGradient id="k" x1="-2010.68" y1="-559.14" x2="-1927.11" y2="-559.14" xlink:href="#a"/></defs><title>_</title><g fill="none" stroke-miterlimit="10" stroke-width="3.6"><path d="M91.49 82.31v-43.4a16.13 16.13 0 0 0-16-16.24h-52A11.49 11.49 0 0 0 11.95 34.1a48 48 0 0 0 10.43 30.12l58.25 73.18a48 48 0 0 1 10.43 30.12A11.49 11.49 0 0 1 79.57 179h-52a16.13 16.13 0 0 1-16-16.24v-43.4" stroke="url(#a)"/><path d="M90.49 82.31v-43.4a16.13 16.13 0 0 0-16-16.24h-52A11.49 11.49 0 0 0 10.95 34.1a48 48 0 0 0 10.43 30.12l58.25 73.18a48 48 0 0 1 10.43 30.12A11.49 11.49 0 0 1 78.57 179h-52a16.13 16.13 0 0 1-16-16.24v-43.4" stroke="url(#b)"/><path d="M89.49 82.31v-43.4a16.13 16.13 0 0 0-16-16.24h-52A11.49 11.49 0 0 0 9.95 34.1a48 48 0 0 0 10.43 30.12l58.25 73.18a48 48 0 0 1 10.43 30.12A11.49 11.49 0 0 1 77.57 179h-52a16.13 16.13 0 0 1-16-16.24v-43.4" stroke="url(#c)"/><path d="M88.49 82.31v-43.4a16.13 16.13 0 0 0-16-16.24h-52A11.49 11.49 0 0 0 8.95 34.1a48 48 0 0 0 10.43 30.12l58.25 73.18a48 48 0 0 1 10.43 30.12A11.49 11.49 0 0 1 76.57 179h-52a16.13 16.13 0 0 1-16-16.24v-43.4" stroke="url(#d)"/><path d="M87.49 82.31v-43.4a16.13 16.13 0 0 0-16-16.24h-52A11.49 11.49 0 0 0 7.95 34.1a48 48 0 0 0 10.43 30.12l58.25 73.18a48 48 0 0 1 10.43 30.12A11.49 11.49 0 0 1 75.57 179h-52a16.13 16.13 0 0 1-16-16.24v-43.4" stroke="url(#e)"/><path d="M86.49 82.31v-43.4a16.13 16.13 0 0 0-16-16.24h-52A11.49 11.49 0 0 0 6.95 34.1a48 48 0 0 0 10.43 30.12l58.25 73.18a48 48 0 0 1 10.43 30.12A11.49 11.49 0 0 1 74.57 179h-52a16.13 16.13 0 0 1-16-16.24v-43.4" stroke="url(#f)"/><path d="M85.49 82.31v-43.4a16.13 16.13 0 0 0-16-16.24h-52A11.49 11.49 0 0 0 5.95 34.1a48 48 0 0 0 10.43 30.12l58.25 73.18a48 48 0 0 1 10.43 30.12A11.49 11.49 0 0 1 73.57 179h-52a16.13 16.13 0 0 1-16-16.24v-43.4" stroke="url(#g)"/><path d="M84.49 82.31v-43.4a16.13 16.13 0 0 0-16-16.24h-52A11.49 11.49 0 0 0 4.95 34.1a48 48 0 0 0 10.43 30.12l58.25 73.18a48 48 0 0 1 10.43 30.12A11.49 11.49 0 0 1 72.57 179h-52a16.13 16.13 0 0 1-16-16.24v-43.4" stroke="url(#h)"/><path d="M83.49 82.31v-43.4a16.13 16.13 0 0 0-16-16.24h-52A11.49 11.49 0 0 0 3.95 34.1a48 48 0 0 0 10.43 30.12l58.25 73.18a48 48 0 0 1 10.43 30.12A11.49 11.49 0 0 1 71.57 179h-52a16.13 16.13 0 0 1-16-16.24v-43.4" stroke="url(#i)"/><path d="M82.49 82.31v-43.4a16.13 16.13 0 0 0-16-16.24h-52A11.49 11.49 0 0 0 2.95 34.1a48 48 0 0 0 10.43 30.12l58.25 73.18a48 48 0 0 1 10.43 30.12A11.49 11.49 0 0 1 70.57 179h-52a16.13 16.13 0 0 1-16-16.24v-43.4" stroke="url(#j)"/><path d="M81.49 82.31v-43.4a16.13 16.13 0 0 0-16-16.24h-52A11.49 11.49 0 0 0 1.95 34.1a48 48 0 0 0 10.43 30.12l58.25 73.18a48 48 0 0 1 10.43 30.12A11.49 11.49 0 0 1 69.57 179h-52a16.13 16.13 0 0 1-16-16.24v-43.4" stroke="url(#k)"/></g></svg>