<svg data-name="Layer 2" xmlns="http://www.w3.org/2000/svg" xmlns:xlink="http://www.w3.org/1999/xlink" width="94.73" height="200" viewBox="0 0 94.73 200"><defs><linearGradient id="a" data-name="Red, Purple, Blue" x1="2456.15" y1="1654.24" x2="2615.39" y2="1654.24" gradientTransform="rotate(90 2070.895 -364.495)" gradientUnits="userSpaceOnUse"><stop offset="0" stop-color="#b7151b"/><stop offset=".02" stop-color="#c52229"/><stop offset=".06" stop-color="#d7333c"/><stop offset=".11" stop-color="#e23d47"/><stop offset=".15" stop-color="#e6404b"/><stop offset=".3" stop-color="#e98a7b"/><stop offset=".47" stop-color="#7c78b8"/><stop offset=".64" stop-color="#00b0b0"/><stop offset=".79" stop-color="#7b76b6"/><stop offset="1" stop-color="#e7322f"/></linearGradient><linearGradient id="b" x1="2456.15" y1="1655.24" x2="2615.39" y2="1655.24" xlink:href="#a"/><linearGradient id="c" x1="2456.15" y1="1656.24" x2="2615.39" y2="1656.24" xlink:href="#a"/><linearGradient id="d" x1="2456.15" y1="1657.24" x2="2615.39" y2="1657.24" xlink:href="#a"/><linearGradient id="e" x1="2456.15" y1="1658.24" x2="2615.39" y2="1658.24" xlink:href="#a"/><linearGradient id="f" x1="2456.15" y1="1659.24" x2="2615.39" y2="1659.24" xlink:href="#a"/><linearGradient id="g" x1="2456.15" y1="1660.24" x2="2615.39" y2="1660.24" xlink:href="#a"/><linearGradient id="h" x1="2456.15" y1="1661.24" x2="2615.39" y2="1661.24" xlink:href="#a"/><linearGradient id="i" x1="2456.15" y1="1662.24" x2="2615.39" y2="1662.24" xlink:href="#a"/><linearGradient id="j" x1="2456.15" y1="1663.24" x2="2615.39" y2="1663.24" xlink:href="#a"/><linearGradient id="k" x1="2456.15" y1="1664.24" x2="2615.39" y2="1664.24" xlink:href="#a"/><linearGradient id="l" data-name="Orange, Yellow" x1=".07" y1="26" x2="94.24" y2="26" gradientUnits="userSpaceOnUse"><stop offset="0" stop-color="#fff33b"/><stop offset=".04" stop-color="#fee72e"/><stop offset=".12" stop-color="#fed51b"/><stop offset=".2" stop-color="#fdca10"/><stop offset=".28" stop-color="#fdc70c"/><stop offset=".67" stop-color="#f3903f"/><stop offset=".89" stop-color="#ed683c"/><stop offset="1" stop-color="#e93e3a"/></linearGradient></defs><title>_</title><g fill="none" stroke-miterlimit="10" stroke-width="3.6"><path stroke="url(#a)" d="M52.16 20.75V180"/><path stroke="url(#b)" d="M51.16 20.75V180"/><path stroke="url(#c)" d="M50.16 20.75V180"/><path stroke="url(#d)" d="M49.16 20.75V180"/><path stroke="url(#e)" d="M48.16 20.75V180"/><path stroke="url(#f)" d="M47.16 20.75V180"/><path stroke="url(#g)" d="M46.16 20.75V180"/><path stroke="url(#h)" d="M45.16 20.75V180"/><path stroke="url(#i)" d="M44.16 20.75V180"/><path stroke="url(#j)" d="M43.16 20.75V180"/><path stroke="url(#k)" d="M42.16 20.75V180"/></g><path fill="none" stroke-miterlimit="10" stroke-width="10.8" stroke="url(#l)" d="M.07 26h94.17"/></svg>