<svg data-name="Layer 2" xmlns="http://www.w3.org/2000/svg" xmlns:xlink="http://www.w3.org/1999/xlink" width="93.5" height="200" viewBox="0 0 93.5 200"><defs><linearGradient id="a" data-name="Orange, Yellow" x1="4.57" y1="25" x2="87" y2="25" gradientUnits="userSpaceOnUse"><stop offset="0" stop-color="#fff33b"/><stop offset=".04" stop-color="#fee72e"/><stop offset=".12" stop-color="#fed51b"/><stop offset=".2" stop-color="#fdca10"/><stop offset=".28" stop-color="#fdc70c"/><stop offset=".67" stop-color="#f3903f"/><stop offset=".89" stop-color="#ed683c"/><stop offset="1" stop-color="#e93e3a"/></linearGradient><linearGradient id="c" x1="4.57" y1="37.5" y2="37.5" xlink:href="#a"/><linearGradient id="b" data-name="Red, Purple, Blue" x1="2273.86" y1="1434.6" x2="2273.86" y2="1350.71" gradientTransform="rotate(90 1808.67 -364.5)" gradientUnits="userSpaceOnUse"><stop offset="0" stop-color="#b7151b"/><stop offset=".02" stop-color="#c52229"/><stop offset=".06" stop-color="#d7333c"/><stop offset=".11" stop-color="#e23d47"/><stop offset=".15" stop-color="#e6404b"/><stop offset=".3" stop-color="#e98a7b"/><stop offset=".47" stop-color="#7c78b8"/><stop offset=".64" stop-color="#00b0b0"/><stop offset=".79" stop-color="#7b76b6"/><stop offset="1" stop-color="#e7322f"/></linearGradient><linearGradient id="d" x1="2273.86" y1="1435.6" x2="2273.86" y2="1351.71" xlink:href="#b"/><linearGradient id="e" x1="2273.86" y1="1436.6" x2="2273.86" y2="1352.71" xlink:href="#b"/><linearGradient id="f" x1="2273.86" y1="1437.6" x2="2273.86" y2="1353.71" xlink:href="#b"/><linearGradient id="g" x1="2273.86" y1="1438.6" x2="2273.86" y2="1354.71" xlink:href="#b"/><linearGradient id="h" x1="2273.86" y1="1439.6" x2="2273.86" y2="1355.71" xlink:href="#b"/><linearGradient id="i" x1="2273.86" y1="1440.6" x2="2273.86" y2="1356.71" xlink:href="#b"/><linearGradient id="j" x1="2273.86" y1="1441.6" x2="2273.86" y2="1357.71" xlink:href="#b"/><linearGradient id="k" x1="2273.86" y1="1442.6" x2="2273.86" y2="1358.71" xlink:href="#b"/><linearGradient id="l" x1="2273.86" y1="1443.6" x2="2273.86" y2="1359.71" xlink:href="#b"/><linearGradient id="m" x1="2273.86" y1="1444.6" x2="2273.86" y2="1360.71" xlink:href="#b"/></defs><title>_</title><path fill="none" stroke-miterlimit="10" stroke-width="3.6" stroke="url(#a)" d="M4.57 25H87"/><path fill="none" stroke-miterlimit="10" stroke-width="3.6" stroke="url(#c)" d="M4.57 37.5H87"/><g fill="none" stroke-miterlimit="10" stroke-width="3.6"><path d="M91.65 20.75v141.63A16.62 16.62 0 0 1 75 179H28a16.62 16.62 0 0 1-16.62-16.62V20.58" stroke="url(#b)"/><path d="M90.65 20.75v141.63A16.62 16.62 0 0 1 74 179H27a16.62 16.62 0 0 1-16.62-16.62V20.58" stroke="url(#d)"/><path d="M89.65 20.75v141.63A16.62 16.62 0 0 1 73 179H26a16.62 16.62 0 0 1-16.64-16.62V20.58" stroke="url(#e)"/><path d="M88.65 20.75v141.63A16.62 16.62 0 0 1 72 179H25a16.62 16.62 0 0 1-16.64-16.62V20.58" stroke="url(#f)"/><path d="M87.65 20.75v141.63A16.62 16.62 0 0 1 71 179H24a16.62 16.62 0 0 1-16.64-16.62V20.58" stroke="url(#g)"/><path d="M86.65 20.75v141.63A16.62 16.62 0 0 1 70 179H23a16.62 16.62 0 0 1-16.64-16.62V20.58" stroke="url(#h)"/><path d="M85.65 20.75v141.63A16.62 16.62 0 0 1 69 179H22a16.62 16.62 0 0 1-16.64-16.62V20.58" stroke="url(#i)"/><path d="M84.65 20.75v141.63A16.62 16.62 0 0 1 68 179H21a16.62 16.62 0 0 1-16.64-16.62V20.58" stroke="url(#j)"/><path d="M83.65 20.75v141.63A16.62 16.62 0 0 1 67 179H20a16.62 16.62 0 0 1-16.64-16.62V20.58" stroke="url(#k)"/><path d="M82.65 20.75v141.63A16.62 16.62 0 0 1 66 179H19a16.62 16.62 0 0 1-16.64-16.62V20.58" stroke="url(#l)"/><path d="M81.65 20.75v141.63A16.62 16.62 0 0 1 65 179H18a16.62 16.62 0 0 1-16.64-16.62V20.58" stroke="url(#m)"/></g></svg>