<svg data-name="Layer 2" xmlns="http://www.w3.org/2000/svg" xmlns:xlink="http://www.w3.org/1999/xlink" width="93.5" height="200" viewBox="0 0 93.5 200"><defs><linearGradient id="a" data-name="Orange, Yellow" x1="4.89" y1="25" x2="87.32" y2="25" gradientUnits="userSpaceOnUse"><stop offset="0" stop-color="#fff33b"/><stop offset=".04" stop-color="#fee72e"/><stop offset=".12" stop-color="#fed51b"/><stop offset=".2" stop-color="#fdca10"/><stop offset=".28" stop-color="#fdc70c"/><stop offset=".67" stop-color="#f3903f"/><stop offset=".89" stop-color="#ed683c"/><stop offset="1" stop-color="#e93e3a"/></linearGradient><linearGradient id="c" x1="4.89" y1="37.5" x2="87.32" y2="37.5" xlink:href="#a"/><linearGradient id="b" data-name="Red, Purple, Blue" x1="10.38" y1="101.1" x2="94.05" y2="101.1" gradientTransform="matrix(1 0 0 -1 0 203.57)" gradientUnits="userSpaceOnUse"><stop offset="0" stop-color="#b7151b"/><stop offset=".02" stop-color="#c52229"/><stop offset=".06" stop-color="#d7333c"/><stop offset=".11" stop-color="#e23d47"/><stop offset=".15" stop-color="#e6404b"/><stop offset=".3" stop-color="#e98a7b"/><stop offset=".47" stop-color="#7c78b8"/><stop offset=".64" stop-color="#00b0b0"/><stop offset=".79" stop-color="#7b76b6"/><stop offset="1" stop-color="#e7322f"/></linearGradient><linearGradient id="d" x1="9.38" y1="101.1" x2="93.05" y2="101.1" xlink:href="#b"/><linearGradient id="e" x1="8.38" y1="101.1" x2="92.05" y2="101.1" xlink:href="#b"/><linearGradient id="f" x1="7.38" y1="101.1" x2="91.05" y2="101.1" xlink:href="#b"/><linearGradient id="g" x1="6.38" y1="101.1" x2="90.05" y2="101.1" xlink:href="#b"/><linearGradient id="h" x1="5.38" y1="101.1" x2="89.05" y2="101.1" xlink:href="#b"/><linearGradient id="i" x1="4.38" y1="101.1" x2="88.05" y2="101.1" xlink:href="#b"/><linearGradient id="j" x1="3.38" y1="101.1" x2="87.05" y2="101.1" xlink:href="#b"/><linearGradient id="k" x1="2.38" y1="101.1" x2="86.05" y2="101.1" xlink:href="#b"/><linearGradient id="l" x1="1.38" y1="101.1" x2="85.05" y2="101.1" xlink:href="#b"/><linearGradient id="m" x1=".38" y1="101.1" x2="84.05" y2="101.1" xlink:href="#b"/></defs><title>_</title><path fill="none" stroke-miterlimit="10" stroke-width="3.6" stroke="url(#a)" d="M4.89 25h82.43"/><path fill="none" stroke-miterlimit="10" stroke-width="3.6" stroke="url(#c)" d="M4.89 37.5h82.43"/><g fill="none" stroke-miterlimit="10" stroke-width="3.6"><path d="M12.18 23v1.37a236 236 0 0 0 12.39 75.47l21.78 76.39a6.14 6.14 0 0 0 11.72 0l22.26-79.15A236 236 0 0 0 92.25 23" stroke="url(#b)"/><path d="M11.18 23v1.37a236 236 0 0 0 12.39 75.47l21.78 76.39a6.14 6.14 0 0 0 11.72 0l22.26-79.15A236 236 0 0 0 91.25 23" stroke="url(#d)"/><path d="M10.18 23v1.37a236 236 0 0 0 12.39 75.47l21.78 76.39a6.14 6.14 0 0 0 11.72 0l22.26-79.15A236 236 0 0 0 90.25 23" stroke="url(#e)"/><path d="M9.18 23v1.37a236 236 0 0 0 12.39 75.47l21.78 76.39a6.14 6.14 0 0 0 11.72 0l22.26-79.15A236 236 0 0 0 89.25 23" stroke="url(#f)"/><path d="M8.18 23v1.37a236 236 0 0 0 12.39 75.47l21.78 76.39a6.14 6.14 0 0 0 11.72 0l22.26-79.15A236 236 0 0 0 88.25 23" stroke="url(#g)"/><path d="M7.18 23v1.37a236 236 0 0 0 12.39 75.47l21.78 76.39a6.14 6.14 0 0 0 11.72 0l22.26-79.15A236 236 0 0 0 87.25 23" stroke="url(#h)"/><path d="M6.18 23v1.37a236 236 0 0 0 12.39 75.47l21.78 76.39a6.14 6.14 0 0 0 11.72 0l22.26-79.15A236 236 0 0 0 86.25 23" stroke="url(#i)"/><path d="M5.18 23v1.37a236 236 0 0 0 12.39 75.47l21.78 76.39a6.14 6.14 0 0 0 11.72 0l22.26-79.15A236 236 0 0 0 85.25 23" stroke="url(#j)"/><path d="M4.18 23v1.37a236 236 0 0 0 12.39 75.47l21.78 76.39a6.14 6.14 0 0 0 11.72 0l22.26-79.15A236 236 0 0 0 84.25 23" stroke="url(#k)"/><path d="M3.18 23v1.37a236 236 0 0 0 12.39 75.47l21.78 76.39a6.14 6.14 0 0 0 11.72 0l22.26-79.15A236 236 0 0 0 83.25 23" stroke="url(#l)"/><path d="M2.18 23v1.37a236 236 0 0 0 12.39 75.47l21.78 76.39a6.14 6.14 0 0 0 11.72 0l22.26-79.15A236 236 0 0 0 82.25 23" stroke="url(#m)"/></g></svg>