<svg data-name="Layer 2" xmlns="http://www.w3.org/2000/svg" xmlns:xlink="http://www.w3.org/1999/xlink" width="139.5" height="200" viewBox="0 0 139.5 200"><defs><linearGradient id="b" data-name="Orange, Yellow" x1="47.77" y1="85.5" x2="125.88" y2="85.5" gradientUnits="userSpaceOnUse"><stop offset="0" stop-color="#fff33b"/><stop offset=".04" stop-color="#fee72e"/><stop offset=".12" stop-color="#fed51b"/><stop offset=".2" stop-color="#fdca10"/><stop offset=".28" stop-color="#fdc70c"/><stop offset=".67" stop-color="#f3903f"/><stop offset=".89" stop-color="#ed683c"/><stop offset="1" stop-color="#e93e3a"/></linearGradient><linearGradient id="a" data-name="Red, Purple, Blue" x1="1790.38" y1="951.6" x2="1790.38" y2="821.71" gradientTransform="rotate(90 1325.67 -364.5)" gradientUnits="userSpaceOnUse"><stop offset="0" stop-color="#b7151b"/><stop offset=".02" stop-color="#c52229"/><stop offset=".06" stop-color="#d7333c"/><stop offset=".11" stop-color="#e23d47"/><stop offset=".15" stop-color="#e6404b"/><stop offset=".3" stop-color="#e98a7b"/><stop offset=".47" stop-color="#7c78b8"/><stop offset=".64" stop-color="#00b0b0"/><stop offset=".79" stop-color="#7b76b6"/><stop offset="1" stop-color="#e7322f"/></linearGradient><linearGradient id="c" x1="1790.38" y1="952.6" x2="1790.38" y2="822.71" xlink:href="#a"/><linearGradient id="d" x1="1790.38" y1="953.6" x2="1790.38" y2="823.71" xlink:href="#a"/><linearGradient id="e" x1="1790.38" y1="954.6" x2="1790.38" y2="824.71" xlink:href="#a"/><linearGradient id="f" x1="1790.38" y1="955.6" x2="1790.38" y2="825.71" xlink:href="#a"/><linearGradient id="g" x1="1790.38" y1="956.6" x2="1790.38" y2="826.71" xlink:href="#a"/><linearGradient id="h" x1="1790.38" y1="957.6" x2="1790.38" y2="827.71" xlink:href="#a"/><linearGradient id="i" x1="1790.38" y1="958.6" x2="1790.38" y2="828.71" xlink:href="#a"/><linearGradient id="j" x1="1790.38" y1="959.6" x2="1790.38" y2="829.71" xlink:href="#a"/><linearGradient id="k" x1="1790.38" y1="960.6" x2="1790.38" y2="830.71" xlink:href="#a"/><linearGradient id="l" x1="1790.38" y1="961.6" x2="1790.38" y2="831.71" xlink:href="#a"/><linearGradient id="m" x1="-.36" y1="85.5" x2="77.75" y2="85.5" xlink:href="#b"/></defs><title>_</title><path fill="none" stroke-miterlimit="10" stroke-width="3.6" stroke="url(#b)" d="M47.77 85.5h78.11"/><g fill="none" stroke-miterlimit="10" stroke-width="3.6"><path d="M11.36 20.58v145.8c.69 11.91 16.36 16 23.19 6.21l52.2-77.74c6.75-9.66.58-23.34-11.18-24.08h-2c-11.83.64-18.12 14.38-11.33 24.1l52.2 77.73c6.83 9.78 22.5 5.71 23.19-6.21V20.75" stroke="url(#a)"/><path d="M10.36 20.58v145.8c.69 11.91 16.36 16 23.19 6.21l52.2-77.74c6.75-9.66.58-23.34-11.18-24.08h-2c-11.83.64-18.12 14.38-11.33 24.1l52.2 77.73c6.83 9.78 22.5 5.71 23.19-6.21V20.75" stroke="url(#c)"/><path d="M9.36 20.58v145.8c.69 11.91 16.36 16 23.19 6.21l52.2-77.74c6.75-9.66.58-23.34-11.18-24.08h-2c-11.83.64-18.12 14.38-11.33 24.1l52.2 77.73c6.83 9.78 22.5 5.71 23.19-6.21V20.75" stroke="url(#d)"/><path d="M8.36 20.58v145.8c.69 11.91 16.36 16 23.19 6.21l52.2-77.74c6.75-9.66.58-23.34-11.18-24.08h-2c-11.83.64-18.12 14.38-11.33 24.1l52.2 77.73c6.83 9.78 22.5 5.71 23.19-6.21V20.75" stroke="url(#e)"/><path d="M7.36 20.58v145.8c.69 11.91 16.36 16 23.19 6.21l52.2-77.74c6.75-9.66.58-23.34-11.18-24.08h-2c-11.83.64-18.12 14.38-11.33 24.1l52.2 77.73c6.83 9.78 22.5 5.71 23.19-6.21V20.75" stroke="url(#f)"/><path d="M6.36 20.58v145.8c.69 11.91 16.36 16 23.19 6.21l52.2-77.74c6.75-9.66.58-23.34-11.18-24.08h-2c-11.83.64-18.12 14.38-11.33 24.1l52.2 77.73c6.83 9.78 22.5 5.71 23.19-6.21V20.75" stroke="url(#g)"/><path d="M5.36 20.58v145.8c.69 11.91 16.36 16 23.19 6.21l52.2-77.74c6.75-9.66.58-23.34-11.18-24.08h-2c-11.83.64-18.12 14.38-11.33 24.1l52.2 77.73c6.83 9.78 22.5 5.71 23.19-6.21V20.75" stroke="url(#h)"/><path d="M4.36 20.58v145.8c.69 11.91 16.36 16 23.19 6.21l52.2-77.74c6.75-9.66.58-23.34-11.18-24.08h-2c-11.83.64-18.12 14.38-11.33 24.1l52.2 77.73c6.83 9.78 22.5 5.71 23.19-6.21V20.75" stroke="url(#i)"/><path d="M3.36 20.58v145.8c.69 11.91 16.36 16 23.19 6.21l52.2-77.74c6.75-9.66.58-23.34-11.18-24.08h-2c-11.83.64-18.12 14.38-11.33 24.1l52.2 77.73c6.83 9.78 22.5 5.71 23.19-6.21V20.75" stroke="url(#j)"/><path d="M2.36 20.58v145.8c.69 11.91 16.36 16 23.19 6.21l52.2-77.74c6.75-9.66.58-23.34-11.18-24.08h-2c-11.83.64-18.12 14.38-11.33 24.1l52.2 77.73c6.83 9.78 22.5 5.71 23.19-6.21V20.75" stroke="url(#k)"/><path d="M1.36 20.58v145.8c.69 11.91 16.36 16 23.19 6.21l52.2-77.74c6.75-9.66.58-23.34-11.18-24.08h-2c-11.83.64-18.12 14.38-11.33 24.1l52.2 77.73c6.83 9.78 22.5 5.71 23.19-6.21V20.75" stroke="url(#l)"/></g><path fill="none" stroke-miterlimit="10" stroke-width="3.6" stroke="url(#m)" d="M-.36 85.5h78.11"/></svg>