<svg data-name="Layer 2" xmlns="http://www.w3.org/2000/svg" xmlns:xlink="http://www.w3.org/1999/xlink" width="106.05" height="200" viewBox="0 0 106.05 200"><defs><linearGradient id="a" data-name="Red, Purple, Blue" x1="58.24" y1="180.33" x2="58.24" y2="20.33" gradientUnits="userSpaceOnUse"><stop offset="0" stop-color="#b7151b"/><stop offset=".02" stop-color="#c52229"/><stop offset=".06" stop-color="#d7333c"/><stop offset=".11" stop-color="#e23d47"/><stop offset=".15" stop-color="#e6404b"/><stop offset=".3" stop-color="#e98a7b"/><stop offset=".47" stop-color="#7c78b8"/><stop offset=".64" stop-color="#00b0b0"/><stop offset=".79" stop-color="#7b76b6"/><stop offset="1" stop-color="#e7322f"/></linearGradient><linearGradient id="b" x1="57.24" y1="180.33" x2="57.24" y2="20.33" xlink:href="#a"/><linearGradient id="c" x1="56.24" y1="180.33" x2="56.24" y2="20.33" xlink:href="#a"/><linearGradient id="d" x1="55.24" y1="180.33" x2="55.24" y2="20.33" xlink:href="#a"/><linearGradient id="e" x1="54.24" y1="180.33" x2="54.24" y2="20.33" xlink:href="#a"/><linearGradient id="f" x1="53.24" y1="180.33" x2="53.24" y2="20.33" xlink:href="#a"/><linearGradient id="g" x1="52.24" y1="180.33" x2="52.24" y2="20.33" xlink:href="#a"/><linearGradient id="h" x1="51.24" y1="180.33" x2="51.24" y2="20.33" xlink:href="#a"/><linearGradient id="i" x1="50.24" y1="180.33" x2="50.24" y2="20.33" xlink:href="#a"/><linearGradient id="j" x1="49.24" y1="180.33" x2="49.24" y2="20.33" xlink:href="#a"/><linearGradient id="k" x1="48.24" y1="180.33" x2="48.24" y2="20.33" xlink:href="#a"/><linearGradient id="l" x1="-457.44" y1="100.33" x2="-553.7" y2="100.33" gradientTransform="matrix(-1 0 0 1 -447.33 0)" xlink:href="#a"/><linearGradient id="m" x1="-456.44" y1="100.33" x2="-552.7" y2="100.33" gradientTransform="matrix(-1 0 0 1 -447.33 0)" xlink:href="#a"/><linearGradient id="n" x1="-455.44" y1="100.33" x2="-551.7" y2="100.33" gradientTransform="matrix(-1 0 0 1 -447.33 0)" xlink:href="#a"/><linearGradient id="o" x1="-454.44" y1="100.33" x2="-550.7" y2="100.33" gradientTransform="matrix(-1 0 0 1 -447.33 0)" xlink:href="#a"/><linearGradient id="p" x1="-453.44" y1="100.33" x2="-549.7" y2="100.33" gradientTransform="matrix(-1 0 0 1 -447.33 0)" xlink:href="#a"/><linearGradient id="q" x1="-452.44" y1="100.33" x2="-548.7" y2="100.33" gradientTransform="matrix(-1 0 0 1 -447.33 0)" xlink:href="#a"/><linearGradient id="r" x1="-451.44" y1="100.33" x2="-547.7" y2="100.33" gradientTransform="matrix(-1 0 0 1 -447.33 0)" xlink:href="#a"/><linearGradient id="s" x1="-450.44" y1="100.33" x2="-546.7" y2="100.33" gradientTransform="matrix(-1 0 0 1 -447.33 0)" xlink:href="#a"/><linearGradient id="t" x1="-449.44" y1="100.33" x2="-545.7" y2="100.33" gradientTransform="matrix(-1 0 0 1 -447.33 0)" xlink:href="#a"/><linearGradient id="u" x1="-448.44" y1="100.33" x2="-544.7" y2="100.33" gradientTransform="matrix(-1 0 0 1 -447.33 0)" xlink:href="#a"/><linearGradient id="v" x1="-447.44" y1="100.33" x2="-543.7" y2="100.33" gradientTransform="matrix(-1 0 0 1 -447.33 0)" xlink:href="#a"/></defs><title>_</title><g fill="none" stroke-miterlimit="10" stroke-width="3.6"><path d="M11.9 20.33c0 17.87 7.39 35.94 20.41 48.17l51.84 48.67a64.69 64.69 0 0 1 20.41 47.16v16" stroke="url(#a)"/><path d="M10.9 20.33c0 17.87 7.39 35.94 20.41 48.17l51.84 48.67a64.69 64.69 0 0 1 20.41 47.16v16" stroke="url(#b)"/><path d="M9.9 20.33c0 17.87 7.39 35.94 20.41 48.17l51.84 48.67a64.69 64.69 0 0 1 20.41 47.16v16" stroke="url(#c)"/><path d="M8.9 20.33c0 17.87 7.39 35.94 20.41 48.17l51.84 48.67a64.69 64.69 0 0 1 20.41 47.16v16" stroke="url(#d)"/><path d="M7.9 20.33c0 17.87 7.39 35.94 20.41 48.17l51.84 48.67a64.69 64.69 0 0 1 20.41 47.16v16" stroke="url(#e)"/><path d="M6.9 20.33c0 17.87 7.39 35.94 20.41 48.17l51.84 48.67a64.69 64.69 0 0 1 20.41 47.16v16" stroke="url(#f)"/><path d="M5.9 20.33c0 17.87 7.39 35.94 20.41 48.17l51.84 48.67a64.69 64.69 0 0 1 20.41 47.16v16" stroke="url(#g)"/><path d="M4.9 20.33c0 17.87 7.39 35.94 20.41 48.17l51.84 48.67a64.69 64.69 0 0 1 20.41 47.16v16" stroke="url(#h)"/><path d="M3.9 20.33c0 17.87 7.39 35.94 20.41 48.17l51.84 48.67a64.69 64.69 0 0 1 20.41 47.16v16" stroke="url(#i)"/><path d="M2.9 20.33c0 17.87 7.39 35.94 20.41 48.17l51.84 48.67a64.69 64.69 0 0 1 20.41 47.16v16" stroke="url(#j)"/><path d="M1.9 20.33c0 17.87 7.39 35.94 20.42 48.17l51.84 48.67a64.69 64.69 0 0 1 20.41 47.16v16" stroke="url(#k)"/></g><g fill="none" stroke-miterlimit="10" stroke-width="3.6"><path d="M104.57 20.33c0 17.87-7.39 35.94-20.41 48.17l-51.84 48.67a64.69 64.69 0 0 0-20.42 47.16v16" stroke="url(#l)"/><path d="M103.57 20.33c0 17.87-7.39 35.94-20.41 48.17l-51.84 48.67a64.69 64.69 0 0 0-20.42 47.16v16" stroke="url(#m)"/><path d="M102.57 20.33c0 17.87-7.39 35.94-20.41 48.17l-51.84 48.67A64.69 64.69 0 0 0 9.9 164.33v16" stroke="url(#n)"/><path d="M101.57 20.33c0 17.87-7.39 35.94-20.41 48.17l-51.84 48.67A64.69 64.69 0 0 0 8.9 164.33v16" stroke="url(#o)"/><path d="M100.57 20.33c0 17.87-7.39 35.94-20.41 48.17l-51.84 48.67A64.69 64.69 0 0 0 7.9 164.33v16" stroke="url(#p)"/><path d="M99.57 20.33c0 17.87-7.39 35.94-20.41 48.17l-51.84 48.67A64.69 64.69 0 0 0 6.9 164.33v16" stroke="url(#q)"/><path d="M98.57 20.33c0 17.87-7.39 35.94-20.41 48.17l-51.84 48.67A64.69 64.69 0 0 0 5.9 164.33v16" stroke="url(#r)"/><path d="M97.57 20.33c0 17.87-7.39 35.94-20.41 48.17l-51.84 48.67A64.69 64.69 0 0 0 4.9 164.33v16" stroke="url(#s)"/><path d="M96.57 20.33c0 17.87-7.39 35.94-20.41 48.17l-51.84 48.67A64.69 64.69 0 0 0 3.9 164.33v16" stroke="url(#t)"/><path d="M95.57 20.33c0 17.87-7.39 35.94-20.41 48.17l-51.84 48.67A64.69 64.69 0 0 0 2.9 164.33v16" stroke="url(#u)"/><path d="M94.57 20.33c0 17.87-7.39 35.94-20.41 48.17l-51.84 48.67A64.69 64.69 0 0 0 1.9 164.33v16" stroke="url(#v)"/></g></svg>