<svg data-name="Layer 2" xmlns="http://www.w3.org/2000/svg" xmlns:xlink="http://www.w3.org/1999/xlink" width="93" height="200" viewBox="0 0 93 200"><defs><linearGradient id="a" data-name="Orange, Yellow" x1="4.79" y1="23" x2="87.22" y2="23" gradientUnits="userSpaceOnUse"><stop offset="0" stop-color="#fff33b"/><stop offset=".04" stop-color="#fee72e"/><stop offset=".12" stop-color="#fed51b"/><stop offset=".2" stop-color="#fdca10"/><stop offset=".28" stop-color="#fdc70c"/><stop offset=".67" stop-color="#f3903f"/><stop offset=".89" stop-color="#ed683c"/><stop offset="1" stop-color="#e93e3a"/></linearGradient><linearGradient id="c" x1="4.79" y1="35.5" x2="87.22" y2="35.5" xlink:href="#a"/><linearGradient id="d" x1="1299.24" y1="393.31" x2="1349.17" y2="393.31" gradientTransform="rotate(90 804.67 -364.5)" xlink:href="#a"/><linearGradient id="b" data-name="Red, Purple, Blue" x1="10.28" y1="125.52" x2="93.95" y2="125.52" gradientTransform="matrix(1 0 0 -1 0 203.57)" gradientUnits="userSpaceOnUse"><stop offset="0" stop-color="#b7151b"/><stop offset=".02" stop-color="#c52229"/><stop offset=".06" stop-color="#d7333c"/><stop offset=".11" stop-color="#e23d47"/><stop offset=".15" stop-color="#e6404b"/><stop offset=".3" stop-color="#e98a7b"/><stop offset=".47" stop-color="#7c78b8"/><stop offset=".64" stop-color="#00b0b0"/><stop offset=".79" stop-color="#7b76b6"/><stop offset="1" stop-color="#e7322f"/></linearGradient><linearGradient id="e" x1="9.28" y1="125.52" x2="92.95" y2="125.52" xlink:href="#b"/><linearGradient id="f" x1="8.28" y1="125.52" x2="91.95" y2="125.52" xlink:href="#b"/><linearGradient id="g" x1="7.28" y1="125.52" x2="90.95" y2="125.52" xlink:href="#b"/><linearGradient id="h" x1="6.28" y1="125.52" x2="89.95" y2="125.52" xlink:href="#b"/><linearGradient id="i" x1="5.28" y1="125.52" x2="88.95" y2="125.52" xlink:href="#b"/><linearGradient id="j" x1="4.28" y1="125.52" x2="87.95" y2="125.52" xlink:href="#b"/><linearGradient id="k" x1="3.28" y1="125.52" x2="86.95" y2="125.52" xlink:href="#b"/><linearGradient id="l" x1="2.28" y1="125.52" x2="85.95" y2="125.52" xlink:href="#b"/><linearGradient id="m" x1="1.28" y1="125.52" x2="84.95" y2="125.52" xlink:href="#b"/><linearGradient id="n" x1=".28" y1="125.52" x2="83.95" y2="125.52" xlink:href="#b"/></defs><title>_</title><path fill="none" stroke-miterlimit="10" stroke-width="3.6" stroke="url(#a)" d="M4.79 23h82.43"/><path fill="none" stroke-miterlimit="10" stroke-width="3.6" stroke="url(#c)" d="M4.79 35.5h82.43"/><path fill="none" stroke-miterlimit="10" stroke-width="10.8" stroke="url(#d)" d="M46.86 130.07V180"/><g fill="none" stroke-miterlimit="10" stroke-width="3.6"><path d="M12.08 20.9v1a132 132 0 0 0 12.39 55.29l21.78 54c1.8 4.06 9.93 4.06 11.72 0l22.26-55.95A132 132 0 0 0 92.15 20.9" stroke="url(#b)"/><path d="M11.08 20.9v1a132 132 0 0 0 12.39 55.29l21.78 54c1.8 4.06 9.93 4.06 11.72 0l22.26-55.95A132 132 0 0 0 91.15 20.9" stroke="url(#e)"/><path d="M10.08 20.9v1a132 132 0 0 0 12.39 55.29l21.78 54c1.8 4.06 9.93 4.06 11.72 0l22.26-55.95A132 132 0 0 0 90.15 20.9" stroke="url(#f)"/><path d="M9.08 20.9v1a132 132 0 0 0 12.39 55.29l21.78 54c1.8 4.06 9.93 4.06 11.72 0l22.26-55.95A132 132 0 0 0 89.15 20.9" stroke="url(#g)"/><path d="M8.08 20.9v1a132 132 0 0 0 12.39 55.29l21.78 54c1.8 4.06 9.93 4.06 11.72 0l22.26-55.95A132 132 0 0 0 88.15 20.9" stroke="url(#h)"/><path d="M7.08 20.9v1a132 132 0 0 0 12.39 55.29l21.78 54c1.8 4.06 9.93 4.06 11.72 0l22.26-55.95A132 132 0 0 0 87.15 20.9" stroke="url(#i)"/><path d="M6.08 20.9v1a132 132 0 0 0 12.39 55.29l21.78 54c1.8 4.06 9.93 4.06 11.72 0l22.26-55.95A132 132 0 0 0 86.15 20.9" stroke="url(#j)"/><path d="M5.08 20.9v1a132 132 0 0 0 12.39 55.29l21.78 54c1.8 4.06 9.93 4.06 11.72 0l22.26-55.95A132 132 0 0 0 85.15 20.9" stroke="url(#k)"/><path d="M4.08 20.9v1a132 132 0 0 0 12.39 55.29l21.78 54c1.8 4.06 9.93 4.06 11.72 0l22.26-55.95A132 132 0 0 0 84.15 20.9" stroke="url(#l)"/><path d="M3.08 20.9v1a132 132 0 0 0 12.39 55.29l21.78 54c1.8 4.06 9.93 4.06 11.72 0l22.26-55.95A132 132 0 0 0 83.15 20.9" stroke="url(#m)"/><path d="M2.08 20.9v1a132 132 0 0 0 12.39 55.29l21.78 54c1.8 4.06 9.93 4.06 11.72 0l22.26-55.95A132 132 0 0 0 82.15 20.9" stroke="url(#n)"/></g></svg>