<svg data-name="Layer 2" xmlns="http://www.w3.org/2000/svg" xmlns:xlink="http://www.w3.org/1999/xlink" width="93.5" height="200" viewBox="0 0 93.5 200"><defs><linearGradient id="a" data-name="Orange, Yellow" x1=".08" y1="30.5" x2="83.26" y2="30.5" gradientUnits="userSpaceOnUse"><stop offset="0" stop-color="#fff33b"/><stop offset=".04" stop-color="#fee72e"/><stop offset=".12" stop-color="#fed51b"/><stop offset=".2" stop-color="#fdca10"/><stop offset=".28" stop-color="#fdc70c"/><stop offset=".67" stop-color="#f3903f"/><stop offset=".89" stop-color="#ed683c"/><stop offset="1" stop-color="#e93e3a"/></linearGradient><linearGradient id="c" x1="11.79" y1="170.62" x2="94.09" y2="170.62" xlink:href="#a"/><linearGradient id="b" data-name="Red, Purple, Blue" x1="-1469.49" y1="100.33" x2="-1553.76" y2="100.33" gradientTransform="matrix(-1 0 0 1 -1459.33 0)" gradientUnits="userSpaceOnUse"><stop offset="0" stop-color="#b7151b"/><stop offset=".02" stop-color="#c52229"/><stop offset=".06" stop-color="#d7333c"/><stop offset=".11" stop-color="#e23d47"/><stop offset=".15" stop-color="#e6404b"/><stop offset=".3" stop-color="#e98a7b"/><stop offset=".47" stop-color="#7c78b8"/><stop offset=".64" stop-color="#00b0b0"/><stop offset=".79" stop-color="#7b76b6"/><stop offset="1" stop-color="#e7322f"/></linearGradient><linearGradient id="d" x1="-1468.49" y1="100.33" x2="-1552.76" y2="100.33" xlink:href="#b"/><linearGradient id="e" x1="-1467.49" y1="100.33" x2="-1551.76" y2="100.33" xlink:href="#b"/><linearGradient id="f" x1="-1466.49" y1="100.33" x2="-1550.76" y2="100.33" xlink:href="#b"/><linearGradient id="g" x1="-1465.49" y1="100.33" x2="-1549.76" y2="100.33" xlink:href="#b"/><linearGradient id="h" x1="-1464.49" y1="100.33" x2="-1548.76" y2="100.33" xlink:href="#b"/><linearGradient id="i" x1="-1463.49" y1="100.33" x2="-1547.76" y2="100.33" xlink:href="#b"/><linearGradient id="j" x1="-1462.49" y1="100.33" x2="-1546.76" y2="100.33" xlink:href="#b"/><linearGradient id="k" x1="-1461.49" y1="100.33" x2="-1545.76" y2="100.33" xlink:href="#b"/><linearGradient id="l" x1="-1460.49" y1="100.33" x2="-1544.76" y2="100.33" xlink:href="#b"/><linearGradient id="m" x1="-1459.49" y1="100.33" x2="-1543.76" y2="100.33" xlink:href="#b"/><linearGradient id="n" x1=".23" y1="135.5" x2="72.22" y2="135.5" xlink:href="#a"/></defs><title>_</title><path fill="none" stroke-miterlimit="10" stroke-width="3.6" stroke="url(#a)" d="M.08 30.5h83.18"/><path fill="none" stroke-miterlimit="10" stroke-width="3.6" stroke="url(#c)" d="M11.8 170.75l82.28-.25"/><g fill="none" stroke-miterlimit="10" stroke-width="3.6"><path d="M10.16 22.33h82.47c0 17.87-80.63 113.92-80.63 140v16l81.86-.15" stroke="url(#b)"/><path d="M9.16 22.33h82.47c0 17.87-80.63 113.92-80.63 140v16l81.86-.15" stroke="url(#d)"/><path d="M8.16 22.33h82.47c0 17.87-80.63 113.92-80.63 140v16l81.86-.15" stroke="url(#e)"/><path d="M7.16 22.33h82.47C89.63 40.2 9 136.25 9 162.33v16l81.86-.15" stroke="url(#f)"/><path d="M6.16 22.33h82.47C88.63 40.2 8 136.25 8 162.33v16l81.86-.15" stroke="url(#g)"/><path d="M5.16 22.33h82.47C87.63 40.2 7 136.25 7 162.33v16l81.86-.15" stroke="url(#h)"/><path d="M4.16 22.33h82.47C86.63 40.2 6 136.25 6 162.33v16l81.86-.15" stroke="url(#i)"/><path d="M3.16 22.33h82.47C85.63 40.2 5 136.25 5 162.33v16l81.86-.15" stroke="url(#j)"/><path d="M2.16 22.33h82.47C84.63 40.2 4 136.25 4 162.33v16l81.86-.15" stroke="url(#k)"/><path d="M1.16 22.33h82.47C83.63 40.2 3 136.25 3 162.33v16l81.86-.15" stroke="url(#l)"/><path d="M.16 22.33h82.47C82.63 40.2 2 136.25 2 162.33v16l81.86-.15" stroke="url(#m)"/></g><path fill="none" stroke-miterlimit="10" stroke-width="10.8" stroke="url(#n)" d="M.23 135.5h71.99"/></svg>