<svg data-name="Layer 2" xmlns="http://www.w3.org/2000/svg" xmlns:xlink="http://www.w3.org/1999/xlink" width="41" height="200" viewBox="0 0 41 200"><defs><linearGradient id="a" data-name="Red, Purple, Blue" x1="-1454.6" y1="-899.5" x2="-1485.66" y2="-899.5" gradientTransform="rotate(180 -722.315 -399.5)" gradientUnits="userSpaceOnUse"><stop offset="0" stop-color="#b7151b"/><stop offset=".02" stop-color="#c52229"/><stop offset=".06" stop-color="#d7333c"/><stop offset=".11" stop-color="#e23d47"/><stop offset=".15" stop-color="#e6404b"/><stop offset=".3" stop-color="#e98a7b"/><stop offset=".47" stop-color="#7c78b8"/><stop offset=".64" stop-color="#00b0b0"/><stop offset=".79" stop-color="#7b76b6"/><stop offset="1" stop-color="#e7322f"/></linearGradient><linearGradient id="b" x1="-1453.6" y1="-899.5" x2="-1484.66" y2="-899.5" xlink:href="#a"/><linearGradient id="c" x1="-1452.6" y1="-899.5" x2="-1483.66" y2="-899.5" xlink:href="#a"/><linearGradient id="d" x1="-1451.6" y1="-899.5" x2="-1482.66" y2="-899.5" xlink:href="#a"/><linearGradient id="e" x1="-1450.6" y1="-899.5" x2="-1481.66" y2="-899.5" xlink:href="#a"/><linearGradient id="f" x1="-1449.6" y1="-899.5" x2="-1480.66" y2="-899.5" xlink:href="#a"/><linearGradient id="g" x1="-1448.6" y1="-899.5" x2="-1479.66" y2="-899.5" xlink:href="#a"/><linearGradient id="h" x1="-1447.6" y1="-899.5" x2="-1478.66" y2="-899.5" xlink:href="#a"/><linearGradient id="i" x1="-1446.6" y1="-899.5" x2="-1477.66" y2="-899.5" xlink:href="#a"/><linearGradient id="j" x1="-1445.6" y1="-899.5" x2="-1476.66" y2="-899.5" xlink:href="#a"/><linearGradient id="k" x1="-1444.6" y1="-899.5" x2="-1475.66" y2="-899.5" xlink:href="#a"/></defs><title>_</title><g fill="none" stroke-miterlimit="10" stroke-width="3.6"><path stroke="url(#a)" d="M41.02 22.67H12.34l-.57 155.66h28.92"/><path stroke="url(#b)" d="M40.02 22.67H11.34l-.57 155.66h28.92"/><path stroke="url(#c)" d="M39.02 22.67H10.34l-.57 155.66h28.92"/><path stroke="url(#d)" d="M38.02 22.67H9.34l-.57 155.66h28.92"/><path stroke="url(#e)" d="M37.02 22.67H8.34l-.57 155.66h28.92"/><path stroke="url(#f)" d="M36.02 22.67H7.34l-.57 155.66h28.92"/><path stroke="url(#g)" d="M35.02 22.67H6.34l-.57 155.66h28.92"/><path stroke="url(#h)" d="M34.02 22.67H5.34l-.57 155.66h28.92"/><path stroke="url(#i)" d="M33.02 22.67H4.34l-.57 155.66h28.92"/><path stroke="url(#j)" d="M32.02 22.67H3.34l-.57 155.66h28.92"/><path stroke="url(#k)" d="M31.02 22.67H2.34l-.57 155.66h28.92"/></g></svg>