<svg data-name="Layer 2" xmlns="http://www.w3.org/2000/svg" xmlns:xlink="http://www.w3.org/1999/xlink" width="40.67" height="200" viewBox="0 0 40.67 200"><defs><linearGradient id="a" data-name="Red, Purple, Blue" x1="-323.78" y1="-2399.5" x2="-354.84" y2="-2399.5" gradientTransform="translate(364.98 2500)" gradientUnits="userSpaceOnUse"><stop offset="0" stop-color="#b7151b"/><stop offset=".02" stop-color="#c52229"/><stop offset=".06" stop-color="#d7333c"/><stop offset=".11" stop-color="#e23d47"/><stop offset=".15" stop-color="#e6404b"/><stop offset=".3" stop-color="#e98a7b"/><stop offset=".47" stop-color="#7c78b8"/><stop offset=".64" stop-color="#00b0b0"/><stop offset=".79" stop-color="#7b76b6"/><stop offset="1" stop-color="#e7322f"/></linearGradient><linearGradient id="b" x1="-324.78" y1="-2399.5" x2="-355.84" y2="-2399.5" xlink:href="#a"/><linearGradient id="c" x1="-325.78" y1="-2399.5" x2="-356.84" y2="-2399.5" xlink:href="#a"/><linearGradient id="d" x1="-326.78" y1="-2399.5" x2="-357.84" y2="-2399.5" xlink:href="#a"/><linearGradient id="e" x1="-327.78" y1="-2399.5" x2="-358.84" y2="-2399.5" xlink:href="#a"/><linearGradient id="f" x1="-328.78" y1="-2399.5" x2="-359.84" y2="-2399.5" xlink:href="#a"/><linearGradient id="g" x1="-329.78" y1="-2399.5" x2="-360.84" y2="-2399.5" xlink:href="#a"/><linearGradient id="h" x1="-330.78" y1="-2399.5" x2="-361.84" y2="-2399.5" xlink:href="#a"/><linearGradient id="i" x1="-331.78" y1="-2399.5" x2="-362.84" y2="-2399.5" xlink:href="#a"/><linearGradient id="j" x1="-332.78" y1="-2399.5" x2="-363.84" y2="-2399.5" xlink:href="#a"/><linearGradient id="k" x1="-333.78" y1="-2399.5" x2="-364.84" y2="-2399.5" xlink:href="#a"/></defs><title>_</title><g fill="none" stroke-miterlimit="10" stroke-width="3.6"><path stroke="url(#a)" d="M10.15 178.33h28.68l.57-155.66H10.48"/><path stroke="url(#b)" d="M9.15 178.33h28.68l.57-155.66H9.48"/><path stroke="url(#c)" d="M8.15 178.33h28.68l.57-155.66H8.48"/><path stroke="url(#d)" d="M7.15 178.33h28.68l.57-155.66H7.48"/><path stroke="url(#e)" d="M6.15 178.33h28.68l.57-155.66H6.48"/><path stroke="url(#f)" d="M5.15 178.33h28.68l.57-155.66H5.48"/><path stroke="url(#g)" d="M4.15 178.33h28.68l.57-155.66H4.48"/><path stroke="url(#h)" d="M3.15 178.33h28.68l.57-155.66H3.48"/><path stroke="url(#i)" d="M2.15 178.33h28.68l.57-155.66H2.48"/><path stroke="url(#j)" d="M1.15 178.33h28.68l.57-155.66H1.48"/><path stroke="url(#k)" d="M.15 178.33h28.68l.57-155.66H.48"/></g></svg>