<svg data-name="Layer 2" xmlns="http://www.w3.org/2000/svg" xmlns:xlink="http://www.w3.org/1999/xlink" width="52.5" height="200" viewBox="0 0 52.5 200"><defs><linearGradient id="a" data-name="Red, Purple, Blue" x1="53.3" y1="103.88" x2="10.06" y2="103.88" gradientUnits="userSpaceOnUse"><stop offset="0" stop-color="#b7151b"/><stop offset=".02" stop-color="#c52229"/><stop offset=".06" stop-color="#d7333c"/><stop offset=".11" stop-color="#e23d47"/><stop offset=".15" stop-color="#e6404b"/><stop offset=".3" stop-color="#e98a7b"/><stop offset=".47" stop-color="#7c78b8"/><stop offset=".64" stop-color="#00b0b0"/><stop offset=".79" stop-color="#7b76b6"/><stop offset="1" stop-color="#e7322f"/></linearGradient><linearGradient id="b" x1="52.3" y1="103.88" x2="9.06" y2="103.88" xlink:href="#a"/><linearGradient id="c" x1="51.3" y1="103.88" x2="8.06" y2="103.88" xlink:href="#a"/><linearGradient id="d" x1="50.3" y1="103.88" x2="7.06" y2="103.88" xlink:href="#a"/><linearGradient id="e" x1="49.3" y1="103.88" x2="6.06" y2="103.88" xlink:href="#a"/><linearGradient id="f" x1="48.3" y1="103.88" x2="5.06" y2="103.88" xlink:href="#a"/><linearGradient id="g" x1="47.3" y1="103.88" x2="4.06" y2="103.88" xlink:href="#a"/><linearGradient id="h" x1="46.3" y1="103.88" x2="3.06" y2="103.88" xlink:href="#a"/><linearGradient id="i" x1="45.3" y1="103.88" x2="2.06" y2="103.88" xlink:href="#a"/><linearGradient id="j" x1="44.3" y1="103.88" x2="1.06" y2="103.88" xlink:href="#a"/><linearGradient id="k" x1="43.3" y1="103.88" x2=".06" y2="103.88" xlink:href="#a"/></defs><title>_</title><g fill="none" stroke-miterlimit="10" stroke-width="3.6"><path d="M11.67 120L25.6 92.13a7.22 7.22 0 0 1 13 .21l13 28.33" stroke="url(#a)"/><path d="M10.67 120L24.6 92.13a7.22 7.22 0 0 1 13 .21l13 28.33" stroke="url(#b)"/><path d="M9.67 120L23.6 92.13a7.22 7.22 0 0 1 13 .21l13 28.33" stroke="url(#c)"/><path d="M8.67 120L22.6 92.13a7.22 7.22 0 0 1 13 .21l13 28.33" stroke="url(#d)"/><path d="M7.67 120L21.6 92.13a7.22 7.22 0 0 1 13 .21l13 28.33" stroke="url(#e)"/><path d="M6.67 120L20.6 92.13a7.22 7.22 0 0 1 13 .21l13 28.33" stroke="url(#f)"/><path d="M5.67 120L19.6 92.13a7.22 7.22 0 0 1 13 .21l13 28.33" stroke="url(#g)"/><path d="M4.67 120L18.6 92.13a7.22 7.22 0 0 1 13 .21l13 28.33" stroke="url(#h)"/><path d="M3.67 120L17.6 92.13a7.22 7.22 0 0 1 13 .21l13 28.33" stroke="url(#i)"/><path d="M2.67 120L16.6 92.13a7.22 7.22 0 0 1 13 .21l13 28.33" stroke="url(#j)"/><path d="M1.67 120L15.6 92.13a7.22 7.22 0 0 1 13 .21l13 28.33" stroke="url(#k)"/></g></svg>