<svg data-name="Layer 2" xmlns="http://www.w3.org/2000/svg" xmlns:xlink="http://www.w3.org/1999/xlink" width="94" height="200" viewBox="0 0 94 200"><defs><linearGradient id="a" data-name="Red, Purple, Blue" x1="9.45" y1="112.56" x2="93.64" y2="112.56" gradientUnits="userSpaceOnUse"><stop offset="0" stop-color="#b7151b"/><stop offset=".02" stop-color="#c52229"/><stop offset=".06" stop-color="#d7333c"/><stop offset=".11" stop-color="#e23d47"/><stop offset=".15" stop-color="#e6404b"/><stop offset=".3" stop-color="#e98a7b"/><stop offset=".47" stop-color="#7c78b8"/><stop offset=".64" stop-color="#00b0b0"/><stop offset=".79" stop-color="#7b76b6"/><stop offset="1" stop-color="#e7322f"/></linearGradient><linearGradient id="b" x1="8.45" y1="112.56" x2="92.64" y2="112.56" xlink:href="#a"/><linearGradient id="c" x1="7.45" y1="112.56" x2="91.64" y2="112.56" xlink:href="#a"/><linearGradient id="d" x1="6.45" y1="112.56" x2="90.64" y2="112.56" xlink:href="#a"/><linearGradient id="e" x1="5.45" y1="112.56" x2="89.64" y2="112.56" xlink:href="#a"/><linearGradient id="f" x1="4.45" y1="112.56" x2="88.64" y2="112.56" xlink:href="#a"/><linearGradient id="g" x1="3.45" y1="112.56" x2="87.64" y2="112.56" xlink:href="#a"/><linearGradient id="h" x1="2.45" y1="112.56" x2="86.64" y2="112.56" xlink:href="#a"/><linearGradient id="i" x1="1.45" y1="112.56" x2="85.64" y2="112.56" xlink:href="#a"/><linearGradient id="j" x1=".45" y1="112.56" x2="84.64" y2="112.56" xlink:href="#a"/><linearGradient id="k" x1="-.55" y1="112.56" x2="83.64" y2="112.56" xlink:href="#a"/></defs><title>_</title><g fill="none" stroke-miterlimit="10" stroke-width="3.6"><path d="M11.25 138.61c0 22 17.51 40.35 39.61 40.72a40.19 40.19 0 0 0 41-40.06c0-17.78-25.21-32.86-46.66-38.1a11.78 11.78 0 0 0-14.62 11.39 11.78 11.78 0 0 0 14.62 11.39c21.45-5.23 46.66-20.31 46.66-38.1a40.19 40.19 0 0 0-41-40.06c-22.09.37-39.61 18.75-39.61 40.72z" stroke="url(#a)"/><path d="M10.25 138.61c0 22 17.51 40.35 39.61 40.72a40.19 40.19 0 0 0 41-40.06c0-17.78-25.21-32.86-46.66-38.1a11.78 11.78 0 0 0-14.62 11.39 11.78 11.78 0 0 0 14.62 11.39c21.45-5.23 46.66-20.31 46.66-38.1a40.19 40.19 0 0 0-41-40.06c-22.09.37-39.61 18.75-39.61 40.72z" stroke="url(#b)"/><path d="M9.25 138.61c0 22 17.51 40.35 39.61 40.72a40.19 40.19 0 0 0 41-40.06c0-17.78-25.21-32.86-46.66-38.1a11.78 11.78 0 0 0-14.62 11.39 11.78 11.78 0 0 0 14.62 11.39c21.45-5.23 46.66-20.31 46.66-38.1a40.19 40.19 0 0 0-41-40.06c-22.1.37-39.61 18.75-39.61 40.72z" stroke="url(#c)"/><path d="M8.25 138.61c0 22 17.51 40.35 39.61 40.72a40.19 40.19 0 0 0 41-40.06c0-17.78-25.21-32.86-46.66-38.1a11.78 11.78 0 0 0-14.62 11.39 11.78 11.78 0 0 0 14.62 11.39c21.45-5.23 46.66-20.31 46.66-38.1a40.19 40.19 0 0 0-41-40.06c-22.1.37-39.61 18.75-39.61 40.72z" stroke="url(#d)"/><path d="M7.25 138.61c0 22 17.51 40.35 39.61 40.72a40.19 40.19 0 0 0 41-40.06c0-17.78-25.21-32.86-46.66-38.1a11.78 11.78 0 0 0-14.62 11.39 11.78 11.78 0 0 0 14.62 11.39c21.45-5.23 46.66-20.31 46.66-38.1a40.19 40.19 0 0 0-41-40.06c-22.1.37-39.61 18.75-39.61 40.72z" stroke="url(#e)"/><path d="M6.25 138.61c0 22 17.51 40.35 39.61 40.72a40.19 40.19 0 0 0 41-40.06c0-17.78-25.21-32.86-46.66-38.1a11.78 11.78 0 0 0-14.62 11.39 11.78 11.78 0 0 0 14.62 11.39c21.45-5.23 46.66-20.31 46.66-38.1a40.19 40.19 0 0 0-41-40.06c-22.1.37-39.61 18.75-39.61 40.72z" stroke="url(#f)"/><path d="M5.25 138.61c0 22 17.51 40.35 39.61 40.72a40.19 40.19 0 0 0 41-40.06c0-17.78-25.21-32.86-46.66-38.1a11.78 11.78 0 0 0-14.62 11.39 11.78 11.78 0 0 0 14.62 11.39c21.45-5.23 46.66-20.31 46.66-38.1a40.19 40.19 0 0 0-41-40.06c-22.1.37-39.61 18.75-39.61 40.72z" stroke="url(#g)"/><path d="M4.25 138.61c0 22 17.51 40.35 39.61 40.72a40.19 40.19 0 0 0 41-40.06c0-17.78-25.21-32.86-46.66-38.1a11.78 11.78 0 0 0-14.62 11.39 11.78 11.78 0 0 0 14.62 11.39c21.45-5.23 46.66-20.31 46.66-38.1a40.19 40.19 0 0 0-41-40.06c-22.1.37-39.61 18.75-39.61 40.72z" stroke="url(#h)"/><path d="M3.25 138.61c0 22 17.51 40.35 39.61 40.72a40.19 40.19 0 0 0 41-40.06c0-17.78-25.21-32.86-46.66-38.1a11.78 11.78 0 0 0-14.62 11.39 11.78 11.78 0 0 0 14.62 11.39c21.45-5.23 46.66-20.31 46.66-38.1a40.19 40.19 0 0 0-41-40.06c-22.1.37-39.61 18.75-39.61 40.72z" stroke="url(#i)"/><path d="M2.25 138.61c0 22 17.51 40.35 39.61 40.72a40.19 40.19 0 0 0 41-40.06c0-17.78-25.21-32.86-46.66-38.1a11.78 11.78 0 0 0-14.62 11.39 11.78 11.78 0 0 0 14.62 11.39c21.45-5.23 46.66-20.31 46.66-38.1a40.19 40.19 0 0 0-41-40.06c-22.1.37-39.61 18.75-39.61 40.72z" stroke="url(#j)"/><path d="M1.25 138.61c0 22 17.51 40.35 39.61 40.72a40.19 40.19 0 0 0 41-40.06c0-17.78-25.21-32.86-46.66-38.1a11.78 11.78 0 0 0-14.62 11.39 11.78 11.78 0 0 0 14.62 11.39c21.45-5.23 46.66-20.31 46.66-38.1a40.19 40.19 0 0 0-41-40.06c-22.1.37-39.61 18.75-39.61 40.72z" stroke="url(#k)"/></g></svg>