<svg data-name="Layer 2" xmlns="http://www.w3.org/2000/svg" xmlns:xlink="http://www.w3.org/1999/xlink" width="89.65" height="200" viewBox="0 0 89.65 200"><defs><linearGradient id="a" data-name="Red, Purple, Blue" x1="6.49" y1="112.45" x2="89.86" y2="112.45" gradientUnits="userSpaceOnUse"><stop offset="0" stop-color="#b7151b"/><stop offset=".02" stop-color="#c52229"/><stop offset=".06" stop-color="#d7333c"/><stop offset=".11" stop-color="#e23d47"/><stop offset=".15" stop-color="#e6404b"/><stop offset=".3" stop-color="#e98a7b"/><stop offset=".47" stop-color="#7c78b8"/><stop offset=".64" stop-color="#00b0b0"/><stop offset=".79" stop-color="#7b76b6"/><stop offset="1" stop-color="#e7322f"/></linearGradient><linearGradient id="b" x1="5.49" y1="112.45" x2="88.86" y2="112.45" xlink:href="#a"/><linearGradient id="c" x1="4.49" y1="112.45" x2="87.86" y2="112.45" xlink:href="#a"/><linearGradient id="d" x1="3.49" y1="112.45" x2="86.86" y2="112.45" xlink:href="#a"/><linearGradient id="e" x1="2.49" y1="112.45" x2="85.86" y2="112.45" xlink:href="#a"/><linearGradient id="f" x1="1.49" y1="112.45" x2="84.86" y2="112.45" xlink:href="#a"/><linearGradient id="g" x1=".49" y1="112.45" x2="83.86" y2="112.45" xlink:href="#a"/><linearGradient id="h" x1="-.51" y1="112.45" x2="82.86" y2="112.45" xlink:href="#a"/><linearGradient id="i" x1="-1.51" y1="112.45" x2="81.86" y2="112.45" xlink:href="#a"/><linearGradient id="j" x1="-2.51" y1="112.45" x2="80.86" y2="112.45" xlink:href="#a"/><linearGradient id="k" x1="-3.51" y1="112.45" x2="79.86" y2="112.45" xlink:href="#a"/></defs><title>_</title><g fill="none" stroke-miterlimit="10" stroke-width="3.6"><path d="M89.86 46.29H53.33c-24.87 0-45 28-45 65.73s20.16 66.58 45 66.58h36" stroke="url(#a)"/><path d="M88.86 46.29H52.33c-24.87 0-45 28-45 65.73s20.16 66.58 45 66.58h36" stroke="url(#b)"/><path d="M87.86 46.29H51.33c-24.87 0-45 28-45 65.73s20.16 66.58 45 66.58h36" stroke="url(#c)"/><path d="M86.86 46.29H50.33c-24.87 0-45 28-45 65.73s20.16 66.58 45 66.58h36" stroke="url(#d)"/><path d="M85.86 46.29H49.33c-24.87 0-45 28-45 65.73s20.16 66.58 45 66.58h36" stroke="url(#e)"/><path d="M84.86 46.29H48.33c-24.87 0-45 28-45 65.73s20.16 66.58 45 66.58h36" stroke="url(#f)"/><path d="M83.86 46.29H47.33c-24.87 0-45 28-45 65.73s20.16 66.58 45 66.58h36" stroke="url(#g)"/><path d="M82.86 46.29H46.33c-24.87 0-45 28-45 65.73s20.16 66.58 45 66.58h36" stroke="url(#h)"/><path d="M81.86 46.29H45.33c-24.87 0-45 28-45 65.73s20.16 66.58 45 66.58h36" stroke="url(#i)"/><path d="M80.86 46.29H44.33c-24.87 0-45 28-45 65.73s20.16 66.58 45 66.58h36" stroke="url(#j)"/><path d="M79.86 46.29H43.33c-24.87 0-45 28-45 65.73s20.16 66.58 45 66.58h36" stroke="url(#k)"/></g></svg>