<svg data-name="Layer 2" xmlns="http://www.w3.org/2000/svg" xmlns:xlink="http://www.w3.org/1999/xlink" width="94" height="200" viewBox="0 0 94 200"><defs><linearGradient id="a" data-name="Red, Purple, Blue" x1="83.1" y1="-1411.44" x2="-.83" y2="-1411.44" gradientTransform="rotate(180 46.685 -649.5)" gradientUnits="userSpaceOnUse"><stop offset="0" stop-color="#b7151b"/><stop offset=".02" stop-color="#c52229"/><stop offset=".06" stop-color="#d7333c"/><stop offset=".11" stop-color="#e23d47"/><stop offset=".15" stop-color="#e6404b"/><stop offset=".3" stop-color="#e98a7b"/><stop offset=".47" stop-color="#7c78b8"/><stop offset=".64" stop-color="#00b0b0"/><stop offset=".79" stop-color="#7b76b6"/><stop offset="1" stop-color="#e7322f"/></linearGradient><linearGradient id="b" x1="84.1" y1="-1411.44" x2=".17" y2="-1411.44" xlink:href="#a"/><linearGradient id="c" x1="85.1" y1="-1411.44" x2="1.17" y2="-1411.44" xlink:href="#a"/><linearGradient id="d" x1="86.1" y1="-1411.44" x2="2.17" y2="-1411.44" xlink:href="#a"/><linearGradient id="e" x1="87.1" y1="-1411.44" x2="3.17" y2="-1411.44" xlink:href="#a"/><linearGradient id="f" x1="88.1" y1="-1411.44" x2="4.17" y2="-1411.44" xlink:href="#a"/><linearGradient id="g" x1="89.1" y1="-1411.44" x2="5.17" y2="-1411.44" xlink:href="#a"/><linearGradient id="h" x1="90.1" y1="-1411.44" x2="6.17" y2="-1411.44" xlink:href="#a"/><linearGradient id="i" x1="91.1" y1="-1411.44" x2="7.17" y2="-1411.44" xlink:href="#a"/><linearGradient id="j" x1="92.1" y1="-1411.44" x2="8.17" y2="-1411.44" xlink:href="#a"/><linearGradient id="k" x1="93.1" y1="-1411.44" x2="9.17" y2="-1411.44" xlink:href="#a"/></defs><title>_</title><g fill="none" stroke-miterlimit="10" stroke-width="3.6"><path d="M12.65 46.29H48c24.49 0 44.34 28.87 44.34 66.58S72.54 178.6 48 178.6H12z" stroke="url(#a)"/><path d="M11.65 46.29H47c24.49 0 44.34 28.87 44.34 66.58S71.54 178.6 47 178.6H11z" stroke="url(#b)"/><path d="M10.65 46.29H46c24.49 0 44.34 28.87 44.34 66.58S70.54 178.6 46 178.6H10z" stroke="url(#c)"/><path d="M9.65 46.29H45c24.49 0 44.34 28.87 44.34 66.58S69.54 178.6 45 178.6H9z" stroke="url(#d)"/><path d="M8.65 46.29H44c24.49 0 44.34 28.87 44.34 66.58S68.54 178.6 44 178.6H8z" stroke="url(#e)"/><path d="M7.65 46.29H43c24.49 0 44.34 28.87 44.34 66.58S67.54 178.6 43 178.6H7z" stroke="url(#f)"/><path d="M6.65 46.29H42c24.49 0 44.34 28.87 44.34 66.58S66.54 178.6 42 178.6H6z" stroke="url(#g)"/><path d="M5.65 46.29H41c24.49 0 44.34 28.87 44.34 66.58S65.54 178.6 41 178.6H5z" stroke="url(#h)"/><path d="M4.65 46.29H40c24.49 0 44.34 28.87 44.34 66.58S64.54 178.6 40 178.6H4z" stroke="url(#i)"/><path d="M3.65 46.29H39c24.49 0 44.34 28.87 44.34 66.58S63.54 178.6 39 178.6H3z" stroke="url(#j)"/><path d="M2.65 46.29H38c24.49 0 44.34 28.87 44.34 66.58S62.54 178.6 38 178.6H2z" stroke="url(#k)"/></g></svg>