<svg data-name="Layer 2" xmlns="http://www.w3.org/2000/svg" xmlns:xlink="http://www.w3.org/1999/xlink" width="93.5" height="200" viewBox="0 0 93.5 200"><defs><linearGradient id="a" data-name="Red, Purple, Blue" x1="-424.28" y1="-1411.44" x2="-508.31" y2="-1411.44" gradientTransform="rotate(180 -207.315 -649.5)" gradientUnits="userSpaceOnUse"><stop offset="0" stop-color="#b7151b"/><stop offset=".02" stop-color="#c52229"/><stop offset=".06" stop-color="#d7333c"/><stop offset=".11" stop-color="#e23d47"/><stop offset=".15" stop-color="#e6404b"/><stop offset=".3" stop-color="#e98a7b"/><stop offset=".47" stop-color="#7c78b8"/><stop offset=".64" stop-color="#00b0b0"/><stop offset=".79" stop-color="#7b76b6"/><stop offset="1" stop-color="#e7322f"/></linearGradient><linearGradient id="b" x1="-423.28" y1="-1411.44" x2="-507.31" y2="-1411.44" xlink:href="#a"/><linearGradient id="c" x1="-422.28" y1="-1411.44" x2="-506.31" y2="-1411.44" xlink:href="#a"/><linearGradient id="d" x1="-421.28" y1="-1411.44" x2="-505.31" y2="-1411.44" xlink:href="#a"/><linearGradient id="e" x1="-420.28" y1="-1411.44" x2="-504.31" y2="-1411.44" xlink:href="#a"/><linearGradient id="f" x1="-419.28" y1="-1411.44" x2="-503.31" y2="-1411.44" xlink:href="#a"/><linearGradient id="g" x1="-418.28" y1="-1411.44" x2="-502.31" y2="-1411.44" xlink:href="#a"/><linearGradient id="h" x1="-417.28" y1="-1411.44" x2="-501.31" y2="-1411.44" xlink:href="#a"/><linearGradient id="i" x1="-416.28" y1="-1411.44" x2="-500.31" y2="-1411.44" xlink:href="#a"/><linearGradient id="j" x1="-415.28" y1="-1411.44" x2="-499.31" y2="-1411.44" xlink:href="#a"/><linearGradient id="k" x1="-414.28" y1="-1411.44" x2="-498.31" y2="-1411.44" xlink:href="#a"/><linearGradient id="l" data-name="Orange, Yellow" x1="-.24" y1="136.31" x2="71.75" y2="136.31" gradientUnits="userSpaceOnUse"><stop offset="0" stop-color="#fff33b"/><stop offset=".04" stop-color="#fee72e"/><stop offset=".12" stop-color="#fed51b"/><stop offset=".2" stop-color="#fdca10"/><stop offset=".28" stop-color="#fdc70c"/><stop offset=".67" stop-color="#f3903f"/><stop offset=".89" stop-color="#ed683c"/><stop offset="1" stop-color="#e93e3a"/></linearGradient></defs><title>_</title><g fill="none" stroke-miterlimit="10" stroke-width="3.6"><path stroke="url(#a)" d="M93.68 46.29H12.02l-.57 132.31h82.01"/><path stroke="url(#b)" d="M92.68 46.29H11.02l-.57 132.31h82.01"/><path stroke="url(#c)" d="M91.68 46.29H10.02L9.45 178.6h82.01"/><path stroke="url(#d)" d="M90.68 46.29H9.02L8.45 178.6h82.01"/><path stroke="url(#e)" d="M89.68 46.29H8.02L7.45 178.6h82.01"/><path stroke="url(#f)" d="M88.68 46.29H7.02L6.45 178.6h82.01"/><path stroke="url(#g)" d="M87.68 46.29H6.02L5.45 178.6h82.01"/><path stroke="url(#h)" d="M86.68 46.29H5.02L4.45 178.6h82.01"/><path stroke="url(#i)" d="M85.68 46.29H4.02L3.45 178.6h82.01"/><path stroke="url(#j)" d="M84.68 46.29H3.02L2.45 178.6h82.01"/><path stroke="url(#k)" d="M83.68 46.29H2.02L1.45 178.6h82.01"/></g><path fill="none" stroke-miterlimit="10" stroke-width="10.8" stroke="url(#l)" d="M-.24 136.31h71.99"/></svg>