<svg data-name="Layer 2" xmlns="http://www.w3.org/2000/svg" xmlns:xlink="http://www.w3.org/1999/xlink" width="93.5" height="200" viewBox="0 0 93.5 200"><defs><linearGradient id="a" data-name="Red, Purple, Blue" x1="-974.71" y1="-1412.43" x2="-1058.74" y2="-1412.43" gradientTransform="rotate(180 -482.315 -650)" gradientUnits="userSpaceOnUse"><stop offset="0" stop-color="#b7151b"/><stop offset=".02" stop-color="#c52229"/><stop offset=".06" stop-color="#d7333c"/><stop offset=".11" stop-color="#e23d47"/><stop offset=".15" stop-color="#e6404b"/><stop offset=".3" stop-color="#e98a7b"/><stop offset=".47" stop-color="#7c78b8"/><stop offset=".64" stop-color="#00b0b0"/><stop offset=".79" stop-color="#7b76b6"/><stop offset="1" stop-color="#e7322f"/></linearGradient><linearGradient id="b" x1="-973.71" y1="-1412.43" x2="-1057.74" y2="-1412.43" xlink:href="#a"/><linearGradient id="c" x1="-972.71" y1="-1412.43" x2="-1056.74" y2="-1412.43" xlink:href="#a"/><linearGradient id="d" x1="-971.71" y1="-1412.43" x2="-1055.74" y2="-1412.43" xlink:href="#a"/><linearGradient id="e" x1="-970.71" y1="-1412.43" x2="-1054.74" y2="-1412.43" xlink:href="#a"/><linearGradient id="f" x1="-969.71" y1="-1412.43" x2="-1053.74" y2="-1412.43" xlink:href="#a"/><linearGradient id="g" x1="-968.71" y1="-1412.43" x2="-1052.74" y2="-1412.43" xlink:href="#a"/><linearGradient id="h" x1="-967.71" y1="-1412.43" x2="-1051.74" y2="-1412.43" xlink:href="#a"/><linearGradient id="i" x1="-966.71" y1="-1412.43" x2="-1050.74" y2="-1412.43" xlink:href="#a"/><linearGradient id="j" x1="-965.71" y1="-1412.43" x2="-1049.74" y2="-1412.43" xlink:href="#a"/><linearGradient id="k" x1="-964.71" y1="-1412.43" x2="-1048.74" y2="-1412.43" xlink:href="#a"/><linearGradient id="l" data-name="Orange, Yellow" x1=".18" y1="136.31" x2="72.17" y2="136.31" gradientUnits="userSpaceOnUse"><stop offset="0" stop-color="#fff33b"/><stop offset=".04" stop-color="#fee72e"/><stop offset=".12" stop-color="#fed51b"/><stop offset=".2" stop-color="#fdca10"/><stop offset=".28" stop-color="#fdc70c"/><stop offset=".67" stop-color="#f3903f"/><stop offset=".89" stop-color="#ed683c"/><stop offset="1" stop-color="#e93e3a"/></linearGradient></defs><title>_</title><g fill="none" stroke-miterlimit="10" stroke-width="3.6"><path stroke="url(#a)" d="M94.1 46.32H12.45l-.57 134.01"/><path stroke="url(#b)" d="M93.1 46.32H11.45l-.57 134.01"/><path stroke="url(#c)" d="M92.1 46.32H10.45l-.57 134.01"/><path stroke="url(#d)" d="M91.1 46.32H9.45l-.57 134.01"/><path stroke="url(#e)" d="M90.1 46.32H8.45l-.57 134.01"/><path stroke="url(#f)" d="M89.1 46.32H7.45l-.57 134.01"/><path stroke="url(#g)" d="M88.1 46.32H6.45l-.57 134.01"/><path stroke="url(#h)" d="M87.1 46.32H5.45l-.57 134.01"/><path stroke="url(#i)" d="M86.1 46.32H4.45l-.57 134.01"/><path stroke="url(#j)" d="M85.1 46.32H3.44l-.56 134.01"/><path stroke="url(#k)" d="M84.1 46.32H2.44l-.56 134.01"/></g><path fill="none" stroke-miterlimit="10" stroke-width="10.8" stroke="url(#l)" d="M.18 136.31h71.99"/></svg>