<svg data-name="Layer 2" xmlns="http://www.w3.org/2000/svg" xmlns:xlink="http://www.w3.org/1999/xlink" width="90" height="200" viewBox="0 0 90 200"><defs><linearGradient id="b" data-name="Orange, Yellow" x1="6.32" y1="136.31" x2="89.82" y2="136.31" gradientUnits="userSpaceOnUse"><stop offset="0" stop-color="#fff33b"/><stop offset=".04" stop-color="#fee72e"/><stop offset=".12" stop-color="#fed51b"/><stop offset=".2" stop-color="#fdca10"/><stop offset=".28" stop-color="#fdc70c"/><stop offset=".67" stop-color="#f3903f"/><stop offset=".89" stop-color="#ed683c"/><stop offset="1" stop-color="#e93e3a"/></linearGradient><linearGradient id="a" data-name="Red, Purple, Blue" x1="6.61" y1="112.45" x2="90.16" y2="112.45" gradientUnits="userSpaceOnUse"><stop offset="0" stop-color="#b7151b"/><stop offset=".02" stop-color="#c52229"/><stop offset=".06" stop-color="#d7333c"/><stop offset=".11" stop-color="#e23d47"/><stop offset=".15" stop-color="#e6404b"/><stop offset=".3" stop-color="#e98a7b"/><stop offset=".47" stop-color="#7c78b8"/><stop offset=".64" stop-color="#00b0b0"/><stop offset=".79" stop-color="#7b76b6"/><stop offset="1" stop-color="#e7322f"/></linearGradient><linearGradient id="c" x1="5.61" y1="112.45" x2="89.16" y2="112.45" xlink:href="#a"/><linearGradient id="d" x1="4.61" y1="112.45" x2="88.16" y2="112.45" xlink:href="#a"/><linearGradient id="e" x1="3.61" y1="112.45" x2="87.16" y2="112.45" xlink:href="#a"/><linearGradient id="f" x1="2.61" y1="112.45" x2="86.16" y2="112.45" xlink:href="#a"/><linearGradient id="g" x1="1.61" y1="112.45" x2="85.16" y2="112.45" xlink:href="#a"/><linearGradient id="h" x1=".61" y1="112.45" x2="84.16" y2="112.45" xlink:href="#a"/><linearGradient id="i" x1="-.39" y1="112.45" x2="83.16" y2="112.45" xlink:href="#a"/><linearGradient id="j" x1="-1.39" y1="112.45" x2="82.16" y2="112.45" xlink:href="#a"/><linearGradient id="k" x1="-2.39" y1="112.45" x2="81.16" y2="112.45" xlink:href="#a"/><linearGradient id="l" x1="-3.39" y1="112.45" x2="80.16" y2="112.45" xlink:href="#a"/></defs><title>_</title><path fill="none" stroke-miterlimit="10" stroke-width="10.8" stroke="url(#b)" d="M6.32 136.31h83.5"/><g fill="none" stroke-miterlimit="10" stroke-width="3.6"><path d="M90 46.29H53.44c-24.87 0-45 28-45 65.73s20.16 66.58 45 66.58H64.3c13.3 0 24.08-9.18 24.06-20.49v-20.49" stroke="url(#a)"/><path d="M89 46.29H52.44c-24.87 0-45 28-45 65.73s20.16 66.58 45 66.58H63.3c13.3 0 24.08-9.18 24.06-20.49v-20.49" stroke="url(#c)"/><path d="M88 46.29H51.44c-24.87 0-45 28-45 65.73s20.16 66.58 45 66.58H62.3c13.3 0 24.08-9.18 24.06-20.49v-20.49" stroke="url(#d)"/><path d="M87 46.29H50.44c-24.87 0-45 28-45 65.73s20.16 66.58 45 66.58H61.3c13.3 0 24.08-9.18 24.06-20.49v-20.49" stroke="url(#e)"/><path d="M86 46.29H49.44c-24.87 0-45 28-45 65.73s20.16 66.58 45 66.58H60.3c13.3 0 24.08-9.18 24.06-20.49v-20.49" stroke="url(#f)"/><path d="M85 46.29H48.44c-24.87 0-45 28-45 65.73s20.16 66.58 45 66.58H59.3c13.3 0 24.08-9.18 24.06-20.49v-20.49" stroke="url(#g)"/><path d="M84 46.29H47.44c-24.87 0-45 28-45 65.73s20.16 66.58 45 66.58H58.3c13.3 0 24.08-9.18 24.06-20.49v-20.49" stroke="url(#h)"/><path d="M83 46.29H46.44c-24.87 0-45 28-45 65.73s20.16 66.58 45 66.58H57.3c13.3 0 24.08-9.18 24.06-20.49v-20.49" stroke="url(#i)"/><path d="M82 46.29H45.44c-24.87 0-45 28-45 65.73s20.16 66.58 45 66.58H56.3c13.3 0 24.08-9.18 24.06-20.49v-20.49" stroke="url(#j)"/><path d="M81 46.29H44.44c-24.87 0-45 28-45 65.73s20.16 66.58 45 66.58H55.3c13.3 0 24.08-9.18 24.06-20.49v-20.49" stroke="url(#k)"/><path d="M80 46.29H43.44c-24.87 0-45 28-45 65.73s20.16 66.58 45 66.58H54.3c13.3 0 24.08-9.18 24.06-20.49v-20.49" stroke="url(#l)"/></g></svg>