<svg data-name="Layer 2" xmlns="http://www.w3.org/2000/svg" xmlns:xlink="http://www.w3.org/1999/xlink" width="93.5" height="200" viewBox="0 0 93.5 200"><defs><linearGradient id="a" data-name="Red, Purple, Blue" x1="709.31" y1="-576.65" x2="844.67" y2="-576.65" gradientTransform="rotate(90 50.17 -614.5)" gradientUnits="userSpaceOnUse"><stop offset="0" stop-color="#b7151b"/><stop offset=".02" stop-color="#c52229"/><stop offset=".06" stop-color="#d7333c"/><stop offset=".11" stop-color="#e23d47"/><stop offset=".15" stop-color="#e6404b"/><stop offset=".3" stop-color="#e98a7b"/><stop offset=".47" stop-color="#7c78b8"/><stop offset=".64" stop-color="#00b0b0"/><stop offset=".79" stop-color="#7b76b6"/><stop offset="1" stop-color="#e7322f"/></linearGradient><linearGradient id="b" x1="709.31" y1="-575.65" x2="844.67" y2="-575.65" xlink:href="#a"/><linearGradient id="c" x1="709.31" y1="-574.65" x2="844.67" y2="-574.65" xlink:href="#a"/><linearGradient id="d" x1="709.31" y1="-573.65" x2="844.67" y2="-573.65" xlink:href="#a"/><linearGradient id="e" x1="709.31" y1="-572.65" x2="844.67" y2="-572.65" xlink:href="#a"/><linearGradient id="f" x1="709.31" y1="-571.65" x2="844.67" y2="-571.65" xlink:href="#a"/><linearGradient id="g" x1="709.31" y1="-570.65" x2="844.67" y2="-570.65" xlink:href="#a"/><linearGradient id="h" x1="709.31" y1="-569.65" x2="844.67" y2="-569.65" xlink:href="#a"/><linearGradient id="i" x1="709.31" y1="-568.65" x2="844.67" y2="-568.65" xlink:href="#a"/><linearGradient id="j" x1="709.31" y1="-567.65" x2="844.67" y2="-567.65" xlink:href="#a"/><linearGradient id="k" x1="709.31" y1="-566.65" x2="844.67" y2="-566.65" xlink:href="#a"/><linearGradient id="l" x1="844.67" y1="-656.14" x2="709.31" y2="-656.14" xlink:href="#a"/><linearGradient id="m" x1="844.67" y1="-655.14" x2="709.31" y2="-655.14" xlink:href="#a"/><linearGradient id="n" x1="844.67" y1="-654.14" x2="709.31" y2="-654.14" xlink:href="#a"/><linearGradient id="o" x1="844.67" y1="-653.14" x2="709.31" y2="-653.14" xlink:href="#a"/><linearGradient id="p" x1="844.67" y1="-652.14" x2="709.31" y2="-652.14" xlink:href="#a"/><linearGradient id="q" x1="844.67" y1="-651.14" x2="709.31" y2="-651.14" xlink:href="#a"/><linearGradient id="r" x1="844.67" y1="-650.14" x2="709.31" y2="-650.14" xlink:href="#a"/><linearGradient id="s" x1="844.67" y1="-649.14" x2="709.31" y2="-649.14" xlink:href="#a"/><linearGradient id="t" x1="844.67" y1="-648.14" x2="709.31" y2="-648.14" xlink:href="#a"/><linearGradient id="u" x1="844.67" y1="-647.14" x2="709.31" y2="-647.14" xlink:href="#a"/><linearGradient id="v" x1="844.67" y1="-646.14" x2="709.31" y2="-646.14" xlink:href="#a"/><linearGradient id="w" data-name="Orange, Yellow" x1="-.1" y1="136.31" x2="94.07" y2="136.31" gradientUnits="userSpaceOnUse"><stop offset="0" stop-color="#fff33b"/><stop offset=".04" stop-color="#fee72e"/><stop offset=".12" stop-color="#fed51b"/><stop offset=".2" stop-color="#fdca10"/><stop offset=".28" stop-color="#fdc70c"/><stop offset=".67" stop-color="#f3903f"/><stop offset=".89" stop-color="#ed683c"/><stop offset="1" stop-color="#e93e3a"/></linearGradient></defs><title>_</title><g fill="none" stroke-miterlimit="10" stroke-width="3.6"><path stroke="url(#a)" d="M12.31 44.64V180"/><path stroke="url(#b)" d="M11.31 44.64V180"/><path stroke="url(#c)" d="M10.31 44.64V180"/><path stroke="url(#d)" d="M9.31 44.64V180"/><path stroke="url(#e)" d="M8.31 44.64V180"/><path stroke="url(#f)" d="M7.31 44.64V180"/><path stroke="url(#g)" d="M6.31 44.64V180"/><path stroke="url(#h)" d="M5.31 44.64V180"/><path stroke="url(#i)" d="M4.31 44.64V180"/><path stroke="url(#j)" d="M3.31 44.64V180"/><path stroke="url(#k)" d="M2.31 44.64V180"/></g><g fill="none" stroke-miterlimit="10" stroke-width="3.6"><path stroke="url(#l)" d="M91.81 44.64V180"/><path stroke="url(#m)" d="M90.81 44.64V180"/><path stroke="url(#n)" d="M89.81 44.64V180"/><path stroke="url(#o)" d="M88.81 44.64V180"/><path stroke="url(#p)" d="M87.81 44.64V180"/><path stroke="url(#q)" d="M86.81 44.64V180"/><path stroke="url(#r)" d="M85.81 44.64V180"/><path stroke="url(#s)" d="M84.81 44.64V180"/><path stroke="url(#t)" d="M83.81 44.64V180"/><path stroke="url(#u)" d="M82.81 44.64V180"/><path stroke="url(#v)" d="M81.81 44.64V180"/></g><path fill="none" stroke-miterlimit="10" stroke-width="10.8" stroke="url(#w)" d="M-.1 136.31h94.17"/></svg>