<svg data-name="Layer 2" xmlns="http://www.w3.org/2000/svg" xmlns:xlink="http://www.w3.org/1999/xlink" width="22" height="200" viewBox="0 0 22 200"><defs><linearGradient id="a" data-name="Red, Purple, Blue" x1="3171.67" y1="1379.18" x2="3304.67" y2="1379.18" gradientTransform="rotate(90 2260.17 -864.5)" gradientUnits="userSpaceOnUse"><stop offset="0" stop-color="#b7151b"/><stop offset=".02" stop-color="#c52229"/><stop offset=".06" stop-color="#d7333c"/><stop offset=".11" stop-color="#e23d47"/><stop offset=".15" stop-color="#e6404b"/><stop offset=".3" stop-color="#e98a7b"/><stop offset=".47" stop-color="#7c78b8"/><stop offset=".64" stop-color="#00b0b0"/><stop offset=".79" stop-color="#7b76b6"/><stop offset="1" stop-color="#e7322f"/></linearGradient><linearGradient id="b" x1="3171.67" y1="1380.18" x2="3304.67" y2="1380.18" xlink:href="#a"/><linearGradient id="c" x1="3171.67" y1="1381.18" x2="3304.67" y2="1381.18" xlink:href="#a"/><linearGradient id="d" x1="3171.67" y1="1382.18" x2="3304.67" y2="1382.18" xlink:href="#a"/><linearGradient id="e" x1="3171.67" y1="1383.18" x2="3304.67" y2="1383.18" xlink:href="#a"/><linearGradient id="f" x1="3171.67" y1="1384.18" x2="3304.67" y2="1384.18" xlink:href="#a"/><linearGradient id="g" x1="3171.67" y1="1385.18" x2="3304.67" y2="1385.18" xlink:href="#a"/><linearGradient id="h" x1="3171.67" y1="1386.18" x2="3304.67" y2="1386.18" xlink:href="#a"/><linearGradient id="i" x1="3171.67" y1="1387.18" x2="3304.67" y2="1387.18" xlink:href="#a"/><linearGradient id="j" x1="3171.67" y1="1388.18" x2="3304.67" y2="1388.18" xlink:href="#a"/><linearGradient id="k" x1="3171.67" y1="1389.18" x2="3304.67" y2="1389.18" xlink:href="#a"/><linearGradient id="l" data-name="Orange, Yellow" x1="-4.65" y1="36" x2="27.35" y2="36" gradientUnits="userSpaceOnUse"><stop offset="0" stop-color="#fff33b"/><stop offset=".04" stop-color="#fee72e"/><stop offset=".12" stop-color="#fed51b"/><stop offset=".2" stop-color="#fdca10"/><stop offset=".28" stop-color="#fdc70c"/><stop offset=".67" stop-color="#f3903f"/><stop offset=".89" stop-color="#ed683c"/><stop offset="1" stop-color="#e93e3a"/></linearGradient></defs><title>_</title><g fill="none" stroke-miterlimit="10" stroke-width="3.6"><path stroke="url(#a)" d="M16.48 47v133"/><path stroke="url(#b)" d="M15.48 47v133"/><path stroke="url(#c)" d="M14.48 47v133"/><path stroke="url(#d)" d="M13.48 47v133"/><path stroke="url(#e)" d="M12.48 47v133"/><path stroke="url(#f)" d="M11.48 47v133"/><path stroke="url(#g)" d="M10.48 47v133"/><path stroke="url(#h)" d="M9.48 47v133"/><path stroke="url(#i)" d="M8.48 47v133"/><path stroke="url(#j)" d="M7.48 47v133"/><path stroke="url(#k)" d="M6.48 47v133"/></g><circle cx="11.35" cy="36" r="16" fill="url(#l)"/></svg>