<svg data-name="Layer 2" xmlns="http://www.w3.org/2000/svg" xmlns:xlink="http://www.w3.org/1999/xlink" width="21.5" height="200" viewBox="0 0 21.5 200"><defs><linearGradient id="a" data-name="Red, Purple, Blue" x1="2984.04" y1="1179.67" x2="2984.04" y2="1121.09" gradientTransform="rotate(90 2003.17 -864.5)" gradientUnits="userSpaceOnUse"><stop offset="0" stop-color="#b7151b"/><stop offset=".02" stop-color="#c52229"/><stop offset=".06" stop-color="#d7333c"/><stop offset=".11" stop-color="#e23d47"/><stop offset=".15" stop-color="#e6404b"/><stop offset=".3" stop-color="#e98a7b"/><stop offset=".47" stop-color="#7c78b8"/><stop offset=".64" stop-color="#00b0b0"/><stop offset=".79" stop-color="#7b76b6"/><stop offset="1" stop-color="#e7322f"/></linearGradient><linearGradient id="b" x1="2984.04" y1="1180.67" x2="2984.04" y2="1122.09" xlink:href="#a"/><linearGradient id="c" x1="2984.04" y1="1181.67" x2="2984.04" y2="1123.09" xlink:href="#a"/><linearGradient id="d" x1="2984.04" y1="1182.67" x2="2984.04" y2="1124.09" xlink:href="#a"/><linearGradient id="e" x1="2984.04" y1="1183.67" x2="2984.04" y2="1125.09" xlink:href="#a"/><linearGradient id="f" x1="2984.04" y1="1184.67" x2="2984.04" y2="1126.09" xlink:href="#a"/><linearGradient id="g" x1="2984.04" y1="1185.67" x2="2984.04" y2="1127.09" xlink:href="#a"/><linearGradient id="h" x1="2984.04" y1="1186.67" x2="2984.04" y2="1128.09" xlink:href="#a"/><linearGradient id="i" x1="2984.04" y1="1187.67" x2="2984.04" y2="1129.09" xlink:href="#a"/><linearGradient id="j" x1="2984.04" y1="1188.67" x2="2984.04" y2="1130.09" xlink:href="#a"/><linearGradient id="k" x1="2984.04" y1="1189.67" x2="2984.04" y2="1131.09" xlink:href="#a"/><linearGradient id="l" data-name="Orange, Yellow" x1="-5.85" y1="36" x2="26.15" y2="36" gradientUnits="userSpaceOnUse"><stop offset="0" stop-color="#fff33b"/><stop offset=".04" stop-color="#fee72e"/><stop offset=".12" stop-color="#fed51b"/><stop offset=".2" stop-color="#fdca10"/><stop offset=".28" stop-color="#fdc70c"/><stop offset=".67" stop-color="#f3903f"/><stop offset=".89" stop-color="#ed683c"/><stop offset="1" stop-color="#e93e3a"/></linearGradient></defs><title>_</title><g fill="none" stroke-miterlimit="10" stroke-width="3.6"><path d="M-41 185.27h27c16.44 0 29.77-11.33 29.77-25.3V45.66" stroke="url(#a)"/><path d="M-42 185.27h27c16.44 0 29.77-11.33 29.77-25.3V45.66" stroke="url(#b)"/><path d="M-43 185.27h27c16.44 0 29.77-11.33 29.77-25.3V45.66" stroke="url(#c)"/><path d="M-44 185.27h27c16.44 0 29.77-11.33 29.77-25.3V45.66" stroke="url(#d)"/><path d="M-45 185.27h27c16.44 0 29.77-11.33 29.77-25.3V45.66" stroke="url(#e)"/><path d="M-46 185.27h27c16.44 0 29.77-11.33 29.77-25.3V45.66" stroke="url(#f)"/><path d="M-47 185.27h27c16.44 0 29.77-11.33 29.77-25.3V45.66" stroke="url(#g)"/><path d="M-48 185.27h27c16.44 0 29.77-11.33 29.77-25.3V45.66" stroke="url(#h)"/><path d="M-49 185.27h27c16.44 0 29.77-11.33 29.77-25.3V45.66" stroke="url(#i)"/><path d="M-50 185.27h27c16.44 0 29.77-11.33 29.77-25.3V45.66" stroke="url(#j)"/><path d="M-51 185.27h27c16.44 0 29.77-11.33 29.77-25.3V45.66" stroke="url(#k)"/></g><circle cx="10.15" cy="36" r="16" fill="url(#l)"/></svg>