<svg data-name="Layer 2" xmlns="http://www.w3.org/2000/svg" xmlns:xlink="http://www.w3.org/1999/xlink" width="60.5" height="200" viewBox="0 0 60.5 200"><defs><linearGradient id="b" data-name="Orange, Yellow" x1="2687.92" y1="933.53" x2="2847.17" y2="933.53" gradientTransform="rotate(90 1802.67 -864.5)" gradientUnits="userSpaceOnUse"><stop offset="0" stop-color="#fff33b"/><stop offset=".04" stop-color="#fee72e"/><stop offset=".12" stop-color="#fed51b"/><stop offset=".2" stop-color="#fdca10"/><stop offset=".28" stop-color="#fdc70c"/><stop offset=".67" stop-color="#f3903f"/><stop offset=".89" stop-color="#ed683c"/><stop offset="1" stop-color="#e93e3a"/></linearGradient><linearGradient id="a" data-name="Red, Purple, Blue" x1="15.51" y1="125.09" x2="60.09" y2="125.09" gradientUnits="userSpaceOnUse"><stop offset="0" stop-color="#b7151b"/><stop offset=".02" stop-color="#c52229"/><stop offset=".06" stop-color="#d7333c"/><stop offset=".11" stop-color="#e23d47"/><stop offset=".15" stop-color="#e6404b"/><stop offset=".3" stop-color="#e98a7b"/><stop offset=".47" stop-color="#7c78b8"/><stop offset=".64" stop-color="#00b0b0"/><stop offset=".79" stop-color="#7b76b6"/><stop offset="1" stop-color="#e7322f"/></linearGradient><linearGradient id="c" x1="14.51" y1="125.09" x2="59.09" y2="125.09" xlink:href="#a"/><linearGradient id="d" x1="13.51" y1="125.09" x2="58.09" y2="125.09" xlink:href="#a"/><linearGradient id="e" x1="12.51" y1="125.09" x2="57.09" y2="125.09" xlink:href="#a"/><linearGradient id="f" x1="11.51" y1="125.09" x2="56.09" y2="125.09" xlink:href="#a"/><linearGradient id="g" x1="10.51" y1="125.09" x2="55.09" y2="125.09" xlink:href="#a"/><linearGradient id="h" x1="9.51" y1="125.09" x2="54.09" y2="125.09" xlink:href="#a"/><linearGradient id="i" x1="8.51" y1="125.09" x2="53.09" y2="125.09" xlink:href="#a"/><linearGradient id="j" x1="7.51" y1="125.09" x2="52.09" y2="125.09" xlink:href="#a"/><linearGradient id="k" x1="6.51" y1="125.09" x2="51.09" y2="125.09" xlink:href="#a"/><linearGradient id="l" x1="5.51" y1="125.09" x2="50.09" y2="125.09" xlink:href="#a"/></defs><title>_</title><path fill="none" stroke-miterlimit="10" stroke-width="10.8" stroke="url(#b)" d="M4.64 20.75V180"/><g fill="none" stroke-miterlimit="10" stroke-width="3.6"><path d="M56.63 69.85v20.86a9.71 9.71 0 0 1-3.23 7.09l-35.15 37c-2 2.37-.6 5.73 2.76 6.43l27.6 10.52c5.15.81 9.26 4.38 9.65 8.82v19.79" stroke="url(#a)"/><path d="M55.63 69.85v20.86a9.71 9.71 0 0 1-3.23 7.09l-35.15 37c-2 2.37-.6 5.73 2.76 6.43l27.6 10.52c5.15.81 9.26 4.38 9.65 8.82v19.79" stroke="url(#c)"/><path d="M54.63 69.85v20.86a9.71 9.71 0 0 1-3.23 7.09l-35.15 37c-2 2.37-.6 5.73 2.76 6.43l27.6 10.52c5.15.81 9.26 4.38 9.65 8.82v19.79" stroke="url(#d)"/><path d="M53.63 69.85v20.86a9.71 9.71 0 0 1-3.23 7.09l-35.15 37c-2 2.37-.6 5.73 2.76 6.43l27.6 10.52c5.15.81 9.26 4.38 9.65 8.82v19.79" stroke="url(#e)"/><path d="M52.63 69.85v20.86a9.71 9.71 0 0 1-3.23 7.09l-35.15 37c-2 2.37-.6 5.73 2.76 6.43l27.6 10.52c5.15.81 9.26 4.38 9.65 8.82v19.79" stroke="url(#f)"/><path d="M51.63 69.85v20.86a9.71 9.71 0 0 1-3.23 7.09l-35.15 37c-2 2.37-.6 5.73 2.76 6.43l27.6 10.52c5.15.81 9.26 4.38 9.65 8.82v19.79" stroke="url(#g)"/><path d="M50.63 69.85v20.86a9.71 9.71 0 0 1-3.23 7.09l-35.15 37c-2 2.37-.6 5.73 2.76 6.43l27.6 10.52c5.15.81 9.26 4.38 9.65 8.82v19.79" stroke="url(#h)"/><path d="M49.63 69.85v20.86a9.71 9.71 0 0 1-3.23 7.09l-35.15 37c-2 2.37-.6 5.73 2.76 6.43l27.6 10.52c5.15.81 9.26 4.38 9.65 8.82v19.79" stroke="url(#i)"/><path d="M48.63 69.85v20.86a9.71 9.71 0 0 1-3.23 7.09l-35.15 37c-2 2.37-.6 5.73 2.76 6.43l27.6 10.52c5.15.81 9.26 4.38 9.65 8.82v19.79" stroke="url(#j)"/><path d="M47.63 69.85v20.86a9.71 9.71 0 0 1-3.23 7.09l-35.15 37c-2 2.37-.6 5.73 2.76 6.43l27.6 10.52c5.15.81 9.26 4.38 9.65 8.82v19.79" stroke="url(#k)"/><path d="M46.63 69.85v20.86a9.71 9.71 0 0 1-3.23 7.09l-35.15 37c-2 2.37-.6 5.73 2.76 6.43l27.6 10.52c5.15.81 9.26 4.38 9.65 8.82v19.79" stroke="url(#l)"/></g></svg>