<svg data-name="Layer 2" xmlns="http://www.w3.org/2000/svg" xmlns:xlink="http://www.w3.org/1999/xlink" width="129" height="200" viewBox="0 0 129 200"><defs><linearGradient id="a" data-name="Red, Purple, Blue" x1="11.2" y1="114.14" x2="128.83" y2="114.14" gradientUnits="userSpaceOnUse"><stop offset="0" stop-color="#b7151b"/><stop offset=".02" stop-color="#c52229"/><stop offset=".06" stop-color="#d7333c"/><stop offset=".11" stop-color="#e23d47"/><stop offset=".15" stop-color="#e6404b"/><stop offset=".3" stop-color="#e98a7b"/><stop offset=".47" stop-color="#7c78b8"/><stop offset=".64" stop-color="#00b0b0"/><stop offset=".79" stop-color="#7b76b6"/><stop offset="1" stop-color="#e7322f"/></linearGradient><linearGradient id="b" x1="10.2" y1="114.14" x2="127.83" y2="114.14" xlink:href="#a"/><linearGradient id="c" x1="9.2" y1="114.14" x2="126.83" y2="114.14" xlink:href="#a"/><linearGradient id="d" x1="8.2" y1="114.14" x2="125.83" y2="114.14" xlink:href="#a"/><linearGradient id="e" x1="7.2" y1="114.14" x2="124.83" y2="114.14" xlink:href="#a"/><linearGradient id="f" x1="6.2" y1="114.14" x2="123.83" y2="114.14" xlink:href="#a"/><linearGradient id="g" x1="5.2" y1="114.14" x2="122.83" y2="114.14" xlink:href="#a"/><linearGradient id="h" x1="4.2" y1="114.14" x2="121.83" y2="114.14" xlink:href="#a"/><linearGradient id="i" x1="3.2" y1="114.14" x2="120.83" y2="114.14" xlink:href="#a"/><linearGradient id="j" x1="2.2" y1="114.14" x2="119.83" y2="114.14" xlink:href="#a"/><linearGradient id="k" x1="1.2" y1="114.14" x2="118.83" y2="114.14" xlink:href="#a"/></defs><title>_</title><g fill="none" stroke-miterlimit="10" stroke-width="3.6"><path d="M17.68 180.9l-.22-.64c-4.51-13-5.8-28.17-2.94-45.22l7.85-80.55c1.07-8.62 12.93-8.62 16.61 0l40.73 118.79c1.18 3.49-3.21 6.67-9 6.67-5.76 0-10.31-3.18-9.3-6.67l35-118.79c3.26-8.62 15.12-8.62 16.61 0l11.75 82.63c3.44 16.46 2.85 31.12-.91 43.77" stroke="url(#a)"/><path d="M16.68 180.9l-.22-.64c-4.51-13-5.8-28.17-2.94-45.22l7.85-80.55c1.07-8.62 12.93-8.62 16.61 0l40.73 118.79c1.18 3.49-3.21 6.67-9 6.67-5.76 0-10.31-3.18-9.3-6.67l35-118.79c3.26-8.62 15.12-8.62 16.61 0l11.75 82.63c3.44 16.46 2.85 31.12-.91 43.77" stroke="url(#b)"/><path d="M15.68 180.9l-.22-.64c-4.51-13-5.8-28.17-2.94-45.22l7.85-80.55c1.07-8.62 12.93-8.62 16.61 0l40.73 118.79c1.18 3.49-3.21 6.67-9 6.67-5.76 0-10.31-3.18-9.3-6.67l35-118.79c3.26-8.62 15.12-8.62 16.61 0l11.75 82.63c3.44 16.46 2.85 31.12-.91 43.77" stroke="url(#c)"/><path d="M14.68 180.9l-.22-.64c-4.51-13-5.8-28.17-2.94-45.22l7.85-80.55c1.07-8.62 12.93-8.62 16.61 0l40.73 118.79c1.18 3.49-3.21 6.67-9 6.67-5.76 0-10.31-3.18-9.3-6.67l35-118.79c3.26-8.62 15.12-8.62 16.61 0l11.75 82.63c3.44 16.46 2.85 31.12-.91 43.77" stroke="url(#d)"/><path d="M13.68 180.9l-.22-.64c-4.51-13-5.8-28.17-2.94-45.22l7.85-80.55c1.07-8.62 12.93-8.62 16.61 0l40.73 118.79c1.18 3.49-3.21 6.67-9 6.67-5.76 0-10.31-3.18-9.3-6.67l35-118.79c3.26-8.62 15.12-8.62 16.61 0l11.75 82.63c3.44 16.46 2.85 31.12-.91 43.77" stroke="url(#e)"/><path d="M12.68 180.9l-.22-.64C8 167.23 6.65 152.08 9.51 135l7.85-80.55c1.07-8.62 12.93-8.62 16.61 0l40.74 118.83c1.18 3.49-3.21 6.67-9 6.67-5.76 0-10.31-3.18-9.3-6.67l35-118.79c3.26-8.62 15.12-8.62 16.61 0l11.75 82.63c3.44 16.46 2.85 31.12-.91 43.77" stroke="url(#f)"/><path d="M11.68 180.9l-.22-.64C7 167.23 5.65 152.08 8.51 135l7.85-80.55c1.07-8.62 12.93-8.62 16.61 0l40.74 118.83c1.18 3.49-3.21 6.67-9 6.67-5.76 0-10.31-3.18-9.3-6.67l35-118.79c3.26-8.62 15.12-8.62 16.61 0l11.75 82.63c3.44 16.46 2.85 31.12-.91 43.77" stroke="url(#g)"/><path d="M10.68 180.9l-.22-.64C6 167.23 4.65 152.08 7.51 135l7.85-80.55c1.07-8.62 12.93-8.62 16.61 0l40.74 118.83c1.18 3.49-3.21 6.67-9 6.67-5.76 0-10.31-3.18-9.3-6.67l35-118.79c3.26-8.62 15.12-8.62 16.61 0l11.75 82.63c3.44 16.46 2.85 31.12-.91 43.77" stroke="url(#h)"/><path d="M9.68 180.9l-.22-.64C5 167.23 3.65 152.08 6.51 135l7.85-80.55c1.07-8.62 12.93-8.62 16.61 0l40.74 118.83c1.18 3.49-3.21 6.67-9 6.67-5.76 0-10.31-3.18-9.3-6.67l35-118.79c3.26-8.62 15.12-8.62 16.61 0l11.75 82.63c3.44 16.46 2.85 31.12-.91 43.77" stroke="url(#i)"/><path d="M8.68 180.9l-.22-.64C4 167.23 2.65 152.08 5.51 135l7.85-80.55c1.07-8.62 12.93-8.62 16.61 0l40.74 118.83c1.18 3.49-3.21 6.67-9 6.67-5.76 0-10.31-3.18-9.3-6.67l35-118.79c3.26-8.62 15.12-8.62 16.61 0l11.75 82.63c3.44 16.46 2.85 31.12-.91 43.77" stroke="url(#j)"/><path d="M7.68 180.9l-.22-.64C3 167.23 1.65 152.08 4.51 135l7.85-80.55c1.07-8.62 12.93-8.62 16.61 0l40.74 118.83c1.18 3.49-3.21 6.67-9 6.67-5.76 0-10.31-3.18-9.3-6.67l35-118.79c3.26-8.62 15.12-8.62 16.61 0l11.75 82.63c3.44 16.46 2.85 31.12-.91 43.77" stroke="url(#k)"/></g></svg>