<svg data-name="Layer 2" xmlns="http://www.w3.org/2000/svg" xmlns:xlink="http://www.w3.org/1999/xlink" width="93.5" height="200" viewBox="0 0 93.5 200"><defs><linearGradient id="a" data-name="Red, Purple, Blue" x1="2027.34" y1="175.16" x2="2027.34" y2="92.06" gradientTransform="rotate(90 1050.17 -864.5)" gradientUnits="userSpaceOnUse"><stop offset="0" stop-color="#b7151b"/><stop offset=".02" stop-color="#c52229"/><stop offset=".06" stop-color="#d7333c"/><stop offset=".11" stop-color="#e23d47"/><stop offset=".15" stop-color="#e6404b"/><stop offset=".3" stop-color="#e98a7b"/><stop offset=".47" stop-color="#7c78b8"/><stop offset=".64" stop-color="#00b0b0"/><stop offset=".79" stop-color="#7b76b6"/><stop offset="1" stop-color="#e7322f"/></linearGradient><linearGradient id="b" x1="2027.34" y1="176.16" x2="2027.34" y2="93.06" xlink:href="#a"/><linearGradient id="c" x1="2027.34" y1="177.16" x2="2027.34" y2="94.06" xlink:href="#a"/><linearGradient id="d" x1="2027.34" y1="178.16" x2="2027.34" y2="95.06" xlink:href="#a"/><linearGradient id="e" x1="2027.34" y1="179.16" x2="2027.34" y2="96.06" xlink:href="#a"/><linearGradient id="f" x1="2027.34" y1="180.16" x2="2027.34" y2="97.06" xlink:href="#a"/><linearGradient id="g" x1="2027.34" y1="181.16" x2="2027.34" y2="98.06" xlink:href="#a"/><linearGradient id="h" x1="2027.34" y1="182.16" x2="2027.34" y2="99.06" xlink:href="#a"/><linearGradient id="i" x1="2027.34" y1="183.16" x2="2027.34" y2="100.06" xlink:href="#a"/><linearGradient id="j" x1="2027.34" y1="184.16" x2="2027.34" y2="101.06" xlink:href="#a"/><linearGradient id="k" x1="2027.34" y1="185.16" x2="2027.34" y2="102.06" xlink:href="#a"/></defs><title>_</title><g fill="none" stroke-miterlimit="10" stroke-width="3.6"><path d="M91.81 44.7v123.55c0 4.41-2.72 7.65-6.4 9.37-7.34 3.43-16.5-.44-18.28-7.4l-29.79-115C35.46 47.89 25.47 44 18 48.11a10.24 10.24 0 0 0-5.7 9.1v122.85" stroke="url(#a)"/><path d="M90.81 44.7v123.55c0 4.41-2.72 7.65-6.4 9.37-7.34 3.43-16.5-.44-18.28-7.4l-29.79-115C34.46 47.89 24.47 44 17 48.11a10.24 10.24 0 0 0-5.7 9.1v122.85" stroke="url(#b)"/><path d="M89.81 44.7v123.55c0 4.41-2.72 7.65-6.4 9.37-7.34 3.43-16.5-.44-18.28-7.4l-29.79-115C33.46 47.89 23.47 44 16 48.11a10.24 10.24 0 0 0-5.7 9.1v122.85" stroke="url(#c)"/><path d="M88.81 44.7v123.55c0 4.41-2.72 7.65-6.4 9.37-7.34 3.43-16.5-.44-18.28-7.4l-29.79-115C32.46 47.89 22.47 44 15 48.11a10.24 10.24 0 0 0-5.7 9.1v122.85" stroke="url(#d)"/><path d="M87.81 44.7v123.55c0 4.41-2.72 7.65-6.4 9.37-7.34 3.43-16.5-.44-18.28-7.4l-29.79-115C31.46 47.89 21.47 44 14 48.11a10.24 10.24 0 0 0-5.7 9.1v122.85" stroke="url(#e)"/><path d="M86.81 44.7v123.55c0 4.41-2.72 7.65-6.4 9.37-7.34 3.43-16.5-.44-18.28-7.4l-29.79-115C30.46 47.89 20.47 44 13 48.11a10.24 10.24 0 0 0-5.7 9.1v122.85" stroke="url(#f)"/><path d="M85.81 44.7v123.55c0 4.41-2.72 7.65-6.4 9.37-7.34 3.43-16.5-.44-18.28-7.4l-29.79-115C29.46 47.89 19.47 44 12 48.11a10.24 10.24 0 0 0-5.7 9.1v122.85" stroke="url(#g)"/><path d="M84.81 44.7v123.55c0 4.41-2.72 7.65-6.4 9.37-7.34 3.43-16.5-.44-18.28-7.4l-29.79-115C28.46 47.89 18.47 44 11 48.11a10.24 10.24 0 0 0-5.7 9.1v122.85" stroke="url(#h)"/><path d="M83.81 44.7v123.55c0 4.41-2.72 7.65-6.4 9.37-7.34 3.43-16.5-.44-18.28-7.4l-29.79-115C27.46 47.89 17.47 44 10 48.11a10.24 10.24 0 0 0-5.7 9.1v122.85" stroke="url(#i)"/><path d="M82.81 44.7v123.55c0 4.41-2.72 7.65-6.4 9.37-7.34 3.43-16.5-.44-18.28-7.4l-29.79-115C26.46 47.89 16.47 44 9 48.11a10.24 10.24 0 0 0-5.7 9.1v122.85" stroke="url(#j)"/><path d="M81.81 44.7v123.55c0 4.41-2.72 7.65-6.4 9.37-7.34 3.43-16.5-.44-18.28-7.4l-29.79-115C25.46 47.89 15.47 44 8 48.11a10.24 10.24 0 0 0-5.7 9.1v122.85" stroke="url(#k)"/></g></svg>