<svg data-name="Layer 2" xmlns="http://www.w3.org/2000/svg" xmlns:xlink="http://www.w3.org/1999/xlink" width="93.5" height="200" viewBox="0 0 93.5 200"><defs><linearGradient id="a" data-name="Red, Purple, Blue" x1="10.17" y1="112.45" x2="93.4" y2="112.45" gradientUnits="userSpaceOnUse"><stop offset="0" stop-color="#b7151b"/><stop offset=".02" stop-color="#c52229"/><stop offset=".06" stop-color="#d7333c"/><stop offset=".11" stop-color="#e23d47"/><stop offset=".15" stop-color="#e6404b"/><stop offset=".3" stop-color="#e98a7b"/><stop offset=".47" stop-color="#7c78b8"/><stop offset=".64" stop-color="#00b0b0"/><stop offset=".79" stop-color="#7b76b6"/><stop offset="1" stop-color="#e7322f"/></linearGradient><linearGradient id="b" x1="9.17" y1="112.45" x2="92.4" y2="112.45" xlink:href="#a"/><linearGradient id="c" x1="8.17" y1="112.45" x2="91.4" y2="112.45" xlink:href="#a"/><linearGradient id="d" x1="7.17" y1="112.45" x2="90.4" y2="112.45" xlink:href="#a"/><linearGradient id="e" x1="6.17" y1="112.45" x2="89.4" y2="112.45" xlink:href="#a"/><linearGradient id="f" x1="5.17" y1="112.45" x2="88.4" y2="112.45" xlink:href="#a"/><linearGradient id="g" x1="4.17" y1="112.45" x2="87.4" y2="112.45" xlink:href="#a"/><linearGradient id="h" x1="3.17" y1="112.45" x2="86.4" y2="112.45" xlink:href="#a"/><linearGradient id="i" x1="2.17" y1="112.45" x2="85.4" y2="112.45" xlink:href="#a"/><linearGradient id="j" x1="1.17" y1="112.45" x2="84.4" y2="112.45" xlink:href="#a"/><linearGradient id="k" x1=".17" y1="112.45" x2="83.4" y2="112.45" xlink:href="#a"/></defs><title>_</title><g fill="none" stroke-miterlimit="10" stroke-width="3.6"><ellipse cx="51.78" cy="112.45" rx="39.81" ry="66.57" stroke="url(#a)"/><ellipse cx="50.78" cy="112.45" rx="39.81" ry="66.57" stroke="url(#b)"/><ellipse cx="49.78" cy="112.45" rx="39.81" ry="66.57" stroke="url(#c)"/><ellipse cx="48.78" cy="112.45" rx="39.81" ry="66.57" stroke="url(#d)"/><ellipse cx="47.78" cy="112.45" rx="39.81" ry="66.57" stroke="url(#e)"/><ellipse cx="46.78" cy="112.45" rx="39.81" ry="66.57" stroke="url(#f)"/><ellipse cx="45.78" cy="112.45" rx="39.81" ry="66.57" stroke="url(#g)"/><ellipse cx="44.78" cy="112.45" rx="39.81" ry="66.57" stroke="url(#h)"/><ellipse cx="43.78" cy="112.45" rx="39.81" ry="66.57" stroke="url(#i)"/><ellipse cx="42.78" cy="112.45" rx="39.81" ry="66.57" stroke="url(#j)"/><ellipse cx="41.78" cy="112.45" rx="39.81" ry="66.57" stroke="url(#k)"/></g></svg>