<svg data-name="Layer 2" xmlns="http://www.w3.org/2000/svg" xmlns:xlink="http://www.w3.org/1999/xlink" width="93" height="200" viewBox="0 0 93 200"><defs><linearGradient id="a" data-name="Red, Purple, Blue" x1="-918.76" y1="-1911.43" x2="-1002.42" y2="-1911.43" gradientTransform="rotate(180 -454.315 -899.5)" gradientUnits="userSpaceOnUse"><stop offset="0" stop-color="#b7151b"/><stop offset=".02" stop-color="#c52229"/><stop offset=".06" stop-color="#d7333c"/><stop offset=".11" stop-color="#e23d47"/><stop offset=".15" stop-color="#e6404b"/><stop offset=".3" stop-color="#e98a7b"/><stop offset=".47" stop-color="#7c78b8"/><stop offset=".64" stop-color="#00b0b0"/><stop offset=".79" stop-color="#7b76b6"/><stop offset="1" stop-color="#e7322f"/></linearGradient><linearGradient id="b" x1="-917.76" y1="-1911.43" x2="-1001.42" y2="-1911.43" xlink:href="#a"/><linearGradient id="c" x1="-916.76" y1="-1911.43" x2="-1000.42" y2="-1911.43" xlink:href="#a"/><linearGradient id="d" x1="-915.76" y1="-1911.43" x2="-999.42" y2="-1911.43" xlink:href="#a"/><linearGradient id="e" x1="-914.76" y1="-1911.43" x2="-998.42" y2="-1911.43" xlink:href="#a"/><linearGradient id="f" x1="-913.76" y1="-1911.43" x2="-997.42" y2="-1911.43" xlink:href="#a"/><linearGradient id="g" x1="-912.76" y1="-1911.43" x2="-996.42" y2="-1911.43" xlink:href="#a"/><linearGradient id="h" x1="-911.76" y1="-1911.43" x2="-995.42" y2="-1911.43" xlink:href="#a"/><linearGradient id="i" x1="-910.76" y1="-1911.43" x2="-994.42" y2="-1911.43" xlink:href="#a"/><linearGradient id="j" x1="-909.76" y1="-1911.43" x2="-993.42" y2="-1911.43" xlink:href="#a"/><linearGradient id="k" x1="-908.76" y1="-1911.43" x2="-992.42" y2="-1911.43" xlink:href="#a"/></defs><title>_</title><g fill="none" stroke-miterlimit="10" stroke-width="3.6"><path d="M11.93 180.33L12.45 56c0-5.37 5.15-9.72 11.47-9.72H76c8.84 0 16 6.18 16 13.81V98c-1 16.57-25.5 23.59-38.66 11.34l-40.94-39" stroke="url(#a)"/><path d="M10.93 180.33L11.45 56c0-5.37 5.15-9.72 11.47-9.72H75c8.84 0 16 6.18 16 13.81V98c-1 16.57-25.5 23.59-38.66 11.34l-40.94-39" stroke="url(#b)"/><path d="M9.93 180.33L10.45 56c0-5.37 5.15-9.72 11.47-9.72H74c8.84 0 16 6.18 16 13.81V98c-1 16.57-25.5 23.59-38.66 11.34l-40.94-39" stroke="url(#c)"/><path d="M8.93 180.33L9.45 56c0-5.37 5.15-9.72 11.47-9.72H73c8.84 0 16 6.18 16 13.81V98c-1 16.57-25.5 23.59-38.66 11.34L9.36 70.4" stroke="url(#d)"/><path d="M7.93 180.33L8.45 56c0-5.37 5.15-9.72 11.47-9.72H72c8.84 0 16 6.18 16 13.81V98c-1 16.57-25.5 23.59-38.66 11.34L8.36 70.4" stroke="url(#e)"/><path d="M6.93 180.33L7.45 56c0-5.37 5.15-9.72 11.47-9.72H71c8.84 0 16 6.18 16 13.81V98c-1 16.57-25.5 23.59-38.66 11.34L7.36 70.4" stroke="url(#f)"/><path d="M5.93 180.33L6.45 56c0-5.37 5.15-9.72 11.47-9.72H70c8.84 0 16 6.18 16 13.81V98c-1 16.57-25.5 23.59-38.66 11.34L6.36 70.4" stroke="url(#g)"/><path d="M4.93 180.33L5.45 56c0-5.37 5.15-9.72 11.47-9.72H69c8.84 0 16 6.18 16 13.81V98c-1 16.57-25.5 23.59-38.66 11.34L5.36 70.4" stroke="url(#h)"/><path d="M3.93 180.33L4.45 56c0-5.37 5.15-9.72 11.47-9.72H68c8.84 0 16 6.18 16 13.81V98c-1 16.57-25.5 23.59-38.66 11.34L4.36 70.4" stroke="url(#i)"/><path d="M2.93 180.33L3.45 56c0-5.37 5.15-9.72 11.47-9.72H67c8.84 0 16 6.18 16 13.81V98c-1 16.57-25.5 23.59-38.66 11.34L3.36 70.4" stroke="url(#j)"/><path d="M1.93 180.33L2.45 56c0-5.37 5.15-9.72 11.47-9.72H66c8.84 0 16 6.18 16 13.81V98c-1 16.57-25.5 23.59-38.66 11.34L2.36 70.4" stroke="url(#k)"/></g></svg>