<svg data-name="Layer 2" xmlns="http://www.w3.org/2000/svg" xmlns:xlink="http://www.w3.org/1999/xlink" width="94.5" height="200" viewBox="0 0 94.5 200"><defs><linearGradient id="a" data-name="Red, Purple, Blue" x1="10.67" y1="112.45" x2="93.9" y2="112.45" gradientUnits="userSpaceOnUse"><stop offset="0" stop-color="#b7151b"/><stop offset=".02" stop-color="#c52229"/><stop offset=".06" stop-color="#d7333c"/><stop offset=".11" stop-color="#e23d47"/><stop offset=".15" stop-color="#e6404b"/><stop offset=".3" stop-color="#e98a7b"/><stop offset=".47" stop-color="#7c78b8"/><stop offset=".64" stop-color="#00b0b0"/><stop offset=".79" stop-color="#7b76b6"/><stop offset="1" stop-color="#e7322f"/></linearGradient><linearGradient id="b" x1="9.67" y1="112.45" x2="92.9" y2="112.45" xlink:href="#a"/><linearGradient id="c" x1="8.67" y1="112.45" x2="91.9" y2="112.45" xlink:href="#a"/><linearGradient id="d" x1="7.67" y1="112.45" x2="90.9" y2="112.45" xlink:href="#a"/><linearGradient id="e" x1="6.67" y1="112.45" x2="89.9" y2="112.45" xlink:href="#a"/><linearGradient id="f" x1="5.67" y1="112.45" x2="88.9" y2="112.45" xlink:href="#a"/><linearGradient id="g" x1="4.67" y1="112.45" x2="87.9" y2="112.45" xlink:href="#a"/><linearGradient id="h" x1="3.67" y1="112.45" x2="86.9" y2="112.45" xlink:href="#a"/><linearGradient id="i" x1="2.67" y1="112.45" x2="85.9" y2="112.45" xlink:href="#a"/><linearGradient id="j" x1="1.67" y1="112.45" x2="84.9" y2="112.45" xlink:href="#a"/><linearGradient id="k" x1=".67" y1="112.45" x2="83.9" y2="112.45" xlink:href="#a"/><linearGradient id="l" data-name="Orange, Yellow" x1="20.68" y1="158.39" x2="99.09" y2="158.39" gradientUnits="userSpaceOnUse"><stop offset="0" stop-color="#fff33b"/><stop offset=".04" stop-color="#fee72e"/><stop offset=".12" stop-color="#fed51b"/><stop offset=".2" stop-color="#fdca10"/><stop offset=".28" stop-color="#fdc70c"/><stop offset=".67" stop-color="#f3903f"/><stop offset=".89" stop-color="#ed683c"/><stop offset="1" stop-color="#e93e3a"/></linearGradient></defs><title>_</title><g fill="none" stroke-miterlimit="10" stroke-width="3.6"><ellipse cx="52.28" cy="112.45" rx="39.81" ry="66.57" stroke="url(#a)"/><ellipse cx="51.28" cy="112.45" rx="39.81" ry="66.57" stroke="url(#b)"/><ellipse cx="50.28" cy="112.45" rx="39.81" ry="66.57" stroke="url(#c)"/><ellipse cx="49.28" cy="112.45" rx="39.81" ry="66.57" stroke="url(#d)"/><ellipse cx="48.28" cy="112.45" rx="39.81" ry="66.57" stroke="url(#e)"/><ellipse cx="47.28" cy="112.45" rx="39.81" ry="66.57" stroke="url(#f)"/><ellipse cx="46.28" cy="112.45" rx="39.81" ry="66.57" stroke="url(#g)"/><ellipse cx="45.28" cy="112.45" rx="39.81" ry="66.57" stroke="url(#h)"/><ellipse cx="44.28" cy="112.45" rx="39.81" ry="66.57" stroke="url(#i)"/><ellipse cx="43.28" cy="112.45" rx="39.81" ry="66.57" stroke="url(#j)"/><ellipse cx="42.28" cy="112.45" rx="39.81" ry="66.57" stroke="url(#k)"/></g><path d="M22.35 152.19l22.92-7.44c30.23-9.63 41 7.78 47 26.06a30.36 30.36 0 0 1 1.47 9.35" fill="none" stroke-miterlimit="10" stroke-width="10.8" stroke="url(#l)"/></svg>