<svg data-name="Layer 2" xmlns="http://www.w3.org/2000/svg" xmlns:xlink="http://www.w3.org/1999/xlink" width="93.5" height="200" viewBox="0 0 93.5 200"><defs><linearGradient id="b" data-name="Orange, Yellow" x1="-2043.74" y1="-1938.63" x2="-1987.3" y2="-1938.63" gradientTransform="rotate(180 -975.315 -899.5)" gradientUnits="userSpaceOnUse"><stop offset="0" stop-color="#fff33b"/><stop offset=".04" stop-color="#fee72e"/><stop offset=".12" stop-color="#fed51b"/><stop offset=".2" stop-color="#fdca10"/><stop offset=".28" stop-color="#fdc70c"/><stop offset=".67" stop-color="#f3903f"/><stop offset=".89" stop-color="#ed683c"/><stop offset="1" stop-color="#e93e3a"/></linearGradient><linearGradient id="a" data-name="Red, Purple, Blue" x1="-1960.17" y1="-1911.43" x2="-2043.83" y2="-1911.43" gradientTransform="rotate(180 -975.315 -899.5)" gradientUnits="userSpaceOnUse"><stop offset="0" stop-color="#b7151b"/><stop offset=".02" stop-color="#c52229"/><stop offset=".06" stop-color="#d7333c"/><stop offset=".11" stop-color="#e23d47"/><stop offset=".15" stop-color="#e6404b"/><stop offset=".3" stop-color="#e98a7b"/><stop offset=".47" stop-color="#7c78b8"/><stop offset=".64" stop-color="#00b0b0"/><stop offset=".79" stop-color="#7b76b6"/><stop offset="1" stop-color="#e7322f"/></linearGradient><linearGradient id="c" x1="-1959.17" y1="-1911.43" x2="-2042.83" y2="-1911.43" xlink:href="#a"/><linearGradient id="d" x1="-1958.17" y1="-1911.43" x2="-2041.83" y2="-1911.43" xlink:href="#a"/><linearGradient id="e" x1="-1957.17" y1="-1911.43" x2="-2040.83" y2="-1911.43" xlink:href="#a"/><linearGradient id="f" x1="-1956.17" y1="-1911.43" x2="-2039.83" y2="-1911.43" xlink:href="#a"/><linearGradient id="g" x1="-1955.17" y1="-1911.43" x2="-2038.83" y2="-1911.43" xlink:href="#a"/><linearGradient id="h" x1="-1954.17" y1="-1911.43" x2="-2037.83" y2="-1911.43" xlink:href="#a"/><linearGradient id="i" x1="-1953.17" y1="-1911.43" x2="-2036.83" y2="-1911.43" xlink:href="#a"/><linearGradient id="j" x1="-1952.17" y1="-1911.43" x2="-2035.83" y2="-1911.43" xlink:href="#a"/><linearGradient id="k" x1="-1951.17" y1="-1911.43" x2="-2034.83" y2="-1911.43" xlink:href="#a"/><linearGradient id="l" x1="-1950.17" y1="-1911.43" x2="-2033.83" y2="-1911.43" xlink:href="#a"/></defs><title>_</title><path d="M40.17 102.38C62.76 121.61 87.7 148.7 87.7 172.1v8.9" fill="none" stroke-miterlimit="10" stroke-width="10.8" stroke="url(#b)"/><g fill="none" stroke-miterlimit="10" stroke-width="3.6"><path d="M11.33 180.33L11.85 56c0-5.37 5.15-9.72 11.47-9.72h52.07c8.84 0 16 6.18 16 13.81V98c-1 16.57-25.5 23.59-38.66 11.34l-40.94-39" stroke="url(#a)"/><path d="M10.33 180.33L10.85 56c0-5.37 5.15-9.72 11.47-9.72h52.07c8.84 0 16 6.18 16 13.81V98c-1 16.57-25.5 23.59-38.66 11.34l-40.94-39" stroke="url(#c)"/><path d="M9.33 180.33L9.85 56c0-5.37 5.15-9.72 11.47-9.72h52.07c8.84 0 16 6.18 16 13.81V98c-1 16.57-25.5 23.59-38.66 11.34L9.76 70.4" stroke="url(#d)"/><path d="M8.33 180.33L8.85 56c0-5.37 5.15-9.72 11.47-9.72h52.07c8.84 0 16 6.18 16 13.81V98c-1 16.57-25.5 23.59-38.66 11.34L8.76 70.4" stroke="url(#e)"/><path d="M7.33 180.33L7.85 56c0-5.37 5.15-9.72 11.47-9.72h52.07c8.84 0 16 6.18 16 13.81V98c-1 16.57-25.5 23.59-38.66 11.34L7.76 70.4" stroke="url(#f)"/><path d="M6.33 180.33L6.85 56c0-5.37 5.15-9.72 11.47-9.72h52.07c8.84 0 16 6.18 16 13.81V98c-1 16.57-25.5 23.59-38.66 11.34L6.76 70.4" stroke="url(#g)"/><path d="M5.33 180.33L5.85 56c0-5.37 5.15-9.72 11.47-9.72h52.07c8.84 0 16 6.18 16 13.81V98c-1 16.57-25.5 23.59-38.66 11.34L5.76 70.4" stroke="url(#h)"/><path d="M4.33 180.33L4.85 56c0-5.37 5.15-9.72 11.47-9.72h52.07c8.84 0 16 6.18 16 13.81V98c-1 16.57-25.5 23.59-38.66 11.34L4.76 70.4" stroke="url(#i)"/><path d="M3.33 180.33L3.85 56c0-5.37 5.15-9.72 11.47-9.72h52.07c8.84 0 16 6.18 16 13.81V98c-1 16.57-25.5 23.59-38.66 11.34L3.76 70.4" stroke="url(#j)"/><path d="M2.33 180.33L2.85 56c0-5.37 5.15-9.72 11.47-9.72h52.07c8.84 0 16 6.18 16 13.81V98c-1 16.57-25.5 23.59-38.66 11.34L2.76 70.4" stroke="url(#k)"/><path d="M1.33 180.33L1.85 56c0-5.37 5.15-9.72 11.47-9.72h52.07c8.84 0 16 6.18 16 13.81V98c-1 16.57-25.5 23.59-38.66 11.34L1.76 70.4" stroke="url(#l)"/></g></svg>