<svg data-name="Layer 2" xmlns="http://www.w3.org/2000/svg" xmlns:xlink="http://www.w3.org/1999/xlink" width="93.5" height="200" viewBox="0 0 93.5 200"><defs><linearGradient id="a" data-name="Red, Purple, Blue" x1="-2000.21" y1="-547.15" x2="-1916.64" y2="-547.15" gradientTransform="translate(2010.4 659.95)" gradientUnits="userSpaceOnUse"><stop offset="0" stop-color="#b7151b"/><stop offset=".02" stop-color="#c52229"/><stop offset=".06" stop-color="#d7333c"/><stop offset=".11" stop-color="#e23d47"/><stop offset=".15" stop-color="#e6404b"/><stop offset=".3" stop-color="#e98a7b"/><stop offset=".47" stop-color="#7c78b8"/><stop offset=".64" stop-color="#00b0b0"/><stop offset=".79" stop-color="#7b76b6"/><stop offset="1" stop-color="#e7322f"/></linearGradient><linearGradient id="b" x1="-2001.21" y1="-547.15" x2="-1917.64" y2="-547.15" xlink:href="#a"/><linearGradient id="c" x1="-2002.21" y1="-547.15" x2="-1918.64" y2="-547.15" xlink:href="#a"/><linearGradient id="d" x1="-2003.21" y1="-547.15" x2="-1919.64" y2="-547.15" xlink:href="#a"/><linearGradient id="e" x1="-2004.21" y1="-547.15" x2="-1920.64" y2="-547.15" xlink:href="#a"/><linearGradient id="f" x1="-2005.21" y1="-547.15" x2="-1921.64" y2="-547.15" xlink:href="#a"/><linearGradient id="g" x1="-2006.21" y1="-547.15" x2="-1922.64" y2="-547.15" xlink:href="#a"/><linearGradient id="h" x1="-2007.21" y1="-547.15" x2="-1923.64" y2="-547.15" xlink:href="#a"/><linearGradient id="i" x1="-2008.21" y1="-547.15" x2="-1924.64" y2="-547.15" xlink:href="#a"/><linearGradient id="j" x1="-2009.21" y1="-547.15" x2="-1925.64" y2="-547.15" xlink:href="#a"/><linearGradient id="k" x1="-2010.21" y1="-547.15" x2="-1926.64" y2="-547.15" xlink:href="#a"/></defs><title>_</title><g fill="none" stroke-miterlimit="10" stroke-width="3.6"><path d="M92 97.08V60.19c0-7.62-7.17-13.81-16-13.81H24c-6.32 0-11.46 4.34-11.49 9.72a37.08 37.08 0 0 0 10.34 25.6l58.25 62.2a37.08 37.08 0 0 1 10.43 25.6c0 5.38-5.17 9.72-11.49 9.72H28c-8.84 0-16-6.18-16-13.81v-36.88" stroke="url(#a)"/><path d="M91 97.08V60.19c0-7.62-7.17-13.81-16-13.81H23c-6.32 0-11.46 4.34-11.49 9.72a37.08 37.08 0 0 0 10.34 25.6l58.25 62.2a37.08 37.08 0 0 1 10.43 25.6c0 5.38-5.17 9.72-11.49 9.72H27c-8.84 0-16-6.18-16-13.81v-36.88" stroke="url(#b)"/><path d="M90 97.08V60.19c0-7.62-7.17-13.81-16-13.81H22c-6.32 0-11.46 4.34-11.49 9.72a37.08 37.08 0 0 0 10.34 25.6l58.25 62.2a37.08 37.08 0 0 1 10.43 25.6c0 5.38-5.17 9.72-11.49 9.72H26c-8.84 0-16-6.18-16-13.81v-36.88" stroke="url(#c)"/><path d="M89 97.08V60.19c0-7.62-7.17-13.81-16-13.81H21c-6.32 0-11.46 4.34-11.49 9.72a37.08 37.08 0 0 0 10.34 25.6l58.25 62.2a37.08 37.08 0 0 1 10.43 25.6c0 5.38-5.17 9.72-11.49 9.72H25c-8.84 0-16-6.18-16-13.81v-36.88" stroke="url(#d)"/><path d="M88 97.08V60.19c0-7.62-7.17-13.81-16-13.81H20c-6.32 0-11.46 4.34-11.49 9.72a37.08 37.08 0 0 0 10.34 25.6l58.25 62.2a37.08 37.08 0 0 1 10.43 25.6c0 5.38-5.17 9.72-11.49 9.72H24c-8.84 0-16-6.18-16-13.81v-36.88" stroke="url(#e)"/><path d="M87 97.08V60.19c0-7.62-7.17-13.81-16-13.81H19c-6.32 0-11.46 4.34-11.49 9.72a37.08 37.08 0 0 0 10.34 25.6l58.25 62.2a37.08 37.08 0 0 1 10.43 25.6c0 5.38-5.17 9.72-11.49 9.72H23c-8.84 0-16-6.18-16-13.81v-36.88" stroke="url(#f)"/><path d="M86 97.08V60.19c0-7.62-7.17-13.81-16-13.81H18c-6.32 0-11.46 4.34-11.49 9.72a37.08 37.08 0 0 0 10.34 25.6l58.25 62.2a37.08 37.08 0 0 1 10.43 25.6c0 5.38-5.17 9.72-11.49 9.72H22c-8.84 0-16-6.18-16-13.81v-36.88" stroke="url(#g)"/><path d="M85 97.08V60.19c0-7.62-7.17-13.81-16-13.81H17c-6.32 0-11.46 4.34-11.49 9.72a37.08 37.08 0 0 0 10.34 25.6l58.25 62.2a37.08 37.08 0 0 1 10.43 25.6c0 5.38-5.17 9.72-11.49 9.72H21c-8.84 0-16-6.18-16-13.81v-36.88" stroke="url(#h)"/><path d="M84 97.08V60.19c0-7.62-7.17-13.81-16-13.81H16c-6.32 0-11.46 4.34-11.49 9.72a37.08 37.08 0 0 0 10.34 25.6l58.25 62.2a37.08 37.08 0 0 1 10.43 25.6c0 5.38-5.17 9.72-11.49 9.72H20c-8.84 0-16-6.18-16-13.81v-36.88" stroke="url(#i)"/><path d="M83 97.08V60.19c0-7.62-7.17-13.81-16-13.81H15c-6.32 0-11.46 4.34-11.49 9.72a37.08 37.08 0 0 0 10.34 25.6l58.25 62.2a37.08 37.08 0 0 1 10.43 25.6c0 5.38-5.17 9.72-11.49 9.72H19c-8.84 0-16-6.18-16-13.81v-36.88" stroke="url(#j)"/><path d="M82 97.08V60.19c0-7.62-7.17-13.81-16-13.81H14c-6.32 0-11.46 4.34-11.49 9.72a37.08 37.08 0 0 0 10.34 25.6l58.25 62.2a37.08 37.08 0 0 1 10.43 25.6c0 5.38-5.17 9.72-11.49 9.72H18c-8.84 0-16-6.18-16-13.81v-36.88" stroke="url(#k)"/></g></svg>