<svg data-name="Layer 2" xmlns="http://www.w3.org/2000/svg" xmlns:xlink="http://www.w3.org/1999/xlink" width="94.9" height="200" viewBox="0 0 94.9 200"><defs><linearGradient id="a" data-name="Red, Purple, Blue" x1="3218.21" y1="892.41" x2="3353.57" y2="892.41" gradientTransform="rotate(90 2059.07 -1114.5)" gradientUnits="userSpaceOnUse"><stop offset="0" stop-color="#b7151b"/><stop offset=".02" stop-color="#c52229"/><stop offset=".06" stop-color="#d7333c"/><stop offset=".11" stop-color="#e23d47"/><stop offset=".15" stop-color="#e6404b"/><stop offset=".3" stop-color="#e98a7b"/><stop offset=".47" stop-color="#7c78b8"/><stop offset=".64" stop-color="#00b0b0"/><stop offset=".79" stop-color="#7b76b6"/><stop offset="1" stop-color="#e7322f"/></linearGradient><linearGradient id="b" x1="3218.21" y1="893.41" x2="3353.57" y2="893.41" xlink:href="#a"/><linearGradient id="c" x1="3218.21" y1="894.41" x2="3353.57" y2="894.41" xlink:href="#a"/><linearGradient id="d" x1="3218.21" y1="895.41" x2="3353.57" y2="895.41" xlink:href="#a"/><linearGradient id="e" x1="3218.21" y1="896.41" x2="3353.57" y2="896.41" xlink:href="#a"/><linearGradient id="f" x1="3218.21" y1="897.41" x2="3353.57" y2="897.41" xlink:href="#a"/><linearGradient id="g" x1="3218.21" y1="898.41" x2="3353.57" y2="898.41" xlink:href="#a"/><linearGradient id="h" x1="3218.21" y1="899.41" x2="3353.57" y2="899.41" xlink:href="#a"/><linearGradient id="i" x1="3218.21" y1="900.41" x2="3353.57" y2="900.41" xlink:href="#a"/><linearGradient id="j" x1="3218.21" y1="901.41" x2="3353.57" y2="901.41" xlink:href="#a"/><linearGradient id="k" x1="3218.21" y1="902.41" x2="3353.57" y2="902.41" xlink:href="#a"/><linearGradient id="l" data-name="Orange, Yellow" x1=".07" y1="70.83" x2="94.24" y2="70.83" gradientUnits="userSpaceOnUse"><stop offset="0" stop-color="#fff33b"/><stop offset=".04" stop-color="#fee72e"/><stop offset=".12" stop-color="#fed51b"/><stop offset=".2" stop-color="#fdca10"/><stop offset=".28" stop-color="#fdc70c"/><stop offset=".67" stop-color="#f3903f"/><stop offset=".89" stop-color="#ed683c"/><stop offset="1" stop-color="#e93e3a"/></linearGradient></defs><title>_</title><g fill="none" stroke-miterlimit="10" stroke-width="3.6"><path stroke="url(#a)" d="M52.16 44.64V180"/><path stroke="url(#b)" d="M51.16 44.64V180"/><path stroke="url(#c)" d="M50.16 44.64V180"/><path stroke="url(#d)" d="M49.16 44.64V180"/><path stroke="url(#e)" d="M48.16 44.64V180"/><path stroke="url(#f)" d="M47.16 44.64V180"/><path stroke="url(#g)" d="M46.16 44.64V180"/><path stroke="url(#h)" d="M45.16 44.64V180"/><path stroke="url(#i)" d="M44.16 44.64V180"/><path stroke="url(#j)" d="M43.16 44.64V180"/><path stroke="url(#k)" d="M42.16 44.64V180"/></g><path fill="none" stroke-miterlimit="10" stroke-width="10.8" stroke="url(#l)" d="M.07 70.83h94.17"/></svg>