<svg data-name="Layer 2" xmlns="http://www.w3.org/2000/svg" xmlns:xlink="http://www.w3.org/1999/xlink" width="94" height="200" viewBox="0 0 94 200"><defs><linearGradient id="a" data-name="Red, Purple, Blue" x1="3023.01" y1="671.33" x2="3023.01" y2="587.44" gradientTransform="rotate(90 1795.67 -1114.5)" gradientUnits="userSpaceOnUse"><stop offset="0" stop-color="#b7151b"/><stop offset=".02" stop-color="#c52229"/><stop offset=".06" stop-color="#d7333c"/><stop offset=".11" stop-color="#e23d47"/><stop offset=".15" stop-color="#e6404b"/><stop offset=".3" stop-color="#e98a7b"/><stop offset=".47" stop-color="#7c78b8"/><stop offset=".64" stop-color="#00b0b0"/><stop offset=".79" stop-color="#7b76b6"/><stop offset="1" stop-color="#e7322f"/></linearGradient><linearGradient id="b" x1="3023.01" y1="672.33" x2="3023.01" y2="588.44" xlink:href="#a"/><linearGradient id="c" x1="3023.01" y1="673.33" x2="3023.01" y2="589.44" xlink:href="#a"/><linearGradient id="d" x1="3023.01" y1="674.33" x2="3023.01" y2="590.44" xlink:href="#a"/><linearGradient id="e" x1="3023.01" y1="675.33" x2="3023.01" y2="591.44" xlink:href="#a"/><linearGradient id="f" x1="3023.01" y1="676.33" x2="3023.01" y2="592.44" xlink:href="#a"/><linearGradient id="g" x1="3023.01" y1="677.33" x2="3023.01" y2="593.44" xlink:href="#a"/><linearGradient id="h" x1="3023.01" y1="678.33" x2="3023.01" y2="594.44" xlink:href="#a"/><linearGradient id="i" x1="3023.01" y1="679.33" x2="3023.01" y2="595.44" xlink:href="#a"/><linearGradient id="j" x1="3023.01" y1="680.33" x2="3023.01" y2="596.44" xlink:href="#a"/><linearGradient id="k" x1="3023.01" y1="681.33" x2="3023.01" y2="597.44" xlink:href="#a"/></defs><title>_</title><g fill="none" stroke-miterlimit="10" stroke-width="3.6"><path d="M91.92 44.76v120.38c0 7.8-7.44 14.13-16.62 14.13h-47c-9.18 0-16.62-6.33-16.62-14.13V44.61" stroke="url(#a)"/><path d="M90.92 44.76v120.38c0 7.8-7.44 14.13-16.62 14.13h-47c-9.18 0-16.62-6.33-16.62-14.13V44.61" stroke="url(#b)"/><path d="M89.92 44.76v120.38c0 7.8-7.44 14.13-16.62 14.13h-47c-9.18 0-16.62-6.33-16.62-14.13V44.61" stroke="url(#c)"/><path d="M88.92 44.76v120.38c0 7.8-7.44 14.13-16.62 14.13h-47c-9.18 0-16.62-6.33-16.62-14.13V44.61" stroke="url(#d)"/><path d="M87.92 44.76v120.38c0 7.8-7.44 14.13-16.62 14.13h-47c-9.18 0-16.62-6.33-16.62-14.13V44.61" stroke="url(#e)"/><path d="M86.92 44.76v120.38c0 7.8-7.44 14.13-16.62 14.13h-47c-9.18 0-16.62-6.33-16.62-14.13V44.61" stroke="url(#f)"/><path d="M85.92 44.76v120.38c0 7.8-7.44 14.13-16.62 14.13h-47c-9.18 0-16.62-6.33-16.62-14.13V44.61" stroke="url(#g)"/><path d="M84.92 44.76v120.38c0 7.8-7.44 14.13-16.62 14.13h-47c-9.18 0-16.62-6.33-16.62-14.13V44.61" stroke="url(#h)"/><path d="M83.92 44.76v120.38c0 7.8-7.44 14.13-16.62 14.13h-47c-9.18 0-16.62-6.33-16.62-14.13V44.61" stroke="url(#i)"/><path d="M82.92 44.76v120.38c0 7.8-7.44 14.13-16.62 14.13h-47c-9.18 0-16.62-6.33-16.62-14.13V44.61" stroke="url(#j)"/><path d="M81.92 44.76v120.38c0 7.8-7.44 14.13-16.62 14.13h-47c-9.18 0-16.62-6.33-16.62-14.13V44.61" stroke="url(#k)"/></g></svg>