<svg data-name="Layer 2" xmlns="http://www.w3.org/2000/svg" xmlns:xlink="http://www.w3.org/1999/xlink" width="110" height="200" viewBox="0 0 110 200"><defs><linearGradient id="a" data-name="Red, Purple, Blue" x1="2536.96" y1="185.16" x2="2536.96" y2="85.42" gradientTransform="rotate(90 1310.17 -1114.5)" gradientUnits="userSpaceOnUse"><stop offset="0" stop-color="#b7151b"/><stop offset=".02" stop-color="#c52229"/><stop offset=".06" stop-color="#d7333c"/><stop offset=".11" stop-color="#e23d47"/><stop offset=".15" stop-color="#e6404b"/><stop offset=".3" stop-color="#e98a7b"/><stop offset=".47" stop-color="#7c78b8"/><stop offset=".64" stop-color="#00b0b0"/><stop offset=".79" stop-color="#7b76b6"/><stop offset="1" stop-color="#e7322f"/></linearGradient><linearGradient id="b" x1="2536.96" y1="186.16" x2="2536.96" y2="86.42" xlink:href="#a"/><linearGradient id="c" x1="2536.96" y1="187.16" x2="2536.96" y2="87.42" xlink:href="#a"/><linearGradient id="d" x1="2536.96" y1="188.16" x2="2536.96" y2="88.42" xlink:href="#a"/><linearGradient id="e" x1="2536.96" y1="189.16" x2="2536.96" y2="89.42" xlink:href="#a"/><linearGradient id="f" x1="2536.96" y1="190.16" x2="2536.96" y2="90.42" xlink:href="#a"/><linearGradient id="g" x1="2536.96" y1="191.16" x2="2536.96" y2="91.42" xlink:href="#a"/><linearGradient id="h" x1="2536.96" y1="192.16" x2="2536.96" y2="92.42" xlink:href="#a"/><linearGradient id="i" x1="2536.96" y1="193.16" x2="2536.96" y2="93.42" xlink:href="#a"/><linearGradient id="j" x1="2536.96" y1="194.16" x2="2536.96" y2="94.42" xlink:href="#a"/><linearGradient id="k" x1="2536.96" y1="195.16" x2="2536.96" y2="95.42" xlink:href="#a"/></defs><title>_</title><g fill="none" stroke-miterlimit="10" stroke-width="3.6"><path d="M12.3 44.47v123.91c.55 10.12 12.48 13.62 17.7 5.27l39.74-66.08c5.14-8.21.44-19.84-8.51-20.47h-1.54c-9 .54-13.79 12.23-8.63 20.48l39.74 66.07c5.2 8.31 17.13 4.85 17.65-5.28V44.62" stroke="url(#a)"/><path d="M11.3 44.47v123.91c.55 10.12 12.48 13.62 17.7 5.27l39.74-66.08c5.14-8.21.44-19.84-8.51-20.47h-1.54c-9 .54-13.79 12.23-8.63 20.48l39.74 66.07c5.2 8.31 17.13 4.85 17.65-5.28V44.62" stroke="url(#b)"/><path d="M10.3 44.47v123.91c.55 10.12 12.48 13.62 17.7 5.27l39.74-66.08c5.14-8.21.44-19.84-8.51-20.47h-1.54c-9 .54-13.79 12.23-8.63 20.48l39.74 66.07c5.2 8.31 17.13 4.85 17.65-5.28V44.62" stroke="url(#c)"/><path d="M9.3 44.47v123.91C9.85 178.5 21.78 182 27 173.65l39.74-66.08c5.14-8.21.44-19.84-8.51-20.47h-1.54c-9 .54-13.79 12.23-8.63 20.48l39.74 66.07c5.2 8.31 17.13 4.85 17.65-5.28V44.62" stroke="url(#d)"/><path d="M8.3 44.47v123.91C8.85 178.5 20.78 182 26 173.65l39.74-66.08c5.14-8.21.44-19.84-8.51-20.47h-1.54c-9 .54-13.79 12.23-8.63 20.48l39.74 66.07c5.2 8.31 17.13 4.85 17.65-5.28V44.62" stroke="url(#e)"/><path d="M7.3 44.47v123.91C7.85 178.5 19.78 182 25 173.65l39.74-66.08c5.14-8.21.44-19.84-8.51-20.47h-1.54c-9 .54-13.79 12.23-8.63 20.48l39.74 66.07c5.2 8.31 17.13 4.85 17.65-5.28V44.62" stroke="url(#f)"/><path d="M6.3 44.47v123.91C6.85 178.5 18.78 182 24 173.65l39.74-66.08c5.14-8.21.44-19.84-8.51-20.47h-1.54c-9 .54-13.79 12.23-8.63 20.48l39.74 66.07c5.2 8.31 17.13 4.85 17.65-5.28V44.62" stroke="url(#g)"/><path d="M5.3 44.47v123.91C5.85 178.5 17.78 182 23 173.65l39.74-66.08c5.14-8.21.44-19.84-8.51-20.47h-1.54c-9 .54-13.79 12.23-8.63 20.48l39.74 66.07c5.2 8.31 17.13 4.85 17.65-5.28V44.62" stroke="url(#h)"/><path d="M4.3 44.47v123.91C4.85 178.5 16.78 182 22 173.65l39.74-66.08c5.14-8.21.44-19.84-8.51-20.47h-1.54c-9 .54-13.79 12.23-8.63 20.48l39.74 66.07c5.2 8.31 17.13 4.85 17.65-5.28V44.62" stroke="url(#i)"/><path d="M3.3 44.47v123.91C3.85 178.5 15.78 182 21 173.65l39.74-66.08c5.14-8.21.44-19.84-8.51-20.47h-1.54c-9 .54-13.79 12.23-8.63 20.48l39.74 66.07c5.2 8.35 17.1 4.85 17.63-5.27V44.62" stroke="url(#j)"/><path d="M2.3 44.47v123.91C2.85 178.5 14.78 182 20 173.65l39.74-66.08c5.14-8.21.44-19.84-8.51-20.47h-1.54c-9 .54-13.79 12.23-8.63 20.48l39.74 66.07c5.2 8.35 17.1 4.85 17.63-5.27V44.62" stroke="url(#k)"/></g></svg>