<svg data-name="Layer 2" xmlns="http://www.w3.org/2000/svg" xmlns:xlink="http://www.w3.org/1999/xlink" width="106" height="200" viewBox="0 0 106 200"><defs><linearGradient id="a" data-name="Red, Purple, Blue" x1="58.33" y1="180.33" x2="58.33" y2="44.33" gradientUnits="userSpaceOnUse"><stop offset="0" stop-color="#b7151b"/><stop offset=".02" stop-color="#c52229"/><stop offset=".06" stop-color="#d7333c"/><stop offset=".11" stop-color="#e23d47"/><stop offset=".15" stop-color="#e6404b"/><stop offset=".3" stop-color="#e98a7b"/><stop offset=".47" stop-color="#7c78b8"/><stop offset=".64" stop-color="#00b0b0"/><stop offset=".79" stop-color="#7b76b6"/><stop offset="1" stop-color="#e7322f"/></linearGradient><linearGradient id="b" x1="57.33" y1="180.33" x2="57.33" y2="44.33" xlink:href="#a"/><linearGradient id="c" x1="56.33" y1="180.33" x2="56.33" y2="44.33" xlink:href="#a"/><linearGradient id="d" x1="55.33" y1="180.33" x2="55.33" y2="44.33" xlink:href="#a"/><linearGradient id="e" x1="54.33" y1="180.33" x2="54.33" y2="44.33" xlink:href="#a"/><linearGradient id="f" x1="53.33" y1="180.33" x2="53.33" y2="44.33" xlink:href="#a"/><linearGradient id="g" x1="52.33" y1="180.33" x2="52.33" y2="44.33" xlink:href="#a"/><linearGradient id="h" x1="51.33" y1="180.33" x2="51.33" y2="44.33" xlink:href="#a"/><linearGradient id="i" x1="50.33" y1="180.33" x2="50.33" y2="44.33" xlink:href="#a"/><linearGradient id="j" x1="49.33" y1="180.33" x2="49.33" y2="44.33" xlink:href="#a"/><linearGradient id="k" x1="48.33" y1="180.33" x2="48.33" y2="44.33" xlink:href="#a"/><linearGradient id="l" x1="-465.53" y1="112.33" x2="-561.8" y2="112.33" gradientTransform="matrix(-1 0 0 1 -455.33 0)" xlink:href="#a"/><linearGradient id="m" x1="-464.53" y1="112.33" x2="-560.8" y2="112.33" gradientTransform="matrix(-1 0 0 1 -455.33 0)" xlink:href="#a"/><linearGradient id="n" x1="-463.53" y1="112.33" x2="-559.8" y2="112.33" gradientTransform="matrix(-1 0 0 1 -455.33 0)" xlink:href="#a"/><linearGradient id="o" x1="-462.53" y1="112.33" x2="-558.8" y2="112.33" gradientTransform="matrix(-1 0 0 1 -455.33 0)" xlink:href="#a"/><linearGradient id="p" x1="-461.53" y1="112.33" x2="-557.8" y2="112.33" gradientTransform="matrix(-1 0 0 1 -455.33 0)" xlink:href="#a"/><linearGradient id="q" x1="-460.53" y1="112.33" x2="-556.8" y2="112.33" gradientTransform="matrix(-1 0 0 1 -455.33 0)" xlink:href="#a"/><linearGradient id="r" x1="-459.53" y1="112.33" x2="-555.8" y2="112.33" gradientTransform="matrix(-1 0 0 1 -455.33 0)" xlink:href="#a"/><linearGradient id="s" x1="-458.53" y1="112.33" x2="-554.8" y2="112.33" gradientTransform="matrix(-1 0 0 1 -455.33 0)" xlink:href="#a"/><linearGradient id="t" x1="-457.53" y1="112.33" x2="-553.8" y2="112.33" gradientTransform="matrix(-1 0 0 1 -455.33 0)" xlink:href="#a"/><linearGradient id="u" x1="-456.53" y1="112.33" x2="-552.8" y2="112.33" gradientTransform="matrix(-1 0 0 1 -455.33 0)" xlink:href="#a"/><linearGradient id="v" x1="-455.53" y1="112.33" x2="-551.8" y2="112.33" gradientTransform="matrix(-1 0 0 1 -455.33 0)" xlink:href="#a"/></defs><title>_</title><g fill="none" stroke-miterlimit="10" stroke-width="3.6"><path d="M12 44.33c0 15.19 7.39 30.55 20.41 40.94l51.84 41.37c13 10.39 20.41 24.9 20.41 40.09v13.6" stroke="url(#a)"/><path d="M11 44.33c0 15.19 7.39 30.55 20.41 40.94l51.84 41.37c13 10.39 20.41 24.9 20.41 40.09v13.6" stroke="url(#b)"/><path d="M10 44.33c0 15.19 7.39 30.55 20.41 40.94l51.84 41.37c13 10.39 20.41 24.9 20.41 40.09v13.6" stroke="url(#c)"/><path d="M9 44.33c0 15.19 7.39 30.55 20.41 40.94l51.84 41.37c13 10.39 20.41 24.9 20.41 40.09v13.6" stroke="url(#d)"/><path d="M8 44.33c0 15.19 7.39 30.55 20.41 40.94l51.84 41.37c13 10.39 20.41 24.9 20.41 40.09v13.6" stroke="url(#e)"/><path d="M7 44.33c0 15.19 7.39 30.55 20.41 40.94l51.84 41.37c13 10.39 20.41 24.9 20.41 40.09v13.6" stroke="url(#f)"/><path d="M6 44.33c0 15.19 7.39 30.55 20.41 40.94l51.84 41.37c13 10.39 20.41 24.9 20.41 40.09v13.6" stroke="url(#g)"/><path d="M5 44.33c0 15.19 7.39 30.55 20.41 40.94l51.84 41.37c13 10.39 20.41 24.9 20.41 40.09v13.6" stroke="url(#h)"/><path d="M4 44.33c0 15.19 7.39 30.55 20.41 40.94l51.84 41.37c13 10.39 20.41 24.9 20.41 40.09v13.6" stroke="url(#i)"/><path d="M3 44.33c0 15.19 7.39 30.55 20.41 40.94l51.84 41.37c13 10.39 20.41 24.9 20.41 40.09v13.6" stroke="url(#j)"/><path d="M2 44.33c0 15.19 7.39 30.55 20.41 40.94l51.84 41.37c13 10.39 20.41 24.9 20.41 40.09v13.6" stroke="url(#k)"/></g><g fill="none" stroke-miterlimit="10" stroke-width="3.6"><path d="M104.67 44.33c0 15.19-7.39 30.55-20.41 40.94l-51.85 41.37C19.39 137 12 151.55 12 166.73v13.6" stroke="url(#l)"/><path d="M103.67 44.33c0 15.19-7.39 30.55-20.41 40.94l-51.85 41.37C18.39 137 11 151.55 11 166.73v13.6" stroke="url(#m)"/><path d="M102.67 44.33c0 15.19-7.39 30.55-20.41 40.94l-51.85 41.37C17.39 137 10 151.55 10 166.73v13.6" stroke="url(#n)"/><path d="M101.67 44.33c0 15.19-7.39 30.55-20.41 40.94l-51.85 41.37C16.39 137 9 151.55 9 166.73v13.6" stroke="url(#o)"/><path d="M100.67 44.33c0 15.19-7.39 30.55-20.41 40.94l-51.85 41.37C15.39 137 8 151.55 8 166.73v13.6" stroke="url(#p)"/><path d="M99.67 44.33c0 15.19-7.39 30.55-20.41 40.94l-51.85 41.37C14.39 137 7 151.55 7 166.73v13.6" stroke="url(#q)"/><path d="M98.67 44.33c0 15.19-7.39 30.55-20.41 40.94l-51.85 41.37C13.39 137 6 151.55 6 166.73v13.6" stroke="url(#r)"/><path d="M97.67 44.33c0 15.19-7.39 30.55-20.41 40.94l-51.85 41.37C12.39 137 5 151.55 5 166.73v13.6" stroke="url(#s)"/><path d="M96.67 44.33c0 15.19-7.39 30.55-20.41 40.94l-51.85 41.37C11.39 137 4 151.55 4 166.73v13.6" stroke="url(#t)"/><path d="M95.67 44.33c0 15.19-7.39 30.55-20.41 40.94l-51.85 41.37C10.39 137 3 151.55 3 166.73v13.6" stroke="url(#u)"/><path d="M94.67 44.33c0 15.19-7.39 30.55-20.41 40.94l-51.85 41.37C9.39 137 2 151.55 2 166.73v13.6" stroke="url(#v)"/></g></svg>