<svg data-name="Layer 2" xmlns="http://www.w3.org/2000/svg" xmlns:xlink="http://www.w3.org/1999/xlink" width="93" height="200" viewBox="0 0 93 200"><defs><linearGradient id="b" data-name="Orange, Yellow" x1="2046.73" y1="-366.56" x2="2089.17" y2="-366.56" gradientTransform="rotate(90 794.67 -1114.5)" gradientUnits="userSpaceOnUse"><stop offset="0" stop-color="#fff33b"/><stop offset=".04" stop-color="#fee72e"/><stop offset=".12" stop-color="#fed51b"/><stop offset=".2" stop-color="#fdca10"/><stop offset=".28" stop-color="#fdc70c"/><stop offset=".67" stop-color="#f3903f"/><stop offset=".89" stop-color="#ed683c"/><stop offset="1" stop-color="#e93e3a"/></linearGradient><linearGradient id="a" data-name="Red, Purple, Blue" x1="10.15" y1="-1383.17" x2="93.82" y2="-1383.17" gradientTransform="matrix(1 0 0 -1 0 -1296.43)" gradientUnits="userSpaceOnUse"><stop offset="0" stop-color="#b7151b"/><stop offset=".02" stop-color="#c52229"/><stop offset=".06" stop-color="#d7333c"/><stop offset=".11" stop-color="#e23d47"/><stop offset=".15" stop-color="#e6404b"/><stop offset=".3" stop-color="#e98a7b"/><stop offset=".47" stop-color="#7c78b8"/><stop offset=".64" stop-color="#00b0b0"/><stop offset=".79" stop-color="#7b76b6"/><stop offset="1" stop-color="#e7322f"/></linearGradient><linearGradient id="c" x1="9.15" y1="-1383.17" x2="92.82" y2="-1383.17" xlink:href="#a"/><linearGradient id="d" x1="8.15" y1="-1383.17" x2="91.82" y2="-1383.17" xlink:href="#a"/><linearGradient id="e" x1="7.15" y1="-1383.17" x2="90.82" y2="-1383.17" xlink:href="#a"/><linearGradient id="f" x1="6.15" y1="-1383.17" x2="89.82" y2="-1383.17" xlink:href="#a"/><linearGradient id="g" x1="5.15" y1="-1383.17" x2="88.82" y2="-1383.17" xlink:href="#a"/><linearGradient id="h" x1="4.15" y1="-1383.17" x2="87.82" y2="-1383.17" xlink:href="#a"/><linearGradient id="i" x1="3.15" y1="-1383.17" x2="86.82" y2="-1383.17" xlink:href="#a"/><linearGradient id="j" x1="2.15" y1="-1383.17" x2="85.82" y2="-1383.17" xlink:href="#a"/><linearGradient id="k" x1="1.15" y1="-1383.17" x2="84.82" y2="-1383.17" xlink:href="#a"/><linearGradient id="l" x1=".15" y1="-1383.17" x2="83.82" y2="-1383.17" xlink:href="#a"/></defs><title>_</title><path fill="none" stroke-miterlimit="10" stroke-width="10.8" stroke="url(#b)" d="M46.73 137.56V180"/><g fill="none" stroke-miterlimit="10" stroke-width="3.6"><path d="M12 38.17V39a98.35 98.35 0 0 0 12.34 47l21.78 45.89c1.8 3.45 9.93 3.45 11.72 0l22.25-47.53A98.23 98.23 0 0 0 92 38.17" stroke="url(#a)"/><path d="M11 38.17V39a98.35 98.35 0 0 0 12.34 47l21.78 45.89c1.8 3.45 9.93 3.45 11.72 0l22.25-47.53A98.23 98.23 0 0 0 91 38.17" stroke="url(#c)"/><path d="M10 38.17V39a98.35 98.35 0 0 0 12.34 47l21.78 45.89c1.8 3.45 9.93 3.45 11.72 0l22.25-47.53A98.23 98.23 0 0 0 90 38.17" stroke="url(#d)"/><path d="M9 38.17V39a98.35 98.35 0 0 0 12.34 47l21.78 45.89c1.8 3.45 9.93 3.45 11.72 0l22.25-47.53A98.23 98.23 0 0 0 89 38.17" stroke="url(#e)"/><path d="M8 38.17V39a98.35 98.35 0 0 0 12.34 47l21.78 45.89c1.8 3.45 9.93 3.45 11.72 0l22.25-47.53A98.23 98.23 0 0 0 88 38.17" stroke="url(#f)"/><path d="M7 38.17V39a98.35 98.35 0 0 0 12.34 47l21.78 45.89c1.8 3.45 9.93 3.45 11.72 0l22.25-47.53A98.23 98.23 0 0 0 87 38.17" stroke="url(#g)"/><path d="M6 38.17V39a98.35 98.35 0 0 0 12.34 47l21.78 45.89c1.8 3.45 9.93 3.45 11.72 0l22.25-47.53A98.23 98.23 0 0 0 86 38.17" stroke="url(#h)"/><path d="M5 38.17V39a98.35 98.35 0 0 0 12.34 47l21.78 45.89c1.8 3.45 9.93 3.45 11.72 0l22.25-47.53A98.23 98.23 0 0 0 85 38.17" stroke="url(#i)"/><path d="M4 38.17V39a98.35 98.35 0 0 0 12.34 47l21.78 45.89c1.8 3.45 9.93 3.45 11.72 0l22.25-47.53A98.23 98.23 0 0 0 84 38.17" stroke="url(#j)"/><path d="M3 38.17V39a98.35 98.35 0 0 0 12.34 47l21.78 45.89c1.8 3.45 9.93 3.45 11.72 0l22.25-47.53A98.23 98.23 0 0 0 83 38.17" stroke="url(#k)"/><path d="M2 38.17V39a98.35 98.35 0 0 0 12.34 47l21.78 45.89c1.8 3.45 9.93 3.45 11.72 0l22.25-47.53A98.23 98.23 0 0 0 82 38.17" stroke="url(#l)"/></g></svg>