<svg data-name="Layer 2" xmlns="http://www.w3.org/2000/svg" xmlns:xlink="http://www.w3.org/1999/xlink" width="93" height="200" viewBox="0 0 93 200"><defs><linearGradient id="a" data-name="Red, Purple, Blue" x1="-1480.06" y1="112.3" x2="-1564.32" y2="112.3" gradientTransform="matrix(-1 0 0 1 -1470.33 0)" gradientUnits="userSpaceOnUse"><stop offset="0" stop-color="#b7151b"/><stop offset=".02" stop-color="#c52229"/><stop offset=".06" stop-color="#d7333c"/><stop offset=".11" stop-color="#e23d47"/><stop offset=".15" stop-color="#e6404b"/><stop offset=".3" stop-color="#e98a7b"/><stop offset=".47" stop-color="#7c78b8"/><stop offset=".64" stop-color="#00b0b0"/><stop offset=".79" stop-color="#7b76b6"/><stop offset="1" stop-color="#e7322f"/></linearGradient><linearGradient id="b" x1="-1479.06" y1="112.3" x2="-1563.32" y2="112.3" xlink:href="#a"/><linearGradient id="c" x1="-1478.06" y1="112.3" x2="-1562.32" y2="112.3" xlink:href="#a"/><linearGradient id="d" x1="-1477.06" y1="112.3" x2="-1561.32" y2="112.3" xlink:href="#a"/><linearGradient id="e" x1="-1476.06" y1="112.3" x2="-1560.32" y2="112.3" xlink:href="#a"/><linearGradient id="f" x1="-1475.06" y1="112.3" x2="-1559.32" y2="112.3" xlink:href="#a"/><linearGradient id="g" x1="-1474.06" y1="112.3" x2="-1558.32" y2="112.3" xlink:href="#a"/><linearGradient id="h" x1="-1473.06" y1="112.3" x2="-1557.32" y2="112.3" xlink:href="#a"/><linearGradient id="i" x1="-1472.06" y1="112.3" x2="-1556.32" y2="112.3" xlink:href="#a"/><linearGradient id="j" x1="-1471.06" y1="112.3" x2="-1555.32" y2="112.3" xlink:href="#a"/><linearGradient id="k" x1="-1470.06" y1="112.3" x2="-1554.32" y2="112.3" xlink:href="#a"/><linearGradient id="l" data-name="Orange, Yellow" x1="-.21" y1="136.31" x2="71.78" y2="136.31" gradientUnits="userSpaceOnUse"><stop offset="0" stop-color="#fff33b"/><stop offset=".04" stop-color="#fee72e"/><stop offset=".12" stop-color="#fed51b"/><stop offset=".2" stop-color="#fdca10"/><stop offset=".28" stop-color="#fdc70c"/><stop offset=".67" stop-color="#f3903f"/><stop offset=".89" stop-color="#ed683c"/><stop offset="1" stop-color="#e93e3a"/></linearGradient></defs><title>_</title><g fill="none" stroke-miterlimit="10" stroke-width="3.6"><path d="M9.72 46h82.47c0 15.19-80.66 96.83-80.66 119v13.6l81.86-.13" stroke="url(#a)"/><path d="M8.72 46h82.47c0 15.19-80.66 96.83-80.66 119v13.6l81.86-.13" stroke="url(#b)"/><path d="M7.72 46h82.47c0 15.19-80.66 96.83-80.66 119v13.6l81.86-.13" stroke="url(#c)"/><path d="M6.72 46h82.47c0 15.19-80.66 96.83-80.66 119v13.6l81.86-.13" stroke="url(#d)"/><path d="M5.72 46h82.47c0 15.19-80.66 96.83-80.66 119v13.6l81.86-.13" stroke="url(#e)"/><path d="M4.72 46h82.47c0 15.19-80.66 96.83-80.66 119v13.6l81.86-.13" stroke="url(#f)"/><path d="M3.72 46h82.47c0 15.19-80.66 96.83-80.66 119v13.6l81.86-.13" stroke="url(#g)"/><path d="M2.72 46h82.47c0 15.19-80.66 96.83-80.66 119v13.6l81.86-.13" stroke="url(#h)"/><path d="M1.72 46h82.47c0 15.19-80.66 96.83-80.66 119v13.6l81.86-.13" stroke="url(#i)"/><path d="M.72 46h82.47c0 15.19-80.66 96.83-80.66 119v13.6l81.86-.13" stroke="url(#j)"/><path d="M-.28 46h82.47c0 15.19-80.66 96.83-80.66 119v13.6l81.86-.13" stroke="url(#k)"/></g><path fill="none" stroke-miterlimit="10" stroke-width="10.8" stroke="url(#l)" d="M-.21 136.31h71.99"/></svg>