<svg data-name="Layer 2" xmlns="http://www.w3.org/2000/svg" xmlns:xlink="http://www.w3.org/1999/xlink" width="51" height="200" viewBox="0 0 51 200"><defs><linearGradient id="a" data-name="Red, Purple, Blue" x1="51.53" y1="103.4" x2="10.16" y2="103.4" gradientUnits="userSpaceOnUse"><stop offset="0" stop-color="#b7151b"/><stop offset=".02" stop-color="#c52229"/><stop offset=".06" stop-color="#d7333c"/><stop offset=".11" stop-color="#e23d47"/><stop offset=".15" stop-color="#e6404b"/><stop offset=".3" stop-color="#e98a7b"/><stop offset=".47" stop-color="#7c78b8"/><stop offset=".64" stop-color="#00b0b0"/><stop offset=".79" stop-color="#7b76b6"/><stop offset="1" stop-color="#e7322f"/></linearGradient><linearGradient id="b" x1="50.53" y1="103.4" x2="9.16" y2="103.4" xlink:href="#a"/><linearGradient id="c" x1="49.53" y1="103.4" x2="8.16" y2="103.4" xlink:href="#a"/><linearGradient id="d" x1="48.53" y1="103.4" x2="7.16" y2="103.4" xlink:href="#a"/><linearGradient id="e" x1="47.53" y1="103.4" x2="6.16" y2="103.4" xlink:href="#a"/><linearGradient id="f" x1="46.53" y1="103.4" x2="5.16" y2="103.4" xlink:href="#a"/><linearGradient id="g" x1="45.53" y1="103.4" x2="4.16" y2="103.4" xlink:href="#a"/><linearGradient id="h" x1="44.53" y1="103.4" x2="3.16" y2="103.4" xlink:href="#a"/><linearGradient id="i" x1="43.53" y1="103.4" x2="2.16" y2="103.4" xlink:href="#a"/><linearGradient id="j" x1="42.53" y1="103.4" x2="1.16" y2="103.4" xlink:href="#a"/><linearGradient id="k" x1="41.53" y1="103.4" x2=".16" y2="103.4" xlink:href="#a"/></defs><title>_</title><g fill="none" stroke-miterlimit="10" stroke-width="3.6"><path d="M50.17 18.89l-11.95 14c-7 8.13-10.88 19.34-10.88 31.06v10a48.81 48.81 0 0 1-8.76 28.35l-6.07 8.44 2.37 2.45c7.91 8.19 12.46 20.18 12.46 32.79 0 14.14 5.71 27.38 15.29 35.44l7.54 6.34" stroke="url(#a)"/><path d="M49.17 18.89l-11.95 14c-7 8.13-10.88 19.34-10.88 31.06v10a48.81 48.81 0 0 1-8.76 28.35l-6.07 8.44 2.37 2.45c7.91 8.19 12.46 20.18 12.46 32.79 0 14.14 5.71 27.38 15.29 35.44l7.54 6.34" stroke="url(#b)"/><path d="M48.17 18.89l-11.95 14c-7 8.13-10.88 19.34-10.88 31.06v10a48.81 48.81 0 0 1-8.76 28.35l-6.07 8.44 2.37 2.45c7.91 8.19 12.46 20.18 12.46 32.79 0 14.14 5.71 27.38 15.29 35.44l7.54 6.34" stroke="url(#c)"/><path d="M47.17 18.89l-11.95 14c-7 8.13-10.88 19.34-10.88 31.06v10a48.81 48.81 0 0 1-8.76 28.35l-6.08 8.38 2.37 2.45c7.91 8.19 12.46 20.18 12.46 32.79 0 14.14 5.71 27.38 15.29 35.44l7.54 6.34" stroke="url(#d)"/><path d="M46.17 18.89l-11.95 14c-7 8.13-10.88 19.34-10.88 31.06v10a48.81 48.81 0 0 1-8.76 28.35l-6.08 8.38 2.37 2.45c7.91 8.19 12.46 20.18 12.46 32.79 0 14.14 5.71 27.38 15.29 35.44l7.54 6.34" stroke="url(#e)"/><path d="M45.17 18.89l-11.95 14c-7 8.13-10.88 19.34-10.88 31.06v10a48.81 48.81 0 0 1-8.76 28.35l-6.08 8.38 2.37 2.45c7.91 8.19 12.46 20.18 12.46 32.79 0 14.14 5.71 27.38 15.29 35.44l7.54 6.34" stroke="url(#f)"/><path d="M44.17 18.89l-11.95 14c-7 8.13-10.88 19.34-10.88 31.06v10a48.81 48.81 0 0 1-8.76 28.35l-6.08 8.38 2.37 2.45c7.91 8.19 12.46 20.18 12.46 32.79 0 14.14 5.71 27.38 15.29 35.44l7.54 6.34" stroke="url(#g)"/><path d="M43.17 18.89l-11.95 14c-7 8.13-10.88 19.34-10.88 31.06v10a48.81 48.81 0 0 1-8.76 28.35l-6.08 8.38 2.37 2.45c7.91 8.19 12.46 20.18 12.46 32.79 0 14.14 5.71 27.38 15.29 35.44l7.54 6.34" stroke="url(#h)"/><path d="M42.17 18.89l-11.95 14c-7 8.13-10.88 19.34-10.88 31.06v10a48.81 48.81 0 0 1-8.76 28.35l-6.08 8.38 2.37 2.45c7.91 8.19 12.46 20.18 12.46 32.79 0 14.14 5.71 27.38 15.29 35.44l7.54 6.34" stroke="url(#i)"/><path d="M41.17 18.89l-11.95 14c-7 8.13-10.88 19.34-10.88 31.06v10a48.81 48.81 0 0 1-8.76 28.35l-6.08 8.38 2.37 2.45c7.91 8.19 12.46 20.18 12.46 32.79 0 14.14 5.71 27.38 15.29 35.44l7.54 6.34" stroke="url(#j)"/><path d="M40.17 18.89l-11.95 14c-7 8.13-10.88 19.34-10.88 31.06v10a48.81 48.81 0 0 1-8.76 28.35l-6.08 8.38 2.37 2.45c7.91 8.19 12.46 20.18 12.46 32.79 0 14.14 5.71 27.38 15.29 35.44l7.54 6.34" stroke="url(#k)"/></g></svg>