<svg data-name="Layer 2" xmlns="http://www.w3.org/2000/svg" xmlns:xlink="http://www.w3.org/1999/xlink" width="50.67" height="200" viewBox="0 0 50.67 200"><defs><linearGradient id="a" data-name="Red, Purple, Blue" x1="51.75" y1="95.19" x2="10.37" y2="95.19" gradientTransform="rotate(180 26.06 97.195)" gradientUnits="userSpaceOnUse"><stop offset="0" stop-color="#b7151b"/><stop offset=".02" stop-color="#c52229"/><stop offset=".06" stop-color="#d7333c"/><stop offset=".11" stop-color="#e23d47"/><stop offset=".15" stop-color="#e6404b"/><stop offset=".3" stop-color="#e98a7b"/><stop offset=".47" stop-color="#7c78b8"/><stop offset=".64" stop-color="#00b0b0"/><stop offset=".79" stop-color="#7b76b6"/><stop offset="1" stop-color="#e7322f"/></linearGradient><linearGradient id="b" x1="50.75" y1="95.19" x2="9.37" y2="95.19" xlink:href="#a"/><linearGradient id="c" x1="49.75" y1="95.19" x2="8.37" y2="95.19" xlink:href="#a"/><linearGradient id="d" x1="48.75" y1="95.19" x2="7.37" y2="95.19" xlink:href="#a"/><linearGradient id="e" x1="47.75" y1="95.19" x2="6.37" y2="95.19" xlink:href="#a"/><linearGradient id="f" x1="46.75" y1="95.19" x2="5.37" y2="95.19" xlink:href="#a"/><linearGradient id="g" x1="45.75" y1="95.19" x2="4.37" y2="95.19" xlink:href="#a"/><linearGradient id="h" x1="44.75" y1="95.19" x2="3.37" y2="95.19" xlink:href="#a"/><linearGradient id="i" x1="43.75" y1="95.19" x2="2.37" y2="95.19" xlink:href="#a"/><linearGradient id="j" x1="42.75" y1="95.19" x2="1.37" y2="95.19" xlink:href="#a"/><linearGradient id="k" x1="41.75" y1="95.19" x2=".37" y2="95.19" xlink:href="#a"/></defs><title>_</title><g fill="none" stroke-miterlimit="10" stroke-width="3.6"><path d="M1.74 183.71l11.95-14c7-8.13 10.88-19.34 10.88-31.06v-10a48.81 48.81 0 0 1 8.76-28.35l6.07-8.44-2.4-2.39c-7.91-8.19-12.46-20.18-12.46-32.79 0-14.14-5.71-27.38-15.29-35.44l-7.51-6.35" stroke="url(#a)"/><path d="M2.74 183.71l11.95-14c7-8.13 10.88-19.34 10.88-31.06v-10a48.81 48.81 0 0 1 8.76-28.35l6.07-8.44-2.4-2.39c-7.91-8.19-12.46-20.18-12.46-32.79 0-14.14-5.71-27.38-15.29-35.44l-7.51-6.35" stroke="url(#b)"/><path d="M3.74 183.71l11.95-14c7-8.13 10.88-19.34 10.88-31.06v-10a48.81 48.81 0 0 1 8.76-28.35l6.07-8.44-2.4-2.39c-7.91-8.19-12.46-20.18-12.46-32.79 0-14.14-5.71-27.38-15.29-35.44l-7.51-6.35" stroke="url(#c)"/><path d="M4.74 183.71l11.95-14c7-8.13 10.88-19.34 10.88-31.06v-10a48.81 48.81 0 0 1 8.76-28.35l6.07-8.44-2.4-2.39c-7.91-8.19-12.46-20.18-12.46-32.79 0-14.14-5.71-27.38-15.29-35.44l-7.51-6.35" stroke="url(#d)"/><path d="M5.74 183.71l11.95-14c7-8.13 10.88-19.34 10.88-31.06v-10a48.81 48.81 0 0 1 8.76-28.35l6.07-8.44-2.4-2.39c-7.91-8.19-12.46-20.18-12.46-32.79 0-14.14-5.71-27.38-15.29-35.44l-7.51-6.35" stroke="url(#e)"/><path d="M6.74 183.71l11.95-14c7-8.13 10.88-19.34 10.88-31.06v-10a48.81 48.81 0 0 1 8.76-28.35l6.07-8.44-2.4-2.39c-7.91-8.19-12.46-20.18-12.46-32.79 0-14.14-5.71-27.38-15.29-35.44l-7.51-6.35" stroke="url(#f)"/><path d="M7.74 183.71l11.95-14c7-8.13 10.88-19.34 10.88-31.06v-10a48.81 48.81 0 0 1 8.76-28.35l6.07-8.44-2.4-2.39c-7.91-8.19-12.46-20.18-12.46-32.79 0-14.14-5.71-27.38-15.29-35.44l-7.51-6.35" stroke="url(#g)"/><path d="M8.74 183.71l11.95-14c7-8.13 10.88-19.34 10.88-31.06v-10a48.81 48.81 0 0 1 8.76-28.35l6.07-8.44-2.4-2.39c-7.91-8.19-12.46-20.18-12.46-32.79 0-14.14-5.71-27.38-15.29-35.44l-7.51-6.35" stroke="url(#h)"/><path d="M9.74 183.71l11.95-14c7-8.13 10.88-19.34 10.88-31.06v-10a48.81 48.81 0 0 1 8.76-28.35l6.07-8.44-2.4-2.39c-7.91-8.19-12.46-20.18-12.46-32.79 0-14.14-5.71-27.38-15.29-35.44l-7.51-6.35" stroke="url(#i)"/><path d="M10.74 183.71l11.95-14c7-8.13 10.88-19.34 10.88-31.06v-10a48.81 48.81 0 0 1 8.76-28.35l6.07-8.44-2.4-2.39c-7.91-8.19-12.46-20.18-12.46-32.79 0-14.14-5.71-27.38-15.29-35.44l-7.54-6.34" stroke="url(#j)"/><path d="M11.74 183.71l11.95-14c7-8.13 10.88-19.34 10.88-31.06v-10a48.81 48.81 0 0 1 8.76-28.35l6.07-8.44-2.4-2.39c-7.91-8.19-12.46-20.18-12.46-32.79 0-14.14-5.71-27.38-15.29-35.44l-7.54-6.34" stroke="url(#k)"/></g></svg>