<svg data-name="Layer 2" xmlns="http://www.w3.org/2000/svg" xmlns:xlink="http://www.w3.org/1999/xlink" width="34" height="200" viewBox="0 0 34 200"><defs><linearGradient id="a" data-name="Red, Purple, Blue" x1="33.8" y1="90.84" x2="10.5" y2="90.84" gradientTransform="rotate(180 17.15 95.55)" gradientUnits="userSpaceOnUse"><stop offset="0" stop-color="#b7151b"/><stop offset=".02" stop-color="#c52229"/><stop offset=".06" stop-color="#d7333c"/><stop offset=".11" stop-color="#e23d47"/><stop offset=".15" stop-color="#e6404b"/><stop offset=".3" stop-color="#e98a7b"/><stop offset=".47" stop-color="#7c78b8"/><stop offset=".64" stop-color="#00b0b0"/><stop offset=".79" stop-color="#7b76b6"/><stop offset="1" stop-color="#e7322f"/></linearGradient><linearGradient id="b" x1="32.8" y1="90.84" x2="9.5" y2="90.84" xlink:href="#a"/><linearGradient id="c" x1="31.8" y1="90.84" x2="8.5" y2="90.84" xlink:href="#a"/><linearGradient id="d" x1="30.8" y1="90.84" x2="7.5" y2="90.84" xlink:href="#a"/><linearGradient id="e" x1="29.8" y1="90.84" x2="6.5" y2="90.84" xlink:href="#a"/><linearGradient id="f" x1="28.8" y1="90.84" x2="5.5" y2="90.84" xlink:href="#a"/><linearGradient id="g" x1="27.8" y1="90.84" x2="4.5" y2="90.84" xlink:href="#a"/><linearGradient id="h" x1="26.8" y1="90.84" x2="3.5" y2="90.84" xlink:href="#a"/><linearGradient id="i" x1="25.8" y1="90.84" x2="2.5" y2="90.84" xlink:href="#a"/><linearGradient id="j" x1="24.8" y1="90.84" x2="1.5" y2="90.84" xlink:href="#a"/><linearGradient id="k" x1="23.8" y1="90.84" x2=".5" y2="90.84" xlink:href="#a"/><linearGradient id="l" x1="28.56" y1="167.68" x2="12.96" y2="167.68" xlink:href="#a"/><linearGradient id="m" x1="27.56" y1="167.68" x2="11.96" y2="167.68" xlink:href="#a"/><linearGradient id="n" x1="26.56" y1="167.68" x2="10.96" y2="167.68" xlink:href="#a"/><linearGradient id="o" x1="25.56" y1="167.68" x2="9.96" y2="167.68" xlink:href="#a"/><linearGradient id="p" x1="24.56" y1="167.68" x2="8.96" y2="167.68" xlink:href="#a"/><linearGradient id="q" x1="23.56" y1="167.68" x2="7.96" y2="167.68" xlink:href="#a"/><linearGradient id="r" x1="22.56" y1="167.68" x2="6.96" y2="167.68" xlink:href="#a"/><linearGradient id="s" x1="21.56" y1="167.68" x2="5.96" y2="167.68" xlink:href="#a"/><linearGradient id="t" x1="20.56" y1="167.68" x2="4.96" y2="167.68" xlink:href="#a"/><linearGradient id="u" x1="19.56" y1="167.68" x2="3.96" y2="167.68" xlink:href="#a"/><linearGradient id="v" x1="18.56" y1="167.68" x2="2.96" y2="167.68" xlink:href="#a"/></defs><title>_</title><g fill="none" stroke-miterlimit="10" stroke-width="3.6"><path d="M13 25.18L2.38 162.65a9.85 9.85 0 0 0 9.77 11 9.85 9.85 0 0 0 9.8-10.83z" stroke="url(#a)"/><path d="M14 25.18L3.38 162.65a9.85 9.85 0 0 0 9.77 11 9.85 9.85 0 0 0 9.8-10.83z" stroke="url(#b)"/><path d="M15 25.18L4.38 162.65a9.85 9.85 0 0 0 9.77 11 9.85 9.85 0 0 0 9.8-10.83z" stroke="url(#c)"/><path d="M16 25.18L5.38 162.65a9.85 9.85 0 0 0 9.77 11 9.85 9.85 0 0 0 9.8-10.83z" stroke="url(#d)"/><path d="M17 25.18L6.38 162.65a9.85 9.85 0 0 0 9.77 11 9.85 9.85 0 0 0 9.8-10.83z" stroke="url(#e)"/><path d="M18 25.18L7.38 162.65a9.85 9.85 0 0 0 9.77 11 9.85 9.85 0 0 0 9.8-10.83z" stroke="url(#f)"/><path d="M19 25.18L8.38 162.65a9.85 9.85 0 0 0 9.77 11 9.85 9.85 0 0 0 9.8-10.83z" stroke="url(#g)"/><path d="M20 25.18L9.38 162.65a9.85 9.85 0 0 0 9.77 11 9.85 9.85 0 0 0 9.8-10.83z" stroke="url(#h)"/><path d="M21 25.18L10.38 162.65a9.85 9.85 0 0 0 9.77 11 9.85 9.85 0 0 0 9.8-10.83z" stroke="url(#i)"/><path d="M22 25.18L11.38 162.65a9.85 9.85 0 0 0 9.77 11 9.85 9.85 0 0 0 9.8-10.83z" stroke="url(#j)"/><path d="M23 25.18L12.38 162.65a9.85 9.85 0 0 0 9.77 11 9.85 9.85 0 0 0 9.8-10.83z" stroke="url(#k)"/></g><g fill="none" stroke-miterlimit="10" stroke-width="3.6"><circle cx="13.53" cy="23.42" r="6" stroke="url(#l)"/><circle cx="14.53" cy="23.42" r="6" stroke="url(#m)"/><circle cx="15.53" cy="23.42" r="6" stroke="url(#n)"/><circle cx="16.53" cy="23.42" r="6" stroke="url(#o)"/><circle cx="17.53" cy="23.42" r="6" stroke="url(#p)"/><circle cx="18.53" cy="23.42" r="6" stroke="url(#q)"/><circle cx="19.53" cy="23.42" r="6" stroke="url(#r)"/><circle cx="20.53" cy="23.42" r="6" stroke="url(#s)"/><circle cx="21.53" cy="23.42" r="6" stroke="url(#t)"/><circle cx="22.53" cy="23.42" r="6" stroke="url(#u)"/><circle cx="23.53" cy="23.42" r="6" stroke="url(#v)"/></g></svg>