<svg data-name="Layer 2" xmlns="http://www.w3.org/2000/svg" xmlns:xlink="http://www.w3.org/1999/xlink" width="102.5" height="200" viewBox="0 0 102.5 200"><defs><linearGradient id="a" data-name="Red, Purple, Blue" x1="4.68" y1="104.47" x2="101.17" y2="104.47" gradientUnits="userSpaceOnUse"><stop offset="0" stop-color="#b7151b"/><stop offset=".02" stop-color="#c52229"/><stop offset=".06" stop-color="#d7333c"/><stop offset=".11" stop-color="#e23d47"/><stop offset=".15" stop-color="#e6404b"/><stop offset=".3" stop-color="#e98a7b"/><stop offset=".47" stop-color="#7c78b8"/><stop offset=".64" stop-color="#00b0b0"/><stop offset=".79" stop-color="#7b76b6"/><stop offset="1" stop-color="#e7322f"/></linearGradient><linearGradient id="c" x1="3.68" y1="104.47" x2="100.17" y2="104.47" xlink:href="#a"/><linearGradient id="d" x1="2.68" y1="104.47" x2="99.17" y2="104.47" xlink:href="#a"/><linearGradient id="e" x1="1.68" y1="104.47" x2="98.17" y2="104.47" xlink:href="#a"/><linearGradient id="f" x1=".68" y1="104.47" x2="97.17" y2="104.47" xlink:href="#a"/><linearGradient id="g" x1="-.32" y1="104.47" x2="96.17" y2="104.47" xlink:href="#a"/><linearGradient id="h" x1="-1.32" y1="104.47" x2="95.17" y2="104.47" xlink:href="#a"/><linearGradient id="i" x1="-2.32" y1="104.47" x2="94.17" y2="104.47" xlink:href="#a"/><linearGradient id="j" x1="-3.32" y1="104.47" x2="93.17" y2="104.47" xlink:href="#a"/><linearGradient id="k" x1="-4.32" y1="104.47" x2="92.17" y2="104.47" xlink:href="#a"/><linearGradient id="l" x1="-5.32" y1="104.47" x2="91.17" y2="104.47" xlink:href="#a"/><linearGradient id="b" data-name="Orange, Yellow" x1=".57" y1="128" x2="56" y2="128" gradientUnits="userSpaceOnUse"><stop offset="0" stop-color="#fff33b"/><stop offset=".04" stop-color="#fee72e"/><stop offset=".12" stop-color="#fed51b"/><stop offset=".2" stop-color="#fdca10"/><stop offset=".28" stop-color="#fdc70c"/><stop offset=".67" stop-color="#f3903f"/><stop offset=".89" stop-color="#ed683c"/><stop offset="1" stop-color="#e93e3a"/></linearGradient><linearGradient id="m" x1=".57" y1="140.5" y2="140.5" xlink:href="#b"/></defs><title>_</title><g fill="none" stroke-miterlimit="10" stroke-width="3.6"><path d="M95.17 50.67l-20.55-16A27 27 0 0 0 39 36.84a27 27 0 0 0-5.25 30.7l11.88 24.84a27 27 0 0 1-1.09 25.32L7.83 180h93.33" stroke="url(#a)"/><path d="M94.17 50.67l-20.55-16A27 27 0 0 0 38 36.84a27 27 0 0 0-5.25 30.7l11.88 24.84a27 27 0 0 1-1.09 25.32L6.83 180h93.33" stroke="url(#c)"/><path d="M93.17 50.67l-20.55-16A27 27 0 0 0 37 36.84a27 27 0 0 0-5.25 30.7l11.88 24.84a27 27 0 0 1-1.09 25.32L5.83 180h93.34" stroke="url(#d)"/><path d="M92.17 50.67l-20.55-16A27 27 0 0 0 36 36.84a27 27 0 0 0-5.25 30.7l11.88 24.84a27 27 0 0 1-1.09 25.32L4.83 180h93.34" stroke="url(#e)"/><path d="M91.17 50.67l-20.55-16A27 27 0 0 0 35 36.84a27 27 0 0 0-5.25 30.7l11.88 24.84a27 27 0 0 1-1.09 25.32L3.83 180h93.34" stroke="url(#f)"/><path d="M90.17 50.67l-20.55-16A27 27 0 0 0 34 36.84a27 27 0 0 0-5.25 30.7l11.88 24.84a27 27 0 0 1-1.09 25.32L2.83 180h93.34" stroke="url(#g)"/><path d="M89.17 50.67l-20.55-16A27 27 0 0 0 33 36.84a27 27 0 0 0-5.25 30.7l11.88 24.84a27 27 0 0 1-1.09 25.32L1.83 180h93.34" stroke="url(#h)"/><path d="M88.17 50.67l-20.55-16A27 27 0 0 0 32 36.84a27 27 0 0 0-5.25 30.7l11.88 24.84a27 27 0 0 1-1.09 25.32L.83 180h93.34" stroke="url(#i)"/><path d="M87.17 50.67l-20.55-16A27 27 0 0 0 31 36.84a27 27 0 0 0-5.25 30.7l11.88 24.84a27 27 0 0 1-1.09 25.32L-.17 180h93.34" stroke="url(#j)"/><path d="M86.17 50.67l-20.55-16A27 27 0 0 0 30 36.84a27 27 0 0 0-5.25 30.7l11.88 24.84a27 27 0 0 1-1.09 25.32L-1.17 180h93.34" stroke="url(#k)"/><path d="M85.17 50.67l-20.55-16A27 27 0 0 0 29 36.84a27 27 0 0 0-5.25 30.7l11.88 24.84a27 27 0 0 1-1.09 25.32L-2.17 180h93.34" stroke="url(#l)"/></g><path fill="none" stroke-miterlimit="10" stroke-width="3.6" stroke="url(#b)" d="M.57 128H56"/><path fill="none" stroke-miterlimit="10" stroke-width="3.6" stroke="url(#m)" d="M.57 140.5H56"/></svg>