<svg data-name="Layer 2" xmlns="http://www.w3.org/2000/svg" xmlns:xlink="http://www.w3.org/1999/xlink" width="95" height="200" viewBox="0 0 95 200"><defs><linearGradient id="a" data-name="Red, Purple, Blue" x1="11.06" y1="-1874.78" x2="94.73" y2="-1874.78" gradientTransform="matrix(1 0 0 -1 0 -1796.43)" gradientUnits="userSpaceOnUse"><stop offset="0" stop-color="#b7151b"/><stop offset=".02" stop-color="#c52229"/><stop offset=".06" stop-color="#d7333c"/><stop offset=".11" stop-color="#e23d47"/><stop offset=".15" stop-color="#e6404b"/><stop offset=".3" stop-color="#e98a7b"/><stop offset=".47" stop-color="#7c78b8"/><stop offset=".64" stop-color="#00b0b0"/><stop offset=".79" stop-color="#7b76b6"/><stop offset="1" stop-color="#e7322f"/></linearGradient><linearGradient id="c" x1="10.06" y1="-1874.78" x2="93.73" y2="-1874.78" xlink:href="#a"/><linearGradient id="d" x1="9.06" y1="-1874.78" x2="92.73" y2="-1874.78" xlink:href="#a"/><linearGradient id="e" x1="8.06" y1="-1874.78" x2="91.73" y2="-1874.78" xlink:href="#a"/><linearGradient id="f" x1="7.06" y1="-1874.78" x2="90.73" y2="-1874.78" xlink:href="#a"/><linearGradient id="g" x1="6.06" y1="-1874.78" x2="89.73" y2="-1874.78" xlink:href="#a"/><linearGradient id="h" x1="5.06" y1="-1874.78" x2="88.73" y2="-1874.78" xlink:href="#a"/><linearGradient id="i" x1="4.06" y1="-1874.78" x2="87.73" y2="-1874.78" xlink:href="#a"/><linearGradient id="j" x1="3.06" y1="-1874.78" x2="86.73" y2="-1874.78" xlink:href="#a"/><linearGradient id="k" x1="2.06" y1="-1874.78" x2="85.73" y2="-1874.78" xlink:href="#a"/><linearGradient id="l" x1="1.06" y1="-1874.78" x2="84.73" y2="-1874.78" xlink:href="#a"/><linearGradient id="m" x1="3570.17" y1="642.41" x2="3605.5" y2="642.41" gradientTransform="rotate(90 2059.67 -1364.5)" xlink:href="#a"/><linearGradient id="n" x1="3570.17" y1="643.41" x2="3605.5" y2="643.41" gradientTransform="rotate(90 2059.67 -1364.5)" xlink:href="#a"/><linearGradient id="o" x1="3570.17" y1="644.41" x2="3605.5" y2="644.41" gradientTransform="rotate(90 2059.67 -1364.5)" xlink:href="#a"/><linearGradient id="p" x1="3570.17" y1="645.41" x2="3605.5" y2="645.41" gradientTransform="rotate(90 2059.67 -1364.5)" xlink:href="#a"/><linearGradient id="q" x1="3570.17" y1="646.41" x2="3605.5" y2="646.41" gradientTransform="rotate(90 2059.67 -1364.5)" xlink:href="#a"/><linearGradient id="r" x1="3570.17" y1="647.41" x2="3605.5" y2="647.41" gradientTransform="rotate(90 2059.67 -1364.5)" xlink:href="#a"/><linearGradient id="s" x1="3570.17" y1="648.41" x2="3605.5" y2="648.41" gradientTransform="rotate(90 2059.67 -1364.5)" xlink:href="#a"/><linearGradient id="t" x1="3570.17" y1="649.41" x2="3605.5" y2="649.41" gradientTransform="rotate(90 2059.67 -1364.5)" xlink:href="#a"/><linearGradient id="u" x1="3570.17" y1="650.41" x2="3605.5" y2="650.41" gradientTransform="rotate(90 2059.67 -1364.5)" xlink:href="#a"/><linearGradient id="v" x1="3570.17" y1="651.41" x2="3605.5" y2="651.41" gradientTransform="rotate(90 2059.67 -1364.5)" xlink:href="#a"/><linearGradient id="w" x1="3570.17" y1="652.41" x2="3605.5" y2="652.41" gradientTransform="rotate(90 2059.67 -1364.5)" xlink:href="#a"/><linearGradient id="b" data-name="Orange, Yellow" x1="5.57" y1="134" x2="88" y2="134" gradientUnits="userSpaceOnUse"><stop offset="0" stop-color="#fff33b"/><stop offset=".04" stop-color="#fee72e"/><stop offset=".12" stop-color="#fed51b"/><stop offset=".2" stop-color="#fdca10"/><stop offset=".28" stop-color="#fdc70c"/><stop offset=".67" stop-color="#f3903f"/><stop offset=".89" stop-color="#ed683c"/><stop offset="1" stop-color="#e93e3a"/></linearGradient><linearGradient id="x" x1="5.57" y1="146.5" y2="146.5" xlink:href="#b"/></defs><title>_</title><g fill="none" stroke-miterlimit="10" stroke-width="3.6"><path d="M12.86 22v6.17A178.65 178.65 0 0 0 47 129a6.14 6.14 0 0 0 11.72 0l3.28-4.75a178.83 178.83 0 0 0 30.75-93.08q.18-4.57.18-9.15" stroke="url(#a)"/><path d="M11.86 22v6.17A178.65 178.65 0 0 0 46 129a6.14 6.14 0 0 0 11.72 0l3.28-4.75a178.83 178.83 0 0 0 30.75-93.08q.18-4.57.18-9.15" stroke="url(#c)"/><path d="M10.86 22v6.17A178.65 178.65 0 0 0 45 129a6.14 6.14 0 0 0 11.72 0l3.28-4.75a178.83 178.83 0 0 0 30.75-93.08q.18-4.57.18-9.15" stroke="url(#d)"/><path d="M9.86 22v6.17A178.65 178.65 0 0 0 44 129a6.14 6.14 0 0 0 11.72 0l3.28-4.75a178.83 178.83 0 0 0 30.75-93.08q.18-4.57.18-9.15" stroke="url(#e)"/><path d="M8.86 22v6.17A178.65 178.65 0 0 0 43 129a6.14 6.14 0 0 0 11.72 0l3.28-4.75a178.83 178.83 0 0 0 30.75-93.08q.18-4.57.18-9.15" stroke="url(#f)"/><path d="M7.86 22v6.17A178.65 178.65 0 0 0 42 129a6.14 6.14 0 0 0 11.72 0l3.28-4.75a178.83 178.83 0 0 0 30.75-93.08q.18-4.57.18-9.15" stroke="url(#g)"/><path d="M6.86 22v6.17A178.65 178.65 0 0 0 41 129a6.14 6.14 0 0 0 11.72 0l3.28-4.75a178.83 178.83 0 0 0 30.75-93.08q.18-4.57.18-9.15" stroke="url(#h)"/><path d="M5.86 22v6.17A178.65 178.65 0 0 0 40 129a6.14 6.14 0 0 0 11.72 0l3.28-4.75a178.83 178.83 0 0 0 30.75-93.08q.18-4.57.18-9.15" stroke="url(#i)"/><path d="M4.86 22v6.17A178.65 178.65 0 0 0 39 129a6.14 6.14 0 0 0 11.72 0l3.28-4.75a178.83 178.83 0 0 0 30.75-93.08q.18-4.57.18-9.15" stroke="url(#j)"/><path d="M3.86 22v6.17A178.65 178.65 0 0 0 38 129a6.14 6.14 0 0 0 11.72 0l3.28-4.75a178.83 178.83 0 0 0 30.75-93.08q.18-4.57.18-9.15" stroke="url(#k)"/><path d="M2.86 22v6.17A178.65 178.65 0 0 0 37 129a6.14 6.14 0 0 0 11.72 0l3.28-4.75a178.83 178.83 0 0 0 30.75-93.08q.18-4.57.18-9.15" stroke="url(#l)"/></g><g fill="none" stroke-miterlimit="10" stroke-width="3.6"><path stroke="url(#m)" d="M52.76 146v35.33"/><path stroke="url(#n)" d="M51.76 146v35.33"/><path stroke="url(#o)" d="M50.76 146v35.33"/><path stroke="url(#p)" d="M49.76 146v35.33"/><path stroke="url(#q)" d="M48.76 146v35.33"/><path stroke="url(#r)" d="M47.76 146v35.33"/><path stroke="url(#s)" d="M46.76 146v35.33"/><path stroke="url(#t)" d="M45.76 146v35.33"/><path stroke="url(#u)" d="M44.76 146v35.33"/><path stroke="url(#v)" d="M43.76 146v35.33"/><path stroke="url(#w)" d="M42.76 146v35.33"/></g><path fill="none" stroke-miterlimit="10" stroke-width="3.6" stroke="url(#b)" d="M5.57 134H88"/><path fill="none" stroke-miterlimit="10" stroke-width="3.6" stroke="url(#x)" d="M5.57 146.5H88"/></svg>