<svg data-name="Layer 2" xmlns="http://www.w3.org/2000/svg" xmlns:xlink="http://www.w3.org/1999/xlink" width="48.67" height="200" viewBox="0 0 48.67 200"><defs><linearGradient id="a" data-name="Red, Purple, Blue" x1="300.79" y1="-112.71" x2="350.77" y2="-120.63" gradientTransform="matrix(-.98 .17 -.17 -.98 325.47 -45.77)" gradientUnits="userSpaceOnUse"><stop offset="0" stop-color="#b7151b"/><stop offset=".02" stop-color="#c52229"/><stop offset=".06" stop-color="#d7333c"/><stop offset=".11" stop-color="#e23d47"/><stop offset=".15" stop-color="#e6404b"/><stop offset=".3" stop-color="#e98a7b"/><stop offset=".47" stop-color="#7c78b8"/><stop offset=".64" stop-color="#00b0b0"/><stop offset=".79" stop-color="#7b76b6"/><stop offset="1" stop-color="#e7322f"/></linearGradient><linearGradient id="b" x1="301.77" y1="-112.54" x2="351.76" y2="-120.46" xlink:href="#a"/><linearGradient id="c" x1="302.76" y1="-112.37" x2="352.74" y2="-120.28" xlink:href="#a"/><linearGradient id="d" x1="303.74" y1="-112.19" x2="353.73" y2="-120.11" xlink:href="#a"/><linearGradient id="e" x1="304.73" y1="-112.02" x2="354.71" y2="-119.93" xlink:href="#a"/><linearGradient id="f" x1="305.71" y1="-111.84" x2="355.69" y2="-119.76" xlink:href="#a"/><linearGradient id="g" x1="306.7" y1="-111.67" x2="356.68" y2="-119.59" xlink:href="#a"/><linearGradient id="h" x1="307.68" y1="-111.5" x2="357.66" y2="-119.41" xlink:href="#a"/><linearGradient id="i" x1="308.66" y1="-111.32" x2="358.65" y2="-119.24" xlink:href="#a"/><linearGradient id="j" x1="309.65" y1="-111.15" x2="359.63" y2="-119.06" xlink:href="#a"/><linearGradient id="k" x1="310.63" y1="-110.97" x2="360.62" y2="-118.89" xlink:href="#a"/><linearGradient id="l" data-name="Orange, Yellow" x1="-3.9" y1="165.25" x2="29.4" y2="165.25" gradientTransform="rotate(180 14.01 102.785)" gradientUnits="userSpaceOnUse"><stop offset="0" stop-color="#fff33b"/><stop offset=".04" stop-color="#fee72e"/><stop offset=".12" stop-color="#fed51b"/><stop offset=".2" stop-color="#fdca10"/><stop offset=".28" stop-color="#fdc70c"/><stop offset=".67" stop-color="#f3903f"/><stop offset=".89" stop-color="#ed683c"/><stop offset="1" stop-color="#e93e3a"/></linearGradient></defs><title>_</title><g fill="none" stroke-miterlimit="10" stroke-width="3.6"><path d="M28.3 67.18c1.83.51 3.24 4.28 2.7 7.21 0 0-43.73 105.71 1.81 105.71 10.18-1.8 15.57-19.42 12-39.36" stroke="url(#a)"/><path d="M27.3 67.18c1.83.51 3.24 4.28 2.7 7.21 0 0-43.73 105.71 1.81 105.71 10.18-1.8 15.57-19.42 12-39.36" stroke="url(#b)"/><path d="M26.3 67.18c1.83.51 3.24 4.28 2.7 7.21 0 0-43.73 105.71 1.81 105.71 10.18-1.8 15.57-19.42 12-39.36" stroke="url(#c)"/><path d="M25.3 67.18c1.83.51 3.24 4.28 2.7 7.21 0 0-43.73 105.71 1.81 105.71 10.18-1.8 15.57-19.42 12-39.36" stroke="url(#d)"/><path d="M24.3 67.18c1.83.51 3.24 4.28 2.7 7.21 0 0-43.73 105.71 1.81 105.71 10.18-1.8 15.57-19.42 12-39.36" stroke="url(#e)"/><path d="M23.3 67.18c1.83.51 3.24 4.28 2.7 7.21 0 0-43.73 105.71 1.81 105.71 10.18-1.8 15.57-19.42 12-39.36" stroke="url(#f)"/><path d="M22.3 67.18c1.83.51 3.24 4.28 2.7 7.21 0 0-43.73 105.71 1.81 105.71 10.18-1.8 15.57-19.42 12-39.36" stroke="url(#g)"/><path d="M21.3 67.18c1.83.51 3.24 4.28 2.7 7.21 0 0-43.73 105.71 1.81 105.71 10.18-1.8 15.57-19.42 12-39.36" stroke="url(#h)"/><path d="M20.3 67.18c1.83.51 3.24 4.28 2.7 7.21 0 0-43.73 105.71 1.81 105.71 10.18-1.8 15.57-19.42 12-39.36" stroke="url(#i)"/><path d="M19.3 67.18c1.83.51 3.24 4.28 2.7 7.21 0 0-43.73 105.71 1.81 105.71 10.18-1.8 15.57-19.42 12-39.36" stroke="url(#j)"/><path d="M18.3 67.18c1.83.51 3.24 4.28 2.7 7.21 0 0-43.73 105.71 1.81 105.71 10.18-1.8 15.57-19.42 12-39.36" stroke="url(#k)"/></g><circle cx="15.27" cy="40.32" r="11.25" fill="none" stroke-miterlimit="10" stroke-width="10.8" stroke="url(#l)"/></svg>