<svg data-name="Layer 2" xmlns="http://www.w3.org/2000/svg" xmlns:xlink="http://www.w3.org/1999/xlink" width="95.33" height="200" viewBox="0 0 95.33 200"><defs><linearGradient id="b" data-name="Orange, Yellow" x1="12.08" y1="135.5" x2="84.58" y2="135.5" gradientUnits="userSpaceOnUse"><stop offset="0" stop-color="#fff33b"/><stop offset=".04" stop-color="#fee72e"/><stop offset=".12" stop-color="#fed51b"/><stop offset=".2" stop-color="#fdca10"/><stop offset=".28" stop-color="#fdc70c"/><stop offset=".67" stop-color="#f3903f"/><stop offset=".89" stop-color="#ed683c"/><stop offset="1" stop-color="#e93e3a"/></linearGradient><linearGradient id="a" data-name="Red, Purple, Blue" x1="11.23" y1="101.1" x2="94.9" y2="101.1" gradientUnits="userSpaceOnUse"><stop offset="0" stop-color="#b7151b"/><stop offset=".02" stop-color="#c52229"/><stop offset=".06" stop-color="#d7333c"/><stop offset=".11" stop-color="#e23d47"/><stop offset=".15" stop-color="#e6404b"/><stop offset=".3" stop-color="#e98a7b"/><stop offset=".47" stop-color="#7c78b8"/><stop offset=".64" stop-color="#00b0b0"/><stop offset=".79" stop-color="#7b76b6"/><stop offset="1" stop-color="#e7322f"/></linearGradient><linearGradient id="c" x1="10.23" y1="101.1" x2="93.9" y2="101.1" xlink:href="#a"/><linearGradient id="d" x1="9.23" y1="101.1" x2="92.9" y2="101.1" xlink:href="#a"/><linearGradient id="e" x1="8.23" y1="101.1" x2="91.9" y2="101.1" xlink:href="#a"/><linearGradient id="f" x1="7.23" y1="101.1" x2="90.9" y2="101.1" xlink:href="#a"/><linearGradient id="g" x1="6.23" y1="101.1" x2="89.9" y2="101.1" xlink:href="#a"/><linearGradient id="h" x1="5.23" y1="101.1" x2="88.9" y2="101.1" xlink:href="#a"/><linearGradient id="i" x1="4.23" y1="101.1" x2="87.9" y2="101.1" xlink:href="#a"/><linearGradient id="j" x1="3.23" y1="101.1" x2="86.9" y2="101.1" xlink:href="#a"/><linearGradient id="k" x1="2.23" y1="101.1" x2="85.9" y2="101.1" xlink:href="#a"/><linearGradient id="l" x1="1.23" y1="101.1" x2="84.9" y2="101.1" xlink:href="#a"/><linearGradient id="m" x1="12.27" y1="32" x2="45.57" y2="32" xlink:href="#b"/><linearGradient id="n" x1="49.27" y1="32" x2="82.57" y2="32" xlink:href="#b"/></defs><title>_</title><path fill="none" stroke-miterlimit="10" stroke-width="10.8" stroke="url(#b)" d="M12.08 135.5h72.5"/><g fill="none" stroke-miterlimit="10" stroke-width="3.6"><path d="M13 180.54v-1.37a236 236 0 0 1 12.39-75.45L47.2 27.33a6.14 6.14 0 0 1 11.72 0l22.25 79.16a236 236 0 0 1 11.93 74.05" stroke="url(#a)"/><path d="M12 180.54v-1.37a236 236 0 0 1 12.39-75.45L46.2 27.33a6.14 6.14 0 0 1 11.72 0l22.25 79.16a236 236 0 0 1 11.93 74.05" stroke="url(#c)"/><path d="M11 180.54v-1.37a236 236 0 0 1 12.39-75.45L45.2 27.33a6.14 6.14 0 0 1 11.72 0l22.25 79.16a236 236 0 0 1 11.93 74.05" stroke="url(#d)"/><path d="M10 180.54v-1.37a236 236 0 0 1 12.39-75.45L44.2 27.33a6.14 6.14 0 0 1 11.72 0l22.25 79.16a236 236 0 0 1 11.93 74.05" stroke="url(#e)"/><path d="M9 180.54v-1.37a236 236 0 0 1 12.39-75.45L43.2 27.33a6.14 6.14 0 0 1 11.72 0l22.25 79.16a236 236 0 0 1 11.93 74.05" stroke="url(#f)"/><path d="M8 180.54v-1.37a236 236 0 0 1 12.39-75.45L42.2 27.33a6.14 6.14 0 0 1 11.72 0l22.25 79.16a236 236 0 0 1 11.93 74.05" stroke="url(#g)"/><path d="M7 180.54v-1.37a236 236 0 0 1 12.39-75.45L41.2 27.33a6.14 6.14 0 0 1 11.72 0l22.25 79.16a236 236 0 0 1 11.93 74.05" stroke="url(#h)"/><path d="M6 180.54v-1.37a236 236 0 0 1 12.39-75.45L40.2 27.33a6.14 6.14 0 0 1 11.72 0l22.25 79.16a236 236 0 0 1 11.93 74.05" stroke="url(#i)"/><path d="M5 180.54v-1.37a236 236 0 0 1 12.39-75.45L39.2 27.33a6.14 6.14 0 0 1 11.72 0l22.25 79.16a236 236 0 0 1 11.93 74.05" stroke="url(#j)"/><path d="M4 180.54v-1.37a236 236 0 0 1 12.39-75.45L38.2 27.33a6.14 6.14 0 0 1 11.72 0l22.25 79.16a236 236 0 0 1 11.93 74.05" stroke="url(#k)"/><path d="M3 180.54v-1.37a236 236 0 0 1 12.39-75.45L37.2 27.33a6.14 6.14 0 0 1 11.72 0l22.25 79.16a236 236 0 0 1 11.93 74.05" stroke="url(#l)"/></g><g fill="none" stroke-miterlimit="10" stroke-width="10.8"><circle cx="28.92" cy="32" r="11.25" stroke="url(#m)"/><circle cx="65.92" cy="32" r="11.25" stroke="url(#n)"/></g></svg>