<svg data-name="Layer 2" xmlns="http://www.w3.org/2000/svg" xmlns:xlink="http://www.w3.org/1999/xlink" width="178.67" height="200" viewBox="0 0 178.67 200"><defs><linearGradient id="a" data-name="Red, Purple, Blue" x1="-1397.77" y1="600.17" x2="-1481.8" y2="600.17" gradientTransform="rotate(180 -652.485 350.5)" gradientUnits="userSpaceOnUse"><stop offset="0" stop-color="#b7151b"/><stop offset=".02" stop-color="#c52229"/><stop offset=".06" stop-color="#d7333c"/><stop offset=".11" stop-color="#e23d47"/><stop offset=".15" stop-color="#e6404b"/><stop offset=".3" stop-color="#e98a7b"/><stop offset=".47" stop-color="#7c78b8"/><stop offset=".64" stop-color="#00b0b0"/><stop offset=".79" stop-color="#7b76b6"/><stop offset="1" stop-color="#e7322f"/></linearGradient><linearGradient id="b" x1="-1396.77" y1="600.17" x2="-1480.8" y2="600.17" xlink:href="#a"/><linearGradient id="c" x1="-1395.77" y1="600.17" x2="-1479.8" y2="600.17" xlink:href="#a"/><linearGradient id="d" x1="-1394.77" y1="600.17" x2="-1478.8" y2="600.17" xlink:href="#a"/><linearGradient id="e" x1="-1393.77" y1="600.17" x2="-1477.8" y2="600.17" xlink:href="#a"/><linearGradient id="f" x1="-1392.77" y1="600.17" x2="-1476.8" y2="600.17" xlink:href="#a"/><linearGradient id="g" x1="-1391.77" y1="600.17" x2="-1475.8" y2="600.17" xlink:href="#a"/><linearGradient id="h" x1="-1390.77" y1="600.17" x2="-1474.8" y2="600.17" xlink:href="#a"/><linearGradient id="i" x1="-1389.77" y1="600.17" x2="-1473.8" y2="600.17" xlink:href="#a"/><linearGradient id="j" x1="-1388.77" y1="600.17" x2="-1472.8" y2="600.17" xlink:href="#a"/><linearGradient id="k" x1="-1387.77" y1="600.17" x2="-1471.8" y2="600.17" xlink:href="#a"/><linearGradient id="l" data-name="Orange, Yellow" x1="10.67" y1="135.83" x2="154.9" y2="135.83" gradientUnits="userSpaceOnUse"><stop offset="0" stop-color="#fff33b"/><stop offset=".04" stop-color="#fee72e"/><stop offset=".12" stop-color="#fed51b"/><stop offset=".2" stop-color="#fdca10"/><stop offset=".28" stop-color="#fdc70c"/><stop offset=".67" stop-color="#f3903f"/><stop offset=".89" stop-color="#ed683c"/><stop offset="1" stop-color="#e93e3a"/></linearGradient><linearGradient id="m" x1="10.31" y1="101.1" x2="93.98" y2="101.1" xlink:href="#a"/><linearGradient id="n" x1="9.31" y1="101.1" x2="92.98" y2="101.1" xlink:href="#a"/><linearGradient id="o" x1="8.31" y1="101.1" x2="91.98" y2="101.1" xlink:href="#a"/><linearGradient id="p" x1="7.31" y1="101.1" x2="90.98" y2="101.1" xlink:href="#a"/><linearGradient id="q" x1="6.31" y1="101.1" x2="89.98" y2="101.1" xlink:href="#a"/><linearGradient id="r" x1="5.31" y1="101.1" x2="88.98" y2="101.1" xlink:href="#a"/><linearGradient id="s" x1="4.31" y1="101.1" x2="87.98" y2="101.1" xlink:href="#a"/><linearGradient id="t" x1="3.31" y1="101.1" x2="86.98" y2="101.1" xlink:href="#a"/><linearGradient id="u" x1="2.31" y1="101.1" x2="85.98" y2="101.1" xlink:href="#a"/><linearGradient id="v" x1="1.31" y1="101.1" x2="84.98" y2="101.1" xlink:href="#a"/><linearGradient id="w" x1=".31" y1="101.1" x2="83.98" y2="101.1" xlink:href="#a"/></defs><title>_</title><g fill="none" stroke-miterlimit="10" stroke-width="3.6"><path stroke="url(#a)" d="M176.84 23H95.18l-.57 155.66h82.01"/><path stroke="url(#b)" d="M175.84 23H94.18l-.57 155.66h82.01"/><path stroke="url(#c)" d="M174.84 23H93.18l-.57 155.66h82.01"/><path stroke="url(#d)" d="M173.84 23H92.18l-.57 155.66h82.01"/><path stroke="url(#e)" d="M172.84 23H91.18l-.57 155.66h82.01"/><path stroke="url(#f)" d="M171.84 23H90.18l-.57 155.66h82.01"/><path stroke="url(#g)" d="M170.84 23H89.18l-.57 155.66h82.01"/><path stroke="url(#h)" d="M169.84 23H88.18l-.57 155.66h82.01"/><path stroke="url(#i)" d="M168.84 23H87.18l-.57 155.66h82.01"/><path stroke="url(#j)" d="M167.84 23H86.18l-.57 155.66h82.01"/><path stroke="url(#k)" d="M166.84 23H85.18l-.57 155.66h82.01"/></g><path fill="none" stroke-miterlimit="10" stroke-width="10.8" stroke="url(#l)" d="M10.67 135.83H154.9"/><g fill="none" stroke-miterlimit="10" stroke-width="3.6"><path d="M12.11 180.54v-1.37a236 236 0 0 1 12.39-75.44l21.79-76.4a6.14 6.14 0 0 1 11.72 0l22.25 79.16a236 236 0 0 1 11.92 74.05" stroke="url(#m)"/><path d="M11.11 180.54v-1.37a236 236 0 0 1 12.39-75.44l21.79-76.4a6.14 6.14 0 0 1 11.72 0l22.25 79.16a236 236 0 0 1 11.92 74.05" stroke="url(#n)"/><path d="M10.11 180.54v-1.37a236 236 0 0 1 12.39-75.44l21.79-76.4a6.14 6.14 0 0 1 11.72 0l22.25 79.16a236 236 0 0 1 11.92 74.05" stroke="url(#o)"/><path d="M9.11 180.54v-1.37a236 236 0 0 1 12.39-75.44l21.79-76.4a6.14 6.14 0 0 1 11.72 0l22.25 79.16a236 236 0 0 1 11.92 74.05" stroke="url(#p)"/><path d="M8.11 180.54v-1.37a236 236 0 0 1 12.39-75.44l21.79-76.4a6.14 6.14 0 0 1 11.72 0l22.25 79.16a236 236 0 0 1 11.92 74.05" stroke="url(#q)"/><path d="M7.11 180.54v-1.37a236 236 0 0 1 12.39-75.44l21.79-76.4a6.14 6.14 0 0 1 11.72 0l22.25 79.16a236 236 0 0 1 11.92 74.05" stroke="url(#r)"/><path d="M6.11 180.54v-1.37a236 236 0 0 1 12.39-75.44l21.79-76.4a6.14 6.14 0 0 1 11.72 0l22.25 79.16a236 236 0 0 1 11.92 74.05" stroke="url(#s)"/><path d="M5.11 180.54v-1.37a236 236 0 0 1 12.39-75.44l21.79-76.4a6.14 6.14 0 0 1 11.72 0l22.25 79.16a236 236 0 0 1 11.92 74.05" stroke="url(#t)"/><path d="M4.11 180.54v-1.37a236 236 0 0 1 12.39-75.44l21.79-76.4a6.14 6.14 0 0 1 11.72 0l22.25 79.16a236 236 0 0 1 11.92 74.05" stroke="url(#u)"/><path d="M3.11 180.54v-1.37a236 236 0 0 1 12.39-75.44l21.79-76.4a6.14 6.14 0 0 1 11.72 0l22.25 79.16a236 236 0 0 1 11.92 74.05" stroke="url(#v)"/><path d="M2.11 180.54v-1.37a236 236 0 0 1 12.39-75.44l21.79-76.4a6.14 6.14 0 0 1 11.72 0l22.25 79.16a236 236 0 0 1 11.92 74.05" stroke="url(#w)"/></g></svg>