<svg data-name="Layer 2" xmlns="http://www.w3.org/2000/svg" xmlns:xlink="http://www.w3.org/1999/xlink" width="94.67" height="200" viewBox="0 0 94.67 200"><defs><linearGradient id="a" data-name="Red, Purple, Blue" x1="10.83" y1="101.5" x2="94.2" y2="101.5" gradientUnits="userSpaceOnUse"><stop offset="0" stop-color="#b7151b"/><stop offset=".02" stop-color="#c52229"/><stop offset=".06" stop-color="#d7333c"/><stop offset=".11" stop-color="#e23d47"/><stop offset=".15" stop-color="#e6404b"/><stop offset=".3" stop-color="#e98a7b"/><stop offset=".47" stop-color="#7c78b8"/><stop offset=".64" stop-color="#00b0b0"/><stop offset=".79" stop-color="#7b76b6"/><stop offset="1" stop-color="#e7322f"/></linearGradient><linearGradient id="b" x1="9.83" y1="101.5" x2="93.2" y2="101.5" xlink:href="#a"/><linearGradient id="c" x1="8.83" y1="101.5" x2="92.2" y2="101.5" xlink:href="#a"/><linearGradient id="d" x1="7.83" y1="101.5" x2="91.2" y2="101.5" xlink:href="#a"/><linearGradient id="e" x1="6.83" y1="101.5" x2="90.2" y2="101.5" xlink:href="#a"/><linearGradient id="f" x1="5.83" y1="101.5" x2="89.2" y2="101.5" xlink:href="#a"/><linearGradient id="g" x1="4.83" y1="101.5" x2="88.2" y2="101.5" xlink:href="#a"/><linearGradient id="h" x1="3.83" y1="101.5" x2="87.2" y2="101.5" xlink:href="#a"/><linearGradient id="i" x1="2.83" y1="101.5" x2="86.2" y2="101.5" xlink:href="#a"/><linearGradient id="j" x1="1.83" y1="101.5" x2="85.2" y2="101.5" xlink:href="#a"/><linearGradient id="k" x1=".83" y1="101.5" x2="84.2" y2="101.5" xlink:href="#a"/><linearGradient id="l" data-name="Orange, Yellow" x1="45.82" y1="193.31" x2="68.4" y2="193.31" gradientUnits="userSpaceOnUse"><stop offset="0" stop-color="#fff33b"/><stop offset=".04" stop-color="#fee72e"/><stop offset=".12" stop-color="#fed51b"/><stop offset=".2" stop-color="#fdca10"/><stop offset=".28" stop-color="#fdc70c"/><stop offset=".67" stop-color="#f3903f"/><stop offset=".89" stop-color="#ed683c"/><stop offset="1" stop-color="#e93e3a"/></linearGradient></defs><title>_</title><g fill="none" stroke-miterlimit="10" stroke-width="3.6"><path d="M94.2 23.67H57.66c-24.87 0-45 33-45 77.33s20.16 78.33 45 78.33h36" stroke="url(#a)"/><path d="M93.2 23.67H56.66c-24.87 0-45 33-45 77.33s20.16 78.33 45 78.33h36" stroke="url(#b)"/><path d="M92.2 23.67H55.66c-24.87 0-45 33-45 77.33s20.16 78.33 45 78.33h36" stroke="url(#c)"/><path d="M91.2 23.67H54.66c-24.87 0-45 33-45 77.33s20.16 78.33 45 78.33h36" stroke="url(#d)"/><path d="M90.2 23.67H53.66c-24.87 0-45 33-45 77.33s20.16 78.33 45 78.33h36" stroke="url(#e)"/><path d="M89.2 23.67H52.66c-24.87 0-45 33-45 77.33s20.16 78.33 45 78.33h36" stroke="url(#f)"/><path d="M88.2 23.67H51.66c-24.87 0-45 33-45 77.33s20.16 78.33 45 78.33h36" stroke="url(#g)"/><path d="M87.2 23.67H50.66c-24.87 0-45 33-45 77.33s20.16 78.33 45 78.33h36" stroke="url(#h)"/><path d="M86.2 23.67H49.66c-24.87 0-45 33-45 77.33s20.16 78.33 45 78.33h36" stroke="url(#i)"/><path d="M85.2 23.67H48.66c-24.87 0-45 33-45 77.33s20.16 78.33 45 78.33h36" stroke="url(#j)"/><path d="M84.2 23.67H47.66c-24.87 0-45 33-45 77.33s20.16 78.33 45 78.33h36" stroke="url(#k)"/></g><path d="M64.2 174.34l-10.5 13a14 14 0 0 1 2 21.46l-3 3" fill="none" stroke-miterlimit="10" stroke-width="10.8" stroke="url(#l)"/></svg>