<svg data-name="Layer 2" xmlns="http://www.w3.org/2000/svg" xmlns:xlink="http://www.w3.org/1999/xlink" width="94.67" height="200" viewBox="0 0 94.67 200"><defs><linearGradient id="a" data-name="Red, Purple, Blue" x1="2166.89" y1="100.5" x2="2082.85" y2="100.5" gradientTransform="rotate(180 1088.85 100.5)" gradientUnits="userSpaceOnUse"><stop offset="0" stop-color="#b7151b"/><stop offset=".02" stop-color="#c52229"/><stop offset=".06" stop-color="#d7333c"/><stop offset=".11" stop-color="#e23d47"/><stop offset=".15" stop-color="#e6404b"/><stop offset=".3" stop-color="#e98a7b"/><stop offset=".47" stop-color="#7c78b8"/><stop offset=".64" stop-color="#00b0b0"/><stop offset=".79" stop-color="#7b76b6"/><stop offset="1" stop-color="#e7322f"/></linearGradient><linearGradient id="c" x1="2167.89" y1="100.5" x2="2083.85" y2="100.5" xlink:href="#a"/><linearGradient id="d" x1="2168.89" y1="100.5" x2="2084.85" y2="100.5" xlink:href="#a"/><linearGradient id="e" x1="2169.89" y1="100.5" x2="2085.85" y2="100.5" xlink:href="#a"/><linearGradient id="f" x1="2170.89" y1="100.5" x2="2086.85" y2="100.5" xlink:href="#a"/><linearGradient id="g" x1="2171.89" y1="100.5" x2="2087.85" y2="100.5" xlink:href="#a"/><linearGradient id="h" x1="2172.89" y1="100.5" x2="2088.85" y2="100.5" xlink:href="#a"/><linearGradient id="i" x1="2173.89" y1="100.5" x2="2089.85" y2="100.5" xlink:href="#a"/><linearGradient id="j" x1="2174.89" y1="100.5" x2="2090.85" y2="100.5" xlink:href="#a"/><linearGradient id="k" x1="2175.89" y1="100.5" x2="2091.85" y2="100.5" xlink:href="#a"/><linearGradient id="l" x1="2176.89" y1="100.5" x2="2092.85" y2="100.5" xlink:href="#a"/><linearGradient id="b" data-name="Orange, Yellow" x1=".93" y1="135.5" x2="72.91" y2="135.5" gradientUnits="userSpaceOnUse"><stop offset="0" stop-color="#fff33b"/><stop offset=".04" stop-color="#fee72e"/><stop offset=".12" stop-color="#fed51b"/><stop offset=".2" stop-color="#fdca10"/><stop offset=".28" stop-color="#fdc70c"/><stop offset=".67" stop-color="#f3903f"/><stop offset=".89" stop-color="#ed683c"/><stop offset="1" stop-color="#e93e3a"/></linearGradient><linearGradient id="m" x1="-583.39" y1="-82.99" x2="-549.65" y2="-82.99" gradientTransform="rotate(-74.08 -183.939 -440.49)" xlink:href="#b"/></defs><title>_</title><g fill="none" stroke-miterlimit="10" stroke-width="3.6"><path stroke="url(#a)" d="M94.85 22.67H13.19l-.57 155.66h82.01"/><path stroke="url(#c)" d="M93.85 22.67H12.19l-.57 155.66h82.01"/><path stroke="url(#d)" d="M92.85 22.67H11.19l-.57 155.66h82.01"/><path stroke="url(#e)" d="M91.85 22.67H10.19l-.57 155.66h82.01"/><path stroke="url(#f)" d="M90.85 22.67H9.19l-.57 155.66h82.01"/><path stroke="url(#g)" d="M89.85 22.67H8.19l-.57 155.66h82.01"/><path stroke="url(#h)" d="M88.85 22.67H7.19l-.57 155.66h82.01"/><path stroke="url(#i)" d="M87.85 22.67H6.19l-.57 155.66h82.01"/><path stroke="url(#j)" d="M86.85 22.67H5.19l-.57 155.66h82.01"/><path stroke="url(#k)" d="M85.85 22.67H4.19l-.57 155.66h82.01"/><path stroke="url(#l)" d="M84.85 22.67H3.19l-.57 155.66h82.01"/></g><path fill="none" stroke-miterlimit="10" stroke-width="10.8" stroke="url(#b)" d="M.93 135.5h71.98"/><path fill="none" stroke-miterlimit="10" stroke-width="10.8" stroke="url(#m)" d="M45.76 38.59L64 12.33"/></svg>