<svg data-name="Layer 2" xmlns="http://www.w3.org/2000/svg" xmlns:xlink="http://www.w3.org/1999/xlink" width="93.33" height="200" viewBox="0 0 93.33 200"><defs><linearGradient id="a" data-name="Red, Purple, Blue" x1="1165.55" y1="100.5" x2="1081.52" y2="100.5" gradientTransform="rotate(180 587.515 100.5)" gradientUnits="userSpaceOnUse"><stop offset="0" stop-color="#b7151b"/><stop offset=".02" stop-color="#c52229"/><stop offset=".06" stop-color="#d7333c"/><stop offset=".11" stop-color="#e23d47"/><stop offset=".15" stop-color="#e6404b"/><stop offset=".3" stop-color="#e98a7b"/><stop offset=".47" stop-color="#7c78b8"/><stop offset=".64" stop-color="#00b0b0"/><stop offset=".79" stop-color="#7b76b6"/><stop offset="1" stop-color="#e7322f"/></linearGradient><linearGradient id="c" x1="1166.55" y1="100.5" x2="1082.52" y2="100.5" xlink:href="#a"/><linearGradient id="d" x1="1167.55" y1="100.5" x2="1083.52" y2="100.5" xlink:href="#a"/><linearGradient id="e" x1="1168.55" y1="100.5" x2="1084.52" y2="100.5" xlink:href="#a"/><linearGradient id="f" x1="1169.55" y1="100.5" x2="1085.52" y2="100.5" xlink:href="#a"/><linearGradient id="g" x1="1170.55" y1="100.5" x2="1086.52" y2="100.5" xlink:href="#a"/><linearGradient id="h" x1="1171.55" y1="100.5" x2="1087.52" y2="100.5" xlink:href="#a"/><linearGradient id="i" x1="1172.55" y1="100.5" x2="1088.52" y2="100.5" xlink:href="#a"/><linearGradient id="j" x1="1173.55" y1="100.5" x2="1089.52" y2="100.5" xlink:href="#a"/><linearGradient id="k" x1="1174.55" y1="100.5" x2="1090.52" y2="100.5" xlink:href="#a"/><linearGradient id="l" x1="1175.55" y1="100.5" x2="1091.52" y2="100.5" xlink:href="#a"/><linearGradient id="b" data-name="Orange, Yellow" x1="-.41" y1="135.5" x2="71.58" y2="135.5" gradientUnits="userSpaceOnUse"><stop offset="0" stop-color="#fff33b"/><stop offset=".04" stop-color="#fee72e"/><stop offset=".12" stop-color="#fed51b"/><stop offset=".2" stop-color="#fdca10"/><stop offset=".28" stop-color="#fdc70c"/><stop offset=".67" stop-color="#f3903f"/><stop offset=".89" stop-color="#ed683c"/><stop offset="1" stop-color="#e93e3a"/></linearGradient><linearGradient id="m" x1="13.69" y1="21.75" x2="46.99" y2="21.75" xlink:href="#b"/><linearGradient id="n" x1="50.69" y1="21.75" x2="83.99" y2="21.75" xlink:href="#b"/></defs><title>_</title><g fill="none" stroke-miterlimit="10" stroke-width="3.6"><path stroke="url(#a)" d="M93.51 22.67H11.86l-.57 155.66h82"/><path stroke="url(#c)" d="M92.51 22.67H10.86l-.57 155.66h82"/><path stroke="url(#d)" d="M91.51 22.67H9.86l-.57 155.66h82"/><path stroke="url(#e)" d="M90.51 22.67H8.86l-.57 155.66h82"/><path stroke="url(#f)" d="M89.51 22.67H7.86l-.57 155.66h82"/><path stroke="url(#g)" d="M88.51 22.67H6.86l-.57 155.66h82"/><path stroke="url(#h)" d="M87.51 22.67H5.86l-.57 155.66h82"/><path stroke="url(#i)" d="M86.51 22.67H4.86l-.57 155.66h82"/><path stroke="url(#j)" d="M85.51 22.67H3.86l-.57 155.66h82"/><path stroke="url(#k)" d="M84.51 22.67H2.86l-.57 155.66h82"/><path stroke="url(#l)" d="M83.51 22.67H1.86l-.57 155.66h82"/></g><path fill="none" stroke-miterlimit="10" stroke-width="10.8" stroke="url(#b)" d="M-.41 135.5h71.99"/><g fill="none" stroke-miterlimit="10" stroke-width="10.8"><circle cx="30.34" cy="21.75" r="11.25" stroke="url(#m)"/><circle cx="67.34" cy="21.75" r="11.25" stroke="url(#n)"/></g></svg>