<svg data-name="Layer 2" xmlns="http://www.w3.org/2000/svg" xmlns:xlink="http://www.w3.org/1999/xlink" width="94" height="200" viewBox="0 0 94 200"><defs><linearGradient id="a" data-name="Red, Purple, Blue" x1="164.89" y1="100.5" x2="80.85" y2="100.5" gradientTransform="rotate(180 87.515 100.5)" gradientUnits="userSpaceOnUse"><stop offset="0" stop-color="#b7151b"/><stop offset=".02" stop-color="#c52229"/><stop offset=".06" stop-color="#d7333c"/><stop offset=".11" stop-color="#e23d47"/><stop offset=".15" stop-color="#e6404b"/><stop offset=".3" stop-color="#e98a7b"/><stop offset=".47" stop-color="#7c78b8"/><stop offset=".64" stop-color="#00b0b0"/><stop offset=".79" stop-color="#7b76b6"/><stop offset="1" stop-color="#e7322f"/></linearGradient><linearGradient id="c" x1="165.89" y1="100.5" x2="81.85" y2="100.5" xlink:href="#a"/><linearGradient id="d" x1="166.89" y1="100.5" x2="82.85" y2="100.5" xlink:href="#a"/><linearGradient id="e" x1="167.89" y1="100.5" x2="83.85" y2="100.5" xlink:href="#a"/><linearGradient id="f" x1="168.89" y1="100.5" x2="84.85" y2="100.5" xlink:href="#a"/><linearGradient id="g" x1="169.89" y1="100.5" x2="85.85" y2="100.5" xlink:href="#a"/><linearGradient id="h" x1="170.89" y1="100.5" x2="86.85" y2="100.5" xlink:href="#a"/><linearGradient id="i" x1="171.89" y1="100.5" x2="87.85" y2="100.5" xlink:href="#a"/><linearGradient id="j" x1="172.89" y1="100.5" x2="88.85" y2="100.5" xlink:href="#a"/><linearGradient id="k" x1="173.89" y1="100.5" x2="89.85" y2="100.5" xlink:href="#a"/><linearGradient id="l" x1="174.89" y1="100.5" x2="90.85" y2="100.5" xlink:href="#a"/><linearGradient id="b" data-name="Orange, Yellow" x1=".26" y1="135.5" x2="72.25" y2="135.5" gradientUnits="userSpaceOnUse"><stop offset="0" stop-color="#fff33b"/><stop offset=".04" stop-color="#fee72e"/><stop offset=".12" stop-color="#fed51b"/><stop offset=".2" stop-color="#fdca10"/><stop offset=".28" stop-color="#fdc70c"/><stop offset=".67" stop-color="#f3903f"/><stop offset=".89" stop-color="#ed683c"/><stop offset="1" stop-color="#e93e3a"/></linearGradient><linearGradient id="m" x1="-1308.28" y1="878.73" x2="-1274.53" y2="878.73" gradientTransform="rotate(-74.08 -1185.246 -440.515)" xlink:href="#b"/></defs><title>_</title><g fill="none" stroke-miterlimit="10" stroke-width="3.6"><path stroke="url(#a)" d="M94.18 22.67H12.52l-.57 155.66h82.01"/><path stroke="url(#c)" d="M93.18 22.67H11.52l-.57 155.66h82.01"/><path stroke="url(#d)" d="M92.18 22.67H10.52l-.57 155.66h82.01"/><path stroke="url(#e)" d="M91.18 22.67H9.52l-.57 155.66h82.01"/><path stroke="url(#f)" d="M90.18 22.67H8.52l-.57 155.66h82.01"/><path stroke="url(#g)" d="M89.18 22.67H7.52l-.57 155.66h82.01"/><path stroke="url(#h)" d="M88.18 22.67H6.52l-.57 155.66h82.01"/><path stroke="url(#i)" d="M87.18 22.67H5.52l-.57 155.66h82.01"/><path stroke="url(#j)" d="M86.18 22.67H4.52l-.57 155.66h82.01"/><path stroke="url(#k)" d="M85.18 22.67H3.52l-.57 155.66h82.01"/><path stroke="url(#l)" d="M84.18 22.67H2.52l-.57 155.66h82.01"/></g><path fill="none" stroke-miterlimit="10" stroke-width="10.8" stroke="url(#b)" d="M.26 135.5h71.99"/><path fill="none" stroke-miterlimit="10" stroke-width="10.8" stroke="url(#m)" d="M45.1 36.59l18.23-26.26"/></svg>