<svg data-name="Layer 2" xmlns="http://www.w3.org/2000/svg" xmlns:xlink="http://www.w3.org/1999/xlink" width="94.67" height="200" viewBox="0 0 94.67 200"><defs><linearGradient id="a" data-name="Red, Purple, Blue" x1="749.09" y1="945.85" x2="908.33" y2="945.85" gradientTransform="rotate(90 863.165 134.835)" gradientUnits="userSpaceOnUse"><stop offset="0" stop-color="#b7151b"/><stop offset=".02" stop-color="#c52229"/><stop offset=".06" stop-color="#d7333c"/><stop offset=".11" stop-color="#e23d47"/><stop offset=".15" stop-color="#e6404b"/><stop offset=".3" stop-color="#e98a7b"/><stop offset=".47" stop-color="#7c78b8"/><stop offset=".64" stop-color="#00b0b0"/><stop offset=".79" stop-color="#7b76b6"/><stop offset="1" stop-color="#e7322f"/></linearGradient><linearGradient id="c" x1="749.09" y1="946.85" x2="908.33" y2="946.85" xlink:href="#a"/><linearGradient id="d" x1="749.09" y1="947.85" x2="908.33" y2="947.85" xlink:href="#a"/><linearGradient id="e" x1="749.09" y1="948.85" x2="908.33" y2="948.85" xlink:href="#a"/><linearGradient id="f" x1="749.09" y1="949.85" x2="908.33" y2="949.85" xlink:href="#a"/><linearGradient id="g" x1="749.09" y1="950.85" x2="908.33" y2="950.85" xlink:href="#a"/><linearGradient id="h" x1="749.09" y1="951.85" x2="908.33" y2="951.85" xlink:href="#a"/><linearGradient id="i" x1="749.09" y1="952.85" x2="908.33" y2="952.85" xlink:href="#a"/><linearGradient id="j" x1="749.09" y1="953.85" x2="908.33" y2="953.85" xlink:href="#a"/><linearGradient id="k" x1="749.09" y1="954.85" x2="908.33" y2="954.85" xlink:href="#a"/><linearGradient id="l" x1="749.09" y1="955.85" x2="908.33" y2="955.85" xlink:href="#a"/><linearGradient id="b" data-name="Orange, Yellow" x1=".07" y1="26" x2="94.24" y2="26" gradientUnits="userSpaceOnUse"><stop offset="0" stop-color="#fff33b"/><stop offset=".04" stop-color="#fee72e"/><stop offset=".12" stop-color="#fed51b"/><stop offset=".2" stop-color="#fdca10"/><stop offset=".28" stop-color="#fdc70c"/><stop offset=".67" stop-color="#f3903f"/><stop offset=".89" stop-color="#ed683c"/><stop offset="1" stop-color="#e93e3a"/></linearGradient><linearGradient id="m" x1=".07" y1="175.5" x2="94.24" y2="175.5" xlink:href="#b"/><linearGradient id="n" x1="73.63" y1="18.87" x2="30.38" y2="18.87" xlink:href="#a"/><linearGradient id="o" x1="72.63" y1="18.87" x2="29.38" y2="18.87" xlink:href="#a"/><linearGradient id="p" x1="71.63" y1="18.87" x2="28.38" y2="18.87" xlink:href="#a"/><linearGradient id="q" x1="70.63" y1="18.87" x2="27.38" y2="18.87" xlink:href="#a"/><linearGradient id="r" x1="69.63" y1="18.87" x2="26.38" y2="18.87" xlink:href="#a"/><linearGradient id="s" x1="68.63" y1="18.87" x2="25.38" y2="18.87" xlink:href="#a"/><linearGradient id="t" x1="67.63" y1="18.87" x2="24.38" y2="18.87" xlink:href="#a"/><linearGradient id="u" x1="66.63" y1="18.87" x2="23.38" y2="18.87" xlink:href="#a"/><linearGradient id="v" x1="65.63" y1="18.87" x2="22.38" y2="18.87" xlink:href="#a"/><linearGradient id="w" x1="64.63" y1="18.87" x2="21.38" y2="18.87" xlink:href="#a"/><linearGradient id="x" x1="63.63" y1="18.87" x2="20.38" y2="18.87" xlink:href="#a"/></defs><title>_</title><g fill="none" stroke-miterlimit="10" stroke-width="3.6"><path stroke="url(#a)" d="M52.16 20.75V180"/><path stroke="url(#c)" d="M51.16 20.75V180"/><path stroke="url(#d)" d="M50.16 20.75V180"/><path stroke="url(#e)" d="M49.16 20.75V180"/><path stroke="url(#f)" d="M48.16 20.75V180"/><path stroke="url(#g)" d="M47.16 20.75V180"/><path stroke="url(#h)" d="M46.16 20.75V180"/><path stroke="url(#i)" d="M45.16 20.75V180"/><path stroke="url(#j)" d="M44.16 20.75V180"/><path stroke="url(#k)" d="M43.16 20.75V180"/><path stroke="url(#l)" d="M42.16 20.75V180"/></g><path fill="none" stroke-miterlimit="10" stroke-width="10.8" stroke="url(#b)" d="M.07 26h94.17"/><path fill="none" stroke-miterlimit="10" stroke-width="10.8" stroke="url(#m)" d="M.07 175.5h94.17"/><g fill="none" stroke-miterlimit="10" stroke-width="3.6"><path d="M32 35L45.93 7.12a7.22 7.22 0 0 1 13 .21L72 35.66" stroke="url(#n)"/><path d="M31 35L44.93 7.12a7.22 7.22 0 0 1 13 .21L71 35.66" stroke="url(#o)"/><path d="M30 35L43.93 7.12a7.22 7.22 0 0 1 13 .21L70 35.66" stroke="url(#p)"/><path d="M29 35L42.93 7.12a7.22 7.22 0 0 1 13 .21L69 35.66" stroke="url(#q)"/><path d="M28 35L41.93 7.12a7.22 7.22 0 0 1 13 .21L68 35.66" stroke="url(#r)"/><path d="M27 35L40.93 7.12a7.22 7.22 0 0 1 13 .21L67 35.66" stroke="url(#s)"/><path d="M26 35L39.93 7.12a7.22 7.22 0 0 1 13 .21L66 35.66" stroke="url(#t)"/><path d="M25 35L38.93 7.12a7.22 7.22 0 0 1 13 .21L65 35.66" stroke="url(#u)"/><path d="M24 35L37.93 7.12a7.22 7.22 0 0 1 13 .21L64 35.66" stroke="url(#v)"/><path d="M23 35L36.93 7.12a7.22 7.22 0 0 1 13 .21L63 35.66" stroke="url(#w)"/><path d="M22 35L35.93 7.12a7.22 7.22 0 0 1 13 .21L62 35.66" stroke="url(#x)"/></g></svg>