<svg data-name="Layer 2" xmlns="http://www.w3.org/2000/svg" xmlns:xlink="http://www.w3.org/1999/xlink" width="94" height="200" viewBox="0 0 94 200"><defs><linearGradient id="a" data-name="Red, Purple, Blue" x1="497.76" y1="695.85" x2="657" y2="695.85" gradientTransform="rotate(90 612.5 135.5)" gradientUnits="userSpaceOnUse"><stop offset="0" stop-color="#b7151b"/><stop offset=".02" stop-color="#c52229"/><stop offset=".06" stop-color="#d7333c"/><stop offset=".11" stop-color="#e23d47"/><stop offset=".15" stop-color="#e6404b"/><stop offset=".3" stop-color="#e98a7b"/><stop offset=".47" stop-color="#7c78b8"/><stop offset=".64" stop-color="#00b0b0"/><stop offset=".79" stop-color="#7b76b6"/><stop offset="1" stop-color="#e7322f"/></linearGradient><linearGradient id="c" x1="497.76" y1="696.85" x2="657" y2="696.85" xlink:href="#a"/><linearGradient id="d" x1="497.76" y1="697.85" x2="657" y2="697.85" xlink:href="#a"/><linearGradient id="e" x1="497.76" y1="698.85" x2="657" y2="698.85" xlink:href="#a"/><linearGradient id="f" x1="497.76" y1="699.85" x2="657" y2="699.85" xlink:href="#a"/><linearGradient id="g" x1="497.76" y1="700.85" x2="657" y2="700.85" xlink:href="#a"/><linearGradient id="h" x1="497.76" y1="701.85" x2="657" y2="701.85" xlink:href="#a"/><linearGradient id="i" x1="497.76" y1="702.85" x2="657" y2="702.85" xlink:href="#a"/><linearGradient id="j" x1="497.76" y1="703.85" x2="657" y2="703.85" xlink:href="#a"/><linearGradient id="k" x1="497.76" y1="704.85" x2="657" y2="704.85" xlink:href="#a"/><linearGradient id="l" x1="497.76" y1="705.85" x2="657" y2="705.85" xlink:href="#a"/><linearGradient id="b" data-name="Orange, Yellow" x1=".07" y1="26" x2="94.24" y2="26" gradientUnits="userSpaceOnUse"><stop offset="0" stop-color="#fff33b"/><stop offset=".04" stop-color="#fee72e"/><stop offset=".12" stop-color="#fed51b"/><stop offset=".2" stop-color="#fdca10"/><stop offset=".28" stop-color="#fdc70c"/><stop offset=".67" stop-color="#f3903f"/><stop offset=".89" stop-color="#ed683c"/><stop offset="1" stop-color="#e93e3a"/></linearGradient><linearGradient id="m" x1=".07" y1="175.5" x2="94.24" y2="175.5" xlink:href="#b"/><linearGradient id="n" x1="11.02" y1="19.42" x2="44.32" y2="19.42" xlink:href="#b"/><linearGradient id="o" x1="48.02" y1="19.42" x2="81.32" y2="19.42" xlink:href="#b"/></defs><title>_</title><g fill="none" stroke-miterlimit="10" stroke-width="3.6"><path stroke="url(#a)" d="M52.16 20.75V180"/><path stroke="url(#c)" d="M51.16 20.75V180"/><path stroke="url(#d)" d="M50.16 20.75V180"/><path stroke="url(#e)" d="M49.16 20.75V180"/><path stroke="url(#f)" d="M48.16 20.75V180"/><path stroke="url(#g)" d="M47.16 20.75V180"/><path stroke="url(#h)" d="M46.16 20.75V180"/><path stroke="url(#i)" d="M45.16 20.75V180"/><path stroke="url(#j)" d="M44.16 20.75V180"/><path stroke="url(#k)" d="M43.16 20.75V180"/><path stroke="url(#l)" d="M42.16 20.75V180"/></g><path fill="none" stroke-miterlimit="10" stroke-width="10.8" stroke="url(#b)" d="M.07 26h94.17"/><path fill="none" stroke-miterlimit="10" stroke-width="10.8" stroke="url(#m)" d="M.07 175.5h94.17"/><g fill="none" stroke-miterlimit="10" stroke-width="10.8"><circle cx="27.67" cy="19.42" r="11.25" stroke="url(#n)"/><circle cx="64.67" cy="19.42" r="11.25" stroke="url(#o)"/></g></svg>