<svg data-name="Layer 2" xmlns="http://www.w3.org/2000/svg" xmlns:xlink="http://www.w3.org/1999/xlink" width="108" height="200" viewBox="0 0 108 200"><defs><linearGradient id="a" data-name="Red, Purple, Blue" x1="-1321.11" y1="100.5" x2="-1405.04" y2="100.5" gradientTransform="rotate(180 -649.15 100.5)" gradientUnits="userSpaceOnUse"><stop offset="0" stop-color="#b7151b"/><stop offset=".02" stop-color="#c52229"/><stop offset=".06" stop-color="#d7333c"/><stop offset=".11" stop-color="#e23d47"/><stop offset=".15" stop-color="#e6404b"/><stop offset=".3" stop-color="#e98a7b"/><stop offset=".47" stop-color="#7c78b8"/><stop offset=".64" stop-color="#00b0b0"/><stop offset=".79" stop-color="#7b76b6"/><stop offset="1" stop-color="#e7322f"/></linearGradient><linearGradient id="b" x1="-1320.11" y1="100.5" x2="-1404.04" y2="100.5" xlink:href="#a"/><linearGradient id="c" x1="-1319.11" y1="100.5" x2="-1403.04" y2="100.5" xlink:href="#a"/><linearGradient id="d" x1="-1318.11" y1="100.5" x2="-1402.04" y2="100.5" xlink:href="#a"/><linearGradient id="e" x1="-1317.11" y1="100.5" x2="-1401.04" y2="100.5" xlink:href="#a"/><linearGradient id="f" x1="-1316.11" y1="100.5" x2="-1400.04" y2="100.5" xlink:href="#a"/><linearGradient id="g" x1="-1315.11" y1="100.5" x2="-1399.04" y2="100.5" xlink:href="#a"/><linearGradient id="h" x1="-1314.11" y1="100.5" x2="-1398.04" y2="100.5" xlink:href="#a"/><linearGradient id="i" x1="-1313.11" y1="100.5" x2="-1397.04" y2="100.5" xlink:href="#a"/><linearGradient id="j" x1="-1312.11" y1="100.5" x2="-1396.04" y2="100.5" xlink:href="#a"/><linearGradient id="k" x1="-1311.11" y1="100.5" x2="-1395.04" y2="100.5" xlink:href="#a"/><linearGradient id="l" data-name="Orange, Yellow" x1="3.99" y1="99.83" x2="49.99" y2="99.83" gradientUnits="userSpaceOnUse"><stop offset="0" stop-color="#fff33b"/><stop offset=".04" stop-color="#fee72e"/><stop offset=".12" stop-color="#fed51b"/><stop offset=".2" stop-color="#fdca10"/><stop offset=".28" stop-color="#fdc70c"/><stop offset=".67" stop-color="#f3903f"/><stop offset=".89" stop-color="#ed683c"/><stop offset="1" stop-color="#e93e3a"/></linearGradient></defs><title>_</title><g fill="none" stroke-miterlimit="10" stroke-width="3.6"><path d="M25.19 22.67h35.4c24.49 0 44.34 34 44.34 78.33s-19.85 77.33-44.34 77.33h-36z" stroke="url(#a)"/><path d="M24.19 22.67h35.4c24.49 0 44.34 34 44.34 78.33s-19.85 77.33-44.34 77.33h-36z" stroke="url(#b)"/><path d="M23.19 22.67h35.4c24.49 0 44.34 34 44.34 78.33s-19.85 77.33-44.34 77.33h-36z" stroke="url(#c)"/><path d="M22.19 22.67h35.4c24.49 0 44.34 34 44.34 78.33s-19.85 77.33-44.34 77.33h-36z" stroke="url(#d)"/><path d="M21.19 22.67h35.4c24.49 0 44.34 34 44.34 78.33s-19.85 77.33-44.34 77.33h-36z" stroke="url(#e)"/><path d="M20.19 22.67h35.4c24.49 0 44.34 34 44.34 78.33s-19.85 77.33-44.34 77.33h-36z" stroke="url(#f)"/><path d="M19.19 22.67h35.4c24.49 0 44.34 34 44.34 78.33s-19.85 77.33-44.34 77.33h-36z" stroke="url(#g)"/><path d="M18.19 22.67h35.4c24.49 0 44.34 34 44.34 78.33s-19.85 77.33-44.34 77.33h-36z" stroke="url(#h)"/><path d="M17.19 22.67h35.4c24.49 0 44.34 34 44.34 78.33s-19.85 77.33-44.34 77.33h-36z" stroke="url(#i)"/><path d="M16.19 22.67h35.4c24.49 0 44.34 34 44.34 78.33s-19.85 77.33-44.34 77.33h-36z" stroke="url(#j)"/><path d="M15.19 22.67h35.4c24.49 0 44.34 34 44.34 78.33s-19.85 77.33-44.34 77.33h-36z" stroke="url(#k)"/></g><path fill="none" stroke-miterlimit="10" stroke-width="10.8" stroke="url(#l)" d="M3.99 99.83h46"/></svg>