<svg data-name="Layer 2" xmlns="http://www.w3.org/2000/svg" xmlns:xlink="http://www.w3.org/1999/xlink" width="93.33" height="200" viewBox="0 0 93.33 200"><defs><linearGradient id="a" data-name="Red, Purple, Blue" x1="59.59" y1="220.16" x2="59.59" y2="137.06" gradientTransform="rotate(90 94.5 135.5)" gradientUnits="userSpaceOnUse"><stop offset="0" stop-color="#b7151b"/><stop offset=".02" stop-color="#c52229"/><stop offset=".06" stop-color="#d7333c"/><stop offset=".11" stop-color="#e23d47"/><stop offset=".15" stop-color="#e6404b"/><stop offset=".3" stop-color="#e98a7b"/><stop offset=".47" stop-color="#7c78b8"/><stop offset=".64" stop-color="#00b0b0"/><stop offset=".79" stop-color="#7b76b6"/><stop offset="1" stop-color="#e7322f"/></linearGradient><linearGradient id="b" x1="59.59" y1="221.16" x2="59.59" y2="138.06" xlink:href="#a"/><linearGradient id="c" x1="59.59" y1="222.16" x2="59.59" y2="139.06" xlink:href="#a"/><linearGradient id="d" x1="59.59" y1="223.16" x2="59.59" y2="140.06" xlink:href="#a"/><linearGradient id="e" x1="59.59" y1="224.16" x2="59.59" y2="141.06" xlink:href="#a"/><linearGradient id="f" x1="59.59" y1="225.16" x2="59.59" y2="142.06" xlink:href="#a"/><linearGradient id="g" x1="59.59" y1="226.16" x2="59.59" y2="143.06" xlink:href="#a"/><linearGradient id="h" x1="59.59" y1="227.16" x2="59.59" y2="144.06" xlink:href="#a"/><linearGradient id="i" x1="59.59" y1="228.16" x2="59.59" y2="145.06" xlink:href="#a"/><linearGradient id="j" x1="59.59" y1="229.16" x2="59.59" y2="146.06" xlink:href="#a"/><linearGradient id="k" x1="59.59" y1="230.16" x2="59.59" y2="147.06" xlink:href="#a"/><linearGradient id="l" data-name="Orange, Yellow" x1="-277.36" y1="83.58" x2="-226.56" y2="83.58" gradientTransform="rotate(13.3 81.725 1383.4)" gradientUnits="userSpaceOnUse"><stop offset="0" stop-color="#fff33b"/><stop offset=".04" stop-color="#fee72e"/><stop offset=".12" stop-color="#fed51b"/><stop offset=".2" stop-color="#fdca10"/><stop offset=".28" stop-color="#fdc70c"/><stop offset=".67" stop-color="#f3903f"/><stop offset=".89" stop-color="#ed683c"/><stop offset="1" stop-color="#e93e3a"/></linearGradient></defs><title>_</title><g fill="none" stroke-miterlimit="10" stroke-width="3.6"><path d="M91.14 20.75v145.36a12.22 12.22 0 0 1-6.4 11c-7.34 4-16.5-.52-18.28-8.71L36.68 33.17C34.8 24.5 24.81 20 17.35 24.77a12.38 12.38 0 0 0-5.7 10.71V180" stroke="url(#a)"/><path d="M90.14 20.75v145.36a12.22 12.22 0 0 1-6.4 11c-7.34 4-16.5-.52-18.28-8.71L35.68 33.17C33.8 24.5 23.81 20 16.35 24.77a12.38 12.38 0 0 0-5.7 10.71V180" stroke="url(#b)"/><path d="M89.14 20.75v145.36a12.22 12.22 0 0 1-6.4 11c-7.34 4-16.5-.52-18.28-8.71L34.68 33.17C32.8 24.5 22.81 20 15.35 24.77a12.38 12.38 0 0 0-5.7 10.71V180" stroke="url(#c)"/><path d="M88.14 20.75v145.36a12.22 12.22 0 0 1-6.4 11c-7.34 4-16.5-.52-18.28-8.71L33.68 33.17C31.8 24.5 21.81 20 14.35 24.77a12.38 12.38 0 0 0-5.7 10.71V180" stroke="url(#d)"/><path d="M87.14 20.75v145.36a12.22 12.22 0 0 1-6.4 11c-7.34 4-16.5-.52-18.28-8.71L32.68 33.17C30.8 24.5 20.81 20 13.35 24.77a12.38 12.38 0 0 0-5.7 10.71V180" stroke="url(#e)"/><path d="M86.14 20.75v145.36a12.22 12.22 0 0 1-6.4 11c-7.34 4-16.5-.52-18.28-8.71L31.68 33.17C29.8 24.5 19.81 20 12.35 24.77a12.38 12.38 0 0 0-5.7 10.71V180" stroke="url(#f)"/><path d="M85.14 20.75v145.36a12.22 12.22 0 0 1-6.4 11c-7.34 4-16.5-.52-18.28-8.71L30.68 33.17C28.8 24.5 18.81 20 11.35 24.77a12.38 12.38 0 0 0-5.7 10.71V180" stroke="url(#g)"/><path d="M84.14 20.75v145.36a12.22 12.22 0 0 1-6.4 11c-7.34 4-16.5-.52-18.28-8.71L29.68 33.17C27.8 24.5 17.81 20 10.35 24.77a12.38 12.38 0 0 0-5.7 10.71V180" stroke="url(#h)"/><path d="M83.14 20.75v145.36a12.22 12.22 0 0 1-6.4 11c-7.34 4-16.5-.52-18.28-8.71L28.68 33.17C26.8 24.5 16.81 20 9.35 24.77a12.38 12.38 0 0 0-5.7 10.71V180" stroke="url(#i)"/><path d="M82.14 20.75v145.36a12.22 12.22 0 0 1-6.4 11c-7.34 4-16.5-.52-18.28-8.71L27.68 33.17C25.8 24.5 15.81 20 8.35 24.77a12.38 12.38 0 0 0-5.7 10.71V180" stroke="url(#j)"/><path d="M81.14 20.75v145.36a12.22 12.22 0 0 1-6.4 11c-7.34 4-16.5-.52-18.28-8.71L26.68 33.17C24.8 24.5 14.81 20 7.35 24.77a12.38 12.38 0 0 0-5.7 10.71V180" stroke="url(#k)"/></g><path d="M34.23 44.93l.77-3.24a11.65 11.65 0 0 1 19.3-5.77L58.67 40A11.65 11.65 0 0 0 78 34.22" fill="none" stroke-miterlimit="10" stroke-width="10.8" stroke="url(#l)"/></svg>