<svg data-name="Layer 2" xmlns="http://www.w3.org/2000/svg" xmlns:xlink="http://www.w3.org/1999/xlink" width="93.33" height="200" viewBox="0 0 93.33 200"><defs><linearGradient id="a" data-name="Orange, Yellow" x1="4.41" y1="94.33" x2="86.83" y2="94.33" gradientUnits="userSpaceOnUse"><stop offset="0" stop-color="#fff33b"/><stop offset=".04" stop-color="#fee72e"/><stop offset=".12" stop-color="#fed51b"/><stop offset=".2" stop-color="#fdca10"/><stop offset=".28" stop-color="#fdc70c"/><stop offset=".67" stop-color="#f3903f"/><stop offset=".89" stop-color="#ed683c"/><stop offset="1" stop-color="#e93e3a"/></linearGradient><linearGradient id="c" x1="4.41" y1="106.83" x2="86.83" y2="106.83" xlink:href="#a"/><linearGradient id="b" data-name="Red, Purple, Blue" x1="10.01" y1="100.44" x2="93.23" y2="100.44" gradientUnits="userSpaceOnUse"><stop offset="0" stop-color="#b7151b"/><stop offset=".02" stop-color="#c52229"/><stop offset=".06" stop-color="#d7333c"/><stop offset=".11" stop-color="#e23d47"/><stop offset=".15" stop-color="#e6404b"/><stop offset=".3" stop-color="#e98a7b"/><stop offset=".47" stop-color="#7c78b8"/><stop offset=".64" stop-color="#00b0b0"/><stop offset=".79" stop-color="#7b76b6"/><stop offset="1" stop-color="#e7322f"/></linearGradient><linearGradient id="d" x1="9.01" y1="100.44" x2="92.23" y2="100.44" xlink:href="#b"/><linearGradient id="e" x1="8.01" y1="100.44" x2="91.23" y2="100.44" xlink:href="#b"/><linearGradient id="f" x1="7.01" y1="100.44" x2="90.23" y2="100.44" xlink:href="#b"/><linearGradient id="g" x1="6.01" y1="100.44" x2="89.23" y2="100.44" xlink:href="#b"/><linearGradient id="h" x1="5.01" y1="100.44" x2="88.23" y2="100.44" xlink:href="#b"/><linearGradient id="i" x1="4.01" y1="100.44" x2="87.23" y2="100.44" xlink:href="#b"/><linearGradient id="j" x1="3.01" y1="100.44" x2="86.23" y2="100.44" xlink:href="#b"/><linearGradient id="k" x1="2.01" y1="100.44" x2="85.23" y2="100.44" xlink:href="#b"/><linearGradient id="l" x1="1.01" y1="100.44" x2="84.23" y2="100.44" xlink:href="#b"/><linearGradient id="m" x1=".01" y1="100.44" x2="83.23" y2="100.44" xlink:href="#b"/><linearGradient id="n" x1="23.5" y1="35.83" x2="73.24" y2="35.83" xlink:href="#a"/></defs><title>_</title><path fill="none" stroke-miterlimit="10" stroke-width="3.6" stroke="url(#a)" d="M4.41 94.33h82.42"/><path fill="none" stroke-miterlimit="10" stroke-width="3.6" stroke="url(#c)" d="M4.41 106.83h82.42"/><g fill="none" stroke-miterlimit="10" stroke-width="3.6"><ellipse cx="51.62" cy="100.44" rx="39.81" ry="78.31" stroke="url(#b)"/><ellipse cx="50.62" cy="100.44" rx="39.81" ry="78.31" stroke="url(#d)"/><ellipse cx="49.62" cy="100.44" rx="39.81" ry="78.31" stroke="url(#e)"/><ellipse cx="48.62" cy="100.44" rx="39.81" ry="78.31" stroke="url(#f)"/><ellipse cx="47.62" cy="100.44" rx="39.81" ry="78.31" stroke="url(#g)"/><ellipse cx="46.62" cy="100.44" rx="39.81" ry="78.31" stroke="url(#h)"/><ellipse cx="45.62" cy="100.44" rx="39.81" ry="78.31" stroke="url(#i)"/><ellipse cx="44.62" cy="100.44" rx="39.81" ry="78.31" stroke="url(#j)"/><ellipse cx="43.62" cy="100.44" rx="39.81" ry="78.31" stroke="url(#k)"/><ellipse cx="42.62" cy="100.44" rx="39.81" ry="78.31" stroke="url(#l)"/><ellipse cx="41.62" cy="100.44" rx="39.81" ry="78.31" stroke="url(#m)"/></g><path d="M28.33 53l13.94-27.87a7.22 7.22 0 0 1 13 .21l13 28.33" fill="none" stroke-miterlimit="10" stroke-width="10.8" stroke="url(#n)"/></svg>