<svg data-name="Layer 2" xmlns="http://www.w3.org/2000/svg" xmlns:xlink="http://www.w3.org/1999/xlink" width="93.33" height="200" viewBox="0 0 93.33 200"><defs><linearGradient id="a" data-name="Orange, Yellow" x1="3.74" y1="94.33" x2="86.17" y2="94.33" gradientUnits="userSpaceOnUse"><stop offset="0" stop-color="#fff33b"/><stop offset=".04" stop-color="#fee72e"/><stop offset=".12" stop-color="#fed51b"/><stop offset=".2" stop-color="#fdca10"/><stop offset=".28" stop-color="#fdc70c"/><stop offset=".67" stop-color="#f3903f"/><stop offset=".89" stop-color="#ed683c"/><stop offset="1" stop-color="#e93e3a"/></linearGradient><linearGradient id="c" x1="3.74" y1="106.83" x2="86.17" y2="106.83" xlink:href="#a"/><linearGradient id="b" data-name="Red, Purple, Blue" x1="9.34" y1="100.44" x2="92.56" y2="100.44" gradientUnits="userSpaceOnUse"><stop offset="0" stop-color="#b7151b"/><stop offset=".02" stop-color="#c52229"/><stop offset=".06" stop-color="#d7333c"/><stop offset=".11" stop-color="#e23d47"/><stop offset=".15" stop-color="#e6404b"/><stop offset=".3" stop-color="#e98a7b"/><stop offset=".47" stop-color="#7c78b8"/><stop offset=".64" stop-color="#00b0b0"/><stop offset=".79" stop-color="#7b76b6"/><stop offset="1" stop-color="#e7322f"/></linearGradient><linearGradient id="d" x1="8.34" y1="100.44" x2="91.56" y2="100.44" xlink:href="#b"/><linearGradient id="e" x1="7.34" y1="100.44" x2="90.56" y2="100.44" xlink:href="#b"/><linearGradient id="f" x1="6.34" y1="100.44" x2="89.56" y2="100.44" xlink:href="#b"/><linearGradient id="g" x1="5.34" y1="100.44" x2="88.56" y2="100.44" xlink:href="#b"/><linearGradient id="h" x1="4.34" y1="100.44" x2="87.56" y2="100.44" xlink:href="#b"/><linearGradient id="i" x1="3.34" y1="100.44" x2="86.56" y2="100.44" xlink:href="#b"/><linearGradient id="j" x1="2.34" y1="100.44" x2="85.56" y2="100.44" xlink:href="#b"/><linearGradient id="k" x1="1.34" y1="100.44" x2="84.56" y2="100.44" xlink:href="#b"/><linearGradient id="l" x1=".34" y1="100.44" x2="83.56" y2="100.44" xlink:href="#b"/><linearGradient id="m" x1="-.66" y1="100.44" x2="82.56" y2="100.44" xlink:href="#b"/><linearGradient id="n" x1="11.02" y1="18.07" x2="44.32" y2="18.07" xlink:href="#a"/><linearGradient id="o" x1="48.02" y1="18.07" x2="81.32" y2="18.07" xlink:href="#a"/></defs><title>_</title><path fill="none" stroke-miterlimit="10" stroke-width="3.6" stroke="url(#a)" d="M3.74 94.33h82.43"/><path fill="none" stroke-miterlimit="10" stroke-width="3.6" stroke="url(#c)" d="M3.74 106.83h82.43"/><g fill="none" stroke-miterlimit="10" stroke-width="3.6"><ellipse cx="50.95" cy="100.44" rx="39.81" ry="78.31" stroke="url(#b)"/><ellipse cx="49.95" cy="100.44" rx="39.81" ry="78.31" stroke="url(#d)"/><ellipse cx="48.95" cy="100.44" rx="39.81" ry="78.31" stroke="url(#e)"/><ellipse cx="47.95" cy="100.44" rx="39.81" ry="78.31" stroke="url(#f)"/><ellipse cx="46.95" cy="100.44" rx="39.81" ry="78.31" stroke="url(#g)"/><ellipse cx="45.95" cy="100.44" rx="39.81" ry="78.31" stroke="url(#h)"/><ellipse cx="44.95" cy="100.44" rx="39.81" ry="78.31" stroke="url(#i)"/><ellipse cx="43.95" cy="100.44" rx="39.81" ry="78.31" stroke="url(#j)"/><ellipse cx="42.95" cy="100.44" rx="39.81" ry="78.31" stroke="url(#k)"/><ellipse cx="41.95" cy="100.44" rx="39.81" ry="78.31" stroke="url(#l)"/><ellipse cx="40.95" cy="100.44" rx="39.81" ry="78.31" stroke="url(#m)"/></g><g fill="none" stroke-miterlimit="10" stroke-width="10.8"><circle cx="27.67" cy="18.07" r="11.25" stroke="url(#n)"/><circle cx="64.67" cy="18.07" r="11.25" stroke="url(#o)"/></g></svg>