<svg data-name="Layer 2" xmlns="http://www.w3.org/2000/svg" xmlns:xlink="http://www.w3.org/1999/xlink" width="94" height="200" viewBox="0 0 94 200"><defs><linearGradient id="a" data-name="Red, Purple, Blue" x1="1060.36" y1="720.6" x2="1060.36" y2="636.71" gradientTransform="rotate(90 845.17 -114.5)" gradientUnits="userSpaceOnUse"><stop offset="0" stop-color="#b7151b"/><stop offset=".02" stop-color="#c52229"/><stop offset=".06" stop-color="#d7333c"/><stop offset=".11" stop-color="#e23d47"/><stop offset=".15" stop-color="#e6404b"/><stop offset=".3" stop-color="#e98a7b"/><stop offset=".47" stop-color="#7c78b8"/><stop offset=".64" stop-color="#00b0b0"/><stop offset=".79" stop-color="#7b76b6"/><stop offset="1" stop-color="#e7322f"/></linearGradient><linearGradient id="b" x1="1060.36" y1="721.6" x2="1060.36" y2="637.71" xlink:href="#a"/><linearGradient id="c" x1="1060.36" y1="722.6" x2="1060.36" y2="638.71" xlink:href="#a"/><linearGradient id="d" x1="1060.36" y1="723.6" x2="1060.36" y2="639.71" xlink:href="#a"/><linearGradient id="e" x1="1060.36" y1="724.6" x2="1060.36" y2="640.71" xlink:href="#a"/><linearGradient id="f" x1="1060.36" y1="725.6" x2="1060.36" y2="641.71" xlink:href="#a"/><linearGradient id="g" x1="1060.36" y1="726.6" x2="1060.36" y2="642.71" xlink:href="#a"/><linearGradient id="h" x1="1060.36" y1="727.6" x2="1060.36" y2="643.71" xlink:href="#a"/><linearGradient id="i" x1="1060.36" y1="728.6" x2="1060.36" y2="644.71" xlink:href="#a"/><linearGradient id="j" x1="1060.36" y1="729.6" x2="1060.36" y2="645.71" xlink:href="#a"/><linearGradient id="k" x1="1060.36" y1="730.6" x2="1060.36" y2="646.71" xlink:href="#a"/><linearGradient id="l" data-name="Orange, Yellow" x1="-2386.8" y1="-1366.5" x2="-2353.06" y2="-1366.5" gradientTransform="scale(-1 1) rotate(-74.3 -282.03 -2213.694)" gradientUnits="userSpaceOnUse"><stop offset="0" stop-color="#fff33b"/><stop offset=".04" stop-color="#fee72e"/><stop offset=".12" stop-color="#fed51b"/><stop offset=".2" stop-color="#fdca10"/><stop offset=".28" stop-color="#fdc70c"/><stop offset=".67" stop-color="#f3903f"/><stop offset=".89" stop-color="#ed683c"/><stop offset="1" stop-color="#e93e3a"/></linearGradient></defs><title>_</title><g fill="none" stroke-miterlimit="10" stroke-width="3.6"><path d="M92.15 20.75v141.63A16.62 16.62 0 0 1 75.53 179h-47a16.62 16.62 0 0 1-16.62-16.62V20.58" stroke="url(#a)"/><path d="M91.15 20.75v141.63A16.62 16.62 0 0 1 74.53 179h-47a16.62 16.62 0 0 1-16.62-16.62V20.58" stroke="url(#b)"/><path d="M90.15 20.75v141.63A16.62 16.62 0 0 1 73.53 179h-47a16.62 16.62 0 0 1-16.67-16.62V20.58" stroke="url(#c)"/><path d="M89.15 20.75v141.63A16.62 16.62 0 0 1 72.53 179h-47a16.62 16.62 0 0 1-16.67-16.62V20.58" stroke="url(#d)"/><path d="M88.15 20.75v141.63A16.62 16.62 0 0 1 71.53 179h-47a16.62 16.62 0 0 1-16.67-16.62V20.58" stroke="url(#e)"/><path d="M87.15 20.75v141.63A16.62 16.62 0 0 1 70.53 179h-47a16.62 16.62 0 0 1-16.67-16.62V20.58" stroke="url(#f)"/><path d="M86.15 20.75v141.63A16.62 16.62 0 0 1 69.53 179h-47a16.62 16.62 0 0 1-16.67-16.62V20.58" stroke="url(#g)"/><path d="M85.15 20.75v141.63A16.62 16.62 0 0 1 68.53 179h-47a16.62 16.62 0 0 1-16.67-16.62V20.58" stroke="url(#h)"/><path d="M84.15 20.75v141.63A16.62 16.62 0 0 1 67.53 179h-47a16.62 16.62 0 0 1-16.67-16.62V20.58" stroke="url(#i)"/><path d="M83.15 20.75v141.63A16.62 16.62 0 0 1 66.53 179h-47a16.62 16.62 0 0 1-16.67-16.62V20.58" stroke="url(#j)"/><path d="M82.15 20.75v141.63A16.62 16.62 0 0 1 65.53 179h-47a16.62 16.62 0 0 1-16.67-16.62V20.58" stroke="url(#k)"/></g><path fill="none" stroke-miterlimit="10" stroke-width="10.8" stroke="url(#l)" d="M53.32 36.6L35.08 10.34"/></svg>