<svg data-name="Layer 2" xmlns="http://www.w3.org/2000/svg" xmlns:xlink="http://www.w3.org/1999/xlink" width="94" height="200" viewBox="0 0 94 200"><defs><linearGradient id="a" data-name="Red, Purple, Blue" x1="810.36" y1="470.6" x2="810.36" y2="386.71" gradientTransform="rotate(90 595.17 -114.5)" gradientUnits="userSpaceOnUse"><stop offset="0" stop-color="#b7151b"/><stop offset=".02" stop-color="#c52229"/><stop offset=".06" stop-color="#d7333c"/><stop offset=".11" stop-color="#e23d47"/><stop offset=".15" stop-color="#e6404b"/><stop offset=".3" stop-color="#e98a7b"/><stop offset=".47" stop-color="#7c78b8"/><stop offset=".64" stop-color="#00b0b0"/><stop offset=".79" stop-color="#7b76b6"/><stop offset="1" stop-color="#e7322f"/></linearGradient><linearGradient id="b" x1="810.36" y1="471.6" x2="810.36" y2="387.71" xlink:href="#a"/><linearGradient id="c" x1="810.36" y1="472.6" x2="810.36" y2="388.71" xlink:href="#a"/><linearGradient id="d" x1="810.36" y1="473.6" x2="810.36" y2="389.71" xlink:href="#a"/><linearGradient id="e" x1="810.36" y1="474.6" x2="810.36" y2="390.71" xlink:href="#a"/><linearGradient id="f" x1="810.36" y1="475.6" x2="810.36" y2="391.71" xlink:href="#a"/><linearGradient id="g" x1="810.36" y1="476.6" x2="810.36" y2="392.71" xlink:href="#a"/><linearGradient id="h" x1="810.36" y1="477.6" x2="810.36" y2="393.71" xlink:href="#a"/><linearGradient id="i" x1="810.36" y1="478.6" x2="810.36" y2="394.71" xlink:href="#a"/><linearGradient id="j" x1="810.36" y1="479.6" x2="810.36" y2="395.71" xlink:href="#a"/><linearGradient id="k" x1="810.36" y1="480.6" x2="810.36" y2="396.71" xlink:href="#a"/><linearGradient id="l" data-name="Orange, Yellow" x1="-1911.03" y1="1177.49" x2="-1877.29" y2="1177.49" gradientTransform="rotate(-74.08 -1684.558 -690.517)" gradientUnits="userSpaceOnUse"><stop offset="0" stop-color="#fff33b"/><stop offset=".04" stop-color="#fee72e"/><stop offset=".12" stop-color="#fed51b"/><stop offset=".2" stop-color="#fdca10"/><stop offset=".28" stop-color="#fdc70c"/><stop offset=".67" stop-color="#f3903f"/><stop offset=".89" stop-color="#ed683c"/><stop offset="1" stop-color="#e93e3a"/></linearGradient></defs><title>_</title><g fill="none" stroke-miterlimit="10" stroke-width="3.6"><path d="M92.15 20.75v141.63A16.62 16.62 0 0 1 75.53 179h-47a16.62 16.62 0 0 1-16.62-16.62V20.58" stroke="url(#a)"/><path d="M91.15 20.75v141.63A16.62 16.62 0 0 1 74.53 179h-47a16.62 16.62 0 0 1-16.62-16.62V20.58" stroke="url(#b)"/><path d="M90.15 20.75v141.63A16.62 16.62 0 0 1 73.53 179h-47a16.62 16.62 0 0 1-16.67-16.62V20.58" stroke="url(#c)"/><path d="M89.15 20.75v141.63A16.62 16.62 0 0 1 72.53 179h-47a16.62 16.62 0 0 1-16.67-16.62V20.58" stroke="url(#d)"/><path d="M88.15 20.75v141.63A16.62 16.62 0 0 1 71.53 179h-47a16.62 16.62 0 0 1-16.67-16.62V20.58" stroke="url(#e)"/><path d="M87.15 20.75v141.63A16.62 16.62 0 0 1 70.53 179h-47a16.62 16.62 0 0 1-16.67-16.62V20.58" stroke="url(#f)"/><path d="M86.15 20.75v141.63A16.62 16.62 0 0 1 69.53 179h-47a16.62 16.62 0 0 1-16.67-16.62V20.58" stroke="url(#g)"/><path d="M85.15 20.75v141.63A16.62 16.62 0 0 1 68.53 179h-47a16.62 16.62 0 0 1-16.67-16.62V20.58" stroke="url(#h)"/><path d="M84.15 20.75v141.63A16.62 16.62 0 0 1 67.53 179h-47a16.62 16.62 0 0 1-16.67-16.62V20.58" stroke="url(#i)"/><path d="M83.15 20.75v141.63A16.62 16.62 0 0 1 66.53 179h-47a16.62 16.62 0 0 1-16.67-16.62V20.58" stroke="url(#j)"/><path d="M82.15 20.75v141.63A16.62 16.62 0 0 1 65.53 179h-47a16.62 16.62 0 0 1-16.67-16.62V20.58" stroke="url(#k)"/></g><path fill="none" stroke-miterlimit="10" stroke-width="10.8" stroke="url(#l)" d="M45.1 36.59l18.23-26.26"/></svg>