<svg data-name="Layer 2" xmlns="http://www.w3.org/2000/svg" xmlns:xlink="http://www.w3.org/1999/xlink" width="94.67" height="200" viewBox="0 0 94.67 200"><defs><linearGradient id="a" data-name="Red, Purple, Blue" x1="560.36" y1="220.6" x2="560.36" y2="136.71" gradientTransform="rotate(90 345.17 -114.5)" gradientUnits="userSpaceOnUse"><stop offset="0" stop-color="#b7151b"/><stop offset=".02" stop-color="#c52229"/><stop offset=".06" stop-color="#d7333c"/><stop offset=".11" stop-color="#e23d47"/><stop offset=".15" stop-color="#e6404b"/><stop offset=".3" stop-color="#e98a7b"/><stop offset=".47" stop-color="#7c78b8"/><stop offset=".64" stop-color="#00b0b0"/><stop offset=".79" stop-color="#7b76b6"/><stop offset="1" stop-color="#e7322f"/></linearGradient><linearGradient id="b" x1="560.36" y1="221.6" x2="560.36" y2="137.71" xlink:href="#a"/><linearGradient id="c" x1="560.36" y1="222.6" x2="560.36" y2="138.71" xlink:href="#a"/><linearGradient id="d" x1="560.36" y1="223.6" x2="560.36" y2="139.71" xlink:href="#a"/><linearGradient id="e" x1="560.36" y1="224.6" x2="560.36" y2="140.71" xlink:href="#a"/><linearGradient id="f" x1="560.36" y1="225.6" x2="560.36" y2="141.71" xlink:href="#a"/><linearGradient id="g" x1="560.36" y1="226.6" x2="560.36" y2="142.71" xlink:href="#a"/><linearGradient id="h" x1="560.36" y1="227.6" x2="560.36" y2="143.71" xlink:href="#a"/><linearGradient id="i" x1="560.36" y1="228.6" x2="560.36" y2="144.71" xlink:href="#a"/><linearGradient id="j" x1="560.36" y1="229.6" x2="560.36" y2="145.71" xlink:href="#a"/><linearGradient id="k" x1="560.36" y1="230.6" x2="560.36" y2="146.71" xlink:href="#a"/><linearGradient id="l" data-name="Orange, Yellow" x1="24.17" y1="26.83" x2="73.9" y2="26.83" gradientUnits="userSpaceOnUse"><stop offset="0" stop-color="#fff33b"/><stop offset=".04" stop-color="#fee72e"/><stop offset=".12" stop-color="#fed51b"/><stop offset=".2" stop-color="#fdca10"/><stop offset=".28" stop-color="#fdc70c"/><stop offset=".67" stop-color="#f3903f"/><stop offset=".89" stop-color="#ed683c"/><stop offset="1" stop-color="#e93e3a"/></linearGradient></defs><title>_</title><g fill="none" stroke-miterlimit="10" stroke-width="3.6"><path d="M92.15 20.75v141.63A16.62 16.62 0 0 1 75.53 179h-47a16.62 16.62 0 0 1-16.62-16.62V20.58" stroke="url(#a)"/><path d="M91.15 20.75v141.63A16.62 16.62 0 0 1 74.53 179h-47a16.62 16.62 0 0 1-16.62-16.62V20.58" stroke="url(#b)"/><path d="M90.15 20.75v141.63A16.62 16.62 0 0 1 73.53 179h-47a16.62 16.62 0 0 1-16.67-16.62V20.58" stroke="url(#c)"/><path d="M89.15 20.75v141.63A16.62 16.62 0 0 1 72.53 179h-47a16.62 16.62 0 0 1-16.67-16.62V20.58" stroke="url(#d)"/><path d="M88.15 20.75v141.63A16.62 16.62 0 0 1 71.53 179h-47a16.62 16.62 0 0 1-16.67-16.62V20.58" stroke="url(#e)"/><path d="M87.15 20.75v141.63A16.62 16.62 0 0 1 70.53 179h-47a16.62 16.62 0 0 1-16.67-16.62V20.58" stroke="url(#f)"/><path d="M86.15 20.75v141.63A16.62 16.62 0 0 1 69.53 179h-47a16.62 16.62 0 0 1-16.67-16.62V20.58" stroke="url(#g)"/><path d="M85.15 20.75v141.63A16.62 16.62 0 0 1 68.53 179h-47a16.62 16.62 0 0 1-16.67-16.62V20.58" stroke="url(#h)"/><path d="M84.15 20.75v141.63A16.62 16.62 0 0 1 67.53 179h-47a16.62 16.62 0 0 1-16.67-16.62V20.58" stroke="url(#i)"/><path d="M83.15 20.75v141.63A16.62 16.62 0 0 1 66.53 179h-47a16.62 16.62 0 0 1-16.67-16.62V20.58" stroke="url(#j)"/><path d="M82.15 20.75v141.63A16.62 16.62 0 0 1 65.53 179h-47a16.62 16.62 0 0 1-16.67-16.62V20.58" stroke="url(#k)"/></g><path d="M29 44l13.93-27.87a7.22 7.22 0 0 1 13 .21L69 44.67" fill="none" stroke-miterlimit="10" stroke-width="10.8" stroke="url(#l)"/></svg>