<svg data-name="Layer 2" xmlns="http://www.w3.org/2000/svg" xmlns:xlink="http://www.w3.org/1999/xlink" width="94.67" height="200" viewBox="0 0 94.67 200"><defs><linearGradient id="a" data-name="Red, Purple, Blue" x1="311.02" y1="-29.4" x2="311.02" y2="-113.29" gradientTransform="rotate(90 95.83 -114.5)" gradientUnits="userSpaceOnUse"><stop offset="0" stop-color="#b7151b"/><stop offset=".02" stop-color="#c52229"/><stop offset=".06" stop-color="#d7333c"/><stop offset=".11" stop-color="#e23d47"/><stop offset=".15" stop-color="#e6404b"/><stop offset=".3" stop-color="#e98a7b"/><stop offset=".47" stop-color="#7c78b8"/><stop offset=".64" stop-color="#00b0b0"/><stop offset=".79" stop-color="#7b76b6"/><stop offset="1" stop-color="#e7322f"/></linearGradient><linearGradient id="c" x1="311.02" y1="-28.4" x2="311.02" y2="-112.29" xlink:href="#a"/><linearGradient id="d" x1="311.02" y1="-27.4" x2="311.02" y2="-111.29" xlink:href="#a"/><linearGradient id="e" x1="311.02" y1="-26.4" x2="311.02" y2="-110.29" xlink:href="#a"/><linearGradient id="f" x1="311.02" y1="-25.4" x2="311.02" y2="-109.29" xlink:href="#a"/><linearGradient id="g" x1="311.02" y1="-24.4" x2="311.02" y2="-108.29" xlink:href="#a"/><linearGradient id="h" x1="311.02" y1="-23.4" x2="311.02" y2="-107.29" xlink:href="#a"/><linearGradient id="i" x1="311.02" y1="-22.4" x2="311.02" y2="-106.29" xlink:href="#a"/><linearGradient id="j" x1="311.02" y1="-21.4" x2="311.02" y2="-105.29" xlink:href="#a"/><linearGradient id="k" x1="311.02" y1="-20.4" x2="311.02" y2="-104.29" xlink:href="#a"/><linearGradient id="l" x1="311.02" y1="-19.4" x2="311.02" y2="-103.29" xlink:href="#a"/><linearGradient id="b" data-name="Orange, Yellow" x1="12.27" y1="32" x2="45.57" y2="32" gradientUnits="userSpaceOnUse"><stop offset="0" stop-color="#fff33b"/><stop offset=".04" stop-color="#fee72e"/><stop offset=".12" stop-color="#fed51b"/><stop offset=".2" stop-color="#fdca10"/><stop offset=".28" stop-color="#fdc70c"/><stop offset=".67" stop-color="#f3903f"/><stop offset=".89" stop-color="#ed683c"/><stop offset="1" stop-color="#e93e3a"/></linearGradient><linearGradient id="m" x1="49.27" y1="32" x2="82.57" y2="32" xlink:href="#b"/></defs><title>_</title><g fill="none" stroke-miterlimit="10" stroke-width="3.6"><path d="M92.82 20.75v141.63A16.62 16.62 0 0 1 76.2 179h-47a16.62 16.62 0 0 1-16.62-16.62V20.58" stroke="url(#a)"/><path d="M91.82 20.75v141.63A16.62 16.62 0 0 1 75.2 179h-47a16.62 16.62 0 0 1-16.62-16.62V20.58" stroke="url(#c)"/><path d="M90.82 20.75v141.63A16.62 16.62 0 0 1 74.2 179h-47a16.62 16.62 0 0 1-16.62-16.62V20.58" stroke="url(#d)"/><path d="M89.82 20.75v141.63A16.62 16.62 0 0 1 73.2 179h-47a16.62 16.62 0 0 1-16.67-16.62V20.58" stroke="url(#e)"/><path d="M88.82 20.75v141.63A16.62 16.62 0 0 1 72.2 179h-47a16.62 16.62 0 0 1-16.67-16.62V20.58" stroke="url(#f)"/><path d="M87.82 20.75v141.63A16.62 16.62 0 0 1 71.2 179h-47a16.62 16.62 0 0 1-16.67-16.62V20.58" stroke="url(#g)"/><path d="M86.82 20.75v141.63A16.62 16.62 0 0 1 70.2 179h-47a16.62 16.62 0 0 1-16.67-16.62V20.58" stroke="url(#h)"/><path d="M85.82 20.75v141.63A16.62 16.62 0 0 1 69.2 179h-47a16.62 16.62 0 0 1-16.67-16.62V20.58" stroke="url(#i)"/><path d="M84.82 20.75v141.63A16.62 16.62 0 0 1 68.2 179h-47a16.62 16.62 0 0 1-16.67-16.62V20.58" stroke="url(#j)"/><path d="M83.82 20.75v141.63A16.62 16.62 0 0 1 67.2 179h-47a16.62 16.62 0 0 1-16.67-16.62V20.58" stroke="url(#k)"/><path d="M82.82 20.75v141.63A16.62 16.62 0 0 1 66.2 179h-47a16.62 16.62 0 0 1-16.67-16.62V20.58" stroke="url(#l)"/></g><g fill="none" stroke-miterlimit="10" stroke-width="10.8"><circle cx="28.92" cy="32" r="11.25" stroke="url(#b)"/><circle cx="65.92" cy="32" r="11.25" stroke="url(#m)"/></g><g fill="none" stroke-miterlimit="10" stroke-width="10.8"><circle cx="28.92" cy="32" r="11.25" stroke="url(#b)"/><circle cx="65.92" cy="32" r="11.25" stroke="url(#m)"/></g></svg>