<svg data-name="Layer 2" xmlns="http://www.w3.org/2000/svg" xmlns:xlink="http://www.w3.org/1999/xlink" width="85.33" height="200" viewBox="0 0 85.33 200"><defs><linearGradient id="a" data-name="Red, Purple, Blue" x1="2064.54" y1="-912.38" x2="1996.21" y2="-912.38" gradientTransform="rotate(180 1040.185 -399.5)" gradientUnits="userSpaceOnUse"><stop offset="0" stop-color="#b7151b"/><stop offset=".02" stop-color="#c52229"/><stop offset=".06" stop-color="#d7333c"/><stop offset=".11" stop-color="#e23d47"/><stop offset=".15" stop-color="#e6404b"/><stop offset=".3" stop-color="#e98a7b"/><stop offset=".47" stop-color="#7c78b8"/><stop offset=".64" stop-color="#00b0b0"/><stop offset=".79" stop-color="#7b76b6"/><stop offset="1" stop-color="#e7322f"/></linearGradient><linearGradient id="b" x1="2065.54" y1="-912.38" x2="1997.21" y2="-912.38" xlink:href="#a"/><linearGradient id="c" x1="2066.54" y1="-912.38" x2="1998.21" y2="-912.38" xlink:href="#a"/><linearGradient id="d" x1="2067.54" y1="-912.38" x2="1999.21" y2="-912.38" xlink:href="#a"/><linearGradient id="e" x1="2068.54" y1="-912.38" x2="2000.21" y2="-912.38" xlink:href="#a"/><linearGradient id="f" x1="2069.54" y1="-912.38" x2="2001.21" y2="-912.38" xlink:href="#a"/><linearGradient id="g" x1="2070.54" y1="-912.38" x2="2002.21" y2="-912.38" xlink:href="#a"/><linearGradient id="h" x1="2071.54" y1="-912.38" x2="2003.21" y2="-912.38" xlink:href="#a"/><linearGradient id="i" x1="2072.54" y1="-912.38" x2="2004.21" y2="-912.38" xlink:href="#a"/><linearGradient id="j" x1="2073.54" y1="-912.38" x2="2005.21" y2="-912.38" xlink:href="#a"/><linearGradient id="k" x1="2074.54" y1="-912.38" x2="2006.21" y2="-912.38" xlink:href="#a"/><linearGradient id="l" data-name="Orange, Yellow" x1="2469.68" y1="1676.19" x2="2580.5" y2="1676.19" gradientTransform="rotate(90 2047.17 -364.5)" gradientUnits="userSpaceOnUse"><stop offset="0" stop-color="#fff33b"/><stop offset=".04" stop-color="#fee72e"/><stop offset=".12" stop-color="#fed51b"/><stop offset=".2" stop-color="#fdca10"/><stop offset=".28" stop-color="#fdc70c"/><stop offset=".67" stop-color="#f3903f"/><stop offset=".89" stop-color="#ed683c"/><stop offset="1" stop-color="#e93e3a"/></linearGradient></defs><title>_</title><g fill="none" stroke-miterlimit="10" stroke-width="3.6"><path d="M16.18 134.76H61a21.38 21.38 0 0 0 21.38-21.38A21.38 21.38 0 0 0 61 92H17.65s0 .22 0 0" stroke="url(#a)"/><path d="M15.18 134.76H60a21.38 21.38 0 0 0 21.38-21.38A21.38 21.38 0 0 0 60 92H16.65s0 .22 0 0" stroke="url(#b)"/><path d="M14.18 134.76H59a21.38 21.38 0 0 0 21.38-21.38A21.38 21.38 0 0 0 59 92H15.65s0 .22 0 0" stroke="url(#c)"/><path d="M13.18 134.76H58a21.38 21.38 0 0 0 21.38-21.38A21.38 21.38 0 0 0 58 92H14.65s0 .22 0 0" stroke="url(#d)"/><path d="M12.18 134.76H57a21.38 21.38 0 0 0 21.38-21.38A21.38 21.38 0 0 0 57 92H13.65s0 .22 0 0" stroke="url(#e)"/><path d="M11.18 134.76H56a21.38 21.38 0 0 0 21.38-21.38A21.38 21.38 0 0 0 56 92H12.65s0 .22 0 0" stroke="url(#f)"/><path d="M10.18 134.76H55a21.38 21.38 0 0 0 21.38-21.38A21.38 21.38 0 0 0 55 92H11.65s0 .22 0 0" stroke="url(#g)"/><path d="M9.18 134.76H54a21.38 21.38 0 0 0 21.38-21.38A21.38 21.38 0 0 0 54 92H10.65s0 .22 0 0" stroke="url(#h)"/><path d="M8.18 134.76H53a21.38 21.38 0 0 0 21.38-21.38A21.38 21.38 0 0 0 53 92H9.65s0 .22 0 0" stroke="url(#i)"/><path d="M7.18 134.76H52a21.38 21.38 0 0 0 21.38-21.38A21.38 21.38 0 0 0 52 92H8.65s0 .22 0 0" stroke="url(#j)"/><path d="M6.18 134.76H51a21.38 21.38 0 0 0 21.38-21.38A21.38 21.38 0 0 0 51 92H7.65s0 .22 0 0" stroke="url(#k)"/></g><path fill="none" stroke-miterlimit="10" stroke-width="10.8" stroke="url(#l)" d="M6.47 58.01v110.82"/></svg>