<svg data-name="Layer 2" xmlns="http://www.w3.org/2000/svg" xmlns:xlink="http://www.w3.org/1999/xlink" width="94.67" height="200" viewBox="0 0 94.67 200"><defs><linearGradient id="a" data-name="Red, Purple, Blue" x1="10.13" y1="100.51" x2="94.32" y2="100.51" gradientUnits="userSpaceOnUse"><stop offset="0" stop-color="#b7151b"/><stop offset=".02" stop-color="#c52229"/><stop offset=".06" stop-color="#d7333c"/><stop offset=".11" stop-color="#e23d47"/><stop offset=".15" stop-color="#e6404b"/><stop offset=".3" stop-color="#e98a7b"/><stop offset=".47" stop-color="#7c78b8"/><stop offset=".64" stop-color="#00b0b0"/><stop offset=".79" stop-color="#7b76b6"/><stop offset="1" stop-color="#e7322f"/></linearGradient><linearGradient id="b" x1="9.13" y1="100.51" x2="93.32" y2="100.51" xlink:href="#a"/><linearGradient id="c" x1="8.13" y1="100.51" x2="92.32" y2="100.51" xlink:href="#a"/><linearGradient id="d" x1="7.13" y1="100.51" x2="91.32" y2="100.51" xlink:href="#a"/><linearGradient id="e" x1="6.13" y1="100.51" x2="90.32" y2="100.51" xlink:href="#a"/><linearGradient id="f" x1="5.13" y1="100.51" x2="89.32" y2="100.51" xlink:href="#a"/><linearGradient id="g" x1="4.13" y1="100.51" x2="88.32" y2="100.51" xlink:href="#a"/><linearGradient id="h" x1="3.13" y1="100.51" x2="87.32" y2="100.51" xlink:href="#a"/><linearGradient id="i" x1="2.13" y1="100.51" x2="86.32" y2="100.51" xlink:href="#a"/><linearGradient id="j" x1="1.13" y1="100.51" x2="85.32" y2="100.51" xlink:href="#a"/><linearGradient id="k" x1=".13" y1="100.51" x2="84.32" y2="100.51" xlink:href="#a"/></defs><title>_</title><g fill="none" stroke-miterlimit="10" stroke-width="3.6"><path d="M51.53 179.06c22.57.44 41-20.83 41-47.13 0-20.92-25.21-38.66-46.66-44.82-7.44-2.13-14.62 4.44-14.62 13.4 0 9 7.18 15.53 14.62 13.4C67.3 107.75 92.52 90 92.52 69.09c0-26.3-18.41-47.57-41-47.13-22.08.43-39.59 22.04-39.59 47.9V180" stroke="url(#a)"/><path d="M50.53 179.06c22.57.44 41-20.83 41-47.13 0-20.92-25.21-38.66-46.66-44.82-7.44-2.13-14.62 4.44-14.62 13.4 0 9 7.18 15.53 14.62 13.4C66.3 107.75 91.52 90 91.52 69.09c0-26.3-18.41-47.57-41-47.13-22.08.43-39.59 22.04-39.59 47.9V180" stroke="url(#b)"/><path d="M49.53 179.06c22.57.44 41-20.83 41-47.13 0-20.92-25.21-38.66-46.66-44.82-7.44-2.13-14.62 4.44-14.62 13.4 0 9 7.18 15.53 14.62 13.4C65.3 107.75 90.52 90 90.52 69.09c0-26.3-18.41-47.57-41-47.13C27.44 22.39 9.93 44 9.93 69.86V180" stroke="url(#c)"/><path d="M48.53 179.06c22.57.44 41-20.83 41-47.13 0-20.92-25.21-38.66-46.66-44.82-7.44-2.13-14.62 4.44-14.62 13.4 0 9 7.18 15.53 14.62 13.4C64.3 107.75 89.52 90 89.52 69.09c0-26.3-18.41-47.57-41-47.13C26.44 22.39 8.93 44 8.93 69.86V180" stroke="url(#d)"/><path d="M47.53 179.06c22.57.44 41-20.83 41-47.13 0-20.92-25.21-38.66-46.66-44.82-7.44-2.13-14.62 4.44-14.62 13.4 0 9 7.18 15.53 14.62 13.4C63.3 107.75 88.52 90 88.52 69.09c0-26.3-18.41-47.57-41-47.13C25.44 22.39 7.93 44 7.93 69.86V180" stroke="url(#e)"/><path d="M46.53 179.06c22.57.44 41-20.83 41-47.13 0-20.92-25.21-38.66-46.66-44.82-7.44-2.13-14.62 4.44-14.62 13.4 0 9 7.18 15.53 14.62 13.4C62.3 107.75 87.52 90 87.52 69.09c0-26.3-18.41-47.57-41-47.13C24.44 22.39 6.93 44 6.93 69.86V180" stroke="url(#f)"/><path d="M45.53 179.06c22.57.44 41-20.83 41-47.13 0-20.92-25.21-38.66-46.66-44.82-7.44-2.13-14.62 4.44-14.62 13.4 0 9 7.18 15.53 14.62 13.4C61.3 107.75 86.52 90 86.52 69.09c0-26.3-18.41-47.57-41-47.13C23.44 22.39 5.93 44 5.93 69.86V180" stroke="url(#g)"/><path d="M44.53 179.06c22.57.44 41-20.83 41-47.13 0-20.92-25.21-38.66-46.66-44.82-7.44-2.13-14.62 4.44-14.62 13.4 0 9 7.18 15.53 14.62 13.4C60.3 107.75 85.52 90 85.52 69.09c0-26.3-18.41-47.57-41-47.13C22.44 22.39 4.93 44 4.93 69.86V180" stroke="url(#h)"/><path d="M43.53 179.06c22.57.44 41-20.83 41-47.13 0-20.92-25.21-38.66-46.66-44.82-7.44-2.13-14.62 4.44-14.62 13.4 0 9 7.18 15.53 14.62 13.4C59.3 107.75 84.52 90 84.52 69.09c0-26.3-18.41-47.57-41-47.13C21.44 22.39 3.93 44 3.93 69.86V180" stroke="url(#i)"/><path d="M42.53 179.06c22.57.44 41-20.83 41-47.13 0-20.92-25.21-38.66-46.66-44.82-7.44-2.13-14.62 4.44-14.62 13.4 0 9 7.18 15.53 14.62 13.4C58.3 107.75 83.52 90 83.52 69.09c0-26.3-18.41-47.57-41-47.13C20.44 22.39 2.93 44 2.93 69.86V180" stroke="url(#j)"/><path d="M41.53 179.06c22.57.44 41-20.83 41-47.13 0-20.92-25.21-38.66-46.66-44.82-7.44-2.13-14.62 4.44-14.62 13.4 0 9 7.18 15.53 14.62 13.4C57.3 107.75 82.52 90 82.52 69.09c0-26.3-18.41-47.57-41-47.13C19.44 22.39 1.93 44 1.93 69.86V180" stroke="url(#k)"/></g></svg>