<svg data-name="Layer 2" xmlns="http://www.w3.org/2000/svg" xmlns:xlink="http://www.w3.org/1999/xlink" width="95.33" height="200" viewBox="0 0 95.33 200"><defs><linearGradient id="b" data-name="Orange, Yellow" x1="12.08" y1="142.32" x2="84.58" y2="142.32" gradientUnits="userSpaceOnUse"><stop offset="0" stop-color="#fff33b"/><stop offset=".04" stop-color="#fee72e"/><stop offset=".12" stop-color="#fed51b"/><stop offset=".2" stop-color="#fdca10"/><stop offset=".28" stop-color="#fdc70c"/><stop offset=".67" stop-color="#f3903f"/><stop offset=".89" stop-color="#ed683c"/><stop offset="1" stop-color="#e93e3a"/></linearGradient><linearGradient id="a" data-name="Red, Purple, Blue" x1="11.23" y1="113.08" x2="94.9" y2="113.08" gradientUnits="userSpaceOnUse"><stop offset="0" stop-color="#b7151b"/><stop offset=".02" stop-color="#c52229"/><stop offset=".06" stop-color="#d7333c"/><stop offset=".11" stop-color="#e23d47"/><stop offset=".15" stop-color="#e6404b"/><stop offset=".3" stop-color="#e98a7b"/><stop offset=".47" stop-color="#7c78b8"/><stop offset=".64" stop-color="#00b0b0"/><stop offset=".79" stop-color="#7b76b6"/><stop offset="1" stop-color="#e7322f"/></linearGradient><linearGradient id="c" x1="10.23" y1="113.08" x2="93.9" y2="113.08" xlink:href="#a"/><linearGradient id="d" x1="9.23" y1="113.08" x2="92.9" y2="113.08" xlink:href="#a"/><linearGradient id="e" x1="8.23" y1="113.08" x2="91.9" y2="113.08" xlink:href="#a"/><linearGradient id="f" x1="7.23" y1="113.08" x2="90.9" y2="113.08" xlink:href="#a"/><linearGradient id="g" x1="6.23" y1="113.08" x2="89.9" y2="113.08" xlink:href="#a"/><linearGradient id="h" x1="5.23" y1="113.08" x2="88.9" y2="113.08" xlink:href="#a"/><linearGradient id="i" x1="4.23" y1="113.08" x2="87.9" y2="113.08" xlink:href="#a"/><linearGradient id="j" x1="3.23" y1="113.08" x2="86.9" y2="113.08" xlink:href="#a"/><linearGradient id="k" x1="2.23" y1="113.08" x2="85.9" y2="113.08" xlink:href="#a"/><linearGradient id="l" x1="1.23" y1="113.08" x2="84.9" y2="113.08" xlink:href="#a"/><linearGradient id="m" x1="24.83" y1="26.83" x2="74.57" y2="26.83" xlink:href="#b"/></defs><title>_</title><g fill="none" stroke-miterlimit="10"><path stroke-width="10.8" stroke="url(#b)" d="M12.08 142.32h72.5"/><g stroke-width="3.6"><path d="M13 180.61v-1.16a173.48 173.48 0 0 1 12.39-64.13L47.2 50.38c1.8-4.88 9.93-4.88 11.72 0l22.25 67.28a173.37 173.37 0 0 1 11.93 62.95" stroke="url(#a)"/><path d="M12 180.61v-1.16a173.48 173.48 0 0 1 12.39-64.13L46.2 50.38c1.8-4.88 9.93-4.88 11.72 0l22.25 67.28a173.37 173.37 0 0 1 11.93 62.95" stroke="url(#c)"/><path d="M11 180.61v-1.16a173.48 173.48 0 0 1 12.39-64.13L45.2 50.38c1.8-4.88 9.93-4.88 11.72 0l22.25 67.28a173.37 173.37 0 0 1 11.93 62.95" stroke="url(#d)"/><path d="M10 180.61v-1.16a173.48 173.48 0 0 1 12.39-64.13L44.2 50.38c1.8-4.88 9.93-4.88 11.72 0l22.25 67.28a173.37 173.37 0 0 1 11.93 62.95" stroke="url(#e)"/><path d="M9 180.61v-1.16a173.48 173.48 0 0 1 12.39-64.13L43.2 50.38c1.8-4.88 9.93-4.88 11.72 0l22.25 67.28a173.37 173.37 0 0 1 11.93 62.95" stroke="url(#f)"/><path d="M8 180.61v-1.16a173.48 173.48 0 0 1 12.39-64.13L42.2 50.38c1.8-4.88 9.93-4.88 11.72 0l22.25 67.28a173.37 173.37 0 0 1 11.93 62.95" stroke="url(#g)"/><path d="M7 180.61v-1.16a173.48 173.48 0 0 1 12.39-64.13L41.2 50.38c1.8-4.88 9.93-4.88 11.72 0l22.25 67.28a173.37 173.37 0 0 1 11.93 62.95" stroke="url(#h)"/><path d="M6 180.61v-1.16a173.48 173.48 0 0 1 12.39-64.13L40.2 50.38c1.8-4.88 9.93-4.88 11.72 0l22.25 67.28a173.37 173.37 0 0 1 11.93 62.95" stroke="url(#i)"/><path d="M5 180.61v-1.16a173.48 173.48 0 0 1 12.39-64.13L39.2 50.38c1.8-4.88 9.93-4.88 11.72 0l22.25 67.28a173.37 173.37 0 0 1 11.93 62.95" stroke="url(#j)"/><path d="M4 180.61v-1.16a173.48 173.48 0 0 1 12.39-64.13L38.2 50.38c1.8-4.88 9.93-4.88 11.72 0l22.25 67.28a173.37 173.37 0 0 1 11.93 62.95" stroke="url(#k)"/><path d="M3 180.61v-1.16a173.48 173.48 0 0 1 12.39-64.13L37.2 50.38c1.8-4.88 9.93-4.88 11.72 0l22.25 67.28a173.37 173.37 0 0 1 11.93 62.95" stroke="url(#l)"/></g></g><path d="M29.66 44L43.6 16.13a7.22 7.22 0 0 1 13 .21l13 28.33" fill="none" stroke-miterlimit="10" stroke-width="10.8" stroke="url(#m)"/></svg>