<svg data-name="Layer 2" xmlns="http://www.w3.org/2000/svg" xmlns:xlink="http://www.w3.org/1999/xlink" width="94" height="200" viewBox="0 0 94 200"><defs><linearGradient id="b" data-name="Orange, Yellow" x1="10.75" y1="142.32" x2="83.25" y2="142.32" gradientUnits="userSpaceOnUse"><stop offset="0" stop-color="#fff33b"/><stop offset=".04" stop-color="#fee72e"/><stop offset=".12" stop-color="#fed51b"/><stop offset=".2" stop-color="#fdca10"/><stop offset=".28" stop-color="#fdc70c"/><stop offset=".67" stop-color="#f3903f"/><stop offset=".89" stop-color="#ed683c"/><stop offset="1" stop-color="#e93e3a"/></linearGradient><linearGradient id="a" data-name="Red, Purple, Blue" x1="9.9" y1="113.08" x2="93.56" y2="113.08" gradientUnits="userSpaceOnUse"><stop offset="0" stop-color="#b7151b"/><stop offset=".02" stop-color="#c52229"/><stop offset=".06" stop-color="#d7333c"/><stop offset=".11" stop-color="#e23d47"/><stop offset=".15" stop-color="#e6404b"/><stop offset=".3" stop-color="#e98a7b"/><stop offset=".47" stop-color="#7c78b8"/><stop offset=".64" stop-color="#00b0b0"/><stop offset=".79" stop-color="#7b76b6"/><stop offset="1" stop-color="#e7322f"/></linearGradient><linearGradient id="c" x1="8.9" y1="113.08" x2="92.56" y2="113.08" xlink:href="#a"/><linearGradient id="d" x1="7.9" y1="113.08" x2="91.56" y2="113.08" xlink:href="#a"/><linearGradient id="e" x1="6.9" y1="113.08" x2="90.56" y2="113.08" xlink:href="#a"/><linearGradient id="f" x1="5.9" y1="113.08" x2="89.56" y2="113.08" xlink:href="#a"/><linearGradient id="g" x1="4.9" y1="113.08" x2="88.56" y2="113.08" xlink:href="#a"/><linearGradient id="h" x1="3.9" y1="113.08" x2="87.56" y2="113.08" xlink:href="#a"/><linearGradient id="i" x1="2.9" y1="113.08" x2="86.56" y2="113.08" xlink:href="#a"/><linearGradient id="j" x1="1.9" y1="113.08" x2="85.56" y2="113.08" xlink:href="#a"/><linearGradient id="k" x1=".9" y1="113.08" x2="84.56" y2="113.08" xlink:href="#a"/><linearGradient id="l" x1="-.1" y1="113.08" x2="83.56" y2="113.08" xlink:href="#a"/><linearGradient id="m" x1="-150.49" y1="241.37" x2="-99.69" y2="241.37" gradientTransform="matrix(.97 .23 -.23 .97 224.05 -171.4)" xlink:href="#b"/></defs><title>_</title><g fill="none" stroke-miterlimit="10"><path stroke-width="10.8" stroke="url(#b)" d="M10.75 142.32h72.5"/><g stroke-width="3.6"><path d="M11.7 180.61v-1.16a173.48 173.48 0 0 1 12.39-64.13l21.78-64.94c1.8-4.88 9.93-4.88 11.72 0l22.25 67.28a173.37 173.37 0 0 1 11.92 62.95" stroke="url(#a)"/><path d="M10.7 180.61v-1.16a173.48 173.48 0 0 1 12.39-64.13l21.78-64.94c1.8-4.88 9.93-4.88 11.72 0l22.25 67.28a173.37 173.37 0 0 1 11.92 62.95" stroke="url(#c)"/><path d="M9.7 180.61v-1.16a173.48 173.48 0 0 1 12.39-64.13l21.78-64.94c1.8-4.88 9.93-4.88 11.72 0l22.25 67.28a173.37 173.37 0 0 1 11.92 62.95" stroke="url(#d)"/><path d="M8.7 180.61v-1.16a173.48 173.48 0 0 1 12.39-64.13l21.78-64.94c1.8-4.88 9.93-4.88 11.72 0l22.25 67.28a173.37 173.37 0 0 1 11.92 62.95" stroke="url(#e)"/><path d="M7.7 180.61v-1.16a173.48 173.48 0 0 1 12.39-64.13l21.78-64.94c1.8-4.88 9.93-4.88 11.72 0l22.25 67.28a173.37 173.37 0 0 1 11.92 62.95" stroke="url(#f)"/><path d="M6.7 180.61v-1.16a173.48 173.48 0 0 1 12.39-64.13l21.78-64.94c1.8-4.88 9.93-4.88 11.72 0l22.25 67.28a173.37 173.37 0 0 1 11.92 62.95" stroke="url(#g)"/><path d="M5.7 180.61v-1.16a173.48 173.48 0 0 1 12.39-64.13l21.78-64.94c1.8-4.88 9.93-4.88 11.72 0l22.25 67.28a173.37 173.37 0 0 1 11.92 62.95" stroke="url(#h)"/><path d="M4.7 180.61v-1.16a173.48 173.48 0 0 1 12.39-64.13l21.78-64.94c1.8-4.88 9.93-4.88 11.72 0l22.25 67.28a173.37 173.37 0 0 1 11.92 62.95" stroke="url(#i)"/><path d="M3.7 180.61v-1.16a173.48 173.48 0 0 1 12.39-64.13l21.78-64.94c1.8-4.88 9.93-4.88 11.72 0l22.25 67.28a173.37 173.37 0 0 1 11.92 62.95" stroke="url(#j)"/><path d="M2.7 180.61v-1.16a173.48 173.48 0 0 1 12.39-64.13l21.78-64.94c1.8-4.88 9.93-4.88 11.72 0l22.25 67.28a173.37 173.37 0 0 1 11.92 62.95" stroke="url(#k)"/><path d="M1.7 180.61v-1.16a173.48 173.48 0 0 1 12.39-64.13l21.78-64.94c1.8-4.88 9.93-4.88 11.72 0l22.25 67.28a173.37 173.37 0 0 1 11.92 62.95" stroke="url(#l)"/></g></g><path d="M24.23 38.27L25 35a11.65 11.65 0 0 1 19.3-5.75l4.36 4.08A11.65 11.65 0 0 0 68 27.56" fill="none" stroke-miterlimit="10" stroke-width="10.8" stroke="url(#m)"/></svg>