<svg data-name="Layer 2" xmlns="http://www.w3.org/2000/svg" xmlns:xlink="http://www.w3.org/1999/xlink" width="175.33" height="200" viewBox="0 0 175.33 200"><defs><linearGradient id="a" data-name="Red, Purple, Blue" x1="-1913.78" y1="-911.44" x2="-1997.81" y2="-911.44" gradientTransform="rotate(180 -911.815 -399.5)" gradientUnits="userSpaceOnUse"><stop offset="0" stop-color="#b7151b"/><stop offset=".02" stop-color="#c52229"/><stop offset=".06" stop-color="#d7333c"/><stop offset=".11" stop-color="#e23d47"/><stop offset=".15" stop-color="#e6404b"/><stop offset=".3" stop-color="#e98a7b"/><stop offset=".47" stop-color="#7c78b8"/><stop offset=".64" stop-color="#00b0b0"/><stop offset=".79" stop-color="#7b76b6"/><stop offset="1" stop-color="#e7322f"/></linearGradient><linearGradient id="b" x1="-1912.78" y1="-911.44" x2="-1996.81" y2="-911.44" xlink:href="#a"/><linearGradient id="c" x1="-1911.78" y1="-911.44" x2="-1995.81" y2="-911.44" xlink:href="#a"/><linearGradient id="d" x1="-1910.78" y1="-911.44" x2="-1994.81" y2="-911.44" xlink:href="#a"/><linearGradient id="e" x1="-1909.78" y1="-911.44" x2="-1993.81" y2="-911.44" xlink:href="#a"/><linearGradient id="f" x1="-1908.78" y1="-911.44" x2="-1992.81" y2="-911.44" xlink:href="#a"/><linearGradient id="g" x1="-1907.78" y1="-911.44" x2="-1991.81" y2="-911.44" xlink:href="#a"/><linearGradient id="h" x1="-1906.78" y1="-911.44" x2="-1990.81" y2="-911.44" xlink:href="#a"/><linearGradient id="i" x1="-1905.78" y1="-911.44" x2="-1989.81" y2="-911.44" xlink:href="#a"/><linearGradient id="j" x1="-1904.78" y1="-911.44" x2="-1988.81" y2="-911.44" xlink:href="#a"/><linearGradient id="k" x1="-1903.78" y1="-911.44" x2="-1987.81" y2="-911.44" xlink:href="#a"/><linearGradient id="l" data-name="Orange, Yellow" x1="12" y1="136.31" x2="152.25" y2="136.31" gradientUnits="userSpaceOnUse"><stop offset="0" stop-color="#fff33b"/><stop offset=".04" stop-color="#fee72e"/><stop offset=".12" stop-color="#fed51b"/><stop offset=".2" stop-color="#fdca10"/><stop offset=".28" stop-color="#fdc70c"/><stop offset=".67" stop-color="#f3903f"/><stop offset=".89" stop-color="#ed683c"/><stop offset="1" stop-color="#e93e3a"/></linearGradient><linearGradient id="m" x1="10.56" y1="113.08" x2="94.23" y2="113.08" xlink:href="#a"/><linearGradient id="n" x1="9.56" y1="113.08" x2="93.23" y2="113.08" xlink:href="#a"/><linearGradient id="o" x1="8.56" y1="113.08" x2="92.23" y2="113.08" xlink:href="#a"/><linearGradient id="p" x1="7.56" y1="113.08" x2="91.23" y2="113.08" xlink:href="#a"/><linearGradient id="q" x1="6.56" y1="113.08" x2="90.23" y2="113.08" xlink:href="#a"/><linearGradient id="r" x1="5.56" y1="113.08" x2="89.23" y2="113.08" xlink:href="#a"/><linearGradient id="s" x1="4.56" y1="113.08" x2="88.23" y2="113.08" xlink:href="#a"/><linearGradient id="t" x1="3.56" y1="113.08" x2="87.23" y2="113.08" xlink:href="#a"/><linearGradient id="u" x1="2.56" y1="113.08" x2="86.23" y2="113.08" xlink:href="#a"/><linearGradient id="v" x1="1.56" y1="113.08" x2="85.23" y2="113.08" xlink:href="#a"/><linearGradient id="w" x1=".56" y1="113.08" x2="84.23" y2="113.08" xlink:href="#a"/></defs><title>_</title><g fill="none" stroke-miterlimit="10" stroke-width="3.6"><path stroke="url(#a)" d="M174.18 46.29H92.52l-.57 132.31h82.01"/><path stroke="url(#b)" d="M173.18 46.29H91.52l-.57 132.31h82.01"/><path stroke="url(#c)" d="M172.18 46.29H90.52l-.57 132.31h82.01"/><path stroke="url(#d)" d="M171.18 46.29H89.52l-.57 132.31h82.01"/><path stroke="url(#e)" d="M170.18 46.29H88.52l-.57 132.31h82.01"/><path stroke="url(#f)" d="M169.18 46.29H87.52l-.57 132.31h82.01"/><path stroke="url(#g)" d="M168.18 46.29H86.52l-.57 132.31h82.01"/><path stroke="url(#h)" d="M167.18 46.29H85.52l-.57 132.31h82.01"/><path stroke="url(#i)" d="M166.18 46.29H84.52l-.57 132.31h82.01"/><path stroke="url(#j)" d="M165.18 46.29H83.52l-.57 132.31h82.01"/><path stroke="url(#k)" d="M164.18 46.29H82.52l-.57 132.31h82.01"/></g><path fill="none" stroke-miterlimit="10" stroke-width="10.8" stroke="url(#l)" d="M12 136.31h140.25"/><g fill="none" stroke-miterlimit="10" stroke-width="3.6"><path d="M12.36 180.61v-1.16a173.48 173.48 0 0 1 12.39-64.13l21.79-64.94c1.8-4.88 9.93-4.88 11.72 0l22.25 67.28a173.37 173.37 0 0 1 11.92 62.95" stroke="url(#m)"/><path d="M11.36 180.61v-1.16a173.48 173.48 0 0 1 12.39-64.13l21.79-64.94c1.8-4.88 9.93-4.88 11.72 0l22.25 67.28a173.37 173.37 0 0 1 11.92 62.95" stroke="url(#n)"/><path d="M10.36 180.61v-1.16a173.48 173.48 0 0 1 12.39-64.13l21.79-64.94c1.8-4.88 9.93-4.88 11.72 0l22.25 67.28a173.37 173.37 0 0 1 11.92 62.95" stroke="url(#o)"/><path d="M9.36 180.61v-1.16a173.48 173.48 0 0 1 12.39-64.13l21.79-64.94c1.8-4.88 9.93-4.88 11.72 0l22.25 67.28a173.37 173.37 0 0 1 11.92 62.95" stroke="url(#p)"/><path d="M8.36 180.61v-1.16a173.48 173.48 0 0 1 12.39-64.13l21.79-64.94c1.8-4.88 9.93-4.88 11.72 0l22.25 67.28a173.37 173.37 0 0 1 11.92 62.95" stroke="url(#q)"/><path d="M7.36 180.61v-1.16a173.48 173.48 0 0 1 12.39-64.13l21.79-64.94c1.8-4.88 9.93-4.88 11.72 0l22.25 67.28a173.37 173.37 0 0 1 11.92 62.95" stroke="url(#r)"/><path d="M6.36 180.61v-1.16a173.48 173.48 0 0 1 12.39-64.13l21.79-64.94c1.8-4.88 9.93-4.88 11.72 0l22.25 67.28a173.37 173.37 0 0 1 11.92 62.95" stroke="url(#s)"/><path d="M5.36 180.61v-1.16a173.48 173.48 0 0 1 12.39-64.13l21.79-64.94c1.8-4.88 9.93-4.88 11.72 0l22.25 67.28a173.37 173.37 0 0 1 11.92 62.95" stroke="url(#t)"/><path d="M4.36 180.61v-1.16a173.48 173.48 0 0 1 12.39-64.13l21.79-64.94c1.8-4.88 9.93-4.88 11.72 0l22.25 67.28a173.37 173.37 0 0 1 11.92 62.95" stroke="url(#u)"/><path d="M3.36 180.61v-1.16a173.48 173.48 0 0 1 12.39-64.13l21.79-64.94c1.8-4.88 9.93-4.88 11.72 0l22.25 67.28a173.37 173.37 0 0 1 11.92 62.95" stroke="url(#v)"/><path d="M2.36 180.61v-1.16a173.48 173.48 0 0 1 12.39-64.13l21.79-64.94c1.8-4.88 9.93-4.88 11.72 0l22.25 67.28a173.37 173.37 0 0 1 11.92 62.95" stroke="url(#w)"/></g></svg>