<svg data-name="Layer 2" xmlns="http://www.w3.org/2000/svg" xmlns:xlink="http://www.w3.org/1999/xlink" width="93.33" height="200" viewBox="0 0 93.33 200"><defs><linearGradient id="a" data-name="Red, Purple, Blue" x1="10.61" y1="112.45" x2="93.98" y2="112.45" gradientUnits="userSpaceOnUse"><stop offset="0" stop-color="#b7151b"/><stop offset=".02" stop-color="#c52229"/><stop offset=".06" stop-color="#d7333c"/><stop offset=".11" stop-color="#e23d47"/><stop offset=".15" stop-color="#e6404b"/><stop offset=".3" stop-color="#e98a7b"/><stop offset=".47" stop-color="#7c78b8"/><stop offset=".64" stop-color="#00b0b0"/><stop offset=".79" stop-color="#7b76b6"/><stop offset="1" stop-color="#e7322f"/></linearGradient><linearGradient id="b" x1="9.61" y1="112.45" x2="92.98" y2="112.45" xlink:href="#a"/><linearGradient id="c" x1="8.61" y1="112.45" x2="91.98" y2="112.45" xlink:href="#a"/><linearGradient id="d" x1="7.61" y1="112.45" x2="90.98" y2="112.45" xlink:href="#a"/><linearGradient id="e" x1="6.61" y1="112.45" x2="89.98" y2="112.45" xlink:href="#a"/><linearGradient id="f" x1="5.61" y1="112.45" x2="88.98" y2="112.45" xlink:href="#a"/><linearGradient id="g" x1="4.61" y1="112.45" x2="87.98" y2="112.45" xlink:href="#a"/><linearGradient id="h" x1="3.61" y1="112.45" x2="86.98" y2="112.45" xlink:href="#a"/><linearGradient id="i" x1="2.61" y1="112.45" x2="85.98" y2="112.45" xlink:href="#a"/><linearGradient id="j" x1="1.61" y1="112.45" x2="84.98" y2="112.45" xlink:href="#a"/><linearGradient id="k" x1=".61" y1="112.45" x2="83.98" y2="112.45" xlink:href="#a"/><linearGradient id="l" data-name="Orange, Yellow" x1="43.11" y1="193.31" x2="65.7" y2="193.31" gradientUnits="userSpaceOnUse"><stop offset="0" stop-color="#fff33b"/><stop offset=".04" stop-color="#fee72e"/><stop offset=".12" stop-color="#fed51b"/><stop offset=".2" stop-color="#fdca10"/><stop offset=".28" stop-color="#fdc70c"/><stop offset=".67" stop-color="#f3903f"/><stop offset=".89" stop-color="#ed683c"/><stop offset="1" stop-color="#e93e3a"/></linearGradient></defs><title>_</title><g fill="none" stroke-miterlimit="10" stroke-width="3.6"><path d="M94 46.29H57.44c-24.87 0-45 28-45 65.73s20.16 66.58 45 66.58h36" stroke="url(#a)"/><path d="M93 46.29H56.44c-24.87 0-45 28-45 65.73s20.16 66.58 45 66.58h36" stroke="url(#b)"/><path d="M92 46.29H55.44c-24.87 0-45 28-45 65.73s20.16 66.58 45 66.58h36" stroke="url(#c)"/><path d="M91 46.29H54.44c-24.87 0-45 28-45 65.73s20.16 66.58 45 66.58h36" stroke="url(#d)"/><path d="M90 46.29H53.44c-24.87 0-45 28-45 65.73s20.16 66.58 45 66.58h36" stroke="url(#e)"/><path d="M89 46.29H52.44c-24.87 0-45 28-45 65.73s20.16 66.58 45 66.58h36" stroke="url(#f)"/><path d="M88 46.29H51.44c-24.87 0-45 28-45 65.73s20.16 66.58 45 66.58h36" stroke="url(#g)"/><path d="M87 46.29H50.44c-24.87 0-45 28-45 65.73s20.16 66.58 45 66.58h36" stroke="url(#h)"/><path d="M86 46.29H49.44c-24.87 0-45 28-45 65.73s20.16 66.58 45 66.58h36" stroke="url(#i)"/><path d="M85 46.29H48.44c-24.87 0-45 28-45 65.73s20.16 66.58 45 66.58h36" stroke="url(#j)"/><path d="M84 46.29H47.44c-24.87 0-45 28-45 65.73s20.16 66.58 45 66.58h36" stroke="url(#k)"/></g><path d="M61.5 174.34l-10.5 13a14 14 0 0 1 2 21.46l-3 3" fill="none" stroke-miterlimit="10" stroke-width="10.8" stroke="url(#l)"/></svg>