<svg data-name="Layer 2" xmlns="http://www.w3.org/2000/svg" xmlns:xlink="http://www.w3.org/1999/xlink" width="93.33" height="200" viewBox="0 0 93.33 200"><defs><linearGradient id="a" data-name="Red, Purple, Blue" x1="2165.55" y1="-1411.44" x2="2081.52" y2="-1411.44" gradientTransform="rotate(180 1087.515 -649.5)" gradientUnits="userSpaceOnUse"><stop offset="0" stop-color="#b7151b"/><stop offset=".02" stop-color="#c52229"/><stop offset=".06" stop-color="#d7333c"/><stop offset=".11" stop-color="#e23d47"/><stop offset=".15" stop-color="#e6404b"/><stop offset=".3" stop-color="#e98a7b"/><stop offset=".47" stop-color="#7c78b8"/><stop offset=".64" stop-color="#00b0b0"/><stop offset=".79" stop-color="#7b76b6"/><stop offset="1" stop-color="#e7322f"/></linearGradient><linearGradient id="c" x1="2166.55" y1="-1411.44" x2="2082.52" y2="-1411.44" xlink:href="#a"/><linearGradient id="d" x1="2167.55" y1="-1411.44" x2="2083.52" y2="-1411.44" xlink:href="#a"/><linearGradient id="e" x1="2168.55" y1="-1411.44" x2="2084.52" y2="-1411.44" xlink:href="#a"/><linearGradient id="f" x1="2169.55" y1="-1411.44" x2="2085.52" y2="-1411.44" xlink:href="#a"/><linearGradient id="g" x1="2170.55" y1="-1411.44" x2="2086.52" y2="-1411.44" xlink:href="#a"/><linearGradient id="h" x1="2171.55" y1="-1411.44" x2="2087.52" y2="-1411.44" xlink:href="#a"/><linearGradient id="i" x1="2172.55" y1="-1411.44" x2="2088.52" y2="-1411.44" xlink:href="#a"/><linearGradient id="j" x1="2173.55" y1="-1411.44" x2="2089.52" y2="-1411.44" xlink:href="#a"/><linearGradient id="k" x1="2174.55" y1="-1411.44" x2="2090.52" y2="-1411.44" xlink:href="#a"/><linearGradient id="l" x1="2175.55" y1="-1411.44" x2="2091.52" y2="-1411.44" xlink:href="#a"/><linearGradient id="b" data-name="Orange, Yellow" x1="-.41" y1="136.31" x2="71.58" y2="136.31" gradientUnits="userSpaceOnUse"><stop offset="0" stop-color="#fff33b"/><stop offset=".04" stop-color="#fee72e"/><stop offset=".12" stop-color="#fed51b"/><stop offset=".2" stop-color="#fdca10"/><stop offset=".28" stop-color="#fdc70c"/><stop offset=".67" stop-color="#f3903f"/><stop offset=".89" stop-color="#ed683c"/><stop offset="1" stop-color="#e93e3a"/></linearGradient><linearGradient id="m" x1="-1292.39" y1="-528.67" x2="-1258.65" y2="-528.67" gradientTransform="scale(-1 1) rotate(-74.3 -284.19 -1057.767)" xlink:href="#b"/></defs><title>_</title><g fill="none" stroke-miterlimit="10" stroke-width="3.6"><path stroke="url(#a)" d="M93.51 46.29H11.86l-.57 132.31h82"/><path stroke="url(#c)" d="M92.51 46.29H10.86l-.57 132.31h82"/><path stroke="url(#d)" d="M91.51 46.29H9.86L9.29 178.6h82"/><path stroke="url(#e)" d="M90.51 46.29H8.86L8.29 178.6h82"/><path stroke="url(#f)" d="M89.51 46.29H7.86L7.29 178.6h82"/><path stroke="url(#g)" d="M88.51 46.29H6.86L6.29 178.6h82"/><path stroke="url(#h)" d="M87.51 46.29H5.86L5.29 178.6h82"/><path stroke="url(#i)" d="M86.51 46.29H4.86L4.29 178.6h82"/><path stroke="url(#j)" d="M85.51 46.29H3.86L3.29 178.6h82"/><path stroke="url(#k)" d="M84.51 46.29H2.86L2.29 178.6h82"/><path stroke="url(#l)" d="M83.51 46.29H1.86L1.29 178.6h82"/></g><path fill="none" stroke-miterlimit="10" stroke-width="10.8" stroke="url(#b)" d="M-.41 136.31h71.99"/><path fill="none" stroke-miterlimit="10" stroke-width="10.8" stroke="url(#m)" d="M58.65 52.6L40.41 26.34"/></svg>