<svg data-name="Layer 2" xmlns="http://www.w3.org/2000/svg" xmlns:xlink="http://www.w3.org/1999/xlink" width="94" height="200" viewBox="0 0 94 200"><defs><linearGradient id="a" data-name="Red, Purple, Blue" x1="664.89" y1="-1411.44" x2="580.85" y2="-1411.44" gradientTransform="rotate(180 337.515 -649.5)" gradientUnits="userSpaceOnUse"><stop offset="0" stop-color="#b7151b"/><stop offset=".02" stop-color="#c52229"/><stop offset=".06" stop-color="#d7333c"/><stop offset=".11" stop-color="#e23d47"/><stop offset=".15" stop-color="#e6404b"/><stop offset=".3" stop-color="#e98a7b"/><stop offset=".47" stop-color="#7c78b8"/><stop offset=".64" stop-color="#00b0b0"/><stop offset=".79" stop-color="#7b76b6"/><stop offset="1" stop-color="#e7322f"/></linearGradient><linearGradient id="c" x1="665.89" y1="-1411.44" x2="581.85" y2="-1411.44" xlink:href="#a"/><linearGradient id="d" x1="666.89" y1="-1411.44" x2="582.85" y2="-1411.44" xlink:href="#a"/><linearGradient id="e" x1="667.89" y1="-1411.44" x2="583.85" y2="-1411.44" xlink:href="#a"/><linearGradient id="f" x1="668.89" y1="-1411.44" x2="584.85" y2="-1411.44" xlink:href="#a"/><linearGradient id="g" x1="669.89" y1="-1411.44" x2="585.85" y2="-1411.44" xlink:href="#a"/><linearGradient id="h" x1="670.89" y1="-1411.44" x2="586.85" y2="-1411.44" xlink:href="#a"/><linearGradient id="i" x1="671.89" y1="-1411.44" x2="587.85" y2="-1411.44" xlink:href="#a"/><linearGradient id="j" x1="672.89" y1="-1411.44" x2="588.85" y2="-1411.44" xlink:href="#a"/><linearGradient id="k" x1="673.89" y1="-1411.44" x2="589.85" y2="-1411.44" xlink:href="#a"/><linearGradient id="l" x1="674.89" y1="-1411.44" x2="590.85" y2="-1411.44" xlink:href="#a"/><linearGradient id="b" data-name="Orange, Yellow" x1=".26" y1="136.31" x2="72.25" y2="136.31" gradientUnits="userSpaceOnUse"><stop offset="0" stop-color="#fff33b"/><stop offset=".04" stop-color="#fee72e"/><stop offset=".12" stop-color="#fed51b"/><stop offset=".2" stop-color="#fdca10"/><stop offset=".28" stop-color="#fdc70c"/><stop offset=".67" stop-color="#f3903f"/><stop offset=".89" stop-color="#ed683c"/><stop offset="1" stop-color="#e93e3a"/></linearGradient><linearGradient id="m" x1="14.77" y1="24.33" x2="48.07" y2="24.33" xlink:href="#b"/><linearGradient id="n" x1="51.77" y1="24.33" x2="85.07" y2="24.33" xlink:href="#b"/></defs><title>_</title><g fill="none" stroke-miterlimit="10" stroke-width="3.6"><path stroke="url(#a)" d="M94.18 46.29H12.52l-.57 132.31h82.01"/><path stroke="url(#c)" d="M93.18 46.29H11.52l-.57 132.31h82.01"/><path stroke="url(#d)" d="M92.18 46.29H10.52L9.95 178.6h82.01"/><path stroke="url(#e)" d="M91.18 46.29H9.52L8.95 178.6h82.01"/><path stroke="url(#f)" d="M90.18 46.29H8.52L7.95 178.6h82.01"/><path stroke="url(#g)" d="M89.18 46.29H7.52L6.95 178.6h82.01"/><path stroke="url(#h)" d="M88.18 46.29H6.52L5.95 178.6h82.01"/><path stroke="url(#i)" d="M87.18 46.29H5.52L4.95 178.6h82.01"/><path stroke="url(#j)" d="M86.18 46.29H4.52L3.95 178.6h82.01"/><path stroke="url(#k)" d="M85.18 46.29H3.52L2.95 178.6h82.01"/><path stroke="url(#l)" d="M84.18 46.29H2.52L1.95 178.6h82.01"/></g><path fill="none" stroke-miterlimit="10" stroke-width="10.8" stroke="url(#b)" d="M.26 136.31h71.99"/><g fill="none" stroke-miterlimit="10" stroke-width="10.8"><circle cx="31.42" cy="24.33" r="11.25" stroke="url(#m)"/><circle cx="68.42" cy="24.33" r="11.25" stroke="url(#n)"/></g></svg>