<svg data-name="Layer 2" xmlns="http://www.w3.org/2000/svg" xmlns:xlink="http://www.w3.org/1999/xlink" width="22" height="200" viewBox="0 0 22 200"><defs><linearGradient id="a" data-name="Red, Purple, Blue" x1="1743.33" y1="446.51" x2="1876.33" y2="446.51" gradientTransform="rotate(90 1081.835 -614.495)" gradientUnits="userSpaceOnUse"><stop offset="0" stop-color="#b7151b"/><stop offset=".02" stop-color="#c52229"/><stop offset=".06" stop-color="#d7333c"/><stop offset=".11" stop-color="#e23d47"/><stop offset=".15" stop-color="#e6404b"/><stop offset=".3" stop-color="#e98a7b"/><stop offset=".47" stop-color="#7c78b8"/><stop offset=".64" stop-color="#00b0b0"/><stop offset=".79" stop-color="#7b76b6"/><stop offset="1" stop-color="#e7322f"/></linearGradient><linearGradient id="b" x1="1743.33" y1="447.51" x2="1876.33" y2="447.51" xlink:href="#a"/><linearGradient id="c" x1="1743.33" y1="448.51" x2="1876.33" y2="448.51" xlink:href="#a"/><linearGradient id="d" x1="1743.33" y1="449.51" x2="1876.33" y2="449.51" xlink:href="#a"/><linearGradient id="e" x1="1743.33" y1="450.51" x2="1876.33" y2="450.51" xlink:href="#a"/><linearGradient id="f" x1="1743.33" y1="451.51" x2="1876.33" y2="451.51" xlink:href="#a"/><linearGradient id="g" x1="1743.33" y1="452.51" x2="1876.33" y2="452.51" xlink:href="#a"/><linearGradient id="h" x1="1743.33" y1="453.51" x2="1876.33" y2="453.51" xlink:href="#a"/><linearGradient id="i" x1="1743.33" y1="454.51" x2="1876.33" y2="454.51" xlink:href="#a"/><linearGradient id="j" x1="1743.33" y1="455.51" x2="1876.33" y2="455.51" xlink:href="#a"/><linearGradient id="k" x1="1743.33" y1="456.51" x2="1876.33" y2="456.51" xlink:href="#a"/><linearGradient id="l" data-name="Orange, Yellow" x1="-2557.7" y1="-1465.29" x2="-2523.95" y2="-1465.29" gradientTransform="scale(-1 1) rotate(-74.3 -281.682 -2400.117)" gradientUnits="userSpaceOnUse"><stop offset="0" stop-color="#fff33b"/><stop offset=".04" stop-color="#fee72e"/><stop offset=".12" stop-color="#fed51b"/><stop offset=".2" stop-color="#fdca10"/><stop offset=".28" stop-color="#fdc70c"/><stop offset=".67" stop-color="#f3903f"/><stop offset=".89" stop-color="#ed683c"/><stop offset="1" stop-color="#e93e3a"/></linearGradient></defs><title>_</title><g fill="none" stroke-miterlimit="10" stroke-width="3.6"><path stroke="url(#a)" d="M20.82 47v133"/><path stroke="url(#b)" d="M19.82 47v133"/><path stroke="url(#c)" d="M18.82 47v133"/><path stroke="url(#d)" d="M17.82 47v133"/><path stroke="url(#e)" d="M16.82 47v133"/><path stroke="url(#f)" d="M15.82 47v133"/><path stroke="url(#g)" d="M14.82 47v133"/><path stroke="url(#h)" d="M13.82 47v133"/><path stroke="url(#i)" d="M12.82 47v133"/><path stroke="url(#j)" d="M11.82 47v133"/><path stroke="url(#k)" d="M10.82 47v133"/></g><path fill="none" stroke-miterlimit="10" stroke-width="10.8" stroke="url(#l)" d="M15.99 38.59L-2.25 12.33"/></svg>