<svg data-name="Layer 2" xmlns="http://www.w3.org/2000/svg" xmlns:xlink="http://www.w3.org/1999/xlink" width="22" height="200" viewBox="0 0 22 200"><defs><linearGradient id="a" data-name="Red, Purple, Blue" x1="1484.67" y1="196.51" x2="1617.67" y2="196.51" gradientTransform="rotate(90 823.17 -614.5)" gradientUnits="userSpaceOnUse"><stop offset="0" stop-color="#b7151b"/><stop offset=".02" stop-color="#c52229"/><stop offset=".06" stop-color="#d7333c"/><stop offset=".11" stop-color="#e23d47"/><stop offset=".15" stop-color="#e6404b"/><stop offset=".3" stop-color="#e98a7b"/><stop offset=".47" stop-color="#7c78b8"/><stop offset=".64" stop-color="#00b0b0"/><stop offset=".79" stop-color="#7b76b6"/><stop offset="1" stop-color="#e7322f"/></linearGradient><linearGradient id="b" x1="1484.67" y1="197.51" x2="1617.67" y2="197.51" xlink:href="#a"/><linearGradient id="c" x1="1484.67" y1="198.51" x2="1617.67" y2="198.51" xlink:href="#a"/><linearGradient id="d" x1="1484.67" y1="199.51" x2="1617.67" y2="199.51" xlink:href="#a"/><linearGradient id="e" x1="1484.67" y1="200.51" x2="1617.67" y2="200.51" xlink:href="#a"/><linearGradient id="f" x1="1484.67" y1="201.51" x2="1617.67" y2="201.51" xlink:href="#a"/><linearGradient id="g" x1="1484.67" y1="202.51" x2="1617.67" y2="202.51" xlink:href="#a"/><linearGradient id="h" x1="1484.67" y1="203.51" x2="1617.67" y2="203.51" xlink:href="#a"/><linearGradient id="i" x1="1484.67" y1="204.51" x2="1617.67" y2="204.51" xlink:href="#a"/><linearGradient id="j" x1="1484.67" y1="205.51" x2="1617.67" y2="205.51" xlink:href="#a"/><linearGradient id="k" x1="1484.67" y1="206.51" x2="1617.67" y2="206.51" xlink:href="#a"/><linearGradient id="l" data-name="Orange, Yellow" x1="-2239.71" y1="559.69" x2="-2205.96" y2="559.69" gradientTransform="rotate(-74.08 -1456.547 -1190.494)" gradientUnits="userSpaceOnUse"><stop offset="0" stop-color="#fff33b"/><stop offset=".04" stop-color="#fee72e"/><stop offset=".12" stop-color="#fed51b"/><stop offset=".2" stop-color="#fdca10"/><stop offset=".28" stop-color="#fdc70c"/><stop offset=".67" stop-color="#f3903f"/><stop offset=".89" stop-color="#ed683c"/><stop offset="1" stop-color="#e93e3a"/></linearGradient></defs><title>_</title><g fill="none" stroke-miterlimit="10" stroke-width="3.6"><path stroke="url(#a)" d="M12.16 47v133"/><path stroke="url(#b)" d="M11.16 47v133"/><path stroke="url(#c)" d="M10.16 47v133"/><path stroke="url(#d)" d="M9.16 47v133"/><path stroke="url(#e)" d="M8.16 47v133"/><path stroke="url(#f)" d="M7.16 47v133"/><path stroke="url(#g)" d="M6.16 47v133"/><path stroke="url(#h)" d="M5.16 47v133"/><path stroke="url(#i)" d="M4.16 47v133"/><path stroke="url(#j)" d="M3.16 47v133"/><path stroke="url(#k)" d="M2.16 47v133"/></g><path fill="none" stroke-miterlimit="10" stroke-width="10.8" stroke="url(#l)" d="M7.1 39.59l18.23-26.26"/></svg>