<svg data-name="Layer 2" xmlns="http://www.w3.org/2000/svg" xmlns:xlink="http://www.w3.org/1999/xlink" width="32.67" height="200" viewBox="0 0 32.67 200"><defs><linearGradient id="a" data-name="Red, Purple, Blue" x1="1243.33" y1="-53.49" x2="1376.33" y2="-53.49" gradientTransform="rotate(90 581.83 -614.5)" gradientUnits="userSpaceOnUse"><stop offset="0" stop-color="#b7151b"/><stop offset=".02" stop-color="#c52229"/><stop offset=".06" stop-color="#d7333c"/><stop offset=".11" stop-color="#e23d47"/><stop offset=".15" stop-color="#e6404b"/><stop offset=".3" stop-color="#e98a7b"/><stop offset=".47" stop-color="#7c78b8"/><stop offset=".64" stop-color="#00b0b0"/><stop offset=".79" stop-color="#7b76b6"/><stop offset="1" stop-color="#e7322f"/></linearGradient><linearGradient id="b" x1="1243.33" y1="-52.49" x2="1376.33" y2="-52.49" xlink:href="#a"/><linearGradient id="c" x1="1243.33" y1="-51.49" x2="1376.33" y2="-51.49" xlink:href="#a"/><linearGradient id="d" x1="1243.33" y1="-50.49" x2="1376.33" y2="-50.49" xlink:href="#a"/><linearGradient id="e" x1="1243.33" y1="-49.49" x2="1376.33" y2="-49.49" xlink:href="#a"/><linearGradient id="f" x1="1243.33" y1="-48.49" x2="1376.33" y2="-48.49" xlink:href="#a"/><linearGradient id="g" x1="1243.33" y1="-47.49" x2="1376.33" y2="-47.49" xlink:href="#a"/><linearGradient id="h" x1="1243.33" y1="-46.49" x2="1376.33" y2="-46.49" xlink:href="#a"/><linearGradient id="i" x1="1243.33" y1="-45.49" x2="1376.33" y2="-45.49" xlink:href="#a"/><linearGradient id="j" x1="1243.33" y1="-44.49" x2="1376.33" y2="-44.49" xlink:href="#a"/><linearGradient id="k" x1="1243.33" y1="-43.49" x2="1376.33" y2="-43.49" xlink:href="#a"/><linearGradient id="l" data-name="Orange, Yellow" x1="-9.17" y1="26.83" x2="40.57" y2="26.83" gradientUnits="userSpaceOnUse"><stop offset="0" stop-color="#fff33b"/><stop offset=".04" stop-color="#fee72e"/><stop offset=".12" stop-color="#fed51b"/><stop offset=".2" stop-color="#fdca10"/><stop offset=".28" stop-color="#fdc70c"/><stop offset=".67" stop-color="#f3903f"/><stop offset=".89" stop-color="#ed683c"/><stop offset="1" stop-color="#e93e3a"/></linearGradient></defs><title>_</title><g fill="none" stroke-miterlimit="10" stroke-width="3.6"><path stroke="url(#a)" d="M20.82 47v133"/><path stroke="url(#b)" d="M19.82 47v133"/><path stroke="url(#c)" d="M18.82 47v133"/><path stroke="url(#d)" d="M17.82 47v133"/><path stroke="url(#e)" d="M16.82 47v133"/><path stroke="url(#f)" d="M15.82 47v133"/><path stroke="url(#g)" d="M14.82 47v133"/><path stroke="url(#h)" d="M13.82 47v133"/><path stroke="url(#i)" d="M12.82 47v133"/><path stroke="url(#j)" d="M11.82 47v133"/><path stroke="url(#k)" d="M10.82 47v133"/></g><path d="M-4.34 44L9.6 16.13a7.22 7.22 0 0 1 13 .21l13 28.33" fill="none" stroke-miterlimit="10" stroke-width="10.8" stroke="url(#l)"/></svg>