<svg data-name="Layer 2" xmlns="http://www.w3.org/2000/svg" xmlns:xlink="http://www.w3.org/1999/xlink" width="40" height="200" viewBox="0 0 40 200"><defs><linearGradient id="a" data-name="Red, Purple, Blue" x1="996" y1="-304.15" x2="1129" y2="-304.15" gradientTransform="rotate(90 334.5 -614.5)" gradientUnits="userSpaceOnUse"><stop offset="0" stop-color="#b7151b"/><stop offset=".02" stop-color="#c52229"/><stop offset=".06" stop-color="#d7333c"/><stop offset=".11" stop-color="#e23d47"/><stop offset=".15" stop-color="#e6404b"/><stop offset=".3" stop-color="#e98a7b"/><stop offset=".47" stop-color="#7c78b8"/><stop offset=".64" stop-color="#00b0b0"/><stop offset=".79" stop-color="#7b76b6"/><stop offset="1" stop-color="#e7322f"/></linearGradient><linearGradient id="c" x1="996" y1="-303.15" x2="1129" y2="-303.15" xlink:href="#a"/><linearGradient id="d" x1="996" y1="-302.15" x2="1129" y2="-302.15" xlink:href="#a"/><linearGradient id="e" x1="996" y1="-301.15" x2="1129" y2="-301.15" xlink:href="#a"/><linearGradient id="f" x1="996" y1="-300.15" x2="1129" y2="-300.15" xlink:href="#a"/><linearGradient id="g" x1="996" y1="-299.15" x2="1129" y2="-299.15" xlink:href="#a"/><linearGradient id="h" x1="996" y1="-298.15" x2="1129" y2="-298.15" xlink:href="#a"/><linearGradient id="i" x1="996" y1="-297.15" x2="1129" y2="-297.15" xlink:href="#a"/><linearGradient id="j" x1="996" y1="-296.15" x2="1129" y2="-296.15" xlink:href="#a"/><linearGradient id="k" x1="996" y1="-295.15" x2="1129" y2="-295.15" xlink:href="#a"/><linearGradient id="l" x1="996" y1="-294.15" x2="1129" y2="-294.15" xlink:href="#a"/><linearGradient id="b" data-name="Orange, Yellow" x1="-15.73" y1="32" x2="17.57" y2="32" gradientUnits="userSpaceOnUse"><stop offset="0" stop-color="#fff33b"/><stop offset=".04" stop-color="#fee72e"/><stop offset=".12" stop-color="#fed51b"/><stop offset=".2" stop-color="#fdca10"/><stop offset=".28" stop-color="#fdc70c"/><stop offset=".67" stop-color="#f3903f"/><stop offset=".89" stop-color="#ed683c"/><stop offset="1" stop-color="#e93e3a"/></linearGradient><linearGradient id="m" x1="21.27" x2="54.57" xlink:href="#b"/></defs><title>_</title><g fill="none" stroke-miterlimit="10" stroke-width="3.6"><path stroke="url(#a)" d="M24.16 47v133"/><path stroke="url(#c)" d="M23.16 47v133"/><path stroke="url(#d)" d="M22.16 47v133"/><path stroke="url(#e)" d="M21.16 47v133"/><path stroke="url(#f)" d="M20.16 47v133"/><path stroke="url(#g)" d="M19.16 47v133"/><path stroke="url(#h)" d="M18.16 47v133"/><path stroke="url(#i)" d="M17.16 47v133"/><path stroke="url(#j)" d="M16.16 47v133"/><path stroke="url(#k)" d="M15.16 47v133"/><path stroke="url(#l)" d="M14.16 47v133"/></g><g fill="none" stroke-miterlimit="10" stroke-width="10.8"><circle cx=".92" cy="32" r="11.25" stroke="url(#b)"/><circle cx="37.92" cy="32" r="11.25" stroke="url(#m)"/></g></svg>