<svg data-name="Layer 2" xmlns="http://www.w3.org/2000/svg" xmlns:xlink="http://www.w3.org/1999/xlink" width="94.67" height="200" viewBox="0 0 94.67 200"><defs><linearGradient id="a" data-name="Red, Purple, Blue" x1="10.61" y1="121.7" x2="95.01" y2="121.7" gradientUnits="userSpaceOnUse"><stop offset="0" stop-color="#b7151b"/><stop offset=".02" stop-color="#c52229"/><stop offset=".06" stop-color="#d7333c"/><stop offset=".11" stop-color="#e23d47"/><stop offset=".15" stop-color="#e6404b"/><stop offset=".3" stop-color="#e98a7b"/><stop offset=".47" stop-color="#7c78b8"/><stop offset=".64" stop-color="#00b0b0"/><stop offset=".79" stop-color="#7b76b6"/><stop offset="1" stop-color="#e7322f"/></linearGradient><linearGradient id="b" x1="9.61" y1="121.7" x2="94.01" y2="121.7" xlink:href="#a"/><linearGradient id="c" x1="8.61" y1="121.7" x2="93.01" y2="121.7" xlink:href="#a"/><linearGradient id="d" x1="7.61" y1="121.7" x2="92.01" y2="121.7" xlink:href="#a"/><linearGradient id="e" x1="6.61" y1="121.7" x2="91.01" y2="121.7" xlink:href="#a"/><linearGradient id="f" x1="5.61" y1="121.7" x2="90.01" y2="121.7" xlink:href="#a"/><linearGradient id="g" x1="4.61" y1="121.7" x2="89.01" y2="121.7" xlink:href="#a"/><linearGradient id="h" x1="3.61" y1="121.7" x2="88.01" y2="121.7" xlink:href="#a"/><linearGradient id="i" x1="2.61" y1="121.7" x2="87.01" y2="121.7" xlink:href="#a"/><linearGradient id="j" x1="1.61" y1="121.7" x2="86.01" y2="121.7" xlink:href="#a"/><linearGradient id="k" x1=".61" y1="121.7" x2="85.01" y2="121.7" xlink:href="#a"/><linearGradient id="l" data-name="Orange, Yellow" x1="38.07" y1="69.5" x2="91.93" y2="69.5" gradientUnits="userSpaceOnUse"><stop offset="0" stop-color="#fff33b"/><stop offset=".04" stop-color="#fee72e"/><stop offset=".12" stop-color="#fed51b"/><stop offset=".2" stop-color="#fdca10"/><stop offset=".28" stop-color="#fdc70c"/><stop offset=".67" stop-color="#f3903f"/><stop offset=".89" stop-color="#ed683c"/><stop offset="1" stop-color="#e93e3a"/></linearGradient></defs><title>_</title><g fill="none" stroke-miterlimit="10" stroke-width="3.6"><path d="M50.28 64.09c16.5 0 30.64 14.51 36.72 35.18a80.1 80.1 0 0 1 3.1 22.43c0 31.81-17.82 57.6-39.81 57.6-16.73 0-31.06-14.94-36.95-36.1-3.34-12 2.56-24.52 14.7-31.29 12.5-7 28.86-6.31 40.54 1.63L94 130.82" stroke="url(#a)"/><path d="M49.28 64.09c16.5 0 30.64 14.51 36.72 35.18a80.1 80.1 0 0 1 3.1 22.43c0 31.81-17.82 57.6-39.81 57.6-16.73 0-31.06-14.94-36.95-36.1-3.34-12 2.56-24.52 14.7-31.29 12.5-7 28.86-6.31 40.54 1.63L93 130.82" stroke="url(#b)"/><path d="M48.28 64.09c16.5 0 30.64 14.51 36.72 35.18a80.1 80.1 0 0 1 3.1 22.43c0 31.81-17.82 57.6-39.81 57.6-16.73 0-31.06-14.94-36.95-36.1-3.34-12 2.56-24.52 14.7-31.29 12.5-7 28.86-6.31 40.54 1.63L92 130.82" stroke="url(#c)"/><path d="M47.28 64.09c16.5 0 30.64 14.51 36.72 35.18a80.1 80.1 0 0 1 3.1 22.43c0 31.81-17.82 57.6-39.81 57.6-16.73 0-31.06-14.94-36.95-36.1-3.34-12 2.56-24.52 14.7-31.29 12.5-7 28.86-6.31 40.54 1.63L91 130.82" stroke="url(#d)"/><path d="M46.28 64.09c16.5 0 30.64 14.51 36.72 35.18a80.1 80.1 0 0 1 3.1 22.43c0 31.81-17.82 57.6-39.81 57.6-16.73 0-31.06-14.94-36.95-36.1-3.34-12 2.56-24.52 14.7-31.29 12.5-7 28.86-6.31 40.54 1.63L90 130.82" stroke="url(#e)"/><path d="M45.28 64.09c16.5 0 30.64 14.51 36.72 35.18a80.1 80.1 0 0 1 3.1 22.43c0 31.81-17.82 57.6-39.81 57.6-16.73 0-31.06-14.94-36.95-36.1-3.34-12 2.56-24.52 14.7-31.29 12.5-7 28.86-6.31 40.54 1.63L89 130.82" stroke="url(#f)"/><path d="M44.28 64.09c16.5 0 30.64 14.51 36.72 35.18a80.1 80.1 0 0 1 3.1 22.43c0 31.81-17.82 57.6-39.81 57.6-16.73 0-31.06-14.94-36.95-36.1C4 131.18 9.89 118.68 22 111.91c12.5-7 28.86-6.31 40.54 1.63L88 130.82" stroke="url(#g)"/><path d="M43.28 64.09c16.5 0 30.64 14.51 36.72 35.18a80.1 80.1 0 0 1 3.1 22.43c0 31.81-17.82 57.6-39.81 57.6-16.73 0-31.06-14.94-36.95-36.1C3 131.18 8.89 118.68 21 111.91c12.5-7 28.86-6.31 40.54 1.63L87 130.82" stroke="url(#h)"/><path d="M42.28 64.09c16.5 0 30.64 14.51 36.72 35.18a80.1 80.1 0 0 1 3.1 22.43c0 31.81-17.82 57.6-39.81 57.6-16.73 0-31.06-14.94-36.95-36.1C2 131.18 7.89 118.68 20 111.91c12.5-7 28.86-6.31 40.54 1.63L86 130.82" stroke="url(#i)"/><path d="M41.28 64.09c16.5 0 30.64 14.51 36.72 35.18a80.1 80.1 0 0 1 3.1 22.43c0 31.81-17.82 57.6-39.81 57.6-16.73 0-31.06-14.94-36.95-36.1C1 131.18 6.89 118.68 19 111.91c12.5-7 28.86-6.31 40.54 1.63L85 130.82" stroke="url(#j)"/><path d="M40.28 64.09c16.5 0 30.64 14.51 36.72 35.18a80.1 80.1 0 0 1 3.1 22.43c0 31.81-17.82 57.6-39.81 57.6-16.73 0-31.06-14.94-36.95-36.1C0 131.18 5.89 118.68 18 111.91c12.5-7 28.86-6.31 40.54 1.63L84 130.82" stroke="url(#k)"/></g><path fill="none" stroke-miterlimit="10" stroke-width="10.8" stroke="url(#l)" d="M41 85l48-31"/></svg>