<svg data-name="Layer 2" xmlns="http://www.w3.org/2000/svg" xmlns:xlink="http://www.w3.org/1999/xlink" width="94.67" height="200" viewBox="0 0 94.67 200"><defs><linearGradient id="a" data-name="Red, Purple, Blue" x1="3323.01" y1="1470.16" x2="3323.01" y2="1387.06" gradientTransform="rotate(90 2345.835 -864.495)" gradientUnits="userSpaceOnUse"><stop offset="0" stop-color="#b7151b"/><stop offset=".02" stop-color="#c52229"/><stop offset=".06" stop-color="#d7333c"/><stop offset=".11" stop-color="#e23d47"/><stop offset=".15" stop-color="#e6404b"/><stop offset=".3" stop-color="#e98a7b"/><stop offset=".47" stop-color="#7c78b8"/><stop offset=".64" stop-color="#00b0b0"/><stop offset=".79" stop-color="#7b76b6"/><stop offset="1" stop-color="#e7322f"/></linearGradient><linearGradient id="b" x1="3323.01" y1="1471.16" x2="3323.01" y2="1388.06" xlink:href="#a"/><linearGradient id="c" x1="3323.01" y1="1472.16" x2="3323.01" y2="1389.06" xlink:href="#a"/><linearGradient id="d" x1="3323.01" y1="1473.16" x2="3323.01" y2="1390.06" xlink:href="#a"/><linearGradient id="e" x1="3323.01" y1="1474.16" x2="3323.01" y2="1391.06" xlink:href="#a"/><linearGradient id="f" x1="3323.01" y1="1475.16" x2="3323.01" y2="1392.06" xlink:href="#a"/><linearGradient id="g" x1="3323.01" y1="1476.16" x2="3323.01" y2="1393.06" xlink:href="#a"/><linearGradient id="h" x1="3323.01" y1="1477.16" x2="3323.01" y2="1394.06" xlink:href="#a"/><linearGradient id="i" x1="3323.01" y1="1478.16" x2="3323.01" y2="1395.06" xlink:href="#a"/><linearGradient id="j" x1="3323.01" y1="1479.16" x2="3323.01" y2="1396.06" xlink:href="#a"/><linearGradient id="k" x1="3323.01" y1="1480.16" x2="3323.01" y2="1397.06" xlink:href="#a"/><linearGradient id="l" data-name="Orange, Yellow" x1="20.73" y1="581.36" x2="71.53" y2="581.36" gradientTransform="matrix(.97 .23 -.23 .97 148.66 -537.38)" gradientUnits="userSpaceOnUse"><stop offset="0" stop-color="#fff33b"/><stop offset=".04" stop-color="#fee72e"/><stop offset=".12" stop-color="#fed51b"/><stop offset=".2" stop-color="#fdca10"/><stop offset=".28" stop-color="#fdc70c"/><stop offset=".67" stop-color="#f3903f"/><stop offset=".89" stop-color="#ed683c"/><stop offset="1" stop-color="#e93e3a"/></linearGradient></defs><title>_</title><g fill="none" stroke-miterlimit="10" stroke-width="3.6"><path d="M92.48 44.7v123.55c0 4.41-2.72 7.65-6.4 9.37-7.34 3.43-16.5-.44-18.28-7.4L38 55.25C36.13 47.89 26.14 44 18.68 48.11a10.24 10.24 0 0 0-5.7 9.1v122.85" stroke="url(#a)"/><path d="M91.48 44.7v123.55c0 4.41-2.72 7.65-6.4 9.37-7.34 3.43-16.5-.44-18.28-7.4L37 55.25C35.13 47.89 25.14 44 17.68 48.11a10.24 10.24 0 0 0-5.7 9.1v122.85" stroke="url(#b)"/><path d="M90.48 44.7v123.55c0 4.41-2.72 7.65-6.4 9.37-7.34 3.43-16.5-.44-18.28-7.4L36 55.25C34.13 47.89 24.14 44 16.68 48.11a10.24 10.24 0 0 0-5.7 9.1v122.85" stroke="url(#c)"/><path d="M89.48 44.7v123.55c0 4.41-2.72 7.65-6.4 9.37-7.34 3.43-16.5-.44-18.28-7.4L35 55.25C33.13 47.89 23.14 44 15.68 48.11a10.24 10.24 0 0 0-5.7 9.1v122.85" stroke="url(#d)"/><path d="M88.48 44.7v123.55c0 4.41-2.72 7.65-6.4 9.37-7.34 3.43-16.5-.44-18.28-7.4L34 55.25C32.13 47.89 22.14 44 14.68 48.11A10.24 10.24 0 0 0 9 57.22v122.84" stroke="url(#e)"/><path d="M87.48 44.7v123.55c0 4.41-2.72 7.65-6.4 9.37-7.34 3.43-16.5-.44-18.28-7.4L33 55.25C31.13 47.89 21.14 44 13.68 48.11A10.24 10.24 0 0 0 8 57.22v122.84" stroke="url(#f)"/><path d="M86.48 44.7v123.55c0 4.41-2.72 7.65-6.4 9.37-7.34 3.43-16.5-.44-18.28-7.4L32 55.25C30.13 47.89 20.14 44 12.68 48.11A10.24 10.24 0 0 0 7 57.22v122.84" stroke="url(#g)"/><path d="M85.48 44.7v123.55c0 4.41-2.72 7.65-6.4 9.37-7.34 3.43-16.5-.44-18.28-7.4L31 55.25C29.13 47.89 19.14 44 11.68 48.11A10.24 10.24 0 0 0 6 57.22v122.84" stroke="url(#h)"/><path d="M84.48 44.7v123.55c0 4.41-2.72 7.65-6.4 9.37-7.34 3.43-16.5-.44-18.28-7.4L30 55.25C28.13 47.89 18.14 44 10.68 48.11A10.24 10.24 0 0 0 5 57.22v122.84" stroke="url(#i)"/><path d="M83.48 44.7v123.55c0 4.41-2.72 7.65-6.4 9.37-7.34 3.43-16.5-.44-18.28-7.4L29 55.25C27.13 47.89 17.14 44 9.68 48.11A10.24 10.24 0 0 0 4 57.22v122.84" stroke="url(#j)"/><path d="M82.48 44.7v123.55c0 4.41-2.72 7.65-6.4 9.37-7.34 3.43-16.5-.44-18.28-7.4L28 55.25C26.13 47.89 16.14 44 8.68 48.11A10.24 10.24 0 0 0 3 57.22v122.84" stroke="url(#k)"/></g><path d="M35.56 42.93l.78-3.24a11.65 11.65 0 0 1 19.29-5.78L60 38a11.65 11.65 0 0 0 19.29-5.78" fill="none" stroke-miterlimit="10" stroke-width="10.8" stroke="url(#l)"/></svg>