<svg data-name="Layer 2" xmlns="http://www.w3.org/2000/svg" xmlns:xlink="http://www.w3.org/1999/xlink" width="89.33" height="200" viewBox="0 0 89.33 200"><defs><linearGradient id="a" data-name="Red, Purple, Blue" x1="7.34" y1="112.45" x2="90.56" y2="112.45" gradientUnits="userSpaceOnUse"><stop offset="0" stop-color="#b7151b"/><stop offset=".02" stop-color="#c52229"/><stop offset=".06" stop-color="#d7333c"/><stop offset=".11" stop-color="#e23d47"/><stop offset=".15" stop-color="#e6404b"/><stop offset=".3" stop-color="#e98a7b"/><stop offset=".47" stop-color="#7c78b8"/><stop offset=".64" stop-color="#00b0b0"/><stop offset=".79" stop-color="#7b76b6"/><stop offset="1" stop-color="#e7322f"/></linearGradient><linearGradient id="b" x1="6.34" y1="112.45" x2="89.56" y2="112.45" xlink:href="#a"/><linearGradient id="c" x1="5.34" y1="112.45" x2="88.56" y2="112.45" xlink:href="#a"/><linearGradient id="d" x1="4.34" y1="112.45" x2="87.56" y2="112.45" xlink:href="#a"/><linearGradient id="e" x1="3.34" y1="112.45" x2="86.56" y2="112.45" xlink:href="#a"/><linearGradient id="f" x1="2.34" y1="112.45" x2="85.56" y2="112.45" xlink:href="#a"/><linearGradient id="g" x1="1.34" y1="112.45" x2="84.56" y2="112.45" xlink:href="#a"/><linearGradient id="h" x1=".34" y1="112.45" x2="83.56" y2="112.45" xlink:href="#a"/><linearGradient id="i" x1="-.66" y1="112.45" x2="82.56" y2="112.45" xlink:href="#a"/><linearGradient id="j" x1="-1.66" y1="112.45" x2="81.56" y2="112.45" xlink:href="#a"/><linearGradient id="k" x1="-2.66" y1="112.45" x2="80.56" y2="112.45" xlink:href="#a"/><linearGradient id="l" data-name="Orange, Yellow" x1="-1742.39" y1="-562.76" x2="-1708.65" y2="-562.76" gradientTransform="rotate(-74.08 -437.914 -1440.464)" gradientUnits="userSpaceOnUse"><stop offset="0" stop-color="#fff33b"/><stop offset=".04" stop-color="#fee72e"/><stop offset=".12" stop-color="#fed51b"/><stop offset=".2" stop-color="#fdca10"/><stop offset=".28" stop-color="#fdc70c"/><stop offset=".67" stop-color="#f3903f"/><stop offset=".89" stop-color="#ed683c"/><stop offset="1" stop-color="#e93e3a"/></linearGradient></defs><title>_</title><g fill="none" stroke-miterlimit="10" stroke-width="3.6"><ellipse cx="48.95" cy="112.45" rx="39.81" ry="66.57" stroke="url(#a)"/><ellipse cx="47.95" cy="112.45" rx="39.81" ry="66.57" stroke="url(#b)"/><ellipse cx="46.95" cy="112.45" rx="39.81" ry="66.57" stroke="url(#c)"/><ellipse cx="45.95" cy="112.45" rx="39.81" ry="66.57" stroke="url(#d)"/><ellipse cx="44.95" cy="112.45" rx="39.81" ry="66.57" stroke="url(#e)"/><ellipse cx="43.95" cy="112.45" rx="39.81" ry="66.57" stroke="url(#f)"/><ellipse cx="42.95" cy="112.45" rx="39.81" ry="66.57" stroke="url(#g)"/><ellipse cx="41.95" cy="112.45" rx="39.81" ry="66.57" stroke="url(#h)"/><ellipse cx="40.95" cy="112.45" rx="39.81" ry="66.57" stroke="url(#i)"/><ellipse cx="39.95" cy="112.45" rx="39.81" ry="66.57" stroke="url(#j)"/><ellipse cx="38.95" cy="112.45" rx="39.81" ry="66.57" stroke="url(#k)"/></g><path fill="none" stroke-miterlimit="10" stroke-width="10.8" stroke="url(#l)" d="M43.76 51.59L62 25.33"/></svg>