<svg data-name="Layer 2" xmlns="http://www.w3.org/2000/svg" xmlns:xlink="http://www.w3.org/1999/xlink" width="90" height="200" viewBox="0 0 90 200"><defs><linearGradient id="a" data-name="Red, Purple, Blue" x1="8.01" y1="112.45" x2="91.23" y2="112.45" gradientUnits="userSpaceOnUse"><stop offset="0" stop-color="#b7151b"/><stop offset=".02" stop-color="#c52229"/><stop offset=".06" stop-color="#d7333c"/><stop offset=".11" stop-color="#e23d47"/><stop offset=".15" stop-color="#e6404b"/><stop offset=".3" stop-color="#e98a7b"/><stop offset=".47" stop-color="#7c78b8"/><stop offset=".64" stop-color="#00b0b0"/><stop offset=".79" stop-color="#7b76b6"/><stop offset="1" stop-color="#e7322f"/></linearGradient><linearGradient id="c" x1="7.01" y1="112.45" x2="90.23" y2="112.45" xlink:href="#a"/><linearGradient id="d" x1="6.01" y1="112.45" x2="89.23" y2="112.45" xlink:href="#a"/><linearGradient id="e" x1="5.01" y1="112.45" x2="88.23" y2="112.45" xlink:href="#a"/><linearGradient id="f" x1="4.01" y1="112.45" x2="87.23" y2="112.45" xlink:href="#a"/><linearGradient id="g" x1="3.01" y1="112.45" x2="86.23" y2="112.45" xlink:href="#a"/><linearGradient id="h" x1="2.01" y1="112.45" x2="85.23" y2="112.45" xlink:href="#a"/><linearGradient id="i" x1="1.01" y1="112.45" x2="84.23" y2="112.45" xlink:href="#a"/><linearGradient id="j" x1=".01" y1="112.45" x2="83.23" y2="112.45" xlink:href="#a"/><linearGradient id="k" x1="-.99" y1="112.45" x2="82.23" y2="112.45" xlink:href="#a"/><linearGradient id="l" x1="-1.99" y1="112.45" x2="81.23" y2="112.45" xlink:href="#a"/><linearGradient id="b" data-name="Orange, Yellow" x1="8.77" y1="26" x2="42.07" y2="26" gradientUnits="userSpaceOnUse"><stop offset="0" stop-color="#fff33b"/><stop offset=".04" stop-color="#fee72e"/><stop offset=".12" stop-color="#fed51b"/><stop offset=".2" stop-color="#fdca10"/><stop offset=".28" stop-color="#fdc70c"/><stop offset=".67" stop-color="#f3903f"/><stop offset=".89" stop-color="#ed683c"/><stop offset="1" stop-color="#e93e3a"/></linearGradient><linearGradient id="m" x1="45.77" y1="26" x2="79.07" y2="26" xlink:href="#b"/></defs><title>_</title><g fill="none" stroke-miterlimit="10" stroke-width="3.6"><ellipse cx="49.62" cy="112.45" rx="39.81" ry="66.57" stroke="url(#a)"/><ellipse cx="48.62" cy="112.45" rx="39.81" ry="66.57" stroke="url(#c)"/><ellipse cx="47.62" cy="112.45" rx="39.81" ry="66.57" stroke="url(#d)"/><ellipse cx="46.62" cy="112.45" rx="39.81" ry="66.57" stroke="url(#e)"/><ellipse cx="45.62" cy="112.45" rx="39.81" ry="66.57" stroke="url(#f)"/><ellipse cx="44.62" cy="112.45" rx="39.81" ry="66.57" stroke="url(#g)"/><ellipse cx="43.62" cy="112.45" rx="39.81" ry="66.57" stroke="url(#h)"/><ellipse cx="42.62" cy="112.45" rx="39.81" ry="66.57" stroke="url(#i)"/><ellipse cx="41.62" cy="112.45" rx="39.81" ry="66.57" stroke="url(#j)"/><ellipse cx="40.62" cy="112.45" rx="39.81" ry="66.57" stroke="url(#k)"/><ellipse cx="39.62" cy="112.45" rx="39.81" ry="66.57" stroke="url(#l)"/></g><g fill="none" stroke-miterlimit="10" stroke-width="10.8"><circle cx="25.42" cy="26" r="11.25" stroke="url(#b)"/><circle cx="62.42" cy="26" r="11.25" stroke="url(#m)"/></g></svg>