<svg data-name="Layer 2" xmlns="http://www.w3.org/2000/svg" xmlns:xlink="http://www.w3.org/1999/xlink" width="94" height="200" viewBox="0 0 94 200"><defs><linearGradient id="a" data-name="Red, Purple, Blue" x1="1572.51" y1="-279.4" x2="1572.51" y2="-363.29" gradientTransform="rotate(90 595.17 -864.5)" gradientUnits="userSpaceOnUse"><stop offset="0" stop-color="#b7151b"/><stop offset=".02" stop-color="#c52229"/><stop offset=".06" stop-color="#d7333c"/><stop offset=".11" stop-color="#e23d47"/><stop offset=".15" stop-color="#e6404b"/><stop offset=".3" stop-color="#e98a7b"/><stop offset=".47" stop-color="#7c78b8"/><stop offset=".64" stop-color="#00b0b0"/><stop offset=".79" stop-color="#7b76b6"/><stop offset="1" stop-color="#e7322f"/></linearGradient><linearGradient id="b" x1="1572.51" y1="-278.4" x2="1572.51" y2="-362.29" xlink:href="#a"/><linearGradient id="c" x1="1572.51" y1="-277.4" x2="1572.51" y2="-361.29" xlink:href="#a"/><linearGradient id="d" x1="1572.51" y1="-276.4" x2="1572.51" y2="-360.29" xlink:href="#a"/><linearGradient id="e" x1="1572.51" y1="-275.4" x2="1572.51" y2="-359.29" xlink:href="#a"/><linearGradient id="f" x1="1572.51" y1="-274.4" x2="1572.51" y2="-358.29" xlink:href="#a"/><linearGradient id="g" x1="1572.51" y1="-273.4" x2="1572.51" y2="-357.29" xlink:href="#a"/><linearGradient id="h" x1="1572.51" y1="-272.4" x2="1572.51" y2="-356.29" xlink:href="#a"/><linearGradient id="i" x1="1572.51" y1="-271.4" x2="1572.51" y2="-355.29" xlink:href="#a"/><linearGradient id="j" x1="1572.51" y1="-270.4" x2="1572.51" y2="-354.29" xlink:href="#a"/><linearGradient id="k" x1="1572.51" y1="-269.4" x2="1572.51" y2="-353.29" xlink:href="#a"/><linearGradient id="l" data-name="Orange, Yellow" x1="-3437.74" y1="-2150.05" x2="-3404" y2="-2150.05" gradientTransform="matrix(-.27 -.96 -.96 .27 -2959.85 -2665.3)" gradientUnits="userSpaceOnUse"><stop offset="0" stop-color="#fff33b"/><stop offset=".04" stop-color="#fee72e"/><stop offset=".12" stop-color="#fed51b"/><stop offset=".2" stop-color="#fdca10"/><stop offset=".28" stop-color="#fdc70c"/><stop offset=".67" stop-color="#f3903f"/><stop offset=".89" stop-color="#ed683c"/><stop offset="1" stop-color="#e93e3a"/></linearGradient></defs><title>_</title><g fill="none" stroke-miterlimit="10" stroke-width="3.6"><path d="M92.15 44.76v120.38c0 7.8-7.44 14.13-16.62 14.13h-47c-9.18 0-16.62-6.33-16.62-14.13V44.61" stroke="url(#a)"/><path d="M91.15 44.76v120.38c0 7.8-7.44 14.13-16.62 14.13h-47c-9.18 0-16.62-6.33-16.62-14.13V44.61" stroke="url(#b)"/><path d="M90.15 44.76v120.38c0 7.8-7.44 14.13-16.62 14.13h-47c-9.18 0-16.62-6.33-16.62-14.13V44.61" stroke="url(#c)"/><path d="M89.15 44.76v120.38c0 7.8-7.44 14.13-16.62 14.13h-47c-9.18 0-16.62-6.33-16.62-14.13V44.61" stroke="url(#d)"/><path d="M88.15 44.76v120.38c0 7.8-7.44 14.13-16.62 14.13h-47c-9.18 0-16.62-6.33-16.62-14.13V44.61" stroke="url(#e)"/><path d="M87.15 44.76v120.38c0 7.8-7.44 14.13-16.62 14.13h-47c-9.18 0-16.62-6.33-16.62-14.13V44.61" stroke="url(#f)"/><path d="M86.15 44.76v120.38c0 7.8-7.44 14.13-16.62 14.13h-47c-9.18 0-16.62-6.33-16.62-14.13V44.61" stroke="url(#g)"/><path d="M85.15 44.76v120.38c0 7.8-7.44 14.13-16.62 14.13h-47c-9.18 0-16.62-6.33-16.62-14.13V44.61" stroke="url(#h)"/><path d="M84.15 44.76v120.38c0 7.8-7.44 14.13-16.62 14.13h-47c-9.18 0-16.62-6.33-16.62-14.13V44.61" stroke="url(#i)"/><path d="M83.15 44.76v120.38c0 7.8-7.44 14.13-16.62 14.13h-47c-9.18 0-16.62-6.33-16.62-14.13V44.61" stroke="url(#j)"/><path d="M82.15 44.76v120.38c0 7.8-7.44 14.13-16.62 14.13h-47c-9.18 0-16.62-6.33-16.62-14.13V44.61" stroke="url(#k)"/></g><path fill="none" stroke-miterlimit="10" stroke-width="10.8" stroke="url(#l)" d="M55.32 47.6L37.08 21.34"/></svg>