<svg data-name="Layer 2" xmlns="http://www.w3.org/2000/svg" xmlns:xlink="http://www.w3.org/1999/xlink" width="200" height="200" viewBox="0 0 200 200"><defs><linearGradient id="a" data-name="Red, Purple, Blue" x1="1340.51" y1="-529.4" x2="1340.51" y2="-613.29" gradientTransform="rotate(90 363.17 -864.5)" gradientUnits="userSpaceOnUse"><stop offset="0" stop-color="#b7151b"/><stop offset=".02" stop-color="#c52229"/><stop offset=".06" stop-color="#d7333c"/><stop offset=".11" stop-color="#e23d47"/><stop offset=".15" stop-color="#e6404b"/><stop offset=".3" stop-color="#e98a7b"/><stop offset=".47" stop-color="#7c78b8"/><stop offset=".64" stop-color="#00b0b0"/><stop offset=".79" stop-color="#7b76b6"/><stop offset="1" stop-color="#e7322f"/></linearGradient><linearGradient id="b" x1="1340.51" y1="-528.4" x2="1340.51" y2="-612.29" xlink:href="#a"/><linearGradient id="c" x1="1340.51" y1="-527.4" x2="1340.51" y2="-611.29" xlink:href="#a"/><linearGradient id="d" x1="1340.51" y1="-526.4" x2="1340.51" y2="-610.29" xlink:href="#a"/><linearGradient id="e" x1="1340.51" y1="-525.4" x2="1340.51" y2="-609.29" xlink:href="#a"/><linearGradient id="f" x1="1340.51" y1="-524.4" x2="1340.51" y2="-608.29" xlink:href="#a"/><linearGradient id="g" x1="1340.51" y1="-523.4" x2="1340.51" y2="-607.29" xlink:href="#a"/><linearGradient id="h" x1="1340.51" y1="-522.4" x2="1340.51" y2="-606.29" xlink:href="#a"/><linearGradient id="i" x1="1340.51" y1="-521.4" x2="1340.51" y2="-605.29" xlink:href="#a"/><linearGradient id="j" x1="1340.51" y1="-520.4" x2="1340.51" y2="-604.29" xlink:href="#a"/><linearGradient id="k" x1="1340.51" y1="-519.4" x2="1340.51" y2="-603.29" xlink:href="#a"/><linearGradient id="l" data-name="Orange, Yellow" x1="-2810.78" y1="871.73" x2="-2777.03" y2="871.73" gradientTransform="rotate(-74.08 -1916.527 -1440.503)" gradientUnits="userSpaceOnUse"><stop offset="0" stop-color="#fff33b"/><stop offset=".04" stop-color="#fee72e"/><stop offset=".12" stop-color="#fed51b"/><stop offset=".2" stop-color="#fdca10"/><stop offset=".28" stop-color="#fdc70c"/><stop offset=".67" stop-color="#f3903f"/><stop offset=".89" stop-color="#ed683c"/><stop offset="1" stop-color="#e93e3a"/></linearGradient></defs><title>_</title><g fill="none" stroke-miterlimit="10" stroke-width="3.6"><path d="M110.15 44.76v120.38c0 7.8-7.44 14.13-16.62 14.13h-47c-9.18 0-16.62-6.33-16.62-14.13V44.61" stroke="url(#a)"/><path d="M109.15 44.76v120.38c0 7.8-7.44 14.13-16.62 14.13h-47c-9.18 0-16.62-6.33-16.62-14.13V44.61" stroke="url(#b)"/><path d="M108.15 44.76v120.38c0 7.8-7.44 14.13-16.62 14.13h-47c-9.18 0-16.62-6.33-16.62-14.13V44.61" stroke="url(#c)"/><path d="M107.15 44.76v120.38c0 7.8-7.44 14.13-16.62 14.13h-47c-9.18 0-16.62-6.33-16.62-14.13V44.61" stroke="url(#d)"/><path d="M106.15 44.76v120.38c0 7.8-7.44 14.13-16.62 14.13h-47c-9.18 0-16.62-6.33-16.62-14.13V44.61" stroke="url(#e)"/><path d="M105.15 44.76v120.38c0 7.8-7.44 14.13-16.62 14.13h-47c-9.18 0-16.62-6.33-16.62-14.13V44.61" stroke="url(#f)"/><path d="M104.15 44.76v120.38c0 7.8-7.44 14.13-16.62 14.13h-47c-9.18 0-16.62-6.33-16.62-14.13V44.61" stroke="url(#g)"/><path d="M103.15 44.76v120.38c0 7.8-7.44 14.13-16.62 14.13h-47c-9.18 0-16.62-6.33-16.62-14.13V44.61" stroke="url(#h)"/><path d="M102.15 44.76v120.38c0 7.8-7.44 14.13-16.62 14.13h-47c-9.18 0-16.62-6.33-16.62-14.13V44.61" stroke="url(#i)"/><path d="M101.15 44.76v120.38c0 7.8-7.44 14.13-16.62 14.13h-47c-9.18 0-16.62-6.33-16.62-14.13V44.61" stroke="url(#j)"/><path d="M100.15 44.76v120.38c0 7.8-7.44 14.13-16.62 14.13h-47c-9.18 0-16.62-6.33-16.62-14.13V44.61" stroke="url(#k)"/></g><path fill="none" stroke-miterlimit="10" stroke-width="10.8" stroke="url(#l)" d="M57.1 50.59l18.23-26.26"/></svg>