<svg data-name="Layer 2" xmlns="http://www.w3.org/2000/svg" xmlns:xlink="http://www.w3.org/1999/xlink" width="94.67" height="200" viewBox="0 0 94.67 200"><defs><linearGradient id="a" data-name="Red, Purple, Blue" x1="1073.18" y1="-779.4" x2="1073.18" y2="-863.29" gradientTransform="rotate(90 95.83 -864.5)" gradientUnits="userSpaceOnUse"><stop offset="0" stop-color="#b7151b"/><stop offset=".02" stop-color="#c52229"/><stop offset=".06" stop-color="#d7333c"/><stop offset=".11" stop-color="#e23d47"/><stop offset=".15" stop-color="#e6404b"/><stop offset=".3" stop-color="#e98a7b"/><stop offset=".47" stop-color="#7c78b8"/><stop offset=".64" stop-color="#00b0b0"/><stop offset=".79" stop-color="#7b76b6"/><stop offset="1" stop-color="#e7322f"/></linearGradient><linearGradient id="b" x1="1073.18" y1="-778.4" x2="1073.18" y2="-862.29" xlink:href="#a"/><linearGradient id="c" x1="1073.18" y1="-777.4" x2="1073.18" y2="-861.29" xlink:href="#a"/><linearGradient id="d" x1="1073.18" y1="-776.4" x2="1073.18" y2="-860.29" xlink:href="#a"/><linearGradient id="e" x1="1073.18" y1="-775.4" x2="1073.18" y2="-859.29" xlink:href="#a"/><linearGradient id="f" x1="1073.18" y1="-774.4" x2="1073.18" y2="-858.29" xlink:href="#a"/><linearGradient id="g" x1="1073.18" y1="-773.4" x2="1073.18" y2="-857.29" xlink:href="#a"/><linearGradient id="h" x1="1073.18" y1="-772.4" x2="1073.18" y2="-856.29" xlink:href="#a"/><linearGradient id="i" x1="1073.18" y1="-771.4" x2="1073.18" y2="-855.29" xlink:href="#a"/><linearGradient id="j" x1="1073.18" y1="-770.4" x2="1073.18" y2="-854.29" xlink:href="#a"/><linearGradient id="k" x1="1073.18" y1="-769.4" x2="1073.18" y2="-853.29" xlink:href="#a"/><linearGradient id="l" data-name="Orange, Yellow" x1="-49.45" y1="65.21" x2="1.35" y2="65.21" gradientTransform="matrix(.97 .23 -.23 .97 85.93 -9.78)" gradientUnits="userSpaceOnUse"><stop offset="0" stop-color="#fff33b"/><stop offset=".04" stop-color="#fee72e"/><stop offset=".12" stop-color="#fed51b"/><stop offset=".2" stop-color="#fdca10"/><stop offset=".28" stop-color="#fdc70c"/><stop offset=".67" stop-color="#f3903f"/><stop offset=".89" stop-color="#ed683c"/><stop offset="1" stop-color="#e93e3a"/></linearGradient></defs><title>_</title><g fill="none" stroke-miterlimit="10" stroke-width="3.6"><path d="M92.82 44.76v120.38c0 7.8-7.44 14.13-16.62 14.13h-47c-9.18 0-16.62-6.33-16.62-14.13V44.61" stroke="url(#a)"/><path d="M91.82 44.76v120.38c0 7.8-7.44 14.13-16.62 14.13h-47c-9.18 0-16.62-6.33-16.62-14.13V44.61" stroke="url(#b)"/><path d="M90.82 44.76v120.38c0 7.8-7.44 14.13-16.62 14.13h-47c-9.18 0-16.62-6.33-16.62-14.13V44.61" stroke="url(#c)"/><path d="M89.82 44.76v120.38c0 7.8-7.44 14.13-16.62 14.13h-47c-9.18 0-16.62-6.33-16.62-14.13V44.61" stroke="url(#d)"/><path d="M88.82 44.76v120.38c0 7.8-7.44 14.13-16.62 14.13h-47c-9.18 0-16.62-6.33-16.62-14.13V44.61" stroke="url(#e)"/><path d="M87.82 44.76v120.38c0 7.8-7.44 14.13-16.62 14.13h-47c-9.18 0-16.62-6.33-16.62-14.13V44.61" stroke="url(#f)"/><path d="M86.82 44.76v120.38c0 7.8-7.44 14.13-16.62 14.13h-47c-9.18 0-16.62-6.33-16.62-14.13V44.61" stroke="url(#g)"/><path d="M85.82 44.76v120.38c0 7.8-7.44 14.13-16.62 14.13h-47c-9.18 0-16.62-6.33-16.62-14.13V44.61" stroke="url(#h)"/><path d="M84.82 44.76v120.38c0 7.8-7.44 14.13-16.62 14.13h-47c-9.18 0-16.62-6.33-16.62-14.13V44.61" stroke="url(#i)"/><path d="M83.82 44.76v120.38c0 7.8-7.44 14.13-16.62 14.13h-47c-9.18 0-16.62-6.33-16.62-14.13V44.61" stroke="url(#j)"/><path d="M82.82 44.76v120.38c0 7.8-7.44 14.13-16.62 14.13h-47c-9.18 0-16.62-6.33-16.62-14.13V44.61" stroke="url(#k)"/></g><path d="M25.64 52.32l.78-3.24a11.65 11.65 0 0 1 19.3-5.78l4.36 4.08a11.65 11.65 0 0 0 19.29-5.78" fill="none" stroke-miterlimit="10" stroke-width="10.8" stroke="url(#l)"/></svg>