<svg data-name="Layer 2" xmlns="http://www.w3.org/2000/svg" xmlns:xlink="http://www.w3.org/1999/xlink" width="96" height="200" viewBox="0 0 96 200"><defs><linearGradient id="a" data-name="Red, Purple, Blue" x1="3573.18" y1="1220.6" x2="3573.18" y2="1136.71" gradientTransform="rotate(90 2345.835 -1114.495)" gradientUnits="userSpaceOnUse"><stop offset="0" stop-color="#b7151b"/><stop offset=".02" stop-color="#c52229"/><stop offset=".06" stop-color="#d7333c"/><stop offset=".11" stop-color="#e23d47"/><stop offset=".15" stop-color="#e6404b"/><stop offset=".3" stop-color="#e98a7b"/><stop offset=".47" stop-color="#7c78b8"/><stop offset=".64" stop-color="#00b0b0"/><stop offset=".79" stop-color="#7b76b6"/><stop offset="1" stop-color="#e7322f"/></linearGradient><linearGradient id="c" x1="3573.18" y1="1221.6" x2="3573.18" y2="1137.71" xlink:href="#a"/><linearGradient id="d" x1="3573.18" y1="1222.6" x2="3573.18" y2="1138.71" xlink:href="#a"/><linearGradient id="e" x1="3573.18" y1="1223.6" x2="3573.18" y2="1139.71" xlink:href="#a"/><linearGradient id="f" x1="3573.18" y1="1224.6" x2="3573.18" y2="1140.71" xlink:href="#a"/><linearGradient id="g" x1="3573.18" y1="1225.6" x2="3573.18" y2="1141.71" xlink:href="#a"/><linearGradient id="h" x1="3573.18" y1="1226.6" x2="3573.18" y2="1142.71" xlink:href="#a"/><linearGradient id="i" x1="3573.18" y1="1227.6" x2="3573.18" y2="1143.71" xlink:href="#a"/><linearGradient id="j" x1="3573.18" y1="1228.6" x2="3573.18" y2="1144.71" xlink:href="#a"/><linearGradient id="k" x1="3573.18" y1="1229.6" x2="3573.18" y2="1145.71" xlink:href="#a"/><linearGradient id="l" x1="3573.18" y1="1230.6" x2="3573.18" y2="1146.71" xlink:href="#a"/><linearGradient id="b" data-name="Orange, Yellow" x1="11.1" y1="26" x2="44.4" y2="26" gradientUnits="userSpaceOnUse"><stop offset="0" stop-color="#fff33b"/><stop offset=".04" stop-color="#fee72e"/><stop offset=".12" stop-color="#fed51b"/><stop offset=".2" stop-color="#fdca10"/><stop offset=".28" stop-color="#fdc70c"/><stop offset=".67" stop-color="#f3903f"/><stop offset=".89" stop-color="#ed683c"/><stop offset="1" stop-color="#e93e3a"/></linearGradient><linearGradient id="m" x1="48.1" y1="26" x2="81.4" y2="26" xlink:href="#b"/></defs><title>_</title><g fill="none" stroke-miterlimit="10" stroke-width="3.6"><path d="M92.82 44.76v120.38c0 7.8-7.44 14.13-16.62 14.13h-47c-9.18 0-16.62-6.33-16.62-14.13V44.61" stroke="url(#a)"/><path d="M91.82 44.76v120.38c0 7.8-7.44 14.13-16.62 14.13h-47c-9.18 0-16.62-6.33-16.62-14.13V44.61" stroke="url(#c)"/><path d="M90.82 44.76v120.38c0 7.8-7.44 14.13-16.62 14.13h-47c-9.18 0-16.62-6.33-16.62-14.13V44.61" stroke="url(#d)"/><path d="M89.82 44.76v120.38c0 7.8-7.44 14.13-16.62 14.13h-47c-9.18 0-16.62-6.33-16.62-14.13V44.61" stroke="url(#e)"/><path d="M88.82 44.76v120.38c0 7.8-7.44 14.13-16.62 14.13h-47c-9.18 0-16.62-6.33-16.62-14.13V44.61" stroke="url(#f)"/><path d="M87.82 44.76v120.38c0 7.8-7.44 14.13-16.62 14.13h-47c-9.18 0-16.62-6.33-16.62-14.13V44.61" stroke="url(#g)"/><path d="M86.82 44.76v120.38c0 7.8-7.44 14.13-16.62 14.13h-47c-9.18 0-16.62-6.33-16.62-14.13V44.61" stroke="url(#h)"/><path d="M85.82 44.76v120.38c0 7.8-7.44 14.13-16.62 14.13h-47c-9.18 0-16.62-6.33-16.62-14.13V44.61" stroke="url(#i)"/><path d="M84.82 44.76v120.38c0 7.8-7.44 14.13-16.62 14.13h-47c-9.18 0-16.62-6.33-16.62-14.13V44.61" stroke="url(#j)"/><path d="M83.82 44.76v120.38c0 7.8-7.44 14.13-16.62 14.13h-47c-9.18 0-16.62-6.33-16.62-14.13V44.61" stroke="url(#k)"/><path d="M82.82 44.76v120.38c0 7.8-7.44 14.13-16.62 14.13h-47c-9.18 0-16.62-6.33-16.62-14.13V44.61" stroke="url(#l)"/></g><g fill="none" stroke-miterlimit="10" stroke-width="10.8"><circle cx="27.75" cy="26" r="11.25" stroke="url(#b)"/><circle cx="64.75" cy="26" r="11.25" stroke="url(#m)"/></g></svg>