<svg data-name="Layer 2" xmlns="http://www.w3.org/2000/svg" xmlns:xlink="http://www.w3.org/1999/xlink" width="96.67" height="200" viewBox="0 0 96.67 200"><defs><linearGradient id="b" data-name="Orange, Yellow" x1="3348.56" y1="933.53" x2="3391" y2="933.53" gradientTransform="rotate(90 2096.5 -1114.5)" gradientUnits="userSpaceOnUse"><stop offset="0" stop-color="#fff33b"/><stop offset=".04" stop-color="#fee72e"/><stop offset=".12" stop-color="#fed51b"/><stop offset=".2" stop-color="#fdca10"/><stop offset=".28" stop-color="#fdc70c"/><stop offset=".67" stop-color="#f3903f"/><stop offset=".89" stop-color="#ed683c"/><stop offset="1" stop-color="#e93e3a"/></linearGradient><linearGradient id="a" data-name="Red, Purple, Blue" x1="11.9" y1="-1383.17" x2="95.56" y2="-1383.17" gradientTransform="matrix(1 0 0 -1 0 -1296.43)" gradientUnits="userSpaceOnUse"><stop offset="0" stop-color="#b7151b"/><stop offset=".02" stop-color="#c52229"/><stop offset=".06" stop-color="#d7333c"/><stop offset=".11" stop-color="#e23d47"/><stop offset=".15" stop-color="#e6404b"/><stop offset=".3" stop-color="#e98a7b"/><stop offset=".47" stop-color="#7c78b8"/><stop offset=".64" stop-color="#00b0b0"/><stop offset=".79" stop-color="#7b76b6"/><stop offset="1" stop-color="#e7322f"/></linearGradient><linearGradient id="c" x1="10.9" y1="-1383.17" x2="94.56" y2="-1383.17" xlink:href="#a"/><linearGradient id="d" x1="9.9" y1="-1383.17" x2="93.56" y2="-1383.17" xlink:href="#a"/><linearGradient id="e" x1="8.9" y1="-1383.17" x2="92.56" y2="-1383.17" xlink:href="#a"/><linearGradient id="f" x1="7.9" y1="-1383.17" x2="91.56" y2="-1383.17" xlink:href="#a"/><linearGradient id="g" x1="6.9" y1="-1383.17" x2="90.56" y2="-1383.17" xlink:href="#a"/><linearGradient id="h" x1="5.9" y1="-1383.17" x2="89.56" y2="-1383.17" xlink:href="#a"/><linearGradient id="i" x1="4.9" y1="-1383.17" x2="88.56" y2="-1383.17" xlink:href="#a"/><linearGradient id="j" x1="3.9" y1="-1383.17" x2="87.56" y2="-1383.17" xlink:href="#a"/><linearGradient id="k" x1="2.9" y1="-1383.17" x2="86.56" y2="-1383.17" xlink:href="#a"/><linearGradient id="l" x1="1.9" y1="-1383.17" x2="85.56" y2="-1383.17" xlink:href="#a"/><linearGradient id="m" x1="-1791.13" y1="-986.87" x2="-1757.39" y2="-986.87" gradientTransform="rotate(-74.08 -183.243 -1690.446)" xlink:href="#b"/></defs><title>_</title><path fill="none" stroke-miterlimit="10" stroke-width="10.8" stroke="url(#b)" d="M48.48 137.56V180"/><g fill="none" stroke-miterlimit="10" stroke-width="3.6"><path d="M13.7 38.17V39a98.35 98.35 0 0 0 12.39 47l21.78 45.89c1.8 3.45 9.93 3.45 11.72 0l22.25-47.53a98.23 98.23 0 0 0 11.92-46.19" stroke="url(#a)"/><path d="M12.7 38.17V39a98.35 98.35 0 0 0 12.39 47l21.78 45.89c1.8 3.45 9.93 3.45 11.72 0l22.25-47.53a98.23 98.23 0 0 0 11.92-46.19" stroke="url(#c)"/><path d="M11.7 38.17V39a98.35 98.35 0 0 0 12.39 47l21.78 45.89c1.8 3.45 9.93 3.45 11.72 0l22.25-47.53a98.23 98.23 0 0 0 11.92-46.19" stroke="url(#d)"/><path d="M10.7 38.17V39a98.35 98.35 0 0 0 12.39 47l21.78 45.89c1.8 3.45 9.93 3.45 11.72 0l22.25-47.53a98.23 98.23 0 0 0 11.92-46.19" stroke="url(#e)"/><path d="M9.7 38.17V39a98.35 98.35 0 0 0 12.39 47l21.78 45.89c1.8 3.45 9.93 3.45 11.72 0l22.25-47.53a98.23 98.23 0 0 0 11.92-46.19" stroke="url(#f)"/><path d="M8.7 38.17V39a98.35 98.35 0 0 0 12.39 47l21.78 45.89c1.8 3.45 9.93 3.45 11.72 0l22.25-47.53a98.23 98.23 0 0 0 11.92-46.19" stroke="url(#g)"/><path d="M7.7 38.17V39a98.35 98.35 0 0 0 12.39 47l21.78 45.89c1.8 3.45 9.93 3.45 11.72 0l22.25-47.53a98.23 98.23 0 0 0 11.92-46.19" stroke="url(#h)"/><path d="M6.7 38.17V39a98.35 98.35 0 0 0 12.39 47l21.78 45.89c1.8 3.45 9.93 3.45 11.72 0l22.25-47.53a98.23 98.23 0 0 0 11.92-46.19" stroke="url(#i)"/><path d="M5.7 38.17V39a98.35 98.35 0 0 0 12.39 47l21.78 45.89c1.8 3.45 9.93 3.45 11.72 0l22.25-47.53a98.23 98.23 0 0 0 11.92-46.19" stroke="url(#j)"/><path d="M4.7 38.17V39a98.35 98.35 0 0 0 12.39 47l21.78 45.89c1.8 3.45 9.93 3.45 11.72 0l22.25-47.53a98.23 98.23 0 0 0 11.92-46.19" stroke="url(#k)"/><path d="M3.7 38.17V39a98.35 98.35 0 0 0 12.39 47l21.78 45.89c1.8 3.45 9.93 3.45 11.72 0l22.25-47.53a98.23 98.23 0 0 0 11.92-46.19" stroke="url(#l)"/></g><path fill="none" stroke-miterlimit="10" stroke-width="10.8" stroke="url(#m)" d="M47.76 45.59L66 19.33"/></svg>