<svg data-name="Layer 2" xmlns="http://www.w3.org/2000/svg" xmlns:xlink="http://www.w3.org/1999/xlink" width="57.33" height="200" viewBox="0 0 57.33 200"><defs><linearGradient id="a" data-name="Red, Purple, Blue" x1="18.77" y1="102.18" x2="57.35" y2="102.18" gradientUnits="userSpaceOnUse"><stop offset="0" stop-color="#b7151b"/><stop offset=".02" stop-color="#c52229"/><stop offset=".06" stop-color="#d7333c"/><stop offset=".11" stop-color="#e23d47"/><stop offset=".15" stop-color="#e6404b"/><stop offset=".3" stop-color="#e98a7b"/><stop offset=".47" stop-color="#7c78b8"/><stop offset=".64" stop-color="#00b0b0"/><stop offset=".79" stop-color="#7b76b6"/><stop offset="1" stop-color="#e7322f"/></linearGradient><linearGradient id="b" x1="17.77" y1="102.18" x2="56.35" y2="102.18" xlink:href="#a"/><linearGradient id="c" x1="16.77" y1="102.18" x2="55.35" y2="102.18" xlink:href="#a"/><linearGradient id="d" x1="15.77" y1="102.18" x2="54.35" y2="102.18" xlink:href="#a"/><linearGradient id="e" x1="14.77" y1="102.18" x2="53.35" y2="102.18" xlink:href="#a"/><linearGradient id="f" x1="13.77" y1="102.18" x2="52.35" y2="102.18" xlink:href="#a"/><linearGradient id="g" x1="12.77" y1="102.18" x2="51.35" y2="102.18" xlink:href="#a"/><linearGradient id="h" x1="11.77" y1="102.18" x2="50.35" y2="102.18" xlink:href="#a"/><linearGradient id="i" x1="10.77" y1="102.18" x2="49.35" y2="102.18" xlink:href="#a"/><linearGradient id="j" x1="9.77" y1="102.18" x2="48.35" y2="102.18" xlink:href="#a"/><linearGradient id="k" x1="8.77" y1="102.18" x2="47.35" y2="102.18" xlink:href="#a"/><linearGradient id="l" data-name="Orange, Yellow" x1="2944.49" y1="664.19" x2="3055.67" y2="664.19" gradientTransform="rotate(90 1785.17 -1114.5)" gradientUnits="userSpaceOnUse"><stop offset="0" stop-color="#fff33b"/><stop offset=".04" stop-color="#fee72e"/><stop offset=".12" stop-color="#fed51b"/><stop offset=".2" stop-color="#fdca10"/><stop offset=".28" stop-color="#fdc70c"/><stop offset=".67" stop-color="#f3903f"/><stop offset=".89" stop-color="#ed683c"/><stop offset="1" stop-color="#e93e3a"/></linearGradient></defs><title>_</title><g fill="none" stroke-miterlimit="10" stroke-width="3.6"><path d="M18.77 67.82c20.31 0 36.78 15.38 36.78 34.36s-16.47 34.36-36.78 34.36" stroke="url(#a)"/><path d="M17.77 67.82c20.31 0 36.78 15.38 36.78 34.36s-16.47 34.36-36.78 34.36" stroke="url(#b)"/><path d="M16.77 67.82c20.31 0 36.78 15.38 36.78 34.36s-16.47 34.36-36.78 34.36" stroke="url(#c)"/><path d="M15.77 67.82c20.31 0 36.78 15.38 36.78 34.36s-16.47 34.36-36.78 34.36" stroke="url(#d)"/><path d="M14.77 67.82c20.31 0 36.78 15.38 36.78 34.36s-16.47 34.36-36.78 34.36" stroke="url(#e)"/><path d="M13.77 67.82c20.31 0 36.78 15.38 36.78 34.36s-16.47 34.36-36.78 34.36" stroke="url(#f)"/><path d="M12.77 67.82c20.31 0 36.78 15.38 36.78 34.36s-16.47 34.36-36.78 34.36" stroke="url(#g)"/><path d="M11.77 67.82c20.31 0 36.78 15.38 36.78 34.36s-16.47 34.36-36.78 34.36" stroke="url(#h)"/><path d="M10.77 67.82c20.31 0 36.78 15.38 36.78 34.36s-16.47 34.36-36.78 34.36" stroke="url(#i)"/><path d="M9.77 67.82c20.31 0 36.78 15.38 36.78 34.36s-16.47 34.35-36.78 34.35" stroke="url(#j)"/><path d="M8.77 67.82c20.31 0 36.78 15.38 36.78 34.36s-16.47 34.35-36.78 34.35" stroke="url(#k)"/></g><path fill="none" stroke-miterlimit="10" stroke-width="10.8" stroke="url(#l)" d="M6.47 44.82V156"/></svg>