<svg data-name="Layer 2" xmlns="http://www.w3.org/2000/svg" xmlns:xlink="http://www.w3.org/1999/xlink" width="92.67" height="200" viewBox="0 0 92.67 200"><defs><linearGradient id="b" data-name="Orange, Yellow" x1="2845.9" y1="433.53" x2="2888.34" y2="433.53" gradientTransform="rotate(90 1593.835 -1114.495)" gradientUnits="userSpaceOnUse"><stop offset="0" stop-color="#fff33b"/><stop offset=".04" stop-color="#fee72e"/><stop offset=".12" stop-color="#fed51b"/><stop offset=".2" stop-color="#fdca10"/><stop offset=".28" stop-color="#fdc70c"/><stop offset=".67" stop-color="#f3903f"/><stop offset=".89" stop-color="#ed683c"/><stop offset="1" stop-color="#e93e3a"/></linearGradient><linearGradient id="a" data-name="Red, Purple, Blue" x1="9.23" y1="-1383.17" x2="92.9" y2="-1383.17" gradientTransform="matrix(1 0 0 -1 0 -1296.43)" gradientUnits="userSpaceOnUse"><stop offset="0" stop-color="#b7151b"/><stop offset=".02" stop-color="#c52229"/><stop offset=".06" stop-color="#d7333c"/><stop offset=".11" stop-color="#e23d47"/><stop offset=".15" stop-color="#e6404b"/><stop offset=".3" stop-color="#e98a7b"/><stop offset=".47" stop-color="#7c78b8"/><stop offset=".64" stop-color="#00b0b0"/><stop offset=".79" stop-color="#7b76b6"/><stop offset="1" stop-color="#e7322f"/></linearGradient><linearGradient id="c" x1="8.23" y1="-1383.17" x2="91.9" y2="-1383.17" xlink:href="#a"/><linearGradient id="d" x1="7.23" y1="-1383.17" x2="90.9" y2="-1383.17" xlink:href="#a"/><linearGradient id="e" x1="6.23" y1="-1383.17" x2="89.9" y2="-1383.17" xlink:href="#a"/><linearGradient id="f" x1="5.23" y1="-1383.17" x2="88.9" y2="-1383.17" xlink:href="#a"/><linearGradient id="g" x1="4.23" y1="-1383.17" x2="87.9" y2="-1383.17" xlink:href="#a"/><linearGradient id="h" x1="3.23" y1="-1383.17" x2="86.9" y2="-1383.17" xlink:href="#a"/><linearGradient id="i" x1="2.23" y1="-1383.17" x2="85.9" y2="-1383.17" xlink:href="#a"/><linearGradient id="j" x1="1.23" y1="-1383.17" x2="84.9" y2="-1383.17" xlink:href="#a"/><linearGradient id="k" x1=".23" y1="-1383.17" x2="83.9" y2="-1383.17" xlink:href="#a"/><linearGradient id="l" x1="-.77" y1="-1383.17" x2="82.9" y2="-1383.17" xlink:href="#a"/><linearGradient id="m" x1="11.1" y1="26" x2="44.4" y2="26" xlink:href="#b"/><linearGradient id="n" x1="48.1" y1="26" x2="81.4" y2="26" xlink:href="#b"/></defs><title>_</title><path fill="none" stroke-miterlimit="10" stroke-width="10.8" stroke="url(#b)" d="M45.81 137.56V180"/><g fill="none" stroke-miterlimit="10" stroke-width="3.6"><path d="M11 38.17V39a98.35 98.35 0 0 0 12.42 47l21.78 45.91c1.8 3.45 9.93 3.45 11.72 0l22.25-47.55A98.23 98.23 0 0 0 91.1 38.17" stroke="url(#a)"/><path d="M10 38.17V39a98.35 98.35 0 0 0 12.42 47l21.78 45.91c1.8 3.45 9.93 3.45 11.72 0l22.25-47.55A98.23 98.23 0 0 0 90.1 38.17" stroke="url(#c)"/><path d="M9 38.17V39a98.35 98.35 0 0 0 12.42 47l21.78 45.91c1.8 3.45 9.93 3.45 11.72 0l22.25-47.55A98.23 98.23 0 0 0 89.1 38.17" stroke="url(#d)"/><path d="M8 38.17V39a98.35 98.35 0 0 0 12.42 47l21.78 45.91c1.8 3.45 9.93 3.45 11.72 0l22.25-47.55A98.23 98.23 0 0 0 88.1 38.17" stroke="url(#e)"/><path d="M7 38.17V39a98.35 98.35 0 0 0 12.42 47l21.78 45.91c1.8 3.45 9.93 3.45 11.72 0l22.25-47.55A98.23 98.23 0 0 0 87.1 38.17" stroke="url(#f)"/><path d="M6 38.17V39a98.35 98.35 0 0 0 12.42 47l21.78 45.91c1.8 3.45 9.93 3.45 11.72 0l22.25-47.55A98.23 98.23 0 0 0 86.1 38.17" stroke="url(#g)"/><path d="M5 38.17V39a98.35 98.35 0 0 0 12.42 47l21.78 45.91c1.8 3.45 9.93 3.45 11.72 0l22.25-47.55A98.23 98.23 0 0 0 85.1 38.17" stroke="url(#h)"/><path d="M4 38.17V39a98.35 98.35 0 0 0 12.42 47l21.78 45.91c1.8 3.45 9.93 3.45 11.72 0l22.25-47.55A98.23 98.23 0 0 0 84.1 38.17" stroke="url(#i)"/><path d="M3 38.17V39a98.35 98.35 0 0 0 12.42 47l21.78 45.91c1.8 3.45 9.93 3.45 11.72 0l22.25-47.55A98.23 98.23 0 0 0 83.1 38.17" stroke="url(#j)"/><path d="M2 38.17V39a98.35 98.35 0 0 0 12.42 47l21.78 45.91c1.8 3.45 9.93 3.45 11.72 0l22.25-47.55A98.23 98.23 0 0 0 82.1 38.17" stroke="url(#k)"/><path d="M1 38.17V39a98.35 98.35 0 0 0 12.42 47l21.78 45.91c1.8 3.45 9.93 3.45 11.72 0l22.25-47.55A98.23 98.23 0 0 0 81.1 38.17" stroke="url(#l)"/></g><g fill="none" stroke-miterlimit="10" stroke-width="10.8"><circle cx="27.75" cy="26" r="11.25" stroke="url(#m)"/><circle cx="64.75" cy="26" r="11.25" stroke="url(#n)"/></g></svg>