<svg id="Layer_2" data-name="Layer 2" xmlns="http://www.w3.org/2000/svg" width="14.5" height="200" viewBox="0 0 14.5 200">
  <title>_</title>
  <polygon points="12.3 62 11.3 62 10.7 62 10.3 62 9.7 62 9.3 62 8.7 62 8.3 62 7.7 62 7.3 62 6.7 62 6.3 62 5.7 62 5.3 62 4.7 62 4.3 62 3.7 62 2.7 62 1.7 62 0.7 62 0.7 147 1.7 147 2.7 147 3.7 147 4.3 147 4.7 147 5.3 147 5.7 147 6.3 147 6.7 147 7.3 147 7.7 147 8.3 147 8.7 147 9.3 147 9.7 147 10.3 147 10.7 147 11.3 147 12.3 147 13.3 147 14.3 147 14.3 62 13.3 62 12.3 62"/>
</svg>
