<svg id="Layer_2" data-name="Layer 2" xmlns="http://www.w3.org/2000/svg" width="33.33" height="200" viewBox="0 0 33.33 200">
  <title>_</title>
  <g>
    <path d="M8,165.14a7.8,7.8,0,0,0,1.69,15.41l.5,0,.5,0,.5,0,.5,0,.5,0,.5,0,.5,0,.5,0,.5,0,.5,0,.5,0,.5,0,.5,0,.5,0,.5,0,.5,0,.5,0,.5,0,.5,0,.5,0a7.79,7.79,0,0,0,2.73-15.1L32.61,33.75a11.65,11.65,0,0,0-11.56-13l-.5,0-.5,0-.5,0-.5,0-.5,0-.5,0-.5,0-.5,0-.5,0-.5,0-.5,0-.5,0-.5,0-.5,0-.5,0-.5,0-.5,0-.5,0-.5,0-.5,0A11.64,11.64,0,0,0-.54,33.45ZM15.08,27a8,8,0,0,1,1-.89,8,8,0,0,1,1,1,8.1,8.1,0,0,1,2,6.38L15.78,75.34,13,33.15A8.06,8.06,0,0,1,15.08,27Z"/>
    <path d="M15.78,75.34,19,33.39a8.1,8.1,0,0,0-2-6.38,8,8,0,0,0-1-1,7.92,7.92,0,0,0-3,7.1Z"/>
  </g>
</svg>
