<svg id="Layer_2" data-name="Layer 2" xmlns="http://www.w3.org/2000/svg" width="47.07" height="200" viewBox="0 0 47.07 200">
  <title>_</title>
  <path d="M0,135.74l3.56.52,0-.14,1,.14,0-.14,1,.14,0-.14,1,.14,0-.14,1,.14,0-.14,1,.14,0-.14,1,.14,0-.14,1,.14,0-.14,1,.14,0-.14,1,.14,0-.14,1,.14,4.08-28.2h4.86l-4,27.69,3.56.52,0-.14,1,.14,0-.14,1,.14,0-.14,1,.14,0-.14,1,.14,0-.14,1,.14,0-.14,1,.14,0-.14,1,.14,0-.14,1,.14,0-.14,1,.14,0-.14,1,.14,4.08-28.2H44v-3.6H36.62L39.71,83H47v-3.6H40.23L44,53.26l-3.56-.52,0,.14-1-.14,0,.14-1-.14,0,.14-1-.14,0,.14-1-.14,0,.14-1-.14,0,.14-1-.14,0,.14-1-.14,0,.14-1-.14,0,.14-1-.14,0,.14-1-.14L26.59,79.45H21.73l3.79-26.19L22,52.74l0,.14-1-.14,0,.14-1-.14,0,.14-1-.14,0,.14-1-.14,0,.14-1-.14,0,.14-1-.14,0,.14-1-.14,0,.14-1-.14,0,.14-1-.14,0,.14-1-.14L8.09,79.45H.74V83H7.57L4.48,104.46H-2.26v3.6H4ZM21.21,83h4.86L23,104.46H18.12Z"/>
</svg>
