<svg id="Layer_2" data-name="Layer 2" xmlns="http://www.w3.org/2000/svg" width="64.01" height="200" viewBox="0 0 64.01 200">
  <title>_</title>
  <path d="M12.59,54.3l.5,0,.5,0,.5,0,.5,0,.5,0,.5,0,.5,0,.5,0,.5,0,.5,0,.5,0,.5,0,.5,0,.5,0,.5,0,.5,0,.5,0,.5,0,.5,0,.5,0a12.06,12.06,0,0,0,12-12V27H21V42.25A8.44,8.44,0,0,1,17.59,49a8.44,8.44,0,0,1-3.45-6.8v-12a8.46,8.46,0,0,1,8.45-8.45H36.37a8.45,8.45,0,0,1,8.28,10.12l-30,148.72,3.53.71,0-.19,1,.19,0-.19,1,.19,0-.19,1,.19,0-.19,1,.19,0-.19,1,.19,0-.19,1,.19,0-.19,1,.19,0-.19,1,.19,0-.19,1,.19,0-.19,1,.19,2.66-13.17c1.7,6.85,6,11.62,11.28,11.62.17,0,.33,0,.5,0s.33,0,.5,0,.33,0,.5,0,.33,0,.5,0,.33,0,.5,0,.33,0,.5,0,.33,0,.5,0,.33,0,.5,0,.33,0,.5,0,.33,0,.5,0,.33,0,.5,0,.33,0,.5,0,.33,0,.5,0,.33,0,.5,0,.33,0,.5,0,.33,0,.5,0,.33,0,.5,0,.33,0,.5,0,.33,0,.5,0,.33,0,.5,0c6.76,0,12-7.93,12-18s-5.29-18-12-18c-.17,0-.33,0-.5,0s-.33,0-.5,0-.33,0-.5,0-.33,0-.5,0-.33,0-.5,0-.33,0-.5,0-.33,0-.5,0-.33,0-.5,0-.33,0-.5,0-.33,0-.5,0-.33,0-.5,0-.33,0-.5,0-.33,0-.5,0-.33,0-.5,0-.33,0-.5,0-.33,0-.5,0-.33,0-.5,0-.33,0-.5,0-.33,0-.5,0-.33,0-.5,0a9.63,9.63,0,0,0-7,3.28L58.18,32.63A12.05,12.05,0,0,0,46.37,18.2H12.59a12.06,12.06,0,0,0-12,12v12A12.06,12.06,0,0,0,12.59,54.3Zm34.5,95.91a21,21,0,0,1,0,23.08,21,21,0,0,1,0-23.08Z"/>
</svg>
