<svg id="Layer_2" data-name="Layer 2" xmlns="http://www.w3.org/2000/svg" width="68.5" height="199.14" viewBox="0 0 68.5 199.14">
  <title>_</title>
  <path d="M60,112.25A54.23,54.23,0,0,0,66,87.67H52.37a50.63,50.63,0,0,1-5.53,22.94l-1,2L35.21,90.41l8.42-16.47c5.84-11.43,4.29-28.19-.83-36.66-2.48-4.1-5.67-6.3-9.23-6.34h-.1c-.17,0-.33,0-.5,0s-.26,0-.4,0h-.1c-.17,0-.33,0-.5,0s-.26,0-.4,0h-.1c-.17,0-.33,0-.5,0s-.26,0-.4,0h-.1c-.17,0-.33,0-.5,0s-.26,0-.4,0h-.1c-.17,0-.33,0-.5,0s-.26,0-.4,0h-.1c-.17,0-.33,0-.5,0s-.26,0-.4,0h-.1c-.17,0-.33,0-.5,0s-.26,0-.4,0h-.1c-.17,0-.33,0-.5,0s-.26,0-.4,0h-.1c-.17,0-.33,0-.5,0s-.26,0-.4,0h-.1c-.17,0-.33,0-.5,0s-.26,0-.4,0h-.1c-3.31,0-6.34,1.9-8.76,5.5C9.61,44,7.3,59.75,12.49,72.15L21.2,90.36,5.12,121.81c-4.95,9.68-4.95,25.42,0,35.09l.9,1.75c2.6,5.08,6.21,7.88,10.16,7.88l.5,0,.5,0,.5,0,.5,0,.5,0,.5,0,.5,0,.5,0,.5,0,.5,0,.5,0,.5,0,.5,0,.5,0,.5,0,.5,0,.5,0,.5,0,.5,0,.5,0c4,0,7.56-2.8,10.15-7.88l9.06-17.71,9,18.8v5H68v-5.79L52.61,126.8ZM27.69,38.45c.23-.35.51-.71.8-1.06a15,15,0,0,1,1.23,1.75c4.52,7.49,5.93,23,.71,33.17l-2,3.92-2.65-5.54C21.24,59.83,23.1,45.25,27.69,38.45ZM23.12,157a16.47,16.47,0,0,1-1.95,3,16.49,16.49,0,0,1-2-3l-.9-1.75c-4.41-8.62-4.41-23.19,0-31.82L28,104.55l10.61,22.19Z"/>
</svg>
