<svg id="Layer_2" data-name="Layer 2" xmlns="http://www.w3.org/2000/svg" width="34.46" height="200" viewBox="0 0 34.46 200">
  <title>_</title>
  <path d="M15.82,179.29l.11.32.89-.32.11.32.89-.32.11.32.89-.32.11.32.89-.32.11.32.89-.32.11.32.89-.32.11.32.89-.32.11.32.89-.32.11.32.89-.32.11.32,3.38-1.22a221.4,221.4,0,0,1,.12-150.73l2.38-6.54-3.38-1.23-.12.32-.88-.32-.12.32-.88-.32-.12.32-.88-.32-.12.32-.88-.32-.12.32-.88-.32-.12.32-.88-.32-.12.32-.88-.32-.12.32-.88-.32-.12.32-.88-.32-.12.32-.88-.32-2.38,6.54a225,225,0,0,0-.12,153.18Z"/>
</svg>
