<svg id="Layer_2" data-name="Layer 2" xmlns="http://www.w3.org/2000/svg" width="30.67" height="200" viewBox="0 0 30.67 200">
  <title>_</title>
  <path d="M2.28,179.29l.88.32.12-.32.88.32.12-.32.88.32.12-.32.88.32.12-.32.88.32.12-.32.88.32.12-.32.88.32.12-.32.88.32.12-.32.88.32.12-.32.88.32,2.38-6.54a225,225,0,0,0,.12-153.18l-.89.32-.11-.32-.89.32-.11-.32-.89.32-.11-.32-.89.32-.11-.32-.89.32-.11-.32-.89.32-.11-.32-.89.32-.11-.32-.89.32-.11-.32-.89.32-.11-.32-.89.32-.11-.32L1.28,21.11a221.4,221.4,0,0,1-.12,150.73l-2.38,6.54,3.38,1.23Z"/>
</svg>
