<svg id="Layer_2" data-name="Layer 2" xmlns="http://www.w3.org/2000/svg" width="63.41" height="200" viewBox="0 0 63.41 200">
  <title>_</title>
  <polygon points="26.6 163.61 27.6 163.61 28.6 163.61 29.6 163.61 30.2 163.61 30.6 163.61 31.2 163.61 31.6 163.61 32.2 163.61 32.6 163.61 33.2 163.61 33.6 163.61 34.2 163.61 34.6 163.61 35.2 163.61 35.6 163.61 36.2 163.61 36.6 163.61 37.2 163.61 38.2 163.61 39.2 163.61 40.2 163.61 40.2 142.28 62.49 142.63 62.66 131.83 40.2 131.48 40.2 109.94 39.2 109.94 38.2 109.94 37.2 109.94 36.6 109.94 36.2 109.94 35.6 109.94 35.2 109.94 34.6 109.94 34.2 109.94 33.6 109.94 33.2 109.94 32.6 109.94 32.2 109.94 31.6 109.94 31.2 109.94 30.6 109.94 30.2 109.94 29.6 109.94 28.6 109.94 27.6 109.94 26.6 109.94 26.6 131.27 4.3 130.92 4.14 141.72 26.6 142.07 26.6 163.61"/>
</svg>
