<svg id="Layer_2" data-name="Layer 2" xmlns="http://www.w3.org/2000/svg" width="92.97" height="200" viewBox="0 0 92.97 200">
  <title>_</title>
  <g>
    <path d="M51.89,20.33l-.5,0-.5,0-.5,0-.5,0-.5,0-.5,0-.5,0-.5,0-.5,0-.5,0-.5,0-.5,0-.5,0-.5,0-.5,0-.5,0-.5,0-.5,0-.5,0-.5,0c-11.35,0-21.91,8.5-29.76,23.92C4.49,59.29.28,79.24.28,100.44s4.21,41.15,11.86,56.19c7.84,15.43,18.41,23.92,29.76,23.92l.5,0,.5,0,.5,0,.5,0,.5,0,.5,0,.5,0,.5,0,.5,0,.5,0,.5,0,.5,0,.5,0,.5,0,.5,0,.5,0,.5,0,.5,0,.5,0,.5,0c11.35,0,21.91-8.5,29.76-23.92,7.65-15,11.86-35,11.86-56.19S89.29,59.29,81.65,44.25C73.81,28.82,63.24,20.33,51.89,20.33Zm-5,4.28c17.32,4.6,31,32.76,32.81,67.92H14.08C15.88,57.37,29.57,29.21,46.89,24.61Zm0,151.66C29.62,171.68,16,143.66,14.1,108.63H79.68C77.82,143.66,64.17,171.68,46.89,176.27ZM79.83,105H14c0-1.52-.07-3-.07-4.59s0-2.88.06-4.31h65.9c0,1.43.06,2.86.06,4.31S79.87,103.51,79.83,105Z"/>
    <path d="M13.94,96.13c0,1.43-.06,2.86-.06,4.31s0,3.07.07,4.59H79.83c0-1.52.07-3,.07-4.59s0-2.88-.06-4.31Z"/>
  </g>
</svg>
