<svg id="Layer_2" data-name="Layer 2" xmlns="http://www.w3.org/2000/svg" width="51.33" height="200" viewBox="0 0 51.33 200">
  <title>_</title>
  <path d="M3.33,170.1v10.8h48V170.1H37.74L37.8,22.67a3.09,3.09,0,0,0-2.37-3,3.15,3.15,0,0,0-1.28,0,3.13,3.13,0,0,0-1,0,3.12,3.12,0,0,0-1,0,3.12,3.12,0,0,0-1,0,3.13,3.13,0,0,0-1,0,3.12,3.12,0,0,0-1,0,3.13,3.13,0,0,0-1,0,3.12,3.12,0,0,0-1,0,3.12,3.12,0,0,0-1,0,3.13,3.13,0,0,0-1,0,3.11,3.11,0,0,0-3.27,1.66L.39,64.53l3.22,1.6.2-.4.8.4.2-.4.8.4.2-.4.8.4.2-.4.8.4.2-.4.8.4.2-.4.8.4.2-.4.8.4.2-.4.8.4.2-.4.8.4.2-.4.8.4L24.19,44.82l0,125.29Z"/>
</svg>
