<svg id="Layer_2" data-name="Layer 2" xmlns="http://www.w3.org/2000/svg" width="60" height="200" viewBox="0 0 60 200">
  <title>_</title>
  <g>
    <path d="M25.29,182.46h10a24.53,24.53,0,0,0,23-33.12L40.91,101.76,58.26,54.2a24.53,24.53,0,0,0-23-33.13h-10A24.56,24.56,0,0,0,.76,45.59v7.85h13.6V45.59a21,21,0,0,1,16-20.32A21,21,0,0,1,44.88,52.95L34,82.8l-.2-.55c-1.12-3.06-4.38-2.95-5.46-2.91h0c-.41,0-.76,0-1,0h0c-.41,0-.76,0-1,0h0c-.41,0-.76,0-1,0h0c-.41,0-.76,0-1,0h0c-.41,0-.76,0-1,0h0c-.41,0-.76,0-1,0h0c-.41,0-.76,0-1,0h0c-.41,0-.76,0-1,0h0c-.41,0-.76,0-1,0h0c-.41,0-.76,0-1,0a15,15,0,0,0-14.14,15v14.92a15,15,0,0,0,14.14,15c.24,0,.6,0,1,0,.24,0,.59,0,1,0,.24,0,.59,0,1,0,.24,0,.59,0,1,0,.24,0,.59,0,1,0,.24,0,.59,0,1,0,.24,0,.59,0,1,0,.24,0,.59,0,1,0,.24,0,.59,0,1,0,.24,0,.59,0,1,0,1.09,0,4.33.15,5.44-2.91l.2-.55,10.9,29.87a21,21,0,0,1-14.51,27.66,21,21,0,0,1-16-20.32v-7.85H.76v7.85A24.56,24.56,0,0,0,25.29,182.46Zm-4-65a11.5,11.5,0,0,1-3.54-8.28V94.3A11.51,11.51,0,0,1,21.34,86l5.74,15.74Z"/>
    <path d="M17.79,94.3v14.92a11.5,11.5,0,0,0,3.54,8.28l5.74-15.74L21.34,86A11.51,11.51,0,0,0,17.79,94.3Z" fill="#e6f2e0"/>
  </g>
</svg>
