<svg id="Layer_2" data-name="Layer 2" xmlns="http://www.w3.org/2000/svg" width="59.33" height="200" viewBox="0 0 59.33 200">
  <title>_</title>
  <path d="M14.46,137.13H45.63V180h13.6V35.48a14.23,14.23,0,0,0-6.53-12.22A13.91,13.91,0,0,0,44.42,21c-.33,0-.67,0-1,0s-.67,0-1,0-.67,0-1,0-.67,0-1,0-.67,0-1,0-.67,0-1,0-.67,0-1,0-.67,0-1,0-.67,0-1,0a14.45,14.45,0,0,0-5.86,1.1,15,15,0,0,0-8.92,10.63L.59,119.56l0,.21a14.1,14.1,0,0,0,2.75,12A14.22,14.22,0,0,0,14.46,137.13ZM14,120.57l20.11-87a11.36,11.36,0,0,1,5.89-7.65c.24.13.48.24.7.39a10.56,10.56,0,0,1,4.88,9.2v98.06H24.46a10.64,10.64,0,0,1-8.36-4A10.52,10.52,0,0,1,14,120.57Z"/>
</svg>
