<svg id="Layer_2" data-name="Layer 2" xmlns="http://www.w3.org/2000/svg" width="99.63" height="200" viewBox="0 0 99.63 200">
  <title>_</title>
  <path d="M51.44,180.13H72.29a25.86,25.86,0,0,0,25.86-25.9,26,26,0,0,0-25.94-25.9h-51a132.84,132.84,0,0,1-3-28.33c0-42.35,19-75.53,43.24-75.53H73A12.55,12.55,0,0,1,85.5,37H99.1A16.15,16.15,0,0,0,83,20.87H51.44C38.64,20.87,26.78,29,18,43.78S4.61,78.41,4.61,100C4.61,144.93,25.18,180.13,51.44,180.13ZM22.8,131.92H62.21a22.38,22.38,0,0,1,22.34,22.31,22.26,22.26,0,0,1-22.26,22.3h-.85c-17.77,0-32.71-18.07-39.42-44.61Z"/>
</svg>
