<svg id="Layer_2" data-name="Layer 2" xmlns="http://www.w3.org/2000/svg" width="66.14" height="200" viewBox="0 0 66.14 200">
  <title>_</title>
  <path d="M.27,165.7A27,27,0,0,0,24.6,182.76q1.21,0,2.43,0H37.71a27.53,27.53,0,0,0,19-47.11l-18-17C61.17,96.41,66.32,61.8,51.22,34.52c-5.14-9.28-10.54-14-16.07-14l-.51,0-.49,0-.51,0-.49,0-.51,0-.49,0-.51,0-.49,0-.51,0-.49,0-.51,0-.49,0-.51,0-.49,0-.51,0-.49,0-.51,0-.49,0-.51,0-.49,0c-5.18,0-10.24,4.23-15.05,12.56C-5.95,60.91-.6,96,23.12,118.38l.39.36L6,136.13A27.32,27.32,0,0,0,.27,165.7ZM23.22,34.89a30.18,30.18,0,0,1,7-8.76c2.58,2,5.24,5.37,7.88,10.13,13.19,23.82,10.07,53.54-7.16,74.61C12.47,89.64,9.13,59.31,23.22,34.89Zm-4.7,103.77,12.73-12.61,12.92,12.2a23.63,23.63,0,0,1,5.32,26.07,23.39,23.39,0,0,1-17.9,14.52,23.37,23.37,0,0,1-18-14.49A23.75,23.75,0,0,1,18.52,138.66Z"/>
</svg>
