<svg id="Layer_2" data-name="Layer 2" xmlns="http://www.w3.org/2000/svg" width="97.33" height="200" viewBox="0 0 97.33 200">
  <title>_</title>
  <g>
    <path d="M29,136.8H78c-7.19,23.83-21.45,39.73-38.23,39.73H28.22A12.55,12.55,0,0,1,15.69,164H2.09a16.15,16.15,0,0,0,16.13,16.13H49.74c12.8,0,24.66-8.14,33.4-22.91S96.58,122.59,96.58,101c0-44.93-20.57-80.13-46.84-80.13H28.89A25.86,25.86,0,0,0,3,46.77c0,1.86-.24,5-.54,9.09C1,76.23-1.89,114.13,12.7,129.85A21.34,21.34,0,0,0,29,136.8ZM83,101a127,127,0,0,1-4,32.2H39a17.65,17.65,0,0,1-13.64-5.79c-5.78-6.23-8.55-16.78-9.74-28.27H83C83,99.76,83,100.38,83,101Zm-.12-5.46H15.28c-.22-2.95-.34-5.93-.4-8.9H82.24Q82.69,91,82.87,95.54ZM16.08,56.14c.31-4.12.55-7.37.55-9.37a22.26,22.26,0,0,1,22.26-22.3h.85c20.74,0,37.62,24.6,42.07,58.57h-67C14.83,72.8,15.56,63.06,16.08,56.14Z"/>
    <path d="M15.28,95.54H82.87q-.17-4.54-.62-8.9H14.88C14.93,89.61,15.06,92.59,15.28,95.54Z"/>
  </g>
</svg>
