<svg id="Layer_2" data-name="Layer 2" xmlns="http://www.w3.org/2000/svg" width="54" height="200" viewBox="0 0 54 200">
  <title>_</title>
  <path d="M51.26,70.84v0h-.34l-.66,0v0h-.34l-.66,0v0h-.34l-.66,0v0h-.34l-.66,0v0h-.34l-.66,0v0h-.34l-.66,0v0h-.34l-.66,0v0h-.34l-.66,0v0h-.34l-.66,0v0h-.34c-7.22,0-14.62,4.64-20.83,13.06l-19,21.79c-2,2.48-2,11.48.06,14l19.6,22.2c6.11,8.11,13.38,12.58,20.48,12.58v0c.33,0,.67,0,1,0v0c.33,0,.67,0,1,0v0c.33,0,.67,0,1,0v0c.33,0,.67,0,1,0v0c.33,0,.67,0,1,0v0c.33,0,.67,0,1,0v0c.33,0,.67,0,1,0v0c.33,0,.67,0,1,0v0c.33,0,.67,0,1,0v0c.33,0,.67,0,1,0v-3.6c-5.87,0-12.29-4.08-17.64-11.2L15,117.39C14,116.1,14,109.19,14.9,108l19-21.79.09-.12c5.45-7.41,12-11.65,18-11.65h.34v-3.6h-.34Z"/>
</svg>
