<svg id="Layer_2" data-name="Layer 2" xmlns="http://www.w3.org/2000/svg" width="52" height="200" viewBox="0 0 52 200">
  <title>_</title>
  <path d="M31.11,83.4C25,75.28,17.73,70.81,10.63,70.81v0c-.33,0-.67,0-1,0v0c-.33,0-.67,0-1,0v0c-.33,0-.67,0-1,0v0c-.33,0-.67,0-1,0v0c-.33,0-.67,0-1,0v0c-.33,0-.67,0-1,0v0c-.33,0-.67,0-1,0v0c-.33,0-.67,0-1,0v0c-.33,0-.67,0-1,0v0c-.33,0-.67,0-1,0v3.6c5.87,0,12.3,4.08,17.64,11.2L37.94,107.9c.92,1.29.92,8.21.06,9.42L19,139.11l-.09.12c-5.45,7.41-12,11.65-18,11.65H.63v3.6H1l.66,0v0H2l.66,0v0H3l.66,0v0H4l.66,0v0H5l.66,0v0H6l.66,0v0H7l.66,0v0H8l.66,0v0H9l.66,0v0H10l.66,0v0H11c7.22,0,14.62-4.64,20.83-13.06l19-21.79c2-2.48,2-11.48-.06-14Z"/>
</svg>
