<svg id="Layer_2" data-name="Layer 2" xmlns="http://www.w3.org/2000/svg" width="48" height="199.14" viewBox="0 0 48 199.14">
  <title>_</title>
  <g>
    <path d="M25.22,21.67l-.21,0-.79,0-.21,0-.79,0-.21,0-.79,0-.21,0-.79,0-.21,0-.79,0-.21,0-.79,0-.21,0-.79,0-.21,0-.79,0-.21,0-.79,0-.21,0-.79,0-.31,0c-5.62,1-10.08,6-12.57,14.12C0,43.52-.36,53.22,1.4,63.14l1-.17c0,.06,0,.11,0,.17l1-.17c0,.06,0,.11,0,.17l1-.17c0,.06,0,.11,0,.17l1-.17c0,.06,0,.11,0,.17l1-.17c0,.06,0,.11,0,.17l1-.17c0,.06,0,.11,0,.17l1-.17c0,.06,0,.11,0,.17l1-.17c0,.06,0,.11,0,.17l1-.17c0,.06,0,.11,0,.17l1-.17c0,.06,0,.11,0,.17l3.54-.63c-1.66-9.37-1.36-18.48.83-25.64,1.54-5,3.84-8.58,6.65-10.4a14.69,14.69,0,0,1,7.19,5.76c15.6,23.33-14,95.53-14.26,96.26l-.11.36c-.65,3.51,1,8.43,4,9.27l.11-.4a3.63,3.63,0,0,0,.89.4l.11-.4a3.63,3.63,0,0,0,.89.4l.11-.4a3.63,3.63,0,0,0,.89.4l.11-.4a3.63,3.63,0,0,0,.89.4l.11-.4a3.63,3.63,0,0,0,.89.4l.11-.4a3.63,3.63,0,0,0,.89.4l.11-.4a3.63,3.63,0,0,0,.89.4l.11-.4a3.63,3.63,0,0,0,.89.4l.11-.4a3.63,3.63,0,0,0,.89.4l.11-.4a3.63,3.63,0,0,0,.89.4l1-3.46c-.59-.23-1.8-2.68-1.45-5,2.07-5.05,30.26-74.9,13.85-99.44C38.81,24.55,33,21.67,25.22,21.67Z"/>
    <path d="M22.75,146.6A16.65,16.65,0,1,0,39.4,163.25,16.67,16.67,0,0,0,22.75,146.6Zm0,22.5a5.85,5.85,0,1,1,5.85-5.85A5.86,5.86,0,0,1,22.75,169.1Z"/>
    <circle cx="22.75" cy="163.25" r="5.85"/>
  </g>
</svg>
