<svg id="Layer_2" data-name="Layer 2" xmlns="http://www.w3.org/2000/svg" width="92.67" height="200" viewBox="0 0 92.67 200">
  <title>_</title>
  <path d="M99.56,177.46h-9L26,178.11a13.4,13.4,0,0,1-11.9-13.3V35.18A13.4,13.4,0,0,1,27.52,21.8H67.14A13.4,13.4,0,0,1,80.52,35.18v83.41c0,7-.79,10.46-1.68,12.19a38.89,38.89,0,0,0-12-1.65h-9a38.66,38.66,0,0,0-10.6,1.4l-1.4.39a13.39,13.39,0,0,1-7.72-12.11V57.18a13.4,13.4,0,0,1,9.09-12.66,13.39,13.39,0,0,1,9,13.72v.07l.15,64.25H70l-.15-64.11A17,17,0,0,0,52.89,40.2H41.53a17,17,0,0,0-17,17v61.63a17,17,0,0,0,17,17h.25l.12,0c.21,0,.42,0,.64,0h.25l.12,0c.21,0,.42,0,.64,0h.25l.12,0c.21,0,.42,0,.64,0h.25l.12,0c.21,0,.42,0,.64,0h.25l.12,0c.21,0,.42,0,.64,0h.25l.12,0c.21,0,.42,0,.64,0h.25l.12,0c.21,0,.42,0,.64,0h.25l.12,0c.21,0,.42,0,.64,0h.25l.12,0c.21,0,.42,0,.64,0h.25l.12,0c.21,0,.42,0,.64,0h.25l6.45-1.8a34.91,34.91,0,0,1,4.39-.92,35.06,35.06,0,0,1,9.08,2.57l.34.15h.38a13.15,13.15,0,0,1,1.56.14,14.91,14.91,0,0,0,2.62.16,9.94,9.94,0,0,0,1,0,10,10,0,0,0,1,0,9.93,9.93,0,0,0,1,0,9.94,9.94,0,0,0,1,0,9.94,9.94,0,0,0,1,0,9.93,9.93,0,0,0,1,0,9.93,9.93,0,0,0,1,0,9.94,9.94,0,0,0,1,0,9.94,9.94,0,0,0,1,0,6.34,6.34,0,0,0,4.78-1.45c2.6-2.29,3.76-7.24,3.76-16.06V35.18a17,17,0,0,0-17-17H17.52a17,17,0,0,0-17,17V164.82a17,17,0,0,0,17,17h10L100.6,181l0-3.6Z"/>
</svg>
