<svg id="Layer_2" data-name="Layer 2" xmlns="http://www.w3.org/2000/svg" width="93.33" height="200" viewBox="0 0 93.33 200">
  <title>_</title>
  <path d="M2,180.54h11.6v-1.37a233.92,233.92,0,0,1,3.15-38.28H76.66A234,234,0,0,1,80,180.54h13.6a237.2,237.2,0,0,0-12-74.54L59.39,26.8a7.81,7.81,0,0,0-7.58-5.57c-.17,0-.33,0-.5,0s-.33,0-.5,0-.33,0-.5,0-.33,0-.5,0-.33,0-.5,0-.33,0-.5,0-.33,0-.5,0-.33,0-.5,0-.33,0-.5,0-.33,0-.5,0-.33,0-.5,0-.33,0-.5,0-.33,0-.5,0-.33,0-.5,0-.33,0-.5,0-.33,0-.5,0-.33,0-.5,0-.33,0-.5,0-.33,0-.5,0-.33,0-.5,0a7.82,7.82,0,0,0-7.59,5.61L12.46,103.15A237.32,237.32,0,0,0,0,179.18v1.37H2ZM25.9,104.22,46.81,30.9l21.41,76.15a234.56,234.56,0,0,1,6.33,23H18.79A235.4,235.4,0,0,1,25.9,104.22Z"/>
</svg>
