<svg id="Layer_2" data-name="Layer 2" xmlns="http://www.w3.org/2000/svg" width="93" height="200" viewBox="0 0 93 200">
  <title>_</title>
  <g>
    <path d="M40.72,180.86H51.43a38.75,38.75,0,0,0,27.15-11.51c9.51-9.32,15-23,15-37.42,0-11.84-7.64-22.84-18.42-31.42C85.9,91.93,93.54,80.93,93.54,69.09c0-14.46-5.45-28.1-15-37.42A38.72,38.72,0,0,0,50.72,20.16h-10C17.9,20.6-.66,42.9-.66,69.86v61.29C-.66,158.12,17.9,180.41,40.72,180.86Zm-27.77-111c0-23.27,14.69-42.78,33.54-45.72A35.92,35.92,0,0,1,66.05,34.24c8.82,8.65,13.88,21.35,13.88,34.85,0,9.1-5.4,18-13.49,25.44a88.35,88.35,0,0,0-20.88-9.14,12.08,12.08,0,0,0-3.71-.46c-.33,0-.67,0-1,0s-.67,0-1,0-.67,0-1,0-.67,0-1,0-.67,0-1,0-.67,0-1,0-.67,0-1,0-.67,0-1,0-.67,0-1,0a12.18,12.18,0,0,0-8.08,2.54,16.93,16.93,0,0,0,0,26.08,12.18,12.18,0,0,0,8.08,2.54c.33,0,.67,0,1,0s.67,0,1,0,.67,0,1,0,.67,0,1,0,.67,0,1,0,.67,0,1,0,.67,0,1,0,.67,0,1,0,.67,0,1,0a12.09,12.09,0,0,0,3.71-.46,88.35,88.35,0,0,0,20.88-9.14c8.09,7.47,13.49,16.34,13.49,25.44,0,13.5-5.06,26.2-13.88,34.85a35.91,35.91,0,0,1-19.59,10.09c-18.84-2.95-33.52-22.45-33.52-45.71Zm46,30.65A84.31,84.31,0,0,1,37.73,111.2c-.26-.16-.52-.33-.78-.52a13.34,13.34,0,0,1,0-20.33c.25-.19.51-.36.77-.52A84.29,84.29,0,0,1,59,100.51Z"/>
    <path d="M37,90.34a13.34,13.34,0,0,0,0,20.33c.25.19.51.36.78.52A84.31,84.31,0,0,0,59,100.51,84.29,84.29,0,0,0,37.73,89.82C37.46,90,37.2,90.15,37,90.34Z" fill="#e6f2e0"/>
  </g>
</svg>
