<svg id="Layer_2" data-name="Layer 2" xmlns="http://www.w3.org/2000/svg" width="93.5" height="200" viewBox="0 0 93.5 200">
  <title>_</title>
  <polygon points="91.67 20.87 90.67 20.87 89.67 20.87 88.67 20.87 87.67 20.87 86.67 20.87 85.67 20.87 84.67 20.87 83.67 20.87 10.22 20.87 9.22 20.87 8.22 20.87 7.22 20.87 6.22 20.87 5.22 20.87 4.22 20.87 3.22 20.87 2.22 20.87 1.22 20.87 0.22 20.87 -0.18 130.1 -0.25 130.1 -0.25 140.9 -0.22 140.9 -0.36 180.13 0.64 180.13 1.64 180.13 2.64 180.13 3.64 180.13 4.64 180.13 5.64 180.13 6.64 180.13 7.64 180.13 8.64 180.13 9.64 180.13 83.45 180.13 84.45 180.13 85.45 180.13 86.45 180.13 87.45 180.13 88.45 180.13 89.45 180.13 90.45 180.13 91.45 180.13 92.45 180.13 93.45 180.13 93.45 176.53 92.45 176.53 91.45 176.53 90.45 176.53 89.45 176.53 88.45 176.53 87.45 176.53 86.45 176.53 85.45 176.53 84.45 176.53 83.45 176.53 13.25 176.53 13.38 140.9 71.74 140.9 71.74 130.1 13.42 130.1 13.81 24.47 83.67 24.47 84.67 24.47 85.67 24.47 86.67 24.47 87.67 24.47 88.67 24.47 89.67 24.47 90.67 24.47 91.67 24.47 92.67 24.47 93.67 24.47 93.67 20.87 92.67 20.87 91.67 20.87"/>
</svg>
