<svg id="Layer_2" data-name="Layer 2" xmlns="http://www.w3.org/2000/svg" width="93.5" height="200" viewBox="0 0 93.5 200">
  <title>_</title>
  <polygon points="3.11 180 3.71 180 4.11 180 4.71 180 5.11 180 5.71 180 6.11 180 6.71 180 7.11 180 7.71 180 8.11 180 8.71 180 9.11 180 9.71 180 10.11 180 10.71 180 11.71 180 12.71 180 13.71 180 13.71 140.9 79.61 140.9 79.61 180 80.61 180 81.61 180 82.61 180 83.21 180 83.61 180 84.21 180 84.61 180 85.21 180 85.61 180 86.21 180 86.61 180 87.21 180 87.61 180 88.21 180 88.61 180 89.21 180 89.61 180 90.21 180 91.21 180 92.21 180 93.21 180 93.21 140.9 93.67 140.9 93.67 130.1 93.21 130.1 93.21 20.75 92.21 20.75 91.21 20.75 90.21 20.75 89.61 20.75 89.21 20.75 88.61 20.75 88.21 20.75 87.61 20.75 87.21 20.75 86.61 20.75 86.21 20.75 85.61 20.75 85.21 20.75 84.61 20.75 84.21 20.75 83.61 20.75 83.21 20.75 82.61 20.75 81.61 20.75 80.61 20.75 79.61 20.75 79.61 130.1 13.71 130.1 13.71 20.75 12.71 20.75 11.71 20.75 10.71 20.75 10.11 20.75 9.71 20.75 9.11 20.75 8.71 20.75 8.11 20.75 7.71 20.75 7.11 20.75 6.71 20.75 6.11 20.75 5.71 20.75 5.11 20.75 4.71 20.75 4.11 20.75 3.71 20.75 3.11 20.75 2.11 20.75 1.11 20.75 0.11 20.75 0.11 130.1 -0.5 130.1 -0.5 140.9 0.11 140.9 0.11 180 1.11 180 2.11 180 3.11 180"/>
</svg>
