<svg id="Layer_2" data-name="Layer 2" xmlns="http://www.w3.org/2000/svg" width="143.5" height="200" viewBox="0 0 143.5 200">
  <title>_</title>
  <path d="M130.3,31.72a10.49,10.49,0,0,0-9.6-9,12,12,0,0,0-1.63,0c-.33,0-.66,0-1,0s-.66,0-1,0-.66,0-1,0-.66,0-1,0-.66,0-1,0-.66,0-1,0-.66,0-1,0-.66,0-1,0-.66,0-1,0a13,13,0,0,0-12.71,8.75l-24.91,85-29-84.9,0-.12a13.72,13.72,0,0,0-13.1-8.68c-.34,0-.67,0-1,0s-.67,0-1,0-.67,0-1,0-.67,0-1,0-.67,0-1,0-.67,0-1,0-.67,0-1,0-.67,0-1,0-.67,0-1,0a11.61,11.61,0,0,0-2.07.09,10,10,0,0,0-8.74,9.12l-9.2,94.7c-3.26,19.58-2.07,37.75,3.54,54l.26.75L6,181l.11.31L7,181l.11.31L8,181l.11.31L9,181l.11.31L10,181l.11.31L11,181l.11.31L12,181l.11.31L13,181l.11.31L14,181l.11.31L15,181l.11.31,3.4-1.17-.26-.75c-5.42-15.71-6.55-33.31-3.38-52.31l9.22-94.84a6.81,6.81,0,0,1,2.12-4.35,10.81,10.81,0,0,1,3.88,4.77l36,105.41-9.73,33.2a6.13,6.13,0,0,0,1.11,5.47c2.17,2.89,6.59,4.68,11.52,4.68l.5,0,.5,0,.5,0,.5,0,.5,0,.5,0,.5,0,.5,0,.5,0,.5,0,.5,0,.5,0,.5,0,.5,0,.5,0,.5,0,.5,0,.5,0,.5,0,.5,0c4.91,0,9.25-1.79,11.32-4.67a6,6,0,0,0,.91-5.57L79.86,138,110.76,32.6a10,10,0,0,1,3.58-4.71,7.24,7.24,0,0,1,2.4,4.38l13.77,97.22,0,.11c3.83,18.35,3.48,35.38-1,50.62l3.45,1L133,181l.92.27L134,181l.92.27L135,181l.92.27L136,181l.92.27L137,181l.92.27L138,181l.92.27L139,181l.92.27L140,181l.92.27L141,181l.92.27L142,181l.92.27c4.68-15.8,5.06-33.4,1.12-52.32ZM77.37,174.66A7.44,7.44,0,0,1,74,177a8,8,0,0,1-3.62-2.39,2.51,2.51,0,0,1-.53-2.3l3.68-12.54,4.31,12.61A2.43,2.43,0,0,1,77.37,174.66Z"/>
</svg>
