<svg id="Layer_2" data-name="Layer 2" xmlns="http://www.w3.org/2000/svg" width="93.5" height="200" viewBox="0 0 93.5 200">
  <title>_</title>
  <path d="M7.1,180h6.6V35.48a10.56,10.56,0,0,1,4.88-9.2c.23-.15.46-.26.7-.39a11.36,11.36,0,0,1,5.9,7.66L55,168.8a14.86,14.86,0,0,0,8.33,10.32,14.25,14.25,0,0,0,5.91,1.3l.46,0,.54,0,.46,0,.54,0,.46,0,.54,0,.46,0,.54,0,.46,0,.54,0,.46,0,.54,0,.46,0,.54,0,.46,0,.54,0,.46,0,.54,0,.46,0,.54,0a13.79,13.79,0,0,0,6.66-1.72,14,14,0,0,0,7.33-12.6V20.75H79.6V166.11a10.44,10.44,0,0,1-5.42,9.41,11.23,11.23,0,0,1-5.7-7.49L38.69,32.78a15,15,0,0,0-8.92-10.65A14.47,14.47,0,0,0,23.91,21c-.33,0-.67,0-1,0s-.67,0-1,0-.67,0-1,0-.67,0-1,0-.67,0-1,0-.67,0-1,0-.67,0-1,0-.67,0-1,0-.67,0-1,0a13.9,13.9,0,0,0-8.28,2.22A14.23,14.23,0,0,0,.1,35.48V180h7Z"/>
</svg>
