<svg id="Layer_2" data-name="Layer 2" xmlns="http://www.w3.org/2000/svg" width="94" height="200" viewBox="0 0 94 200">
  <title>_</title>
  <g>
    <path d="M41.94,180.55l.5,0,.5,0,.5,0,.5,0,.5,0,.5,0,.5,0,.5,0,.5,0,.5,0,.5,0,.5,0,.5,0,.5,0,.5,0,.5,0,.5,0,.5,0,.5,0,.5,0c11.35,0,21.91-8.5,29.76-23.92,7.65-15,11.86-35,11.86-56.19S89.34,59.29,81.69,44.25C73.85,28.82,63.28,20.33,51.94,20.33l-.5,0-.5,0-.5,0-.5,0-.5,0-.5,0-.5,0-.5,0-.5,0-.5,0-.5,0-.5,0-.5,0-.5,0-.5,0-.5,0-.5,0-.5,0-.5,0-.5,0c-11.35,0-21.91,8.5-29.76,23.92C4.54,59.29.33,79.24.33,100.44s4.21,41.15,11.86,56.19C20,172.05,30.59,180.55,41.94,180.55Zm5-4.28C29.66,171.68,16,143.66,14.15,108.63H79.73C77.87,143.66,64.21,171.68,46.94,176.27Zm0-151.66c17.32,4.6,31,32.76,32.81,67.92H14.13C15.93,57.37,29.61,29.21,46.94,24.61ZM14,96.13h65.9c0,1.43.06,2.86.06,4.31s0,3.07-.07,4.59H14c0-1.52-.07-3-.07-4.59S13.95,97.56,14,96.13Z"/>
    <path d="M79.88,105c0-1.52.07-3,.07-4.59s0-2.88-.06-4.31H14c0,1.43-.06,2.86-.06,4.31s0,3.07.07,4.59Z"/>
  </g>
</svg>
