<svg id="Layer_2" data-name="Layer 2" xmlns="http://www.w3.org/2000/svg" width="94" height="200" viewBox="0 0 94 200">
  <title>_</title>
  <path d="M93.6,82.31V38.91a18,18,0,0,0-17.81-18H13.73A13.3,13.3,0,0,0,.45,34.09L-.07,180.33h13.6l.4-113.44L41.77,98.1a23.82,23.82,0,0,0,18,7.88h9a24.93,24.93,0,0,0,9.16-1.48A23.15,23.15,0,0,0,93.56,83.64Q93.6,83,93.6,82.31Zm-13.6,0c0,.38,0,.76,0,1.14a19.61,19.61,0,0,1-13.24,17.66,22.06,22.06,0,0,1-2.21.65,20.43,20.43,0,0,1-10.07-6.08L14,50.35l.06-16.24a9.69,9.69,0,0,1,9.67-9.64H65.79A14.34,14.34,0,0,1,80,38.91Z"/>
</svg>
