<svg id="Layer_2" data-name="Layer 2" xmlns="http://www.w3.org/2000/svg" width="108" height="200" viewBox="0 0 108 200">
  <title>_</title>
  <g>
    <path d="M26.6,156.63c7.84,15.43,18.41,23.92,29.76,23.92l.5,0,.5,0,.5,0,.5,0,.5,0,.5,0,.5,0,.5,0,.5,0,.5,0,.5,0,.5,0,.5,0,.5,0,.5,0,.5,0,.5,0,.5,0,.5,0,.5,0c11.34,0,21.91-8.49,29.75-23.91a86.86,86.86,0,0,1,5,14,36.12,36.12,0,0,1,1.28,9.57h10.8a46.93,46.93,0,0,0-1.66-12.44c-2-7.22-5-16.22-10.18-23.64A138.73,138.73,0,0,0,108,100.44c0-21.2-4.21-41.15-11.86-56.19C88.27,28.82,77.7,20.33,66.35,20.33l-.5,0-.5,0-.5,0-.5,0-.5,0-.5,0-.5,0-.5,0-.5,0-.5,0-.5,0-.5,0-.5,0-.5,0-.5,0-.5,0-.5,0-.5,0-.5,0-.5,0c-11.35,0-21.91,8.5-29.76,23.92-7.65,15-11.86,35-11.86,56.19,0,16.68,2.62,32.59,7.46,45.94a15.19,15.19,0,0,1-18.44-5.73L.27,135.29l-9,5.89,3.49,5.36a26,26,0,0,0,31.73,9.78Zm8.12-13.83,3,8Q36.12,147,34.72,142.8Zm26.63,33.46c-9-2.4-17-11.17-22.93-24l22.81-8.71c9.55-3.58,17.09-3.84,23-.8a19.17,19.17,0,0,1,3,2C81.34,161.62,72,173.43,61.35,176.27Zm0-151.66c18.6,4.95,33,37.05,33,75.83a142.88,142.88,0,0,1-3.84,33.47c-.45-.26-.88-.53-1.34-.77-8.69-4.44-19.37-4.33-31.78.31l-22.88,8.74a136.78,136.78,0,0,1-6.18-41.75C28.34,61.66,42.75,29.55,61.35,24.61Z"/>
    <path d="M37.76,150.78l-3-8Q36.11,147,37.76,150.78Z"/>
  </g>
</svg>
