<svg id="Layer_2" data-name="Layer 2" xmlns="http://www.w3.org/2000/svg" width="93" height="200" viewBox="0 0 93 200">
  <title>_</title>
  <path d="M64.7,106h4a24.94,24.94,0,0,0,9.16-1.48A23.15,23.15,0,0,0,93.47,83.64q0-.66,0-1.33V38.91a18,18,0,0,0-17.81-18H13.63A13.3,13.3,0,0,0,.36,34.09L-.16,180.33h13.6l.4-113.44L41.68,98.1a25,25,0,0,0,3.62,3.25C62,119.6,82.61,146.86,82.61,170.53V181h10.8V170.53c0-21.72-13.74-44.9-29.77-64.55H64.7Zm-7.85-8c-3.37-3.81-6.78-7.44-10.11-10.85L13.9,50.35,14,34.11a9.69,9.69,0,0,1,9.67-9.64H65.69A14.34,14.34,0,0,1,79.9,38.91v43.4c0,.38,0,.76,0,1.14a19.61,19.61,0,0,1-13.24,17.66,22.06,22.06,0,0,1-2.21.65A20.19,20.19,0,0,1,56.85,98Z"/>
</svg>
