<svg id="Layer_2" data-name="Layer 2" xmlns="http://www.w3.org/2000/svg" width="93" height="200" viewBox="0 0 93 200">
  <title>_</title>
  <path d="M80.69,82.31h12.6V38.91a18,18,0,0,0-17.81-18h-62A13.32,13.32,0,0,0,.15,34.09,49.92,49.92,0,0,0,11,65.34l58.25,73.18a46.31,46.31,0,0,1,10,29,9.72,9.72,0,0,1-9.69,9.64h-42a14.34,14.34,0,0,1-14.21-14.44v-43.4H-.28v43.4a18,18,0,0,0,17.81,18h62a13.32,13.32,0,0,0,13.29-13.22A49.92,49.92,0,0,0,82,136.28L23.79,63.1a46.31,46.31,0,0,1-10-29,9.72,9.72,0,0,1,9.69-9.64h42A14.34,14.34,0,0,1,79.69,38.91v43.4Z"/>
</svg>
