<svg id="Layer_2" data-name="Layer 2" xmlns="http://www.w3.org/2000/svg" width="93.5" height="200" viewBox="0 0 93.5 200">
  <title>_</title>
  <path d="M13,23H.38v1.37a237.14,237.14,0,0,0,12.46,75.94l21.8,76.44a7.81,7.81,0,0,0,7.58,5.57c.17,0,.33,0,.5,0s.33,0,.5,0,.33,0,.5,0,.33,0,.5,0,.33,0,.5,0,.33,0,.5,0,.33,0,.5,0,.33,0,.5,0,.33,0,.5,0,.33,0,.5,0,.33,0,.5,0,.33,0,.5,0,.33,0,.5,0,.33,0,.5,0,.33,0,.5,0,.33,0,.5,0,.33,0,.5,0,.33,0,.5,0,.33,0,.5,0,.33,0,.5,0a7.82,7.82,0,0,0,7.59-5.62L82,97.64A237.37,237.37,0,0,0,94,23H80.45c0,.06,0,.12,0,.17H14V23ZM68.59,96.59,47.21,172.67,26.28,99.27a233.67,233.67,0,0,1-11.81-60H79.87A234.08,234.08,0,0,1,68.59,96.59ZM80.41,26.8q-.07,4.46-.31,8.9H14.27q-.21-4.44-.26-8.9Z"/>
</svg>
