<svg id="Layer_2" data-name="Layer 2" xmlns="http://www.w3.org/2000/svg" width="139.5" height="200" viewBox="0 0 139.5 200">
  <title>_</title>
  <path d="M137.45,20.75h-11.6V83.7H91.21a17.42,17.42,0,0,0-1.58-5.3,16.46,16.46,0,0,0-13.92-9.45c-.37,0-.74,0-1.11,0h-10c-.38,0-.76,0-1.14,0a16.47,16.47,0,0,0-14,9.4,17.45,17.45,0,0,0-1.61,5.36H13.16V20.58H-.44v144.8c0,.36,0,.72,0,1.08A13.87,13.87,0,0,0,10,179.26a15.18,15.18,0,0,0,4.71.57c.33,0,.67,0,1,0s.67,0,1,0,.67,0,1,0,.67,0,1,0,.67,0,1,0,.67,0,1,0,.67,0,1,0,.67,0,1,0,.67,0,1,0a14.47,14.47,0,0,0,12.39-6.27l33.43-49.79L103,173.59a14.45,14.45,0,0,0,11.93,6.26l.63,0,.37,0,.63,0,.37,0,.63,0,.37,0,.63,0,.37,0,.63,0,.37,0,.63,0,.37,0,.63,0,.37,0,.63,0,.37,0,.63,0,.37,0,.63,0,.37,0a15.27,15.27,0,0,0,4.16-.58,13.87,13.87,0,0,0,10.37-12.81q0-.54,0-1.08V20.75h-2ZM62.66,79.91a13,13,0,0,1,6.85-6.47A13,13,0,0,1,76.39,80a14.1,14.1,0,0,1,1.2,3.74H61.44A14.11,14.11,0,0,1,62.66,79.91ZM23.1,171.53A11,11,0,0,1,19,175.06a10.2,10.2,0,0,1-5.86-8.82q0-.43,0-.87V87.3H47.71a17.15,17.15,0,0,0,3,8.54l11.6,17.27Zm46.4-69.1-5.8-8.63a13.61,13.61,0,0,1-2.41-6.5H77.72a13.69,13.69,0,0,1-2.43,6.52Zm56.35,62.95c0,.29,0,.58,0,.87a10.2,10.2,0,0,1-5.86,8.82,10.93,10.93,0,0,1-4-3.51L76.68,113.1,88.26,95.85a17.23,17.23,0,0,0,3-8.56h34.55Z"/>
</svg>
