<svg id="Layer_2" data-name="Layer 2" xmlns="http://www.w3.org/2000/svg" width="106.05" height="200" viewBox="0 0 106.05 200">
  <title>_</title>
  <path d="M3.1,180.33H13.7v-16a63.13,63.13,0,0,1,19.85-45.85L53.24,100l19.69,18.48a63.13,63.13,0,0,1,19.85,45.85v16h13.6v-16a66.74,66.74,0,0,0-21-48.48l-24.52-23,24.52-23c13.14-12.33,21-30.83,21-49.48H92.77c0,17.67-7.42,35.19-19.85,46.85L53.24,85.67,33.55,67.19C21.12,55.52,13.7,38,13.7,20.33H.1c0,18.65,7.84,37.14,21,49.48l24.52,23-24.52,23a66.74,66.74,0,0,0-21,48.48v16h3Z"/>
</svg>
