<svg id="Layer_2" data-name="Layer 2" xmlns="http://www.w3.org/2000/svg" width="93" height="200" viewBox="0 0 93 200">
  <title>_</title>
  <path d="M34.61,131.91c1.05,2.38,3.65,3.89,6.85,4.08v44h10.8V136c3.44,0,6.25-1.61,7.39-4.17L81.88,76A134.66,134.66,0,0,0,93.95,20.9H80.35c0,.1,0,.2,0,.3H13.88v-.3H.28v1A134.72,134.72,0,0,0,12.82,77.91Zm34-57.44-21.49,54-21-52,0-.1A129.89,129.89,0,0,1,14.88,37.3H79.23A129.32,129.32,0,0,1,68.6,74.47ZM80.28,24.8c-.1,2.95-.31,5.92-.62,8.9H14.48c-.29-3-.48-6-.55-8.9Z"/>
</svg>
