<svg id="Layer_2" data-name="Layer 2" xmlns="http://www.w3.org/2000/svg" width="93.5" height="200" viewBox="0 0 93.5 200">
  <title>_</title>
  <path d="M94.43,22.33v-1.8H.16v3.6H80.58a26.82,26.82,0,0,1-1.64,4.56H.08v3.6H77.2c-6,11.58-18.49,29.83-30.7,47.64C34.57,97.34,22.43,115,13.57,130.1H.23v10.8H7.56C3,149.8.17,157.22.17,162.33v17.8h10L93.84,180v-3.6h-10l-70.06.13v-4l80.32-.24v-3.6l-80.31.24v-6.61c0-4.83,3-12.35,7.85-21.43H72.22V130.1H27.76c8.85-14.79,20.65-32,31.7-48.13C78.23,54.61,94.43,31,94.43,22.33Z"/>
</svg>
