<svg id="Layer_2" data-name="Layer 2" xmlns="http://www.w3.org/2000/svg" width="41" height="200" viewBox="0 0 41 200">
  <title>_</title>
  <polygon points="31.02 24.47 32.02 24.47 33.02 24.47 34.02 24.47 35.02 24.47 36.02 24.47 37.02 24.47 38.02 24.47 39.02 24.47 40.02 24.47 41.02 24.47 41.02 20.87 40.02 20.87 39.02 20.87 38.02 20.87 37.02 20.87 36.02 20.87 35.02 20.87 34.02 20.87 33.02 20.87 32.02 20.87 31.02 20.87 10.55 20.87 9.55 20.87 8.55 20.87 7.55 20.87 6.55 20.87 5.55 20.87 4.55 20.87 3.55 20.87 2.55 20.87 1.55 20.87 0.55 20.87 -0.03 180.13 0.97 180.13 1.97 180.13 2.97 180.13 3.97 180.13 4.97 180.13 5.97 180.13 6.97 180.13 7.97 180.13 8.97 180.13 9.97 180.13 30.69 180.13 31.69 180.13 32.69 180.13 33.69 180.13 34.69 180.13 35.69 180.13 36.69 180.13 37.69 180.13 38.69 180.13 39.69 180.13 40.69 180.13 40.69 176.53 39.69 176.53 38.69 176.53 37.69 176.53 36.69 176.53 35.69 176.53 34.69 176.53 33.69 176.53 32.69 176.53 31.69 176.53 30.69 176.53 13.58 176.53 14.14 24.47 31.02 24.47"/>
</svg>
