<svg id="Layer_2" data-name="Layer 2" xmlns="http://www.w3.org/2000/svg" width="40.67" height="200" viewBox="0 0 40.67 200">
  <title>_</title>
  <polygon points="39.2 20.87 38.2 20.87 37.2 20.87 36.2 20.87 35.2 20.87 34.2 20.87 33.2 20.87 32.2 20.87 31.2 20.87 10.48 20.87 9.48 20.87 8.48 20.87 7.48 20.87 6.48 20.87 5.48 20.87 4.48 20.87 3.48 20.87 2.48 20.87 1.48 20.87 0.48 20.87 0.48 24.47 1.48 24.47 2.48 24.47 3.48 24.47 4.48 24.47 5.48 24.47 6.48 24.47 7.48 24.47 8.48 24.47 9.48 24.47 10.48 24.47 27.59 24.47 27.03 176.53 10.15 176.53 9.15 176.53 8.15 176.53 7.15 176.53 6.15 176.53 5.15 176.53 4.15 176.53 3.15 176.53 2.15 176.53 1.15 176.53 0.15 176.53 0.15 180.13 1.15 180.13 2.15 180.13 3.15 180.13 4.15 180.13 5.15 180.13 6.15 180.13 7.15 180.13 8.15 180.13 9.15 180.13 10.15 180.13 30.62 180.13 31.62 180.13 32.62 180.13 33.62 180.13 34.62 180.13 35.62 180.13 36.62 180.13 37.62 180.13 38.62 180.13 39.62 180.13 40.62 180.13 41.2 20.87 40.2 20.87 39.2 20.87"/>
</svg>
