<svg id="Layer_2" data-name="Layer 2" xmlns="http://www.w3.org/2000/svg" width="52.5" height="200" viewBox="0 0 52.5 200">
  <title>_</title>
  <path d="M32.21,86.33c-.21,0-.41,0-.62,0l-.38,0c-.21,0-.41,0-.62,0l-.38,0c-.21,0-.41,0-.62,0l-.38,0c-.21,0-.41,0-.62,0l-.38,0c-.21,0-.41,0-.62,0l-.38,0c-.21,0-.41,0-.62,0l-.38,0c-.21,0-.41,0-.62,0l-.38,0c-.21,0-.41,0-.62,0l-.38,0c-.21,0-.41,0-.62,0l-.38,0c-.21,0-.41,0-.62,0l-.38,0a8.93,8.93,0,0,0-8.22,5L.06,119.19l3.22,1.61.2-.4.8.4.2-.4.8.4.2-.4.8.4.2-.4.8.4.2-.4.8.4.2-.4.8.4.2-.4.8.4.2-.4.8.4.2-.4.8.4.2-.4.8.4L27.06,93.24l13,28.18.83-.38.17.38.83-.38.17.38.83-.38.17.38.83-.38.17.38.83-.38.17.38.83-.38.17.38.83-.38.17.38.83-.38.17.38.83-.38.17.38.83-.38.17.38,3.27-1.51-13-28.33A9,9,0,0,0,32.21,86.33Z"/>
</svg>
