<svg id="Layer_2" data-name="Layer 2" xmlns="http://www.w3.org/2000/svg" width="93.45" height="200" viewBox="0 0 93.45 200">
  <title>_</title>
  <path d="M59.26,49.76a7.79,7.79,0,0,0-7.55-4.84c-.17,0-.33,0-.5,0s-.33,0-.5,0-.33,0-.5,0-.33,0-.5,0-.33,0-.5,0-.33,0-.5,0-.33,0-.5,0-.33,0-.5,0-.33,0-.5,0-.33,0-.5,0-.33,0-.5,0-.33,0-.5,0-.33,0-.5,0-.33,0-.5,0-.33,0-.5,0-.33,0-.5,0-.33,0-.5,0-.33,0-.5,0-.33,0-.5,0-.33,0-.5,0a7.8,7.8,0,0,0-7.57,4.89L12.4,114.65A174.93,174.93,0,0,0-.12,179.45v1.16h13.6v-1.16a169.23,169.23,0,0,1,3-31.72H76.71a169.37,169.37,0,0,1,3.23,32.89h13.6a174.68,174.68,0,0,0-12-63.51ZM18.91,136.92a177,177,0,0,1,6.86-21l20.93-62.4,21.44,64.82a176.07,176.07,0,0,1,6.07,18.61Z"/>
</svg>
