<svg id="Layer_2" data-name="Layer 2" xmlns="http://www.w3.org/2000/svg" width="94" height="200" viewBox="0 0 94 200">
  <title>_</title>
  <path d="M40.82,181.13H51.55A41.89,41.89,0,0,0,81.14,169a41.45,41.45,0,0,0,12.5-29.77c0-10.06-7.5-19.4-18.14-26.71,10.63-7.31,18.14-16.65,18.14-26.71a41.46,41.46,0,0,0-12.5-29.77A41.94,41.94,0,0,0,50.82,44h-10C18,44.37-.55,63.45-.55,86.51v52.1C-.55,161.68,18,180.75,40.82,181.13ZM13,86.51A39,39,0,0,1,46.58,47.92,38.35,38.35,0,0,1,80,85.85c0,7.65-5.39,15.12-13.46,21.42a96.49,96.49,0,0,0-21-7.84,13.72,13.72,0,0,0-3.71-.37c-.33,0-.67,0-1,0s-.67,0-1,0-.67,0-1,0-.67,0-1,0-.67,0-1,0-.67,0-1,0-.67,0-1,0-.67,0-1,0-.67,0-1,0a13.52,13.52,0,1,0,0,27c.33,0,.67,0,1,0s.67,0,1,0,.67,0,1,0,.67,0,1,0,.67,0,1,0,.67,0,1,0,.67,0,1,0,.67,0,1,0,.67,0,1,0a13.76,13.76,0,0,0,3.71-.37,96.48,96.48,0,0,0,21-7.84C74.65,124.15,80,131.62,80,139.27a38.37,38.37,0,0,1-33.42,37.94A39,39,0,0,1,13,138.61Zm45.69,26a91.52,91.52,0,0,1-20.92,8.83,10.12,10.12,0,0,1-1.66-1,9.88,9.88,0,0,1,0-15.56,10.12,10.12,0,0,1,1.65-1A91.51,91.51,0,0,1,58.73,112.56Z"/>
</svg>
