<svg id="Layer_2" data-name="Layer 2" xmlns="http://www.w3.org/2000/svg" width="93.5" height="200" viewBox="0 0 93.5 200">
  <title>_</title>
  <polygon points="92.1 44.52 91.1 44.52 90.1 44.52 89.1 44.52 88.1 44.52 87.1 44.52 86.1 44.52 85.1 44.52 84.1 44.52 10.65 44.52 9.65 44.52 8.65 44.52 7.65 44.52 6.65 44.52 5.65 44.52 4.65 44.52 3.65 44.52 2.65 44.52 1.65 44.52 0.65 44.52 0.29 130.91 0.18 130.91 0.18 141.71 0.24 141.71 0.08 180.33 3.68 180.34 3.68 180.34 4.68 180.34 4.68 180.34 5.68 180.34 5.68 180.34 6.68 180.34 6.68 180.34 7.68 180.34 7.68 180.34 8.68 180.34 8.68 180.34 9.68 180.34 9.68 180.34 10.68 180.34 10.68 180.34 11.68 180.34 11.68 180.34 12.68 180.34 12.68 180.34 13.68 180.34 13.84 141.71 72.17 141.71 72.17 130.91 13.88 130.91 14.24 48.12 84.1 48.12 85.1 48.12 86.1 48.12 87.1 48.12 88.1 48.12 89.1 48.12 90.1 48.12 91.1 48.12 92.1 48.12 93.1 48.12 94.1 48.12 94.1 44.52 93.1 44.52 92.1 44.52"/>
</svg>
