<svg id="Layer_2" data-name="Layer 2" xmlns="http://www.w3.org/2000/svg" width="90" height="200" viewBox="0 0 90 200">
  <title>_</title>
  <path d="M43.44,180.4H64.29a27.77,27.77,0,0,0,19.63-7.76,20.51,20.51,0,0,0,6.23-14.53l0-20.49h-.3v-6.71H12A98,98,0,0,1,10.21,112c0-35.85,19-63.93,43.24-63.93H90v-3.6H43.44C17.18,44.49-3.39,74.15-3.39,112-3.39,150.36,17.18,180.4,43.44,180.4Zm33.08-38.69,0,16.41a16.94,16.94,0,0,1-5.18,12,24.15,24.15,0,0,1-17.08,6.7h-.85c-17.06,0-31.5-14.09-38.58-35.09Z"/>
</svg>
