<svg id="Layer_2" data-name="Layer 2" xmlns="http://www.w3.org/2000/svg" width="129" height="200" viewBox="0 0 129 200">
  <title>_</title>
  <path d="M114.78,54.18a9.19,9.19,0,0,0-8.42-7.91,10.54,10.54,0,0,0-1.52,0c-.33,0-.66,0-1,0s-.66,0-1,0-.66,0-1,0-.66,0-1,0-.66,0-1,0-.66,0-1,0-.66,0-1,0-.66,0-1,0-.66,0-1,0a11.34,11.34,0,0,0-11.13,7.61L64.36,123,40.68,53.91l0-.12A12,12,0,0,0,29.1,46.25c-.34,0-.67,0-1,0s-.67,0-1,0-.67,0-1,0-.67,0-1,0-.67,0-1,0-.67,0-1,0-.67,0-1,0-.67,0-1,0-.67,0-1,0a10.19,10.19,0,0,0-1.85.08,8.78,8.78,0,0,0-7.68,8L2.73,134.8c-2.79,16.68-1.77,32.17,3,46l.22.64.89-.31.11.31.89-.31.11.31.89-.31.11.31.89-.31.11.31.89-.31.11.31.89-.31.11.31.89-.31.11.31.89-.31.11.31.89-.31.11.31.89-.31.11.31,3.4-1.18-.22-.64c-4.61-13.31-5.57-28.23-2.87-44.33l7.86-80.62a5.88,5.88,0,0,1,1-2.69,9.19,9.19,0,0,1,2.17,3.11L58,144.65l-8.28,28.13a5.46,5.46,0,0,0,1,4.88c1.9,2.53,5.75,4.09,10,4.09l.5,0,.5,0,.5,0,.5,0,.5,0,.5,0,.5,0,.5,0,.5,0,.5,0,.5,0,.5,0,.5,0,.5,0,.5,0,.5,0,.5,0,.5,0,.5,0,.5,0c4.28,0,8.06-1.57,9.88-4.09a5.38,5.38,0,0,0,.8-5l-9.65-28.13L98.1,55.07a8.52,8.52,0,0,1,2-3,6.19,6.19,0,0,1,1.15,2.72L113,137.38l0,.12c3.25,15.56,3,30-.88,42.89l3.45,1,.08-.27.92.27.08-.27.92.27.08-.27.92.27.08-.27.92.27.08-.27.92.27.08-.27.92.27.08-.27.92.27.08-.27.92.27.08-.27.92.27.08-.27.92.27c4-13.47,4.33-28.47,1-44.6ZM67.69,175.57a5.36,5.36,0,0,1-2,1.53,5.85,5.85,0,0,1-2.14-1.6,1.87,1.87,0,0,1-.41-1.71l2.22-7.56L68,173.86A1.75,1.75,0,0,1,67.69,175.57Z"/>
</svg>
