<svg id="Layer_2" data-name="Layer 2" xmlns="http://www.w3.org/2000/svg" width="93.5" height="200" viewBox="0 0 93.5 200">
  <title>_</title>
  <path d="M91.61,44.7H80V168.25c0,3.33-2,6.15-5.36,7.74l-.06,0-.3-.12a9.62,9.62,0,0,1-5.41-6.12l-29.79-115A13.39,13.39,0,0,0,31.17,46a16.41,16.41,0,0,0-7.31-1.33c-.33,0-.67,0-1,0s-.67,0-1,0-.67,0-1,0-.67,0-1,0-.67,0-1,0-.67,0-1,0-.67,0-1,0-.67,0-1,0-.67,0-1,0a15.6,15.6,0,0,0-7.71,1.85A12,12,0,0,0,.51,57.22V180.06h13.6V57.22a8.53,8.53,0,0,1,4.77-7.53c.27-.15.55-.26.82-.39h0a9.84,9.84,0,0,1,5.86,6.39l29.79,115a13.19,13.19,0,0,0,7.36,8.48,16.09,16.09,0,0,0,6.87,1.54l.51,0,.49,0,.51,0,.49,0,.51,0,.49,0,.51,0,.49,0,.51,0,.49,0,.51,0,.49,0,.51,0,.49,0,.51,0,.49,0,.51,0,.49,0,.51,0,.49,0a15.5,15.5,0,0,0,6.55-1.43c4.73-2.21,7.44-6.22,7.44-11V44.7h-2Z"/>
</svg>
