<svg id="Layer_2" data-name="Layer 2" xmlns="http://www.w3.org/2000/svg" width="93" height="200" viewBox="0 0 93 200">
  <title>_</title>
  <path d="M8.73,180.34h5l.4-96.24,27.94,26.62a26.09,26.09,0,0,0,17.84,6.65c.33,0,.67,0,1,0s.67,0,1,0,.67,0,1,0,.67,0,1,0,.67,0,1,0,.67,0,1,0,.67,0,1,0,.67,0,1,0,.67,0,1,0a28.11,28.11,0,0,0,11.33-2c8-3.21,13.07-9.65,13.52-17.22q0-.57,0-1.16V60.13c0-8.61-8-15.61-17.81-15.61H13.92C6.63,44.52.67,49.68.65,56L.13,180.33l3.6,0h5ZM14.25,56c0-4.37,4.36-7.93,9.67-7.93H66c7.83,0,14.21,5.39,14.21,12V97c0,.32,0,.63,0,.94-.37,6.15-4.58,11.42-11.26,14.1a23.81,23.81,0,0,1-4.15,1.22,21.07,21.07,0,0,1-10.22-5.17L14.19,69.66Z"/>
</svg>
