<svg id="Layer_2" data-name="Layer 2" xmlns="http://www.w3.org/2000/svg" width="94.5" height="200" viewBox="0 0 94.5 200">
  <title>_</title>
  <path d="M87.39,149.11a102.06,102.06,0,0,0,6.51-36.65c0-37.7-18.67-68.37-41.61-68.37l-.5,0-.5,0-.5,0-.5,0-.5,0-.5,0-.5,0-.5,0-.5,0-.5,0-.5,0-.5,0-.5,0-.5,0-.5,0-.5,0-.5,0-.5,0-.5,0-.5,0C19.34,44.09.67,74.76.67,112.45s18.67,68.37,41.61,68.37l.5,0,.5,0,.5,0,.5,0,.5,0,.5,0,.5,0,.5,0,.5,0,.5,0,.5,0,.5,0,.5,0,.5,0,.5,0,.5,0,.5,0,.5,0,.5,0,.5,0c11.61,0,22.12-7.86,29.68-20.5a64.66,64.66,0,0,1,5.11,12.16,25,25,0,0,1,1.21,7.69h10.8a35.79,35.79,0,0,0-1.73-11C95.9,164.67,93.18,156.25,87.39,149.11Zm-40.1,27.54c-8.81-2-16.67-9.11-22.51-19.56L46.9,149.9C58.76,146.12,67,147,73,150.6,67,164.55,57.81,174.27,47.29,176.64Zm29.33-36.42c-7.8-4-18.44-5.25-33-.61l-22.92,7.44,1.78,5.49c-5.12-11-8.19-25-8.19-40.09,0-32.82,14.41-60,33-64.19,18.6,4.19,33,31.36,33,64.19A103.59,103.59,0,0,1,76.62,140.22Z"/>
</svg>
