<svg id="Layer_2" data-name="Layer 2" xmlns="http://www.w3.org/2000/svg" width="93.5" height="200" viewBox="0 0 93.5 200">
  <title>_</title>
  <path d="M75.39,44.52H13.33C6,44.52.08,49.68.05,56l-.52,124.3,3.6,0h10l.4-96.24L36.83,106.3l-.16.19c1.29,1.1,2.65,2.28,4.05,3.52l.75.72c.4.37.82.72,1.24,1.07,17,15.33,39.58,39.61,39.58,60.31V181H93.1v-8.9c0-18.5-13.36-38.06-29.14-54.73h.36c.33,0,.67,0,1,0s.67,0,1,0,.67,0,1,0,.67,0,1,0a28.1,28.1,0,0,0,11.33-2c8-3.21,13.07-9.65,13.52-17.22q0-.58,0-1.16V60.13C93.19,51.52,85.21,44.52,75.39,44.52ZM79.59,97c0,.32,0,.63,0,.94-.37,6.15-4.58,11.42-11.26,14.1a23.82,23.82,0,0,1-4.15,1.22,21.67,21.67,0,0,1-6.91-2.69c-4.53-4.4-9.14-8.54-13.58-12.32l0,0-30-28.63L13.65,56c0-4.37,4.36-7.93,9.67-7.93H65.39c7.83,0,14.21,5.39,14.21,12Z"/>
</svg>
