<svg id="Layer_2" data-name="Layer 2" xmlns="http://www.w3.org/2000/svg" width="93.5" height="200" viewBox="0 0 93.5 200">
  <title>_</title>
  <path d="M76,44.58h-62C6.63,44.58.66,49.74.62,56.09A39,39,0,0,0,11.54,82.93l58.25,62.2a35.41,35.41,0,0,1,9.95,24.36c0,4.37-4.38,7.93-9.69,7.93H28c-7.83,0-14.21-5.39-14.21-12V128.53H.19v36.89C.19,174,8.18,181,18,181H80c7.29,0,13.25-5.16,13.29-11.5a39,39,0,0,0-10.92-26.84L24.17,80.47a35.41,35.41,0,0,1-9.95-24.36c0-4.37,4.38-7.93,9.69-7.93H66c7.84,0,14.21,5.39,14.21,12V97.08h13.6V60.19C93.76,51.58,85.77,44.58,76,44.58Z"/>
</svg>
