<svg id="Layer_2" data-name="Layer 2" xmlns="http://www.w3.org/2000/svg" width="94.9" height="200" viewBox="0 0 94.9 200">
  <title>_</title>
  <polygon points="53.96 44.64 52.96 44.64 51.96 44.64 50.96 44.64 50.36 44.64 49.96 44.64 49.36 44.64 48.96 44.64 48.36 44.64 47.96 44.64 47.36 44.64 46.96 44.64 46.36 44.64 45.96 44.64 45.36 44.64 44.96 44.64 44.36 44.64 43.96 44.64 43.36 44.64 42.36 44.64 41.36 44.64 40.36 44.64 40.36 65.43 0.07 65.43 0.07 76.23 40.36 76.23 40.36 180 41.36 180 42.36 180 43.36 180 43.96 180 44.36 180 44.96 180 45.36 180 45.96 180 46.36 180 46.96 180 47.36 180 47.96 180 48.36 180 48.96 180 49.36 180 49.96 180 50.36 180 50.96 180 51.96 180 52.96 180 53.96 180 53.96 76.23 94.24 76.23 94.24 65.43 53.96 65.43 53.96 44.64"/>
</svg>
