<svg id="Layer_2" data-name="Layer 2" xmlns="http://www.w3.org/2000/svg" width="94" height="200" viewBox="0 0 94 200">
  <title>_</title>
  <path d="M92.15,45.92H80.55A171.46,171.46,0,0,1,68.72,108.3L47.31,173l-21-62.49A171.35,171.35,0,0,1,14.09,47.08V45.92H.49v1.16A174.74,174.74,0,0,0,13,111.79l21.8,65a7.79,7.79,0,0,0,7.55,4.84c.17,0,.33,0,.5,0s.33,0,.5,0,.33,0,.5,0,.33,0,.5,0,.33,0,.5,0,.33,0,.5,0,.33,0,.5,0,.33,0,.5,0,.33,0,.5,0,.33,0,.5,0,.33,0,.5,0,.33,0,.5,0,.33,0,.5,0,.33,0,.5,0,.33,0,.5,0,.33,0,.5,0,.33,0,.5,0,.33,0,.5,0,.33,0,.5,0,.33,0,.5,0a7.8,7.8,0,0,0,7.57-4.9l22.22-67.2a174.87,174.87,0,0,0,12-63.6h-2Z"/>
</svg>
