<svg id="Layer_2" data-name="Layer 2" xmlns="http://www.w3.org/2000/svg" width="110" height="200" viewBox="0 0 110 200">
  <title>_</title>
  <path d="M108.25,44.62H96.65V167.55c0,.25,0,.49,0,.74a8.93,8.93,0,0,1-2.83,6.25,8.86,8.86,0,0,1-1.48-1.81L62.48,123.11l8.77-14.58a16.21,16.21,0,0,0,.64-15.87,12.8,12.8,0,0,0-10.55-7.35l-.88,0c-.2,0-.39,0-.58,0l-.42,0c-.19,0-.39,0-.58,0l-.42,0c-.2,0-.39,0-.58,0l-.42,0c-.2,0-.39,0-.58,0l-.42,0c-.2,0-.39,0-.58,0l-.42,0c-.19,0-.39,0-.58,0l-.42,0c-.2,0-.39,0-.58,0l-.42,0c-.2,0-.39,0-.58,0l-.42,0c-.2,0-.39,0-.58,0l-.42,0c-.19,0-.39,0-.58,0l-.42,0c-.31,0-.6,0-.9,0a12.79,12.79,0,0,0-10.64,7.3,16.18,16.18,0,0,0,.58,15.91l8.79,14.61L18.45,172.7a9,9,0,0,1-1.5,1.83,8.93,8.93,0,0,1-2.83-6.24q0-.37,0-.74V44.47H.5V167.55c0,.31,0,.62,0,.92.29,5.56,3.71,10,8.72,11.29a10.86,10.86,0,0,0,3.25.33c.34,0,.67,0,1,0s.67,0,1,0,.67,0,1,0,.67,0,1,0,.67,0,1,0,.67,0,1,0,.67,0,1,0,.67,0,1,0,.67,0,1,0a11.22,11.22,0,0,0,10-5.51l23.85-39.66,23.87,39.69a11.24,11.24,0,0,0,9.51,5.5c.17,0,.34,0,.51,0s.33,0,.49,0,.34,0,.51,0,.33,0,.49,0,.34,0,.51,0,.33,0,.49,0,.34,0,.51,0,.33,0,.49,0,.34,0,.51,0,.33,0,.49,0,.34,0,.51,0,.33,0,.49,0,.34,0,.51,0,.33,0,.49,0,.34,0,.51,0,.33,0,.49,0,.34,0,.51,0,.33,0,.49,0,.34,0,.51,0,.33,0,.49,0a11,11,0,0,0,2.74-.35c5-1.3,8.43-5.73,8.72-11.29,0-.31,0-.61,0-.92V44.62h-2Zm-50.07,62-2.8,4.66-2.82-4.68a12.58,12.58,0,0,1-.45-12.38,10.38,10.38,0,0,1,3.27-3.82,10.36,10.36,0,0,1,3.3,3.87A12.6,12.6,0,0,1,58.18,106.65Z"/>
</svg>
