<svg id="Layer_2" data-name="Layer 2" xmlns="http://www.w3.org/2000/svg" width="106" height="200" viewBox="0 0 106 200">
  <title>_</title>
  <path d="M106.47,44.33H92.87c0,14.89-7.38,29.67-19.74,39.53l-19.8,15.8-19.8-15.8C21.18,74,13.8,59.22,13.8,44.33H.2c0,16,7.88,31.81,21.09,42.35L45.45,106,21.29,125.24C7.89,135.93.2,151.06.2,166.73v13.6H13.8v-13.6c0-14.57,7.19-28.67,19.74-38.68l19.8-15.8L73.13,128c12.54,10,19.74,24.11,19.74,38.68v13.6h13.6v-13.6c0-15.68-7.69-30.8-21.09-41.5L61.22,106,85.38,86.68C98.58,76.14,106.47,60.31,106.47,44.33Z"/>
</svg>
