<svg id="Layer_2" data-name="Layer 2" xmlns="http://www.w3.org/2000/svg" width="93" height="200" viewBox="0 0 93 200">
  <title>_</title>
  <g>
    <rect x="41.33" y="137.56" width="10.8" height="42.44"/>
    <path d="M91.82,38.17H80.22a97,97,0,0,1-11.7,45.32L47,129.51,26,85.24l-.06-.11A97.16,97.16,0,0,1,13.75,39v-.82H.15V39A100.88,100.88,0,0,0,12.74,86.84l21.79,45.9c1.36,2.62,4.75,3.56,7.46,3.56h0l.5,0,.5,0h0l.5,0,.5,0h0l.5,0,.5,0h0l.5,0,.5,0h0l.5,0,.5,0h0l.5,0,.5,0h0l.5,0,.5,0h0l.5,0,.5,0h0l.5,0,.5,0h0l.5,0,.5,0h0c2.71,0,6.09-.93,7.49-3.63L81.7,85.17a100.7,100.7,0,0,0,12.12-47h-2Z"/>
  </g>
</svg>
