<svg id="Layer_2" data-name="Layer 2" xmlns="http://www.w3.org/2000/svg" width="51" height="200" viewBox="0 0 51 200">
  <title>_</title>
  <path d="M29.13,73.88v-10c0-11.23,3.81-22.12,10.45-29.89l12-14L48.8,17.72l-.42.49-.58-.49-.42.49-.58-.49-.42.49-.58-.49-.42.49-.58-.49-.42.49-.58-.49-.42.49-.58-.49-.42.49-.58-.49-.42.49-.58-.49-.42.49-.58-.49-.42.49-.58-.49-12,14c-7.19,8.41-11.32,20.15-11.32,32.23v10a47,47,0,0,1-8.42,27.3L.16,110.84l3.41,3.54c7.6,7.87,12,19.37,12,31.54,0,14.66,6,28.42,15.93,36.81L39,189.08l.41-.49.59.49.41-.49.59.49.41-.49.59.49.41-.49.59.49.41-.49.59.49.41-.49.59.49.41-.49.59.49.41-.49.59.49.41-.49.59.49.41-.49.59.49,2.32-2.75L43.78,180c-9.17-7.72-14.65-20.45-14.65-34.06,0-13.1-4.73-25.51-13-34l-1.33-1.37L20,103.29A50.62,50.62,0,0,0,29.13,73.88Z"/>
</svg>
