<svg id="Layer_2" data-name="Layer 2" xmlns="http://www.w3.org/2000/svg" width="50.67" height="200" viewBox="0 0 50.67 200">
  <title>_</title>
  <path d="M36.37,56.67c0-14.66-6-28.42-15.93-36.82L12.9,13.51l-.41.49-.59-.49-.41.49-.59-.49-.41.49-.59-.49L9.49,14l-.59-.49L8.49,14l-.59-.49L7.49,14l-.59-.49L6.49,14l-.59-.49L5.49,14l-.59-.49L4.49,14l-.59-.49L3.49,14l-.59-.49L.58,16.27l7.54,6.34c9.17,7.72,14.65,20.45,14.65,34.06,0,13.1,4.73,25.51,13,34l1.33,1.37-5.19,7.22a50.61,50.61,0,0,0-9.1,29.4v10c0,11.23-3.81,22.12-10.45,29.88l-11.95,14,2.74,2.34.42-.49.58.49.42-.49.58.49.42-.49.58.49.42-.49.58.49.42-.49.58.49.42-.49.58.49.42-.49.58.49.42-.49.58.49.42-.49.58.49.42-.49.58.49,11.95-14c7.19-8.41,11.32-20.15,11.32-32.23v-10a47,47,0,0,1,8.42-27.3l6.95-9.66-3.41-3.54C40.73,80.34,36.37,68.84,36.37,56.67Z"/>
</svg>
