<svg id="Layer_2" data-name="Layer 2" xmlns="http://www.w3.org/2000/svg" width="34" height="200" viewBox="0 0 34 200">
  <title>_</title>
  <path d="M12.15,175.48l.5,0,.5,0,.5,0,.5,0,.5,0,.5,0,.5,0,.5,0,.5,0,.5,0,.5,0,.5,0,.5,0,.5,0,.5,0,.5,0,.5,0,.5,0,.5,0,.5,0a11.64,11.64,0,0,0,11.59-12.75L25.22,31a7.8,7.8,0,0,0-1.69-15.41l-.5,0-.5,0-.5,0-.5,0-.5,0-.5,0-.5,0-.5,0-.5,0-.5,0-.5,0-.5,0-.5,0-.5,0-.5,0-.5,0-.5,0-.5,0-.5,0-.5,0a7.79,7.79,0,0,0-2.73,15.1L.59,162.43a11.65,11.65,0,0,0,11.56,13Z"/>
</svg>
