<svg id="Layer_2" data-name="Layer 2" xmlns="http://www.w3.org/2000/svg" width="102.5" height="200" viewBox="0 0 102.5 200">
  <title>_</title>
  <path d="M99.17,178.2H11l21.16-35.9H56v-3.6H34.26l5.24-8.9H56v-3.6H41.63l4.47-7.58a28.71,28.71,0,0,0,1.16-27L35.36,66.76A25.09,25.09,0,0,1,53.11,31.27a25,25,0,0,1,10.4,4.79l20.55,16,.38-.48.62.48.38-.48.62.48.38-.48.62.48.38-.48.62.48.38-.48.62.48.38-.48.62.48.38-.48.62.48.38-.48.62.48.38-.48.62.48.38-.48.62.48,2.21-2.84-20.55-16a28.67,28.67,0,0,0-18.28-6.06h-9A28.73,28.73,0,0,0,22.11,68.32L34,93.16a25.11,25.11,0,0,1-1,23.63l-5.54,9.41H.57v3.6H25.33l-5.24,8.9H.57v3.6H18L-5.32,181.8H101.17v-3.6h-2Z"/>
</svg>
