<svg id="Layer_2" data-name="Layer 2" xmlns="http://www.w3.org/2000/svg" width="95" height="200" viewBox="0 0 95 200">
  <title>_</title>
  <g>
    <path d="M92.73,22H81.13c0,3-.06,6.07-.18,9.08a176.83,176.83,0,0,1-30.48,92.14l-2.59,3.83A175.92,175.92,0,0,1,14.71,28.16q0-2.38,0-4.77V22H1.06v1.37q0,2.42,0,4.84a179.55,179.55,0,0,0,34.3,101.6,8,8,0,0,0,1.33,2.37H5.57v3.6H88v-3.6H59.05a8,8,0,0,0,1.34-2.39l3.07-4.54a180.43,180.43,0,0,0,31.09-94c.12-3.06.18-6.16.18-9.22h-2Z"/>
    <polygon points="5.57 148.3 40.96 148.3 40.96 181.33 41.96 181.33 42.96 181.33 43.96 181.33 44.56 181.33 44.96 181.33 45.56 181.33 45.96 181.33 46.56 181.33 46.96 181.33 47.56 181.33 47.96 181.33 48.56 181.33 48.96 181.33 49.56 181.33 49.96 181.33 50.56 181.33 50.96 181.33 51.56 181.33 52.56 181.33 53.56 181.33 54.56 181.33 54.56 148.3 88 148.3 88 144.7 5.57 144.7 5.57 148.3"/>
  </g>
</svg>
