<svg id="Layer_2" data-name="Layer 2" xmlns="http://www.w3.org/2000/svg" width="48.67" height="200" viewBox="0 0 48.67 200">
  <title>_</title>
  <g>
    <path d="M32.25,166.7c-1.53,5-3.84,8.58-6.65,10.39a14.69,14.69,0,0,1-7.19-5.76C2.8,148,32.36,75.8,32.66,75.08l.11-.36c.65-3.51-1-8.43-4-9.27l-.11.4a3.62,3.62,0,0,0-.89-.4l-.11.4a3.62,3.62,0,0,0-.89-.4l-.11.4a3.62,3.62,0,0,0-.89-.4l-.11.4a3.62,3.62,0,0,0-.89-.4l-.11.4a3.62,3.62,0,0,0-.89-.4l-.11.4a3.62,3.62,0,0,0-.89-.4l-.11.4a3.62,3.62,0,0,0-.89-.4l-.11.4a3.62,3.62,0,0,0-.89-.4l-.11.4a3.62,3.62,0,0,0-.89-.4l-.11.4a3.62,3.62,0,0,0-.89-.4l-1,3.46c.59.23,1.8,2.68,1.45,5C17.19,78.94-11,148.79,5.41,173.33c3.8,5.69,9.66,8.57,17.4,8.57H23l.1,0,.74,0H24l.1,0,.74,0H25l.1,0,.74,0H26l.1,0,.74,0H27l.1,0,.74,0H28l.1,0,.74,0H29l.1,0,.74,0H30l.1,0,.74,0H31l.1,0,.74,0H32l.1,0,.74,0H33l.16,0c5.62-1,10.09-6,12.57-14.12,2.36-7.7,2.69-17.4.94-27.32l-1,.17c0-.06,0-.11,0-.17l-1,.17c0-.06,0-.11,0-.17l-1,.17c0-.06,0-.11,0-.17l-1,.17c0-.06,0-.11,0-.17l-1,.17c0-.06,0-.11,0-.17l-1,.17c0-.06,0-.11,0-.17l-1,.17c0-.06,0-.11,0-.17l-1,.17c0-.06,0-.11,0-.17l-1,.17c0-.06,0-.11,0-.17l-1,.17c0-.06,0-.11,0-.17l-3.54.63C34.74,150.42,34.44,159.53,32.25,166.7Z"/>
    <path d="M15.27,57A16.65,16.65,0,1,0-1.38,40.32,16.67,16.67,0,0,0,15.27,57Z"/>
  </g>
</svg>
