<svg id="Layer_2" data-name="Layer 2" xmlns="http://www.w3.org/2000/svg" width="94.67" height="200" viewBox="0 0 94.67 200">
  <title>_</title>
  <path d="M2.56,180.54h11.6v-1.37a233.91,233.91,0,0,1,3.15-38.28H77.24a234,234,0,0,1,3.39,39.64h13.6a237.2,237.2,0,0,0-12-74.54L60,26.8a7.81,7.81,0,0,0-7.58-5.57c-.17,0-.33,0-.5,0s-.33,0-.5,0-.33,0-.5,0-.33,0-.5,0-.33,0-.5,0-.33,0-.5,0-.33,0-.5,0-.33,0-.5,0-.33,0-.5,0-.33,0-.5,0-.33,0-.5,0l-.37,0-9-13-8.87,6.16,7.17,10.32a8.32,8.32,0,0,0-1,2.1L13,103.15a237.31,237.31,0,0,0-12.48,76v1.37h2Zm23.92-76.32L45.27,38.35l1.62,2.33,2.72-1.89L68.8,107.05a234.57,234.57,0,0,1,6.33,23H19.37A235.43,235.43,0,0,1,26.48,104.22Z"/>
</svg>
