<svg id="Layer_2" data-name="Layer 2" xmlns="http://www.w3.org/2000/svg" width="95.33" height="200" viewBox="0 0 95.33 200">
  <title>_</title>
  <path d="M60.64,26.8a8.35,8.35,0,0,0-.44-1.09l9.23-13.29L60.57,6.25l-10.4,15h-.1c-.17,0-.33,0-.5,0s-.33,0-.5,0-.33,0-.5,0-.33,0-.5,0-.33,0-.5,0-.33,0-.5,0-.33,0-.5,0-.33,0-.5,0-.33,0-.5,0-.33,0-.5,0-.33,0-.5,0-.33,0-.5,0-.33,0-.5,0-.33,0-.5,0a7.82,7.82,0,0,0-7.59,5.61L13.71,103.15a237.31,237.31,0,0,0-12.48,76v1.37h13.6v-1.37A233.91,233.91,0,0,1,18,140.9H77.91a234,234,0,0,1,3.39,39.64H94.9a237.2,237.2,0,0,0-12-74.54ZM20,130.1a235.43,235.43,0,0,1,7.11-25.88L46.73,35.57,50,37.85l19.46,69.21a234.57,234.57,0,0,1,6.33,23Z"/>
</svg>
