<svg id="Layer_2" data-name="Layer 2" xmlns="http://www.w3.org/2000/svg" width="93.33" height="200" viewBox="0 0 93.33 200">
  <title>_</title>
  <path d="M2.56,180.54h11.6v-1.37a233.9,233.9,0,0,1,3.15-38.28H77.24a234,234,0,0,1,3.39,39.64h13.6a237.2,237.2,0,0,0-12-74.54l-18-63.88,6.62-3-13-28.33A12.52,12.52,0,0,0,46.6,3.4h-.21a12.52,12.52,0,0,0-11.28,7L21.16,38.25l9.09,4.55L13,103.15a237.31,237.31,0,0,0-12.48,76v1.37h2Zm23.92-76.32L47.39,30.9,68.8,107.05a234.59,234.59,0,0,1,6.33,23H19.37A235.41,235.41,0,0,1,26.48,104.22Z"/>
</svg>
