<svg id="Layer_2" data-name="Layer 2" xmlns="http://www.w3.org/2000/svg" width="94.67" height="200" viewBox="0 0 94.67 200">
  <title>_</title>
  <path d="M1.9,180.54H13.5v-1.37a233.93,233.93,0,0,1,3.15-38.28H76.58A234,234,0,0,1,80,180.54h13.6a237.18,237.18,0,0,0-12-74.54L59.85,28.73a17.5,17.5,0,0,0,2.67-.57A16.89,16.89,0,0,0,74.21,15.82l-10.5-2.53a6.26,6.26,0,0,1-10.35,3.1L49,12.31a17.06,17.06,0,0,0-28.23,8.45L20,24l10.5,2.53.78-3.24a6.26,6.26,0,0,1,10.35-3.1l1.1,1c-.17,0-.32,0-.49,0s-.33,0-.5,0h0a7.82,7.82,0,0,0-7.59,5.61L12.38,103.15a237.31,237.31,0,0,0-12.48,76v1.37h2Zm23.92-76.32L46.72,30.9l21.41,76.16a234.59,234.59,0,0,1,6.33,23H18.71A235.39,235.39,0,0,1,25.82,104.22Z"/>
</svg>
