<svg id="Layer_2" data-name="Layer 2" xmlns="http://www.w3.org/2000/svg" width="95.33" height="200" viewBox="0 0 95.33 200">
  <title>_</title>
  <path d="M66.77,48.61A16.64,16.64,0,1,0,53.24,21.24h-.17c-.17,0-.33,0-.5,0s-.33,0-.5,0h0c-.17,0-.33,0-.5,0s-.33,0-.5,0h0c-.17,0-.33,0-.5,0s-.33,0-.5,0h0c-.17,0-.33,0-.5,0s-.33,0-.5,0h0c-.17,0-.33,0-.5,0s-.33,0-.5,0h0c-.17,0-.33,0-.5,0s-.33,0-.5,0h0c-.17,0-.33,0-.5,0s-.33,0-.5,0h0c-.17,0-.33,0-.5,0s-.33,0-.5,0h0c-.17,0-.33,0-.5,0s-.33,0-.5,0h0c-.17,0-.33,0-.5,0s-.33,0-.5,0h0a8.32,8.32,0,0,0-1.37.12A16.65,16.65,0,1,0,28.92,48.65l.34,0L13.71,103.15a237.31,237.31,0,0,0-12.48,76v1.37h13.6v-1.37A233.93,233.93,0,0,1,18,140.9H77.91a234,234,0,0,1,3.39,39.64H94.9a237.18,237.18,0,0,0-12-74.54ZM20,130.1a235.39,235.39,0,0,1,7.11-25.88L48.06,30.9l21.41,76.16a234.59,234.59,0,0,1,6.33,23Z"/>
</svg>
