<svg id="Layer_2" data-name="Layer 2" xmlns="http://www.w3.org/2000/svg" width="178.67" height="200" viewBox="0 0 178.67 200">
  <title>_</title>
  <path d="M174.84,21.2H83.39l-.32,88.16c-.35-1.12-.7-2.24-1.07-3.36L59.72,26.8a7.81,7.81,0,0,0-7.58-5.57h0c-.17,0-.33,0-.5,0s-.33,0-.5,0h0c-.17,0-.33,0-.5,0s-.33,0-.5,0h0c-.17,0-.33,0-.5,0s-.33,0-.5,0h0c-.17,0-.33,0-.5,0s-.33,0-.5,0h0c-.17,0-.33,0-.5,0s-.33,0-.5,0h0c-.17,0-.33,0-.5,0s-.33,0-.5,0h0c-.17,0-.33,0-.5,0s-.33,0-.5,0h0c-.17,0-.33,0-.5,0s-.33,0-.5,0h0c-.17,0-.33,0-.5,0s-.33,0-.5,0h0c-.17,0-.33,0-.5,0s-.33,0-.5,0h0a7.82,7.82,0,0,0-7.59,5.61L12.8,103.15a237.3,237.3,0,0,0-12.48,76v1.37h13.6v-1.37A233.88,233.88,0,0,1,17,141.23H77a234,234,0,0,1,3.33,39.31H94v-.08h82.64v-3.6H96.42l.13-35.63H154.9v-10.8H96.59L97,24.8h79.87V21.2h-2ZM19.05,130.43a235.42,235.42,0,0,1,7.18-26.21L47.14,30.9l21.41,76.16A234.54,234.54,0,0,1,75,130.43Z"/>
</svg>
