<svg id="Layer_2" data-name="Layer 2" xmlns="http://www.w3.org/2000/svg" width="94" height="200" viewBox="0 0 94 200">
  <title>_</title>
  <polygon points="1.15 180.13 2.15 180.13 3.15 180.13 4.15 180.13 5.15 180.13 6.15 180.13 7.15 180.13 8.15 180.13 9.15 180.13 10.15 180.13 83.96 180.13 84.96 180.13 85.96 180.13 86.96 180.13 87.96 180.13 88.96 180.13 89.96 180.13 90.96 180.13 91.96 180.13 92.96 180.13 93.96 180.13 93.96 176.53 92.96 176.53 91.96 176.53 90.96 176.53 89.96 176.53 88.96 176.53 87.96 176.53 86.96 176.53 85.96 176.53 84.96 176.53 83.96 176.53 13.76 176.53 13.89 140.9 72.25 140.9 72.25 130.1 13.93 130.1 14.32 24.47 40.93 24.47 52.88 41.68 61.75 35.52 54.08 24.47 84.18 24.47 85.18 24.47 86.18 24.47 87.18 24.47 88.18 24.47 89.18 24.47 90.18 24.47 91.18 24.47 92.18 24.47 93.18 24.47 94.18 24.47 94.18 20.87 93.18 20.87 92.18 20.87 91.18 20.87 90.18 20.87 89.18 20.87 88.18 20.87 87.18 20.87 86.18 20.87 85.18 20.87 84.18 20.87 51.58 20.87 43.52 9.26 34.65 15.42 38.43 20.87 10.73 20.87 9.73 20.87 8.73 20.87 7.73 20.87 6.73 20.87 5.73 20.87 4.73 20.87 3.73 20.87 2.73 20.87 1.73 20.87 0.73 20.87 0.33 130.1 0.26 130.1 0.26 140.9 0.29 140.9 0.15 180.13 1.15 180.13"/>
</svg>
