<svg id="Layer_2" data-name="Layer 2" xmlns="http://www.w3.org/2000/svg" width="94.67" height="200" viewBox="0 0 94.67 200">
  <title>_</title>
  <polygon points="1.81 180.13 2.81 180.13 3.81 180.13 4.81 180.13 5.81 180.13 6.81 180.13 7.81 180.13 8.81 180.13 9.81 180.13 10.81 180.13 84.63 180.13 85.63 180.13 86.63 180.13 87.63 180.13 88.63 180.13 89.63 180.13 90.63 180.13 91.63 180.13 92.63 180.13 93.63 180.13 94.63 180.13 94.63 176.53 93.63 176.53 92.63 176.53 91.63 176.53 90.63 176.53 89.63 176.53 88.63 176.53 87.63 176.53 86.63 176.53 85.63 176.53 84.63 176.53 14.43 176.53 14.56 140.9 72.91 140.9 72.91 130.1 14.6 130.1 14.98 24.47 49 24.47 41.33 35.51 50.2 41.67 62.15 24.47 84.85 24.47 85.85 24.47 86.85 24.47 87.85 24.47 88.85 24.47 89.85 24.47 90.85 24.47 91.85 24.47 92.85 24.47 93.85 24.47 94.85 24.47 94.85 20.87 93.85 20.87 92.85 20.87 91.85 20.87 90.85 20.87 89.85 20.87 88.85 20.87 87.85 20.87 86.85 20.87 85.85 20.87 84.85 20.87 64.65 20.87 68.44 15.41 59.56 9.25 51.5 20.87 11.4 20.87 10.4 20.87 9.4 20.87 8.4 20.87 7.4 20.87 6.4 20.87 5.4 20.87 4.4 20.87 3.4 20.87 2.4 20.87 1.4 20.87 1 130.1 0.93 130.1 0.93 140.9 0.96 140.9 0.81 180.13 1.81 180.13"/>
</svg>
