<svg id="Layer_2" data-name="Layer 2" xmlns="http://www.w3.org/2000/svg" width="94.67" height="200" viewBox="0 0 94.67 200">
  <title>_</title>
  <path d="M94.24,170.1H54V31.4h4.1l2.31,5,.83-.38.17.38.83-.38.17.38.83-.38.17.38.83-.38.17.38.83-.38.17.38.83-.38.17.38.83-.38.17.38.83-.38.17.38.83-.38.17.38.83-.38.17.38,3.27-1.5L72,31.4H94.24V20.6H67l-6.46-14a9,9,0,0,0-8.05-5.25c-.22,0-.43,0-.64,0l-.36,0c-.22,0-.43,0-.64,0l-.36,0c-.22,0-.43,0-.64,0l-.36,0c-.22,0-.43,0-.64,0l-.36,0c-.22,0-.43,0-.64,0l-.36,0c-.22,0-.43,0-.64,0l-.36,0c-.22,0-.43,0-.64,0l-.36,0c-.22,0-.43,0-.64,0l-.36,0c-.22,0-.43,0-.64,0l-.36,0c-.22,0-.43,0-.64,0l-.36,0a8.88,8.88,0,0,0-8.22,5L27.17,20.6H.07V31.4h21.7l-1.39,2.78L23.6,35.8l.2-.4.8.4.2-.4.8.4.2-.4.8.4.2-.4.8.4.2-.4.8.4.2-.4.8.4.2-.4.8.4.2-.4.8.4.2-.4.8.4.2-.4.8.4,2.2-4.4h4.56V170.1H.07v10.8H94.24Z"/>
</svg>
