<svg id="Layer_2" data-name="Layer 2" xmlns="http://www.w3.org/2000/svg" width="93.33" height="200" viewBox="0 0 93.33 200">
  <title>_</title>
  <path d="M1.85,180h11.6V35.48a10.56,10.56,0,0,1,4.88-9.2c.23-.15.46-.26.7-.39a11.36,11.36,0,0,1,5.9,7.66L54.71,168.8A14.86,14.86,0,0,0,63,179.12a14.25,14.25,0,0,0,5.91,1.3l.46,0,.54,0,.46,0,.54,0,.46,0,.54,0,.46,0,.54,0,.46,0,.54,0,.46,0,.54,0,.46,0,.54,0,.46,0,.54,0,.46,0,.54,0,.46,0,.54,0a13.78,13.78,0,0,0,6.65-1.72,14,14,0,0,0,7.33-12.6V20.75H79.35v13.8L72.71,33a6.26,6.26,0,0,1-10.35,3.1L58,32a16.89,16.89,0,0,0-16.54-3.89,17.33,17.33,0,0,0-4,1.77,15,15,0,0,0-7.94-7.73A14.45,14.45,0,0,0,23.66,21c-.33,0-.67,0-1,0s-.67,0-1,0-.67,0-1,0-.67,0-1,0-.67,0-1,0-.67,0-1,0-.67,0-1,0-.67,0-1,0-.67,0-1,0a13.9,13.9,0,0,0-8.28,2.22A14.23,14.23,0,0,0-.15,35.48V180h2ZM44.55,38.43a6.15,6.15,0,0,1,6.07,1.43L55,43.94a16.88,16.88,0,0,0,11.58,4.62,17.29,17.29,0,0,0,5-.73,17,17,0,0,0,7.82-4.95V166.11a10.44,10.44,0,0,1-5.42,9.41,11.23,11.23,0,0,1-5.7-7.49L40.51,42.2A6.19,6.19,0,0,1,44.55,38.43Z"/>
</svg>
