<svg id="Layer_2" data-name="Layer 2" xmlns="http://www.w3.org/2000/svg" width="94.67" height="200" viewBox="0 0 94.67 200">
  <title>_</title>
  <path d="M82.71,156.63c7.65-15,11.86-35,11.86-56.19S90.35,59.29,82.71,44.25C74.87,28.82,64.3,20.33,53,20.33l-.5,0-.5,0-.5,0-.5,0-.5,0-.5,0-.5,0-.5,0-.5,0-.5,0h0L38.18,6.26l-8.87,6.16,6.34,9.13c-8.53,2.84-16.33,10.64-22.46,22.7-7.65,15-11.86,35-11.86,56.19s4.21,41.15,11.86,56.19C21,172.05,31.61,180.55,43,180.55l.5,0,.5,0,.5,0,.5,0,.5,0,.5,0,.5,0,.5,0,.5,0,.5,0,.5,0,.5,0,.5,0,.5,0,.5,0,.5,0,.5,0,.5,0,.5,0,.5,0C64.3,180.55,74.87,172.05,82.71,156.63ZM40.33,28.28l7.22,10.4,8.87-6.16L52,26.12c15.38,7.57,27.13,34,28.79,66.41H15.14C16.67,62.72,26.74,37.94,40.33,28.28Zm7.63,148C30.68,171.68,17,143.66,15.16,108.63H80.74C78.88,143.66,65.23,171.68,48,176.27Z"/>
</svg>
