<svg id="Layer_2" data-name="Layer 2" xmlns="http://www.w3.org/2000/svg" width="94" height="200" viewBox="0 0 94 200">
  <title>_</title>
  <path d="M67.36,48.75l4.4-6.34L62.9,36.25l-5.77,8.31a25.72,25.72,0,0,0-4.84-.48l-.5,0-.5,0-.5,0-.5,0-.5,0-.5,0-.5,0-.5,0-.5,0-.5,0-.5,0-.5,0-.5,0-.5,0-.5,0-.5,0-.5,0-.5,0-.5,0-.5,0C19.34,44.09.67,74.76.67,112.45s18.67,68.37,41.61,68.37l.5,0,.5,0,.5,0,.5,0,.5,0,.5,0,.5,0,.5,0,.5,0,.5,0,.5,0,.5,0,.5,0,.5,0,.5,0,.5,0,.5,0,.5,0,.5,0,.5,0c22.95,0,41.61-30.67,41.61-68.37C93.9,83.49,82.87,58.7,67.36,48.75ZM47.29,176.64c-18.6-4.19-33-31.36-33-64.19s14.41-60,33-64.19a25,25,0,0,1,5.81,2.1L44.66,62.51l8.87,6.16,8.21-11.82c11.1,11.32,18.55,32,18.55,55.61C80.3,145.28,65.89,172.46,47.29,176.64Z"/>
</svg>
