<svg id="Layer_2" data-name="Layer 2" xmlns="http://www.w3.org/2000/svg" width="93.33" height="200" viewBox="0 0 93.33 200">
  <title>_</title>
  <path d="M59.47,21.73a12.62,12.62,0,0,0-20.64-1.21c-10.28,1.28-19.77,9.57-27,23.73C4.22,59.29,0,79.24,0,100.44s4.21,41.15,11.86,56.19c7.84,15.43,18.41,23.92,29.76,23.92l.5,0,.5,0,.5,0,.5,0,.5,0,.5,0,.5,0,.5,0,.5,0,.5,0,.5,0,.5,0,.5,0,.5,0,.5,0,.5,0,.5,0,.5,0,.5,0,.5,0c11.35,0,21.91-8.5,29.76-23.92,7.65-15,11.86-35,11.86-56.19S89,59.29,81.37,44.25C75.38,32.45,67.78,24.72,59.47,21.73ZM30.05,37.48,23.5,50.58l9.66,4.83L47.1,27.54a1.82,1.82,0,0,1,3.29.05l13,28.33,7.74-3.56c4.52,11.22,7.49,25,8.27,40.17H13.81C15,69.73,21.14,49.88,30.05,37.48ZM46.62,176.27c-17.28-4.59-30.93-32.61-32.79-67.64H79.41C77.55,143.66,63.89,171.68,46.62,176.27Z"/>
</svg>
