<svg id="Layer_2" data-name="Layer 2" xmlns="http://www.w3.org/2000/svg" width="94" height="200" viewBox="0 0 94 200">
  <title>_</title>
  <path d="M12.53,44.25C4.88,59.29.67,79.24.67,100.44s4.21,41.15,11.86,56.19c7.84,15.43,18.41,23.92,29.76,23.92l.5,0,.5,0,.5,0,.5,0,.5,0,.5,0,.5,0,.5,0,.5,0,.5,0,.5,0,.5,0,.5,0,.5,0,.5,0,.5,0,.5,0,.5,0,.5,0,.5,0c11.35,0,21.91-8.5,29.76-23.92,7.65-15,11.86-35,11.86-56.19S89.69,59.29,82,44.25C78.1,36.5,73.48,30.5,68.41,26.45a16.94,16.94,0,0,0,5.47-9L63.38,15A6.25,6.25,0,0,1,53,18.06L48.66,14a17.05,17.05,0,0,0-28.23,8.45l-.78,3.24,5.79,1.4C20.66,31.1,16.28,36.87,12.53,44.25Zm34.76,132C30,171.68,16.35,143.66,14.49,108.63H80.08C78.22,143.66,64.56,171.68,47.29,176.27ZM45,25.35l.64.6a16.89,16.89,0,0,0,11.58,4.62l.49,0c12.15,10.91,21,34.27,22.37,62H14.48C16.2,58.92,28.77,31.71,45,25.35Z"/>
</svg>
