<svg id="Layer_2" data-name="Layer 2" xmlns="http://www.w3.org/2000/svg" width="93.33" height="200" viewBox="0 0 93.33 200">
  <title>_</title>
  <path d="M-.66,100.44c0,21.2,4.21,41.15,11.86,56.19C19,172.05,29.61,180.55,41,180.55l.5,0,.5,0,.5,0,.5,0,.5,0,.5,0,.5,0,.5,0,.5,0,.5,0,.5,0,.5,0,.5,0,.5,0,.5,0,.5,0,.5,0,.5,0,.5,0,.5,0c11.35,0,21.91-8.5,29.76-23.92,7.65-15,11.86-35,11.86-56.19S88.35,59.29,80.71,44.25a63.54,63.54,0,0,0-7.64-11.82A16.71,16.71,0,1,0,48.19,20.34H48l-.5,0-.5,0-.5,0-.5,0-.5,0-.5,0-.5,0h-.31A16.64,16.64,0,1,0,19,32.25a63.31,63.31,0,0,0-7.78,12C3.55,59.29-.66,79.24-.66,100.44ZM46,176.27C28.68,171.68,15,143.66,13.16,108.63H78.74C76.88,143.66,63.23,171.68,46,176.27ZM32,34.13a16.71,16.71,0,0,0,10.32-8.2A21.59,21.59,0,0,1,46,24.61a21.83,21.83,0,0,1,4.2,1.6A16.72,16.72,0,0,0,59.76,34c10.39,12,17.72,33.46,19,58.55H13.14C14.42,67.55,21.7,46.11,32,34.13Z"/>
</svg>
