<svg id="Layer_2" data-name="Layer 2" xmlns="http://www.w3.org/2000/svg" width="94.67" height="200" viewBox="0 0 94.67 200">
  <title>_</title>
  <path d="M12,154.07c.4.87.81,1.72,1.24,2.56a71,71,0,0,0,3.87,6.69l-5.59,10.31,3.17,1.71,4.73-8.73c6.85,9.06,15,13.93,23.58,13.93l.5,0,.5,0,.5,0,.5,0,.5,0,.5,0,.5,0,.5,0,.5,0,.5,0,.5,0,.5,0,.5,0,.5,0,.5,0,.5,0,.5,0,.5,0,.5,0,.5,0c11.35,0,21.91-8.5,29.76-23.92,7.65-15,11.86-35,11.86-56.19S90.35,59.29,82.71,44.25C74.87,28.82,64.3,20.33,53,20.33l-.5,0-.5,0-.5,0-.5,0-.5,0-.5,0-.5,0-.5,0-.5,0-.5,0-.5,0-.5,0-.5,0-.5,0-.5,0-.5,0-.5,0-.5,0-.5,0-.5,0c-11.35,0-21.91,8.5-29.76,23.92-7.65,15-11.86,35-11.86,56.19,0,18.16,3.1,35.4,8.79,49.43L.42,167.81l3.17,1.71Zm69-53.63c0,38.78-14.41,70.88-33,75.83C39.43,174,31.79,166.06,26,154.36L75.88,62.29A139.57,139.57,0,0,1,81,100.44Zm-6.57-43L24.14,150.26a99.44,99.44,0,0,1-4-11.29L70,46.83A90,90,0,0,1,74.39,57.48ZM48,24.61C55.59,26.64,62.51,33.23,68,43L18.78,133.91a142.88,142.88,0,0,1-3.84-33.47C14.94,61.66,29.35,29.55,48,24.61Z"/>
</svg>
