<svg id="Layer_2" data-name="Layer 2" xmlns="http://www.w3.org/2000/svg" width="94" height="200" viewBox="0 0 94 200">
  <title>_</title>
  <g>
    <path d="M91.56,20.9H80A130.91,130.91,0,0,1,68.21,74.47l-21.49,54-21-52,0-.1A131,131,0,0,1,13.5,21.86v-1H-.1v1A134.72,134.72,0,0,0,12.44,77.91l21.79,54c1.05,2.38,3.65,3.89,6.85,4.08v44h10.8V136c3.44,0,6.25-1.61,7.39-4.17L81.49,76A134.65,134.65,0,0,0,93.56,20.9h-2Z"/>
    <rect x="35.56" y="18.4" width="31.97" height="10.8" transform="translate(2.6 52.56) rotate(-55.22)"/>
  </g>
</svg>
