<svg id="Layer_2" data-name="Layer 2" xmlns="http://www.w3.org/2000/svg" width="94.67" height="200" viewBox="0 0 94.67 200">
  <title>_</title>
  <path d="M59.95,49.76a7.79,7.79,0,0,0-7.55-4.84c-.17,0-.33,0-.5,0s-.33,0-.5,0-.33,0-.5,0l-.24,0L33.51,20.26l-8.87,6.16L38.22,46a7.21,7.21,0,0,0-3.39,3.84L13.08,114.65A174.93,174.93,0,0,0,.56,179.45v1.16h13.6v-1.16a169.22,169.22,0,0,1,3-31.73H77.4a169.38,169.38,0,0,1,3.23,32.89h13.6a174.69,174.69,0,0,0-12-63.51ZM19.6,136.92a177,177,0,0,1,6.86-21l20.93-62.4,21.44,64.82a176.07,176.07,0,0,1,6.07,18.61Z"/>
</svg>
