<svg id="Layer_2" data-name="Layer 2" xmlns="http://www.w3.org/2000/svg" width="94.67" height="200" viewBox="0 0 94.67 200">
  <title>_</title>
  <path d="M2.56,180.61h11.6v-1.16a169.22,169.22,0,0,1,3-31.73H77.4a169.37,169.37,0,0,1,3.23,32.89h13.6a174.69,174.69,0,0,0-12-63.51L59.95,49.76a7.3,7.3,0,0,0-4.45-4.28L69.44,25.41l-8.87-6.16L42.72,44.94l-.33,0a7.8,7.8,0,0,0-7.57,4.89L13.08,114.65A174.93,174.93,0,0,0,.56,179.45v1.16h2Zm23.89-64.72,20.93-62.4,21.44,64.82a176.07,176.07,0,0,1,6.07,18.61H19.6A177,177,0,0,1,26.46,115.89Z"/>
</svg>
