<svg id="Layer_2" data-name="Layer 2" xmlns="http://www.w3.org/2000/svg" width="95.33" height="200" viewBox="0 0 95.33 200">
  <title>_</title>
  <g>
    <path d="M60.61,49.76a7.79,7.79,0,0,0-7.55-4.84h0c-.17,0-.33,0-.5,0s-.33,0-.5,0h0c-.17,0-.33,0-.5,0s-.33,0-.5,0h0c-.17,0-.33,0-.5,0s-.33,0-.5,0h0c-.17,0-.33,0-.5,0s-.33,0-.5,0h0c-.17,0-.33,0-.5,0s-.33,0-.5,0h0c-.17,0-.33,0-.5,0s-.33,0-.5,0h0c-.17,0-.33,0-.5,0s-.33,0-.5,0h0c-.17,0-.33,0-.5,0s-.33,0-.5,0h0c-.17,0-.33,0-.5,0s-.33,0-.5,0h0c-.17,0-.33,0-.5,0s-.33,0-.5,0h0a7.8,7.8,0,0,0-7.57,4.89L13.75,114.65a174.93,174.93,0,0,0-12.51,64.8v1.16h13.6v-1.16a169.24,169.24,0,0,1,3-31.73H78.06a169.37,169.37,0,0,1,3.23,32.89H94.9a174.69,174.69,0,0,0-12-63.51ZM20.26,136.92a177,177,0,0,1,6.86-21l20.93-62.4L69.5,118.31a176.07,176.07,0,0,1,6.07,18.61Z"/>
    <path d="M50.26,6.73a12.6,12.6,0,0,0-11.49,7L24.83,41.58l9.66,4.83L48.43,18.54a1.78,1.78,0,0,1,1.66-1,1.75,1.75,0,0,1,1.63,1.06l13,28.33,9.81-4.52-13-28.33A12.53,12.53,0,0,0,50.26,6.73Z"/>
  </g>
</svg>
