<svg id="Layer_2" data-name="Layer 2" xmlns="http://www.w3.org/2000/svg" width="94" height="200" viewBox="0 0 94 200">
  <title>_</title>
  <g>
    <path d="M59.28,49.76a7.79,7.79,0,0,0-7.55-4.84h0c-.17,0-.33,0-.5,0s-.33,0-.5,0h0c-.17,0-.33,0-.5,0s-.33,0-.5,0h0c-.17,0-.33,0-.5,0s-.33,0-.5,0h0c-.17,0-.33,0-.5,0s-.33,0-.5,0h0c-.17,0-.33,0-.5,0s-.33,0-.5,0h0c-.17,0-.33,0-.5,0s-.33,0-.5,0h0c-.17,0-.33,0-.5,0s-.33,0-.5,0h0c-.17,0-.33,0-.5,0s-.33,0-.5,0h0c-.17,0-.33,0-.5,0s-.33,0-.5,0h0c-.17,0-.33,0-.5,0s-.33,0-.5,0h0a7.8,7.8,0,0,0-7.57,4.89L12.41,114.65A174.93,174.93,0,0,0-.1,179.45v1.16H13.5v-1.16a169.24,169.24,0,0,1,3-31.73H76.73A169.37,169.37,0,0,1,80,180.61h13.6a174.69,174.69,0,0,0-12-63.51ZM18.93,136.92a177,177,0,0,1,6.86-21l20.93-62.4,21.44,64.82a176.07,176.07,0,0,1,6.07,18.61Z"/>
    <path d="M58.42,30.82a6.14,6.14,0,0,1-6.07-1.42L48,25.31a17.06,17.06,0,0,0-28.23,8.45L19,37l10.5,2.53.78-3.24a6.26,6.26,0,0,1,10.35-3.1L45,37.28A16.88,16.88,0,0,0,56.56,41.9a17.29,17.29,0,0,0,5-.73A16.89,16.89,0,0,0,73.21,28.82l-10.5-2.53A6.15,6.15,0,0,1,58.42,30.82Z"/>
  </g>
</svg>
