<svg id="Layer_2" data-name="Layer 2" xmlns="http://www.w3.org/2000/svg" width="94" height="200" viewBox="0 0 94 200">
  <title>_</title>
  <g>
    <path d="M59.28,49.76A7,7,0,0,0,57.4,47a16.69,16.69,0,1,0-2.55-1.51,9,9,0,0,0-3.13-.57h0c-.17,0-.33,0-.5,0s-.33,0-.5,0h0c-.17,0-.33,0-.5,0s-.33,0-.5,0h0c-.17,0-.33,0-.5,0s-.33,0-.5,0h0c-.17,0-.33,0-.5,0s-.33,0-.5,0h0c-.17,0-.33,0-.5,0s-.33,0-.5,0h0c-.17,0-.33,0-.5,0s-.33,0-.5,0h0c-.17,0-.33,0-.5,0s-.33,0-.5,0h0c-.17,0-.33,0-.5,0s-.33,0-.5,0h0c-.17,0-.33,0-.5,0s-.33,0-.5,0h0c-.17,0-.33,0-.5,0s-.33,0-.5,0h0a7.8,7.8,0,0,0-7.57,4.89L12.41,114.65A174.93,174.93,0,0,0-.1,179.45v1.16H13.5v-1.16a169.24,169.24,0,0,1,3-31.73H76.73A169.37,169.37,0,0,1,80,180.61h13.6a174.69,174.69,0,0,0-12-63.51ZM18.93,136.92a177,177,0,0,1,6.86-21l20.93-62.4,21.44,64.82a176.07,176.07,0,0,1,6.07,18.61Z"/>
    <path d="M10.93,32A16.65,16.65,0,1,0,27.58,15.35,16.67,16.67,0,0,0,10.93,32Z"/>
  </g>
</svg>
