<svg id="Layer_2" data-name="Layer 2" xmlns="http://www.w3.org/2000/svg" width="175.33" height="200" viewBox="0 0 175.33 200">
  <title>_</title>
  <path d="M164.18,48.09h10v-3.6H80.73l-.29,67.24-20.5-62a7.79,7.79,0,0,0-7.55-4.84h0c-.17,0-.33,0-.5,0s-.33,0-.5,0h0c-.17,0-.33,0-.5,0s-.33,0-.5,0h0c-.17,0-.33,0-.5,0s-.33,0-.5,0h0c-.17,0-.33,0-.5,0s-.33,0-.5,0h0c-.17,0-.33,0-.5,0s-.33,0-.5,0h0c-.17,0-.33,0-.5,0s-.33,0-.5,0h0c-.17,0-.33,0-.5,0s-.33,0-.5,0h0c-.17,0-.33,0-.5,0s-.33,0-.5,0h0c-.17,0-.33,0-.5,0s-.33,0-.5,0h0c-.17,0-.33,0-.5,0s-.33,0-.5,0h0a7.8,7.8,0,0,0-7.57,4.89L13.08,114.65A174.93,174.93,0,0,0,.57,179.45v1.16h13.6v-1.16a169.41,169.41,0,0,1,4.27-37.74H76.1a169.9,169.9,0,0,1,4.1,26.84l-.05,11.85h.48c0,.07,0,.14,0,.21h13.6c0-.07,0-.14,0-.21H174v-3.6H94.18q-.09-4.2-.39-8.39l.11-26.7h58.34v-10.8H94l.36-82.82ZM21.26,130.91q2.25-7.57,5.2-15l20.93-62.4,21.44,64.82q2.43,6.25,4.35,12.6Z"/>
</svg>
