<svg id="Layer_2" data-name="Layer 2" xmlns="http://www.w3.org/2000/svg" width="93.33" height="200" viewBox="0 0 93.33 200">
  <title>_</title>
  <polygon points="1.48 180.4 2.48 180.4 3.48 180.4 4.48 180.4 5.48 180.4 6.48 180.4 7.48 180.4 8.48 180.4 9.48 180.4 83.29 180.4 84.29 180.4 85.29 180.4 86.29 180.4 87.29 180.4 88.29 180.4 89.29 180.4 90.29 180.4 91.29 180.4 92.29 180.4 93.29 180.4 93.29 176.8 92.29 176.8 91.29 176.8 90.29 176.8 89.29 176.8 88.29 176.8 87.29 176.8 86.29 176.8 85.29 176.8 84.29 176.8 83.29 176.8 13.1 176.8 13.25 141.71 71.58 141.71 71.58 130.91 13.29 130.91 13.65 48.09 48.94 48.09 54.22 55.68 63.09 49.52 62.09 48.09 83.51 48.09 84.51 48.09 85.51 48.09 86.51 48.09 87.51 48.09 88.51 48.09 89.51 48.09 90.51 48.09 91.51 48.09 92.51 48.09 93.51 48.09 93.51 44.49 92.51 44.49 91.51 44.49 90.51 44.49 89.51 44.49 88.51 44.49 87.51 44.49 86.51 44.49 85.51 44.49 84.51 44.49 83.51 44.49 59.59 44.49 44.85 23.26 35.98 29.42 46.44 44.49 10.06 44.49 9.06 44.49 8.06 44.49 7.06 44.49 6.06 44.49 5.06 44.49 4.06 44.49 3.06 44.49 2.06 44.49 1.06 44.49 0.06 44.49 -0.31 130.91 -0.41 130.91 -0.41 141.71 -0.35 141.71 -0.52 180.4 0.48 180.4 1.48 180.4"/>
</svg>
