<svg id="Layer_2" data-name="Layer 2" xmlns="http://www.w3.org/2000/svg" width="94" height="200" viewBox="0 0 94 200">
  <title>_</title>
  <g>
    <polygon points="92.18 44.49 91.18 44.49 90.18 44.49 89.18 44.49 88.18 44.49 87.18 44.49 86.18 44.49 85.18 44.49 84.18 44.49 10.73 44.49 9.73 44.49 8.73 44.49 7.73 44.49 6.73 44.49 5.73 44.49 4.73 44.49 3.73 44.49 2.73 44.49 1.73 44.49 0.73 44.49 0.36 130.91 0.26 130.91 0.26 141.71 0.31 141.71 0.15 180.4 1.15 180.4 2.15 180.4 3.15 180.4 4.15 180.4 5.15 180.4 6.15 180.4 7.15 180.4 8.15 180.4 9.15 180.4 10.15 180.4 83.96 180.4 84.96 180.4 85.96 180.4 86.96 180.4 87.96 180.4 88.96 180.4 89.96 180.4 90.96 180.4 91.96 180.4 92.96 180.4 93.96 180.4 93.96 176.8 92.96 176.8 91.96 176.8 90.96 176.8 89.96 176.8 88.96 176.8 87.96 176.8 86.96 176.8 85.96 176.8 84.96 176.8 83.96 176.8 13.76 176.8 13.91 141.71 72.25 141.71 72.25 130.91 13.96 130.91 14.31 48.09 84.18 48.09 85.18 48.09 86.18 48.09 87.18 48.09 88.18 48.09 89.18 48.09 90.18 48.09 91.18 48.09 92.18 48.09 93.18 48.09 94.18 48.09 94.18 44.49 93.18 44.49 92.18 44.49"/>
    <path d="M14.77,24.33A16.65,16.65,0,1,0,31.42,7.68,16.67,16.67,0,0,0,14.77,24.33Z"/>
    <path d="M68.42,7.68A16.65,16.65,0,1,0,85.07,24.33,16.67,16.67,0,0,0,68.42,7.68Z"/>
  </g>
</svg>
