<svg id="Layer_2" data-name="Layer 2" xmlns="http://www.w3.org/2000/svg" width="22" height="200" viewBox="0 0 22 200">
  <title>_</title>
  <g>
    <polygon points="1.36 47 0.36 47 0.36 180 1.36 180 2.36 180 3.36 180 3.96 180 4.36 180 4.96 180 5.36 180 5.96 180 6.36 180 6.96 180 7.36 180 7.96 180 8.36 180 8.96 180 9.36 180 9.96 180 10.36 180 10.96 180 11.96 180 12.96 180 13.96 180 13.96 47 12.96 47 11.96 47 10.96 47 10.36 47 9.96 47 9.36 47 8.96 47 8.36 47 7.96 47 7.36 47 6.96 47 6.36 47 5.96 47 5.36 47 4.96 47 4.36 47 3.96 47 3.36 47 2.36 47 1.36 47"/>
    <rect x="0.23" y="21.06" width="31.97" height="10.8" transform="translate(-14.77 24.69) rotate(-55.22)"/>
  </g>
</svg>
