<svg id="Layer_2" data-name="Layer 2" xmlns="http://www.w3.org/2000/svg" width="32.67" height="200" viewBox="0 0 32.67 200">
  <title>_</title>
  <g>
    <polygon points="21.62 180 22.62 180 22.62 47 21.62 47 20.62 47 19.62 47 19.02 47 18.62 47 18.02 47 17.62 47 17.02 47 16.62 47 16.02 47 15.62 47 15.02 47 14.62 47 14.02 47 13.62 47 13.02 47 12.62 47 12.02 47 11.02 47 10.02 47 9.02 47 9.02 180 10.02 180 11.02 180 12.02 180 12.62 180 13.02 180 13.62 180 14.02 180 14.62 180 15.02 180 15.62 180 16.02 180 16.62 180 17.02 180 17.62 180 18.02 180 18.62 180 19.02 180 19.62 180 20.62 180 21.62 180"/>
    <path d="M16.26,6.73a12.51,12.51,0,0,0-11.49,7L-9.17,41.58.49,46.42,14.43,18.54a1.77,1.77,0,0,1,1.66-1,1.75,1.75,0,0,1,1.63,1.06l13,28.33,9.81-4.52-13-28.33A12.53,12.53,0,0,0,16.26,6.73Z"/>
  </g>
</svg>
