<svg id="Layer_2" data-name="Layer 2" xmlns="http://www.w3.org/2000/svg" width="40" height="200" viewBox="0 0 40 200">
  <title>_</title>
  <g>
    <polygon points="20.36 47 19.95 47 19.36 47 18.95 47 18.36 47 17.95 47 17.36 47 16.95 47 16.36 47 15.96 47 15.36 47 14.36 47 13.36 47 12.36 47 12.36 180 13.36 180 14.36 180 15.36 180 15.96 180 16.36 180 16.95 180 17.36 180 17.95 180 18.36 180 18.95 180 19.36 180 19.95 180 20.36 180 20.95 180 21.36 180 21.95 180 22.36 180 22.95 180 23.95 180 24.95 180 25.95 180 25.95 47 24.95 47 23.95 47 22.95 47 22.36 47 21.95 47 21.36 47 20.95 47 20.36 47"/>
    <path d="M17.57,32A16.67,16.67,0,0,0,.92,15.35a16.65,16.65,0,0,0,0,33.3A16.67,16.67,0,0,0,17.57,32Z"/>
    <path d="M37.92,15.35A16.65,16.65,0,1,0,54.57,32,16.67,16.67,0,0,0,37.92,15.35Z"/>
  </g>
</svg>
