<svg id="Layer_2" data-name="Layer 2" xmlns="http://www.w3.org/2000/svg" width="94.67" height="200" viewBox="0 0 94.67 200">
  <title>_</title>
  <path d="M91.9,121.7a81.66,81.66,0,0,0-3.2-22.93C85.28,87.09,79.48,77.6,72.29,71.22L91.93,58.54l-5.86-9.07L62.31,64.81a30.44,30.44,0,0,0-12-2.51v0l-1,0v0l-1,0v0l-1,0v0l-1,0v0l-1,0v0l-1,0v0l-1,0v0l-1,0v0l-1,0v0l-1,0v3.6a27.71,27.71,0,0,1,14.14,4L38.07,80.46l5.86,9.07L63.14,77.13a57.92,57.92,0,0,1,12.1,22.65,77.07,77.07,0,0,1,3,18.12L69.58,112a40.43,40.43,0,0,0-23.79-6.74h-9a40.79,40.79,0,0,0-19.63,5C4.3,117.5-2,130.9,1.6,143.68c6.33,22.73,21.51,37.42,38.68,37.42h10c20.51,0,37.59-21.3,41-49.21l0,0,.68.46.32-.46.68.46,2-3-3.29-2.23Q91.9,124.43,91.9,121.7ZM45.28,177c-13.42-2.59-25-15.47-30.21-34.3-3.1-11.14,2.46-22.89,13.84-29.23A36.66,36.66,0,0,1,42,109.21,36,36,0,0,1,57.56,115L78,128.91C75.78,153.88,62.28,173.72,45.28,177Z"/>
</svg>
