<svg id="Layer_2" data-name="Layer 2" xmlns="http://www.w3.org/2000/svg" width="94.67" height="200" viewBox="0 0 94.67 200">
  <title>_</title>
  <g>
    <path d="M23.53,44.68c-.33,0-.67,0-1,0s-.67,0-1,0-.67,0-1,0-.67,0-1,0-.67,0-1,0-.67,0-1,0-.67,0-1,0-.67,0-1,0a15.59,15.59,0,0,0-7.71,1.85A12,12,0,0,0,1.18,57.22V180.06h13.6V57.22a8.54,8.54,0,0,1,4.77-7.53c.27-.15.55-.26.82-.39h0a9.84,9.84,0,0,1,5.86,6.39l29.79,115a13.19,13.19,0,0,0,7.36,8.48,16.09,16.09,0,0,0,6.87,1.54l.51,0,.49,0,.51,0,.49,0,.51,0,.49,0,.51,0,.49,0,.51,0,.49,0,.51,0,.49,0,.51,0,.49,0,.51,0,.49,0,.51,0,.49,0,.51,0,.49,0a15.52,15.52,0,0,0,6.55-1.43c4.73-2.21,7.44-6.22,7.44-11V44.7H80.68V168.25c0,3.33-2,6.15-5.36,7.74l-.06,0-.3-.12a9.61,9.61,0,0,1-5.41-6.12l-29.79-115A13.4,13.4,0,0,0,31.84,46a16.4,16.4,0,0,0-7.31-1.33C24.2,44.68,23.87,44.67,23.53,44.68Z"/>
    <path d="M41.59,41a6.25,6.25,0,0,1,10.35-3.1l4.36,4.08a16.89,16.89,0,0,0,11.58,4.62,17.28,17.28,0,0,0,5-.73A16.89,16.89,0,0,0,84.54,33.49L74,31a6.25,6.25,0,0,1-10.35,3.1L59.33,30a17.05,17.05,0,0,0-28.23,8.45l-.78,3.24,10.5,2.53Z"/>
  </g>
</svg>
