<svg id="Layer_2" data-name="Layer 2" xmlns="http://www.w3.org/2000/svg" width="89.33" height="200" viewBox="0 0 89.33 200">
  <title>_</title>
  <path d="M49.62,44.09l-.5,0-.5,0-.5,0-.5,0H47.4L30.85,20.26,22,26.42,34.61,44.6C14,48.68-2,77.55-2,112.45c0,37.7,18.67,68.37,41.61,68.37l.5,0,.5,0,.5,0,.5,0,.5,0,.5,0,.5,0,.5,0,.5,0,.5,0,.5,0,.5,0,.5,0,.5,0,.5,0,.5,0,.5,0,.5,0,.5,0,.5,0c22.95,0,41.61-30.67,41.61-68.37S72.56,44.09,49.62,44.09Zm-5,132.55c-18.6-4.19-33-31.36-33-64.19,0-29.22,11.42-54,27.06-62l1.55,2.24,5.83-4C64,53.85,77.63,80.47,77.63,112.45,77.63,145.28,63.22,172.46,44.62,176.64Z"/>
</svg>
