<svg id="Layer_2" data-name="Layer 2" xmlns="http://www.w3.org/2000/svg" width="89.33" height="200" viewBox="0 0 89.33 200">
  <title>_</title>
  <path d="M90.56,112.45c0-34.3-15.46-62.78-35.53-67.63l11.4-16.41-8.87-6.16L42.39,44.11l-.43,0-.5,0-.5,0-.5,0-.5,0-.5,0-.5,0C16,44.09-2.66,74.76-2.66,112.45S16,180.82,39,180.82l.5,0,.5,0,.5,0,.5,0,.5,0,.5,0,.5,0,.5,0,.5,0,.5,0,.5,0,.5,0,.5,0,.5,0,.5,0,.5,0,.5,0,.5,0,.5,0,.5,0C71.9,180.82,90.56,150.15,90.56,112.45ZM44,176.64c-18.6-4.19-33-31.36-33-64.19,0-30.76,12.66-56.56,29.56-63.13l7.7,5.35,2.6-3.75C66,59.43,77,83.79,77,112.45,77,145.28,62.56,172.46,44,176.64Z"/>
</svg>
