<svg id="Layer_2" data-name="Layer 2" xmlns="http://www.w3.org/2000/svg" width="89.33" height="200" viewBox="0 0 89.33 200">
  <title>_</title>
  <g>
    <path d="M49,44.09l-.5,0-.5,0-.5,0-.5,0-.5,0-.5,0-.5,0-.5,0-.5,0-.5,0-.5,0-.5,0-.5,0-.5,0-.5,0-.5,0-.5,0-.5,0-.5,0-.5,0C16,44.09-2.66,74.76-2.66,112.45S16,180.82,39,180.82l.5,0,.5,0,.5,0,.5,0,.5,0,.5,0,.5,0,.5,0,.5,0,.5,0,.5,0,.5,0,.5,0,.5,0,.5,0,.5,0,.5,0,.5,0,.5,0,.5,0c22.95,0,41.61-30.67,41.61-68.37S71.9,44.09,49,44.09ZM44,176.64c-18.6-4.19-33-31.36-33-64.19s14.41-60,33-64.19c18.6,4.19,33,31.36,33,64.19S62.56,172.46,44,176.64Z"/>
    <path d="M46.09,16.53a1.75,1.75,0,0,1,1.63,1.06l13,28.33,9.81-4.52-13-28.33a12.62,12.62,0,0,0-22.76-.37L20.83,40.58l9.66,4.83L44.43,17.54A1.7,1.7,0,0,1,46.09,16.53Z"/>
  </g>
</svg>
