<svg id="Layer_2" data-name="Layer 2" xmlns="http://www.w3.org/2000/svg" width="89.33" height="200" viewBox="0 0 89.33 200">
  <title>_</title>
  <g>
    <path d="M50.29,44.09l-.5,0-.5,0-.5,0-.5,0-.5,0-.5,0-.5,0-.5,0-.5,0-.5,0-.5,0-.5,0-.5,0-.5,0-.5,0-.5,0-.5,0-.5,0-.5,0-.5,0c-22.95,0-41.61,30.67-41.61,68.37s18.67,68.37,41.61,68.37l.5,0,.5,0,.5,0,.5,0,.5,0,.5,0,.5,0,.5,0,.5,0,.5,0,.5,0,.5,0,.5,0,.5,0,.5,0,.5,0,.5,0,.5,0,.5,0,.5,0c22.95,0,41.61-30.67,41.61-68.37S73.23,44.09,50.29,44.09Zm-5,132.55c-18.6-4.19-33-31.36-33-64.19s14.41-60,33-64.19c18.6,4.19,33,31.36,33,64.19S63.89,172.46,45.29,176.64Z"/>
    <path d="M29,37a6.25,6.25,0,0,1,10.35-3.1L43.72,38a16.89,16.89,0,0,0,11.58,4.62,17.29,17.29,0,0,0,5-.73A16.89,16.89,0,0,0,72,29.54L61.46,27a6.25,6.25,0,0,1-10.35,3.1L46.74,26a17.05,17.05,0,0,0-28.23,8.45l-.78,3.24,10.5,2.53Z"/>
  </g>
</svg>
