<svg id="Layer_2" data-name="Layer 2" xmlns="http://www.w3.org/2000/svg" width="90" height="200" viewBox="0 0 90 200">
  <title>_</title>
  <g>
    <path d="M49.62,44.09l-.5,0-.5,0-.5,0-.5,0-.5,0-.5,0-.5,0-.5,0-.5,0-.5,0-.5,0-.5,0-.5,0-.5,0-.5,0-.5,0-.5,0-.5,0-.5,0-.5,0C16.67,44.09-2,74.76-2,112.45s18.67,68.37,41.61,68.37l.5,0,.5,0,.5,0,.5,0,.5,0,.5,0,.5,0,.5,0,.5,0,.5,0,.5,0,.5,0,.5,0,.5,0,.5,0,.5,0,.5,0,.5,0,.5,0,.5,0c22.95,0,41.61-30.67,41.61-68.37S72.56,44.09,49.62,44.09Zm-5,132.55c-18.6-4.19-33-31.36-33-64.19s14.41-60,33-64.19c18.6,4.19,33,31.36,33,64.19S63.22,172.46,44.62,176.64Z"/>
    <path d="M8.77,26A16.65,16.65,0,1,0,25.42,9.35,16.67,16.67,0,0,0,8.77,26Z"/>
    <path d="M62.42,42.65A16.65,16.65,0,1,0,45.77,26,16.67,16.67,0,0,0,62.42,42.65Z"/>
  </g>
</svg>
