<svg id="Layer_2" data-name="Layer 2" xmlns="http://www.w3.org/2000/svg" width="94.67" height="200" viewBox="0 0 94.67 200">
  <title>_</title>
  <g>
    <path d="M92.62,44.76H81V165.14c0,6.8-6.65,12.33-14.82,12.33h-37c-8.17,0-14.82-5.53-14.82-12.33V44.61H.73V165.14c0,8.78,8.26,15.93,18.42,15.93h57c10.16,0,18.42-7.15,18.42-15.93V44.76h-2Z"/>
    <path d="M31.67,50.34A6.25,6.25,0,0,1,42,47.25l4.36,4.08A16.88,16.88,0,0,0,58,55.95a17.29,17.29,0,0,0,5-.73A16.89,16.89,0,0,0,74.62,42.88l-10.5-2.53a6.25,6.25,0,0,1-10.35,3.1l-4.36-4.08a17.06,17.06,0,0,0-28.23,8.45l-.78,3.24,10.5,2.53Z"/>
  </g>
</svg>
