<svg id="Layer_2" data-name="Layer 2" xmlns="http://www.w3.org/2000/svg" width="96" height="200" viewBox="0 0 96 200">
  <title>_</title>
  <g>
    <path d="M92.62,44.76H81V165.14c0,6.8-6.65,12.33-14.82,12.33h-37c-8.17,0-14.82-5.53-14.82-12.33V44.61H.73V165.14c0,8.78,8.26,15.93,18.42,15.93h57c10.16,0,18.42-7.15,18.42-15.93V44.76h-2Z"/>
    <path d="M11.1,26A16.65,16.65,0,1,0,27.75,9.35,16.67,16.67,0,0,0,11.1,26Z"/>
    <path d="M64.75,9.35A16.65,16.65,0,1,0,81.4,26,16.67,16.67,0,0,0,64.75,9.35Z"/>
  </g>
</svg>
