<svg id="Layer_2" data-name="Layer 2" xmlns="http://www.w3.org/2000/svg" width="96.67" height="200" viewBox="0 0 96.67 200">
  <title>_</title>
  <g>
    <rect x="43.08" y="137.56" width="10.8" height="42.44"/>
    <path d="M93.56,38.17H82a97,97,0,0,1-11.7,45.32l-21.54,46-21-44.27-.06-.11A97.16,97.16,0,0,1,15.5,39v-.82H1.9V39A100.88,100.88,0,0,0,14.49,86.84l21.79,45.9c1.36,2.62,4.75,3.56,7.46,3.56l.5,0,.5,0,.5,0,.5,0,.5,0,.5,0,.5,0,.5,0,.5,0,.5,0,.5,0,.5,0,.5,0,.5,0,.5,0,.5,0,.5,0,.5,0,.5,0,.5,0c2.71,0,6.09-.93,7.49-3.63l22.23-47.5a100.7,100.7,0,0,0,12.12-47h-2Z"/>
    <rect x="40.9" y="27.06" width="31.97" height="10.8" transform="translate(-2.23 60.66) rotate(-55.22)"/>
  </g>
</svg>
