<svg id="Layer_2" data-name="Layer 2" xmlns="http://www.w3.org/2000/svg" width="92.67" height="200" viewBox="0 0 92.67 200">
  <title>_</title>
  <g>
    <rect x="40.41" y="137.56" width="10.8" height="42.44"/>
    <path d="M90.9,38.17H79.3A97,97,0,0,1,67.6,83.49l-21.54,46L25,85.24,25,85.13A97.16,97.16,0,0,1,12.83,39v-.82H-.77V39A100.88,100.88,0,0,0,11.82,86.84l21.79,45.9c1.36,2.62,4.75,3.56,7.46,3.56l.5,0,.5,0,.5,0,.5,0,.5,0,.5,0,.5,0,.5,0,.5,0,.5,0,.5,0,.5,0,.5,0,.5,0,.5,0,.5,0,.5,0,.5,0,.5,0,.5,0c2.71,0,6.09-.93,7.49-3.63l22.23-47.5a100.7,100.7,0,0,0,12.12-47h-2Z"/>
    <path d="M27.75,9.35A16.65,16.65,0,1,0,44.4,26,16.67,16.67,0,0,0,27.75,9.35Z"/>
    <path d="M48.1,26A16.65,16.65,0,1,0,64.75,9.35,16.67,16.67,0,0,0,48.1,26Z"/>
  </g>
</svg>
